%TF.GenerationSoftware,KiCad,Pcbnew,(5.1.6-0-10_14)*%
%TF.CreationDate,2020-10-05T23:02:53+09:00*%
%TF.ProjectId,RF920A,52463932-3041-42e6-9b69-6361645f7063,rev?*%
%TF.SameCoordinates,Original*%
%TF.FileFunction,Soldermask,Top*%
%TF.FilePolarity,Negative*%
%FSLAX46Y46*%
G04 Gerber Fmt 4.6, Leading zero omitted, Abs format (unit mm)*
G04 Created by KiCad (PCBNEW (5.1.6-0-10_14)) date 2020-10-05 23:02:53*
%MOMM*%
%LPD*%
G01*
G04 APERTURE LIST*
%ADD10O,1.700000X0.900000*%
%ADD11R,0.700000X1.600000*%
%ADD12R,1.600000X0.700000*%
%ADD13C,0.100000*%
%ADD14O,0.900000X1.700000*%
%ADD15R,0.800000X0.400000*%
%ADD16R,0.400000X0.800000*%
%ADD17R,4.300000X4.300000*%
%ADD18R,2.300000X1.150000*%
%ADD19R,1.150000X1.100000*%
%ADD20R,0.950000X0.850000*%
%ADD21C,0.350000*%
%ADD22R,0.350000X0.525000*%
%ADD23R,0.525000X0.425000*%
%ADD24C,1.100000*%
G04 APERTURE END LIST*
D10*
%TO.C,REF\u002A\u002A*%
X162075000Y-107000000D03*
D11*
X150800000Y-100500000D03*
D12*
X155800000Y-107100000D03*
D13*
G36*
X167490245Y-107449039D02*
G01*
X167480866Y-107446194D01*
X167472221Y-107441573D01*
X167464645Y-107435355D01*
X167458427Y-107427779D01*
X167453806Y-107419134D01*
X167450961Y-107409755D01*
X167450000Y-107400000D01*
X167450000Y-106800000D01*
X167450961Y-106790245D01*
X167453806Y-106780866D01*
X167458427Y-106772221D01*
X167464645Y-106764645D01*
X167472221Y-106758427D01*
X167480866Y-106753806D01*
X167490245Y-106750961D01*
X167500000Y-106750000D01*
X168850000Y-106750000D01*
X168850000Y-105400000D01*
X168850961Y-105390245D01*
X168853806Y-105380866D01*
X168858427Y-105372221D01*
X168864645Y-105364645D01*
X168872221Y-105358427D01*
X168880866Y-105353806D01*
X168890245Y-105350961D01*
X168900000Y-105350000D01*
X169500000Y-105350000D01*
X169509755Y-105350961D01*
X169519134Y-105353806D01*
X169527779Y-105358427D01*
X169535355Y-105364645D01*
X169541573Y-105372221D01*
X169546194Y-105380866D01*
X169549039Y-105390245D01*
X169550000Y-105400000D01*
X169550000Y-107400000D01*
X169549039Y-107409755D01*
X169546194Y-107419134D01*
X169541573Y-107427779D01*
X169535355Y-107435355D01*
X169527779Y-107441573D01*
X169519134Y-107446194D01*
X169509755Y-107449039D01*
X169500000Y-107450000D01*
X167500000Y-107450000D01*
X167490245Y-107449039D01*
G37*
G36*
X169449039Y-94509755D02*
G01*
X169446194Y-94519134D01*
X169441573Y-94527779D01*
X169435355Y-94535355D01*
X169427779Y-94541573D01*
X169419134Y-94546194D01*
X169409755Y-94549039D01*
X169400000Y-94550000D01*
X168800000Y-94550000D01*
X168790245Y-94549039D01*
X168780866Y-94546194D01*
X168772221Y-94541573D01*
X168764645Y-94535355D01*
X168758427Y-94527779D01*
X168753806Y-94519134D01*
X168750961Y-94509755D01*
X168750000Y-94500000D01*
X168750000Y-93150000D01*
X167400000Y-93150000D01*
X167390245Y-93149039D01*
X167380866Y-93146194D01*
X167372221Y-93141573D01*
X167364645Y-93135355D01*
X167358427Y-93127779D01*
X167353806Y-93119134D01*
X167350961Y-93109755D01*
X167350000Y-93100000D01*
X167350000Y-92500000D01*
X167350961Y-92490245D01*
X167353806Y-92480866D01*
X167358427Y-92472221D01*
X167364645Y-92464645D01*
X167372221Y-92458427D01*
X167380866Y-92453806D01*
X167390245Y-92450961D01*
X167400000Y-92450000D01*
X169400000Y-92450000D01*
X169409755Y-92450961D01*
X169419134Y-92453806D01*
X169427779Y-92458427D01*
X169435355Y-92464645D01*
X169441573Y-92472221D01*
X169446194Y-92480866D01*
X169449039Y-92490245D01*
X169450000Y-92500000D01*
X169450000Y-94500000D01*
X169449039Y-94509755D01*
G37*
D14*
X151000000Y-96875000D03*
D13*
G36*
X152509755Y-92550961D02*
G01*
X152519134Y-92553806D01*
X152527779Y-92558427D01*
X152535355Y-92564645D01*
X152541573Y-92572221D01*
X152546194Y-92580866D01*
X152549039Y-92590245D01*
X152550000Y-92600000D01*
X152550000Y-93200000D01*
X152549039Y-93209755D01*
X152546194Y-93219134D01*
X152541573Y-93227779D01*
X152535355Y-93235355D01*
X152527779Y-93241573D01*
X152519134Y-93246194D01*
X152509755Y-93249039D01*
X152500000Y-93250000D01*
X151150000Y-93250000D01*
X151150000Y-94600000D01*
X151149039Y-94609755D01*
X151146194Y-94619134D01*
X151141573Y-94627779D01*
X151135355Y-94635355D01*
X151127779Y-94641573D01*
X151119134Y-94646194D01*
X151109755Y-94649039D01*
X151100000Y-94650000D01*
X150500000Y-94650000D01*
X150490245Y-94649039D01*
X150480866Y-94646194D01*
X150472221Y-94641573D01*
X150464645Y-94635355D01*
X150458427Y-94627779D01*
X150453806Y-94619134D01*
X150450961Y-94609755D01*
X150450000Y-94600000D01*
X150450000Y-92600000D01*
X150450961Y-92590245D01*
X150453806Y-92580866D01*
X150458427Y-92572221D01*
X150464645Y-92564645D01*
X150472221Y-92558427D01*
X150480866Y-92553806D01*
X150490245Y-92550961D01*
X150500000Y-92550000D01*
X152500000Y-92550000D01*
X152509755Y-92550961D01*
G37*
%TD*%
D15*
%TO.C,U1*%
X164725000Y-97350000D03*
X164725000Y-97875000D03*
D16*
X164050000Y-102525000D03*
X163550000Y-102525000D03*
D15*
X158875000Y-101850000D03*
X158875000Y-101350000D03*
D16*
X159550000Y-96675000D03*
X160050000Y-96675000D03*
D15*
X164725000Y-98350000D03*
X164725000Y-98850000D03*
X164725000Y-99350000D03*
X164725000Y-99850000D03*
X164725000Y-100350000D03*
X164725000Y-100850000D03*
X164725000Y-101350000D03*
X164725000Y-101850000D03*
D16*
X163050000Y-102525000D03*
X162550000Y-102525000D03*
X162050000Y-102525000D03*
X161550000Y-102525000D03*
X161050000Y-102525000D03*
X160550000Y-102525000D03*
X160050000Y-102525000D03*
X159550000Y-102525000D03*
D15*
X158875000Y-100850000D03*
X158875000Y-100350000D03*
X158875000Y-99850000D03*
X158875000Y-99350000D03*
X158875000Y-98850000D03*
X158875000Y-98350000D03*
X158875000Y-97850000D03*
X158875000Y-97350000D03*
D16*
X160550000Y-96675000D03*
X161050000Y-96675000D03*
X161550000Y-96675000D03*
X162050000Y-96675000D03*
X162550000Y-96675000D03*
X163050000Y-96675000D03*
X163550000Y-96675000D03*
X164050000Y-96675000D03*
D17*
X161800000Y-99600000D03*
%TD*%
%TO.C,L10*%
G36*
G01*
X154570000Y-99125000D02*
X154570000Y-98875000D01*
G75*
G02*
X154695000Y-98750000I125000J0D01*
G01*
X155005000Y-98750000D01*
G75*
G02*
X155130000Y-98875000I0J-125000D01*
G01*
X155130000Y-99125000D01*
G75*
G02*
X155005000Y-99250000I-125000J0D01*
G01*
X154695000Y-99250000D01*
G75*
G02*
X154570000Y-99125000I0J125000D01*
G01*
G37*
G36*
G01*
X153930000Y-99125000D02*
X153930000Y-98875000D01*
G75*
G02*
X154055000Y-98750000I125000J0D01*
G01*
X154365000Y-98750000D01*
G75*
G02*
X154490000Y-98875000I0J-125000D01*
G01*
X154490000Y-99125000D01*
G75*
G02*
X154365000Y-99250000I-125000J0D01*
G01*
X154055000Y-99250000D01*
G75*
G02*
X153930000Y-99125000I0J125000D01*
G01*
G37*
%TD*%
D18*
%TO.C,U2*%
X152290000Y-105975000D03*
D19*
X153815000Y-104500000D03*
D18*
X152290000Y-103025000D03*
%TD*%
D20*
%TO.C,U5*%
X160575000Y-95175000D03*
X159250000Y-95175000D03*
X159250000Y-94125000D03*
X160575000Y-94125000D03*
%TD*%
%TO.C,C1*%
G36*
G01*
X167018750Y-105300000D02*
X167581250Y-105300000D01*
G75*
G02*
X167825000Y-105543750I0J-243750D01*
G01*
X167825000Y-106031250D01*
G75*
G02*
X167581250Y-106275000I-243750J0D01*
G01*
X167018750Y-106275000D01*
G75*
G02*
X166775000Y-106031250I0J243750D01*
G01*
X166775000Y-105543750D01*
G75*
G02*
X167018750Y-105300000I243750J0D01*
G01*
G37*
G36*
G01*
X167018750Y-103725000D02*
X167581250Y-103725000D01*
G75*
G02*
X167825000Y-103968750I0J-243750D01*
G01*
X167825000Y-104456250D01*
G75*
G02*
X167581250Y-104700000I-243750J0D01*
G01*
X167018750Y-104700000D01*
G75*
G02*
X166775000Y-104456250I0J243750D01*
G01*
X166775000Y-103968750D01*
G75*
G02*
X167018750Y-103725000I243750J0D01*
G01*
G37*
%TD*%
%TO.C,C19*%
G36*
G01*
X167472500Y-96610000D02*
X167867500Y-96610000D01*
G75*
G02*
X168040000Y-96782500I0J-172500D01*
G01*
X168040000Y-97127500D01*
G75*
G02*
X167867500Y-97300000I-172500J0D01*
G01*
X167472500Y-97300000D01*
G75*
G02*
X167300000Y-97127500I0J172500D01*
G01*
X167300000Y-96782500D01*
G75*
G02*
X167472500Y-96610000I172500J0D01*
G01*
G37*
G36*
G01*
X167472500Y-95640000D02*
X167867500Y-95640000D01*
G75*
G02*
X168040000Y-95812500I0J-172500D01*
G01*
X168040000Y-96157500D01*
G75*
G02*
X167867500Y-96330000I-172500J0D01*
G01*
X167472500Y-96330000D01*
G75*
G02*
X167300000Y-96157500I0J172500D01*
G01*
X167300000Y-95812500D01*
G75*
G02*
X167472500Y-95640000I172500J0D01*
G01*
G37*
%TD*%
%TO.C,C13*%
G36*
G01*
X164162500Y-94581250D02*
X164162500Y-94018750D01*
G75*
G02*
X164406250Y-93775000I243750J0D01*
G01*
X164893750Y-93775000D01*
G75*
G02*
X165137500Y-94018750I0J-243750D01*
G01*
X165137500Y-94581250D01*
G75*
G02*
X164893750Y-94825000I-243750J0D01*
G01*
X164406250Y-94825000D01*
G75*
G02*
X164162500Y-94581250I0J243750D01*
G01*
G37*
G36*
G01*
X162587500Y-94581250D02*
X162587500Y-94018750D01*
G75*
G02*
X162831250Y-93775000I243750J0D01*
G01*
X163318750Y-93775000D01*
G75*
G02*
X163562500Y-94018750I0J-243750D01*
G01*
X163562500Y-94581250D01*
G75*
G02*
X163318750Y-94825000I-243750J0D01*
G01*
X162831250Y-94825000D01*
G75*
G02*
X162587500Y-94581250I0J243750D01*
G01*
G37*
%TD*%
%TO.C,C11*%
G36*
G01*
X166637500Y-94018750D02*
X166637500Y-94581250D01*
G75*
G02*
X166393750Y-94825000I-243750J0D01*
G01*
X165906250Y-94825000D01*
G75*
G02*
X165662500Y-94581250I0J243750D01*
G01*
X165662500Y-94018750D01*
G75*
G02*
X165906250Y-93775000I243750J0D01*
G01*
X166393750Y-93775000D01*
G75*
G02*
X166637500Y-94018750I0J-243750D01*
G01*
G37*
G36*
G01*
X168212500Y-94018750D02*
X168212500Y-94581250D01*
G75*
G02*
X167968750Y-94825000I-243750J0D01*
G01*
X167481250Y-94825000D01*
G75*
G02*
X167237500Y-94581250I0J243750D01*
G01*
X167237500Y-94018750D01*
G75*
G02*
X167481250Y-93775000I243750J0D01*
G01*
X167968750Y-93775000D01*
G75*
G02*
X168212500Y-94018750I0J-243750D01*
G01*
G37*
%TD*%
%TO.C,C16*%
G36*
G01*
X157850000Y-94385000D02*
X157600000Y-94385000D01*
G75*
G02*
X157475000Y-94260000I0J125000D01*
G01*
X157475000Y-93950000D01*
G75*
G02*
X157600000Y-93825000I125000J0D01*
G01*
X157850000Y-93825000D01*
G75*
G02*
X157975000Y-93950000I0J-125000D01*
G01*
X157975000Y-94260000D01*
G75*
G02*
X157850000Y-94385000I-125000J0D01*
G01*
G37*
G36*
G01*
X157850000Y-95025000D02*
X157600000Y-95025000D01*
G75*
G02*
X157475000Y-94900000I0J125000D01*
G01*
X157475000Y-94590000D01*
G75*
G02*
X157600000Y-94465000I125000J0D01*
G01*
X157850000Y-94465000D01*
G75*
G02*
X157975000Y-94590000I0J-125000D01*
G01*
X157975000Y-94900000D01*
G75*
G02*
X157850000Y-95025000I-125000J0D01*
G01*
G37*
%TD*%
%TO.C,C42*%
G36*
G01*
X161030000Y-105775000D02*
X161030000Y-106025000D01*
G75*
G02*
X160905000Y-106150000I-125000J0D01*
G01*
X160595000Y-106150000D01*
G75*
G02*
X160470000Y-106025000I0J125000D01*
G01*
X160470000Y-105775000D01*
G75*
G02*
X160595000Y-105650000I125000J0D01*
G01*
X160905000Y-105650000D01*
G75*
G02*
X161030000Y-105775000I0J-125000D01*
G01*
G37*
G36*
G01*
X161670000Y-105775000D02*
X161670000Y-106025000D01*
G75*
G02*
X161545000Y-106150000I-125000J0D01*
G01*
X161235000Y-106150000D01*
G75*
G02*
X161110000Y-106025000I0J125000D01*
G01*
X161110000Y-105775000D01*
G75*
G02*
X161235000Y-105650000I125000J0D01*
G01*
X161545000Y-105650000D01*
G75*
G02*
X161670000Y-105775000I0J-125000D01*
G01*
G37*
%TD*%
D21*
%TO.C,U6*%
X155600000Y-95800000D03*
X155600000Y-96200000D03*
X156000000Y-95800000D03*
X156000000Y-96200000D03*
X156400000Y-96200000D03*
X156400000Y-95800000D03*
%TD*%
D22*
%TO.C,U4*%
X162875000Y-105937500D03*
X162875000Y-105262500D03*
D23*
X162237500Y-105887500D03*
X162237500Y-105312500D03*
X163462500Y-105600000D03*
%TD*%
%TO.C,U3*%
G36*
G01*
X157893201Y-106100000D02*
X156606799Y-106100000D01*
G75*
G02*
X156550000Y-106043201I0J56799D01*
G01*
X156550000Y-105356799D01*
G75*
G02*
X156606799Y-105300000I56799J0D01*
G01*
X157893201Y-105300000D01*
G75*
G02*
X157950000Y-105356799I0J-56799D01*
G01*
X157950000Y-106043201D01*
G75*
G02*
X157893201Y-106100000I-56799J0D01*
G01*
G37*
G36*
G01*
X156855000Y-105200000D02*
X156645000Y-105200000D01*
G75*
G02*
X156575000Y-105130000I0J70000D01*
G01*
X156575000Y-104820000D01*
G75*
G02*
X156645000Y-104750000I70000J0D01*
G01*
X156855000Y-104750000D01*
G75*
G02*
X156925000Y-104820000I0J-70000D01*
G01*
X156925000Y-105130000D01*
G75*
G02*
X156855000Y-105200000I-70000J0D01*
G01*
G37*
G36*
G01*
X157355000Y-105200000D02*
X157145000Y-105200000D01*
G75*
G02*
X157075000Y-105130000I0J70000D01*
G01*
X157075000Y-104820000D01*
G75*
G02*
X157145000Y-104750000I70000J0D01*
G01*
X157355000Y-104750000D01*
G75*
G02*
X157425000Y-104820000I0J-70000D01*
G01*
X157425000Y-105130000D01*
G75*
G02*
X157355000Y-105200000I-70000J0D01*
G01*
G37*
G36*
G01*
X157880000Y-105200000D02*
X157670000Y-105200000D01*
G75*
G02*
X157600000Y-105130000I0J70000D01*
G01*
X157600000Y-104820000D01*
G75*
G02*
X157670000Y-104750000I70000J0D01*
G01*
X157880000Y-104750000D01*
G75*
G02*
X157950000Y-104820000I0J-70000D01*
G01*
X157950000Y-105130000D01*
G75*
G02*
X157880000Y-105200000I-70000J0D01*
G01*
G37*
G36*
G01*
X157855000Y-106650000D02*
X157645000Y-106650000D01*
G75*
G02*
X157575000Y-106580000I0J70000D01*
G01*
X157575000Y-106270000D01*
G75*
G02*
X157645000Y-106200000I70000J0D01*
G01*
X157855000Y-106200000D01*
G75*
G02*
X157925000Y-106270000I0J-70000D01*
G01*
X157925000Y-106580000D01*
G75*
G02*
X157855000Y-106650000I-70000J0D01*
G01*
G37*
G36*
G01*
X157355000Y-106650000D02*
X157145000Y-106650000D01*
G75*
G02*
X157075000Y-106580000I0J70000D01*
G01*
X157075000Y-106270000D01*
G75*
G02*
X157145000Y-106200000I70000J0D01*
G01*
X157355000Y-106200000D01*
G75*
G02*
X157425000Y-106270000I0J-70000D01*
G01*
X157425000Y-106580000D01*
G75*
G02*
X157355000Y-106650000I-70000J0D01*
G01*
G37*
G36*
G01*
X156855000Y-106650000D02*
X156645000Y-106650000D01*
G75*
G02*
X156575000Y-106580000I0J70000D01*
G01*
X156575000Y-106270000D01*
G75*
G02*
X156645000Y-106200000I70000J0D01*
G01*
X156855000Y-106200000D01*
G75*
G02*
X156925000Y-106270000I0J-70000D01*
G01*
X156925000Y-106580000D01*
G75*
G02*
X156855000Y-106650000I-70000J0D01*
G01*
G37*
%TD*%
%TO.C,R5*%
G36*
G01*
X157405000Y-96040000D02*
X157655000Y-96040000D01*
G75*
G02*
X157780000Y-96165000I0J-125000D01*
G01*
X157780000Y-96475000D01*
G75*
G02*
X157655000Y-96600000I-125000J0D01*
G01*
X157405000Y-96600000D01*
G75*
G02*
X157280000Y-96475000I0J125000D01*
G01*
X157280000Y-96165000D01*
G75*
G02*
X157405000Y-96040000I125000J0D01*
G01*
G37*
G36*
G01*
X157405000Y-95400000D02*
X157655000Y-95400000D01*
G75*
G02*
X157780000Y-95525000I0J-125000D01*
G01*
X157780000Y-95835000D01*
G75*
G02*
X157655000Y-95960000I-125000J0D01*
G01*
X157405000Y-95960000D01*
G75*
G02*
X157280000Y-95835000I0J125000D01*
G01*
X157280000Y-95525000D01*
G75*
G02*
X157405000Y-95400000I125000J0D01*
G01*
G37*
%TD*%
%TO.C,R6*%
G36*
G01*
X156265000Y-94290000D02*
X156515000Y-94290000D01*
G75*
G02*
X156640000Y-94415000I0J-125000D01*
G01*
X156640000Y-94725000D01*
G75*
G02*
X156515000Y-94850000I-125000J0D01*
G01*
X156265000Y-94850000D01*
G75*
G02*
X156140000Y-94725000I0J125000D01*
G01*
X156140000Y-94415000D01*
G75*
G02*
X156265000Y-94290000I125000J0D01*
G01*
G37*
G36*
G01*
X156265000Y-93650000D02*
X156515000Y-93650000D01*
G75*
G02*
X156640000Y-93775000I0J-125000D01*
G01*
X156640000Y-94085000D01*
G75*
G02*
X156515000Y-94210000I-125000J0D01*
G01*
X156265000Y-94210000D01*
G75*
G02*
X156140000Y-94085000I0J125000D01*
G01*
X156140000Y-93775000D01*
G75*
G02*
X156265000Y-93650000I125000J0D01*
G01*
G37*
%TD*%
%TO.C,R7*%
G36*
G01*
X154635000Y-94190000D02*
X154385000Y-94190000D01*
G75*
G02*
X154260000Y-94065000I0J125000D01*
G01*
X154260000Y-93755000D01*
G75*
G02*
X154385000Y-93630000I125000J0D01*
G01*
X154635000Y-93630000D01*
G75*
G02*
X154760000Y-93755000I0J-125000D01*
G01*
X154760000Y-94065000D01*
G75*
G02*
X154635000Y-94190000I-125000J0D01*
G01*
G37*
G36*
G01*
X154635000Y-94830000D02*
X154385000Y-94830000D01*
G75*
G02*
X154260000Y-94705000I0J125000D01*
G01*
X154260000Y-94395000D01*
G75*
G02*
X154385000Y-94270000I125000J0D01*
G01*
X154635000Y-94270000D01*
G75*
G02*
X154760000Y-94395000I0J-125000D01*
G01*
X154760000Y-94705000D01*
G75*
G02*
X154635000Y-94830000I-125000J0D01*
G01*
G37*
%TD*%
%TO.C,R8*%
G36*
G01*
X167675000Y-98060000D02*
X167425000Y-98060000D01*
G75*
G02*
X167300000Y-97935000I0J125000D01*
G01*
X167300000Y-97625000D01*
G75*
G02*
X167425000Y-97500000I125000J0D01*
G01*
X167675000Y-97500000D01*
G75*
G02*
X167800000Y-97625000I0J-125000D01*
G01*
X167800000Y-97935000D01*
G75*
G02*
X167675000Y-98060000I-125000J0D01*
G01*
G37*
G36*
G01*
X167675000Y-98700000D02*
X167425000Y-98700000D01*
G75*
G02*
X167300000Y-98575000I0J125000D01*
G01*
X167300000Y-98265000D01*
G75*
G02*
X167425000Y-98140000I125000J0D01*
G01*
X167675000Y-98140000D01*
G75*
G02*
X167800000Y-98265000I0J-125000D01*
G01*
X167800000Y-98575000D01*
G75*
G02*
X167675000Y-98700000I-125000J0D01*
G01*
G37*
%TD*%
%TO.C,R9*%
G36*
G01*
X166580000Y-102137000D02*
X166580000Y-101887000D01*
G75*
G02*
X166705000Y-101762000I125000J0D01*
G01*
X167015000Y-101762000D01*
G75*
G02*
X167140000Y-101887000I0J-125000D01*
G01*
X167140000Y-102137000D01*
G75*
G02*
X167015000Y-102262000I-125000J0D01*
G01*
X166705000Y-102262000D01*
G75*
G02*
X166580000Y-102137000I0J125000D01*
G01*
G37*
G36*
G01*
X165940000Y-102137000D02*
X165940000Y-101887000D01*
G75*
G02*
X166065000Y-101762000I125000J0D01*
G01*
X166375000Y-101762000D01*
G75*
G02*
X166500000Y-101887000I0J-125000D01*
G01*
X166500000Y-102137000D01*
G75*
G02*
X166375000Y-102262000I-125000J0D01*
G01*
X166065000Y-102262000D01*
G75*
G02*
X165940000Y-102137000I0J125000D01*
G01*
G37*
%TD*%
%TO.C,L1*%
G36*
G01*
X166275000Y-99460000D02*
X166025000Y-99460000D01*
G75*
G02*
X165900000Y-99335000I0J125000D01*
G01*
X165900000Y-99025000D01*
G75*
G02*
X166025000Y-98900000I125000J0D01*
G01*
X166275000Y-98900000D01*
G75*
G02*
X166400000Y-99025000I0J-125000D01*
G01*
X166400000Y-99335000D01*
G75*
G02*
X166275000Y-99460000I-125000J0D01*
G01*
G37*
G36*
G01*
X166275000Y-100100000D02*
X166025000Y-100100000D01*
G75*
G02*
X165900000Y-99975000I0J125000D01*
G01*
X165900000Y-99665000D01*
G75*
G02*
X166025000Y-99540000I125000J0D01*
G01*
X166275000Y-99540000D01*
G75*
G02*
X166400000Y-99665000I0J-125000D01*
G01*
X166400000Y-99975000D01*
G75*
G02*
X166275000Y-100100000I-125000J0D01*
G01*
G37*
%TD*%
%TO.C,L2*%
G36*
G01*
X162050000Y-104120000D02*
X162300000Y-104120000D01*
G75*
G02*
X162425000Y-104245000I0J-125000D01*
G01*
X162425000Y-104555000D01*
G75*
G02*
X162300000Y-104680000I-125000J0D01*
G01*
X162050000Y-104680000D01*
G75*
G02*
X161925000Y-104555000I0J125000D01*
G01*
X161925000Y-104245000D01*
G75*
G02*
X162050000Y-104120000I125000J0D01*
G01*
G37*
G36*
G01*
X162050000Y-103480000D02*
X162300000Y-103480000D01*
G75*
G02*
X162425000Y-103605000I0J-125000D01*
G01*
X162425000Y-103915000D01*
G75*
G02*
X162300000Y-104040000I-125000J0D01*
G01*
X162050000Y-104040000D01*
G75*
G02*
X161925000Y-103915000I0J125000D01*
G01*
X161925000Y-103605000D01*
G75*
G02*
X162050000Y-103480000I125000J0D01*
G01*
G37*
%TD*%
%TO.C,L3*%
G36*
G01*
X165460000Y-105325000D02*
X165460000Y-105075000D01*
G75*
G02*
X165585000Y-104950000I125000J0D01*
G01*
X165895000Y-104950000D01*
G75*
G02*
X166020000Y-105075000I0J-125000D01*
G01*
X166020000Y-105325000D01*
G75*
G02*
X165895000Y-105450000I-125000J0D01*
G01*
X165585000Y-105450000D01*
G75*
G02*
X165460000Y-105325000I0J125000D01*
G01*
G37*
G36*
G01*
X164820000Y-105325000D02*
X164820000Y-105075000D01*
G75*
G02*
X164945000Y-104950000I125000J0D01*
G01*
X165255000Y-104950000D01*
G75*
G02*
X165380000Y-105075000I0J-125000D01*
G01*
X165380000Y-105325000D01*
G75*
G02*
X165255000Y-105450000I-125000J0D01*
G01*
X164945000Y-105450000D01*
G75*
G02*
X164820000Y-105325000I0J125000D01*
G01*
G37*
%TD*%
%TO.C,L5*%
G36*
G01*
X159925000Y-104140000D02*
X160175000Y-104140000D01*
G75*
G02*
X160300000Y-104265000I0J-125000D01*
G01*
X160300000Y-104575000D01*
G75*
G02*
X160175000Y-104700000I-125000J0D01*
G01*
X159925000Y-104700000D01*
G75*
G02*
X159800000Y-104575000I0J125000D01*
G01*
X159800000Y-104265000D01*
G75*
G02*
X159925000Y-104140000I125000J0D01*
G01*
G37*
G36*
G01*
X159925000Y-103500000D02*
X160175000Y-103500000D01*
G75*
G02*
X160300000Y-103625000I0J-125000D01*
G01*
X160300000Y-103935000D01*
G75*
G02*
X160175000Y-104060000I-125000J0D01*
G01*
X159925000Y-104060000D01*
G75*
G02*
X159800000Y-103935000I0J125000D01*
G01*
X159800000Y-103625000D01*
G75*
G02*
X159925000Y-103500000I125000J0D01*
G01*
G37*
%TD*%
%TO.C,L4*%
G36*
G01*
X165515000Y-106371000D02*
X165515000Y-106121000D01*
G75*
G02*
X165640000Y-105996000I125000J0D01*
G01*
X165950000Y-105996000D01*
G75*
G02*
X166075000Y-106121000I0J-125000D01*
G01*
X166075000Y-106371000D01*
G75*
G02*
X165950000Y-106496000I-125000J0D01*
G01*
X165640000Y-106496000D01*
G75*
G02*
X165515000Y-106371000I0J125000D01*
G01*
G37*
G36*
G01*
X164875000Y-106371000D02*
X164875000Y-106121000D01*
G75*
G02*
X165000000Y-105996000I125000J0D01*
G01*
X165310000Y-105996000D01*
G75*
G02*
X165435000Y-106121000I0J-125000D01*
G01*
X165435000Y-106371000D01*
G75*
G02*
X165310000Y-106496000I-125000J0D01*
G01*
X165000000Y-106496000D01*
G75*
G02*
X164875000Y-106371000I0J125000D01*
G01*
G37*
%TD*%
%TO.C,L6*%
G36*
G01*
X156855000Y-102510000D02*
X157105000Y-102510000D01*
G75*
G02*
X157230000Y-102635000I0J-125000D01*
G01*
X157230000Y-102945000D01*
G75*
G02*
X157105000Y-103070000I-125000J0D01*
G01*
X156855000Y-103070000D01*
G75*
G02*
X156730000Y-102945000I0J125000D01*
G01*
X156730000Y-102635000D01*
G75*
G02*
X156855000Y-102510000I125000J0D01*
G01*
G37*
G36*
G01*
X156855000Y-101870000D02*
X157105000Y-101870000D01*
G75*
G02*
X157230000Y-101995000I0J-125000D01*
G01*
X157230000Y-102305000D01*
G75*
G02*
X157105000Y-102430000I-125000J0D01*
G01*
X156855000Y-102430000D01*
G75*
G02*
X156730000Y-102305000I0J125000D01*
G01*
X156730000Y-101995000D01*
G75*
G02*
X156855000Y-101870000I125000J0D01*
G01*
G37*
%TD*%
%TO.C,L7*%
G36*
G01*
X157815000Y-102430000D02*
X157565000Y-102430000D01*
G75*
G02*
X157440000Y-102305000I0J125000D01*
G01*
X157440000Y-101995000D01*
G75*
G02*
X157565000Y-101870000I125000J0D01*
G01*
X157815000Y-101870000D01*
G75*
G02*
X157940000Y-101995000I0J-125000D01*
G01*
X157940000Y-102305000D01*
G75*
G02*
X157815000Y-102430000I-125000J0D01*
G01*
G37*
G36*
G01*
X157815000Y-103070000D02*
X157565000Y-103070000D01*
G75*
G02*
X157440000Y-102945000I0J125000D01*
G01*
X157440000Y-102635000D01*
G75*
G02*
X157565000Y-102510000I125000J0D01*
G01*
X157815000Y-102510000D01*
G75*
G02*
X157940000Y-102635000I0J-125000D01*
G01*
X157940000Y-102945000D01*
G75*
G02*
X157815000Y-103070000I-125000J0D01*
G01*
G37*
%TD*%
%TO.C,L8*%
G36*
G01*
X157300000Y-103395000D02*
X157300000Y-103645000D01*
G75*
G02*
X157175000Y-103770000I-125000J0D01*
G01*
X156865000Y-103770000D01*
G75*
G02*
X156740000Y-103645000I0J125000D01*
G01*
X156740000Y-103395000D01*
G75*
G02*
X156865000Y-103270000I125000J0D01*
G01*
X157175000Y-103270000D01*
G75*
G02*
X157300000Y-103395000I0J-125000D01*
G01*
G37*
G36*
G01*
X157940000Y-103395000D02*
X157940000Y-103645000D01*
G75*
G02*
X157815000Y-103770000I-125000J0D01*
G01*
X157505000Y-103770000D01*
G75*
G02*
X157380000Y-103645000I0J125000D01*
G01*
X157380000Y-103395000D01*
G75*
G02*
X157505000Y-103270000I125000J0D01*
G01*
X157815000Y-103270000D01*
G75*
G02*
X157940000Y-103395000I0J-125000D01*
G01*
G37*
%TD*%
%TO.C,L9*%
G36*
G01*
X153170000Y-99125000D02*
X153170000Y-98875000D01*
G75*
G02*
X153295000Y-98750000I125000J0D01*
G01*
X153605000Y-98750000D01*
G75*
G02*
X153730000Y-98875000I0J-125000D01*
G01*
X153730000Y-99125000D01*
G75*
G02*
X153605000Y-99250000I-125000J0D01*
G01*
X153295000Y-99250000D01*
G75*
G02*
X153170000Y-99125000I0J125000D01*
G01*
G37*
G36*
G01*
X152530000Y-99125000D02*
X152530000Y-98875000D01*
G75*
G02*
X152655000Y-98750000I125000J0D01*
G01*
X152965000Y-98750000D01*
G75*
G02*
X153090000Y-98875000I0J-125000D01*
G01*
X153090000Y-99125000D01*
G75*
G02*
X152965000Y-99250000I-125000J0D01*
G01*
X152655000Y-99250000D01*
G75*
G02*
X152530000Y-99125000I0J125000D01*
G01*
G37*
%TD*%
%TO.C,L11*%
G36*
G01*
X154570000Y-98425000D02*
X154570000Y-98175000D01*
G75*
G02*
X154695000Y-98050000I125000J0D01*
G01*
X155005000Y-98050000D01*
G75*
G02*
X155130000Y-98175000I0J-125000D01*
G01*
X155130000Y-98425000D01*
G75*
G02*
X155005000Y-98550000I-125000J0D01*
G01*
X154695000Y-98550000D01*
G75*
G02*
X154570000Y-98425000I0J125000D01*
G01*
G37*
G36*
G01*
X153930000Y-98425000D02*
X153930000Y-98175000D01*
G75*
G02*
X154055000Y-98050000I125000J0D01*
G01*
X154365000Y-98050000D01*
G75*
G02*
X154490000Y-98175000I0J-125000D01*
G01*
X154490000Y-98425000D01*
G75*
G02*
X154365000Y-98550000I-125000J0D01*
G01*
X154055000Y-98550000D01*
G75*
G02*
X153930000Y-98425000I0J125000D01*
G01*
G37*
%TD*%
D24*
%TO.C,J19*%
X157500000Y-92000000D03*
%TD*%
%TO.C,J17*%
X170000000Y-103500000D03*
%TD*%
%TO.C,J16*%
X170000000Y-102000000D03*
%TD*%
%TO.C,J14*%
X165500000Y-108000000D03*
%TD*%
%TO.C,J13*%
X164000000Y-108000000D03*
%TD*%
%TO.C,J12*%
X156000000Y-92000000D03*
%TD*%
%TO.C,J11*%
X154500000Y-92000000D03*
%TD*%
%TO.C,J10*%
X170000000Y-96000000D03*
%TD*%
%TO.C,J9*%
X165000000Y-92000000D03*
%TD*%
%TO.C,J8*%
X163500000Y-92000000D03*
%TD*%
%TO.C,J7*%
X162000000Y-92000000D03*
%TD*%
%TO.C,J6*%
X170000000Y-97500000D03*
%TD*%
%TO.C,J5*%
X170000000Y-99000000D03*
%TD*%
%TO.C,J4*%
X170000000Y-100500000D03*
%TD*%
%TO.C,J3*%
X160500000Y-92000000D03*
%TD*%
%TO.C,J2*%
X159000000Y-92000000D03*
%TD*%
%TO.C,J1*%
X150000000Y-99000000D03*
%TD*%
%TO.C,C5*%
G36*
G01*
X154365000Y-96070000D02*
X154615000Y-96070000D01*
G75*
G02*
X154740000Y-96195000I0J-125000D01*
G01*
X154740000Y-96505000D01*
G75*
G02*
X154615000Y-96630000I-125000J0D01*
G01*
X154365000Y-96630000D01*
G75*
G02*
X154240000Y-96505000I0J125000D01*
G01*
X154240000Y-96195000D01*
G75*
G02*
X154365000Y-96070000I125000J0D01*
G01*
G37*
G36*
G01*
X154365000Y-95430000D02*
X154615000Y-95430000D01*
G75*
G02*
X154740000Y-95555000I0J-125000D01*
G01*
X154740000Y-95865000D01*
G75*
G02*
X154615000Y-95990000I-125000J0D01*
G01*
X154365000Y-95990000D01*
G75*
G02*
X154240000Y-95865000I0J125000D01*
G01*
X154240000Y-95555000D01*
G75*
G02*
X154365000Y-95430000I125000J0D01*
G01*
G37*
%TD*%
%TO.C,C12*%
G36*
G01*
X163320000Y-95255000D02*
X163320000Y-95505000D01*
G75*
G02*
X163195000Y-95630000I-125000J0D01*
G01*
X162885000Y-95630000D01*
G75*
G02*
X162760000Y-95505000I0J125000D01*
G01*
X162760000Y-95255000D01*
G75*
G02*
X162885000Y-95130000I125000J0D01*
G01*
X163195000Y-95130000D01*
G75*
G02*
X163320000Y-95255000I0J-125000D01*
G01*
G37*
G36*
G01*
X163960000Y-95255000D02*
X163960000Y-95505000D01*
G75*
G02*
X163835000Y-95630000I-125000J0D01*
G01*
X163525000Y-95630000D01*
G75*
G02*
X163400000Y-95505000I0J125000D01*
G01*
X163400000Y-95255000D01*
G75*
G02*
X163525000Y-95130000I125000J0D01*
G01*
X163835000Y-95130000D01*
G75*
G02*
X163960000Y-95255000I0J-125000D01*
G01*
G37*
%TD*%
%TO.C,C15*%
G36*
G01*
X161825000Y-94345000D02*
X162075000Y-94345000D01*
G75*
G02*
X162200000Y-94470000I0J-125000D01*
G01*
X162200000Y-94780000D01*
G75*
G02*
X162075000Y-94905000I-125000J0D01*
G01*
X161825000Y-94905000D01*
G75*
G02*
X161700000Y-94780000I0J125000D01*
G01*
X161700000Y-94470000D01*
G75*
G02*
X161825000Y-94345000I125000J0D01*
G01*
G37*
G36*
G01*
X161825000Y-93705000D02*
X162075000Y-93705000D01*
G75*
G02*
X162200000Y-93830000I0J-125000D01*
G01*
X162200000Y-94140000D01*
G75*
G02*
X162075000Y-94265000I-125000J0D01*
G01*
X161825000Y-94265000D01*
G75*
G02*
X161700000Y-94140000I0J125000D01*
G01*
X161700000Y-93830000D01*
G75*
G02*
X161825000Y-93705000I125000J0D01*
G01*
G37*
%TD*%
%TO.C,C10*%
G36*
G01*
X164915000Y-95515000D02*
X164915000Y-95265000D01*
G75*
G02*
X165040000Y-95140000I125000J0D01*
G01*
X165350000Y-95140000D01*
G75*
G02*
X165475000Y-95265000I0J-125000D01*
G01*
X165475000Y-95515000D01*
G75*
G02*
X165350000Y-95640000I-125000J0D01*
G01*
X165040000Y-95640000D01*
G75*
G02*
X164915000Y-95515000I0J125000D01*
G01*
G37*
G36*
G01*
X164275000Y-95515000D02*
X164275000Y-95265000D01*
G75*
G02*
X164400000Y-95140000I125000J0D01*
G01*
X164710000Y-95140000D01*
G75*
G02*
X164835000Y-95265000I0J-125000D01*
G01*
X164835000Y-95515000D01*
G75*
G02*
X164710000Y-95640000I-125000J0D01*
G01*
X164400000Y-95640000D01*
G75*
G02*
X164275000Y-95515000I0J125000D01*
G01*
G37*
%TD*%
%TO.C,C17*%
G36*
G01*
X166340000Y-95255000D02*
X166340000Y-95505000D01*
G75*
G02*
X166215000Y-95630000I-125000J0D01*
G01*
X165905000Y-95630000D01*
G75*
G02*
X165780000Y-95505000I0J125000D01*
G01*
X165780000Y-95255000D01*
G75*
G02*
X165905000Y-95130000I125000J0D01*
G01*
X166215000Y-95130000D01*
G75*
G02*
X166340000Y-95255000I0J-125000D01*
G01*
G37*
G36*
G01*
X166980000Y-95255000D02*
X166980000Y-95505000D01*
G75*
G02*
X166855000Y-95630000I-125000J0D01*
G01*
X166545000Y-95630000D01*
G75*
G02*
X166420000Y-95505000I0J125000D01*
G01*
X166420000Y-95255000D01*
G75*
G02*
X166545000Y-95130000I125000J0D01*
G01*
X166855000Y-95130000D01*
G75*
G02*
X166980000Y-95255000I0J-125000D01*
G01*
G37*
%TD*%
%TO.C,C18*%
G36*
G01*
X166265000Y-96390000D02*
X166015000Y-96390000D01*
G75*
G02*
X165890000Y-96265000I0J125000D01*
G01*
X165890000Y-95955000D01*
G75*
G02*
X166015000Y-95830000I125000J0D01*
G01*
X166265000Y-95830000D01*
G75*
G02*
X166390000Y-95955000I0J-125000D01*
G01*
X166390000Y-96265000D01*
G75*
G02*
X166265000Y-96390000I-125000J0D01*
G01*
G37*
G36*
G01*
X166265000Y-97030000D02*
X166015000Y-97030000D01*
G75*
G02*
X165890000Y-96905000I0J125000D01*
G01*
X165890000Y-96595000D01*
G75*
G02*
X166015000Y-96470000I125000J0D01*
G01*
X166265000Y-96470000D01*
G75*
G02*
X166390000Y-96595000I0J-125000D01*
G01*
X166390000Y-96905000D01*
G75*
G02*
X166265000Y-97030000I-125000J0D01*
G01*
G37*
%TD*%
%TO.C,C20*%
G36*
G01*
X166025000Y-98140000D02*
X166275000Y-98140000D01*
G75*
G02*
X166400000Y-98265000I0J-125000D01*
G01*
X166400000Y-98575000D01*
G75*
G02*
X166275000Y-98700000I-125000J0D01*
G01*
X166025000Y-98700000D01*
G75*
G02*
X165900000Y-98575000I0J125000D01*
G01*
X165900000Y-98265000D01*
G75*
G02*
X166025000Y-98140000I125000J0D01*
G01*
G37*
G36*
G01*
X166025000Y-97500000D02*
X166275000Y-97500000D01*
G75*
G02*
X166400000Y-97625000I0J-125000D01*
G01*
X166400000Y-97935000D01*
G75*
G02*
X166275000Y-98060000I-125000J0D01*
G01*
X166025000Y-98060000D01*
G75*
G02*
X165900000Y-97935000I0J125000D01*
G01*
X165900000Y-97625000D01*
G75*
G02*
X166025000Y-97500000I125000J0D01*
G01*
G37*
%TD*%
%TO.C,C21*%
G36*
G01*
X166975000Y-98060000D02*
X166725000Y-98060000D01*
G75*
G02*
X166600000Y-97935000I0J125000D01*
G01*
X166600000Y-97625000D01*
G75*
G02*
X166725000Y-97500000I125000J0D01*
G01*
X166975000Y-97500000D01*
G75*
G02*
X167100000Y-97625000I0J-125000D01*
G01*
X167100000Y-97935000D01*
G75*
G02*
X166975000Y-98060000I-125000J0D01*
G01*
G37*
G36*
G01*
X166975000Y-98700000D02*
X166725000Y-98700000D01*
G75*
G02*
X166600000Y-98575000I0J125000D01*
G01*
X166600000Y-98265000D01*
G75*
G02*
X166725000Y-98140000I125000J0D01*
G01*
X166975000Y-98140000D01*
G75*
G02*
X167100000Y-98265000I0J-125000D01*
G01*
X167100000Y-98575000D01*
G75*
G02*
X166975000Y-98700000I-125000J0D01*
G01*
G37*
%TD*%
%TO.C,C22*%
G36*
G01*
X157575000Y-98400000D02*
X157825000Y-98400000D01*
G75*
G02*
X157950000Y-98525000I0J-125000D01*
G01*
X157950000Y-98835000D01*
G75*
G02*
X157825000Y-98960000I-125000J0D01*
G01*
X157575000Y-98960000D01*
G75*
G02*
X157450000Y-98835000I0J125000D01*
G01*
X157450000Y-98525000D01*
G75*
G02*
X157575000Y-98400000I125000J0D01*
G01*
G37*
G36*
G01*
X157575000Y-97760000D02*
X157825000Y-97760000D01*
G75*
G02*
X157950000Y-97885000I0J-125000D01*
G01*
X157950000Y-98195000D01*
G75*
G02*
X157825000Y-98320000I-125000J0D01*
G01*
X157575000Y-98320000D01*
G75*
G02*
X157450000Y-98195000I0J125000D01*
G01*
X157450000Y-97885000D01*
G75*
G02*
X157575000Y-97760000I125000J0D01*
G01*
G37*
%TD*%
%TO.C,C23*%
G36*
G01*
X166975000Y-99460000D02*
X166725000Y-99460000D01*
G75*
G02*
X166600000Y-99335000I0J125000D01*
G01*
X166600000Y-99025000D01*
G75*
G02*
X166725000Y-98900000I125000J0D01*
G01*
X166975000Y-98900000D01*
G75*
G02*
X167100000Y-99025000I0J-125000D01*
G01*
X167100000Y-99335000D01*
G75*
G02*
X166975000Y-99460000I-125000J0D01*
G01*
G37*
G36*
G01*
X166975000Y-100100000D02*
X166725000Y-100100000D01*
G75*
G02*
X166600000Y-99975000I0J125000D01*
G01*
X166600000Y-99665000D01*
G75*
G02*
X166725000Y-99540000I125000J0D01*
G01*
X166975000Y-99540000D01*
G75*
G02*
X167100000Y-99665000I0J-125000D01*
G01*
X167100000Y-99975000D01*
G75*
G02*
X166975000Y-100100000I-125000J0D01*
G01*
G37*
%TD*%
%TO.C,C25*%
G36*
G01*
X157545000Y-100280000D02*
X157795000Y-100280000D01*
G75*
G02*
X157920000Y-100405000I0J-125000D01*
G01*
X157920000Y-100715000D01*
G75*
G02*
X157795000Y-100840000I-125000J0D01*
G01*
X157545000Y-100840000D01*
G75*
G02*
X157420000Y-100715000I0J125000D01*
G01*
X157420000Y-100405000D01*
G75*
G02*
X157545000Y-100280000I125000J0D01*
G01*
G37*
G36*
G01*
X157545000Y-99640000D02*
X157795000Y-99640000D01*
G75*
G02*
X157920000Y-99765000I0J-125000D01*
G01*
X157920000Y-100075000D01*
G75*
G02*
X157795000Y-100200000I-125000J0D01*
G01*
X157545000Y-100200000D01*
G75*
G02*
X157420000Y-100075000I0J125000D01*
G01*
X157420000Y-99765000D01*
G75*
G02*
X157545000Y-99640000I125000J0D01*
G01*
G37*
%TD*%
%TO.C,C24*%
G36*
G01*
X166590000Y-100725000D02*
X166590000Y-100475000D01*
G75*
G02*
X166715000Y-100350000I125000J0D01*
G01*
X167025000Y-100350000D01*
G75*
G02*
X167150000Y-100475000I0J-125000D01*
G01*
X167150000Y-100725000D01*
G75*
G02*
X167025000Y-100850000I-125000J0D01*
G01*
X166715000Y-100850000D01*
G75*
G02*
X166590000Y-100725000I0J125000D01*
G01*
G37*
G36*
G01*
X165950000Y-100725000D02*
X165950000Y-100475000D01*
G75*
G02*
X166075000Y-100350000I125000J0D01*
G01*
X166385000Y-100350000D01*
G75*
G02*
X166510000Y-100475000I0J-125000D01*
G01*
X166510000Y-100725000D01*
G75*
G02*
X166385000Y-100850000I-125000J0D01*
G01*
X166075000Y-100850000D01*
G75*
G02*
X165950000Y-100725000I0J125000D01*
G01*
G37*
%TD*%
%TO.C,C26*%
G36*
G01*
X166590000Y-101425000D02*
X166590000Y-101175000D01*
G75*
G02*
X166715000Y-101050000I125000J0D01*
G01*
X167025000Y-101050000D01*
G75*
G02*
X167150000Y-101175000I0J-125000D01*
G01*
X167150000Y-101425000D01*
G75*
G02*
X167025000Y-101550000I-125000J0D01*
G01*
X166715000Y-101550000D01*
G75*
G02*
X166590000Y-101425000I0J125000D01*
G01*
G37*
G36*
G01*
X165950000Y-101425000D02*
X165950000Y-101175000D01*
G75*
G02*
X166075000Y-101050000I125000J0D01*
G01*
X166385000Y-101050000D01*
G75*
G02*
X166510000Y-101175000I0J-125000D01*
G01*
X166510000Y-101425000D01*
G75*
G02*
X166385000Y-101550000I-125000J0D01*
G01*
X166075000Y-101550000D01*
G75*
G02*
X165950000Y-101425000I0J125000D01*
G01*
G37*
%TD*%
%TO.C,C28*%
G36*
G01*
X167525000Y-102340000D02*
X167775000Y-102340000D01*
G75*
G02*
X167900000Y-102465000I0J-125000D01*
G01*
X167900000Y-102775000D01*
G75*
G02*
X167775000Y-102900000I-125000J0D01*
G01*
X167525000Y-102900000D01*
G75*
G02*
X167400000Y-102775000I0J125000D01*
G01*
X167400000Y-102465000D01*
G75*
G02*
X167525000Y-102340000I125000J0D01*
G01*
G37*
G36*
G01*
X167525000Y-101700000D02*
X167775000Y-101700000D01*
G75*
G02*
X167900000Y-101825000I0J-125000D01*
G01*
X167900000Y-102135000D01*
G75*
G02*
X167775000Y-102260000I-125000J0D01*
G01*
X167525000Y-102260000D01*
G75*
G02*
X167400000Y-102135000I0J125000D01*
G01*
X167400000Y-101825000D01*
G75*
G02*
X167525000Y-101700000I125000J0D01*
G01*
G37*
%TD*%
%TO.C,C31*%
G36*
G01*
X164225000Y-104140000D02*
X164475000Y-104140000D01*
G75*
G02*
X164600000Y-104265000I0J-125000D01*
G01*
X164600000Y-104575000D01*
G75*
G02*
X164475000Y-104700000I-125000J0D01*
G01*
X164225000Y-104700000D01*
G75*
G02*
X164100000Y-104575000I0J125000D01*
G01*
X164100000Y-104265000D01*
G75*
G02*
X164225000Y-104140000I125000J0D01*
G01*
G37*
G36*
G01*
X164225000Y-103500000D02*
X164475000Y-103500000D01*
G75*
G02*
X164600000Y-103625000I0J-125000D01*
G01*
X164600000Y-103935000D01*
G75*
G02*
X164475000Y-104060000I-125000J0D01*
G01*
X164225000Y-104060000D01*
G75*
G02*
X164100000Y-103935000I0J125000D01*
G01*
X164100000Y-103625000D01*
G75*
G02*
X164225000Y-103500000I125000J0D01*
G01*
G37*
%TD*%
%TO.C,C29*%
G36*
G01*
X166510000Y-102675000D02*
X166510000Y-102925000D01*
G75*
G02*
X166385000Y-103050000I-125000J0D01*
G01*
X166075000Y-103050000D01*
G75*
G02*
X165950000Y-102925000I0J125000D01*
G01*
X165950000Y-102675000D01*
G75*
G02*
X166075000Y-102550000I125000J0D01*
G01*
X166385000Y-102550000D01*
G75*
G02*
X166510000Y-102675000I0J-125000D01*
G01*
G37*
G36*
G01*
X167150000Y-102675000D02*
X167150000Y-102925000D01*
G75*
G02*
X167025000Y-103050000I-125000J0D01*
G01*
X166715000Y-103050000D01*
G75*
G02*
X166590000Y-102925000I0J125000D01*
G01*
X166590000Y-102675000D01*
G75*
G02*
X166715000Y-102550000I125000J0D01*
G01*
X167025000Y-102550000D01*
G75*
G02*
X167150000Y-102675000I0J-125000D01*
G01*
G37*
%TD*%
%TO.C,C33*%
G36*
G01*
X161030000Y-105075000D02*
X161030000Y-105325000D01*
G75*
G02*
X160905000Y-105450000I-125000J0D01*
G01*
X160595000Y-105450000D01*
G75*
G02*
X160470000Y-105325000I0J125000D01*
G01*
X160470000Y-105075000D01*
G75*
G02*
X160595000Y-104950000I125000J0D01*
G01*
X160905000Y-104950000D01*
G75*
G02*
X161030000Y-105075000I0J-125000D01*
G01*
G37*
G36*
G01*
X161670000Y-105075000D02*
X161670000Y-105325000D01*
G75*
G02*
X161545000Y-105450000I-125000J0D01*
G01*
X161235000Y-105450000D01*
G75*
G02*
X161110000Y-105325000I0J125000D01*
G01*
X161110000Y-105075000D01*
G75*
G02*
X161235000Y-104950000I125000J0D01*
G01*
X161545000Y-104950000D01*
G75*
G02*
X161670000Y-105075000I0J-125000D01*
G01*
G37*
%TD*%
%TO.C,C32*%
G36*
G01*
X161070000Y-103575000D02*
X161070000Y-103825000D01*
G75*
G02*
X160945000Y-103950000I-125000J0D01*
G01*
X160635000Y-103950000D01*
G75*
G02*
X160510000Y-103825000I0J125000D01*
G01*
X160510000Y-103575000D01*
G75*
G02*
X160635000Y-103450000I125000J0D01*
G01*
X160945000Y-103450000D01*
G75*
G02*
X161070000Y-103575000I0J-125000D01*
G01*
G37*
G36*
G01*
X161710000Y-103575000D02*
X161710000Y-103825000D01*
G75*
G02*
X161585000Y-103950000I-125000J0D01*
G01*
X161275000Y-103950000D01*
G75*
G02*
X161150000Y-103825000I0J125000D01*
G01*
X161150000Y-103575000D01*
G75*
G02*
X161275000Y-103450000I125000J0D01*
G01*
X161585000Y-103450000D01*
G75*
G02*
X161710000Y-103575000I0J-125000D01*
G01*
G37*
%TD*%
%TO.C,C38*%
G36*
G01*
X163230000Y-103575000D02*
X163230000Y-103825000D01*
G75*
G02*
X163105000Y-103950000I-125000J0D01*
G01*
X162795000Y-103950000D01*
G75*
G02*
X162670000Y-103825000I0J125000D01*
G01*
X162670000Y-103575000D01*
G75*
G02*
X162795000Y-103450000I125000J0D01*
G01*
X163105000Y-103450000D01*
G75*
G02*
X163230000Y-103575000I0J-125000D01*
G01*
G37*
G36*
G01*
X163870000Y-103575000D02*
X163870000Y-103825000D01*
G75*
G02*
X163745000Y-103950000I-125000J0D01*
G01*
X163435000Y-103950000D01*
G75*
G02*
X163310000Y-103825000I0J125000D01*
G01*
X163310000Y-103575000D01*
G75*
G02*
X163435000Y-103450000I125000J0D01*
G01*
X163745000Y-103450000D01*
G75*
G02*
X163870000Y-103575000I0J-125000D01*
G01*
G37*
%TD*%
%TO.C,C37*%
G36*
G01*
X163310000Y-104575000D02*
X163310000Y-104325000D01*
G75*
G02*
X163435000Y-104200000I125000J0D01*
G01*
X163745000Y-104200000D01*
G75*
G02*
X163870000Y-104325000I0J-125000D01*
G01*
X163870000Y-104575000D01*
G75*
G02*
X163745000Y-104700000I-125000J0D01*
G01*
X163435000Y-104700000D01*
G75*
G02*
X163310000Y-104575000I0J125000D01*
G01*
G37*
G36*
G01*
X162670000Y-104575000D02*
X162670000Y-104325000D01*
G75*
G02*
X162795000Y-104200000I125000J0D01*
G01*
X163105000Y-104200000D01*
G75*
G02*
X163230000Y-104325000I0J-125000D01*
G01*
X163230000Y-104575000D01*
G75*
G02*
X163105000Y-104700000I-125000J0D01*
G01*
X162795000Y-104700000D01*
G75*
G02*
X162670000Y-104575000I0J125000D01*
G01*
G37*
%TD*%
%TO.C,C35*%
G36*
G01*
X161065000Y-104275000D02*
X161065000Y-104525000D01*
G75*
G02*
X160940000Y-104650000I-125000J0D01*
G01*
X160630000Y-104650000D01*
G75*
G02*
X160505000Y-104525000I0J125000D01*
G01*
X160505000Y-104275000D01*
G75*
G02*
X160630000Y-104150000I125000J0D01*
G01*
X160940000Y-104150000D01*
G75*
G02*
X161065000Y-104275000I0J-125000D01*
G01*
G37*
G36*
G01*
X161705000Y-104275000D02*
X161705000Y-104525000D01*
G75*
G02*
X161580000Y-104650000I-125000J0D01*
G01*
X161270000Y-104650000D01*
G75*
G02*
X161145000Y-104525000I0J125000D01*
G01*
X161145000Y-104275000D01*
G75*
G02*
X161270000Y-104150000I125000J0D01*
G01*
X161580000Y-104150000D01*
G75*
G02*
X161705000Y-104275000I0J-125000D01*
G01*
G37*
%TD*%
%TO.C,C34*%
G36*
G01*
X164925000Y-104140000D02*
X165175000Y-104140000D01*
G75*
G02*
X165300000Y-104265000I0J-125000D01*
G01*
X165300000Y-104575000D01*
G75*
G02*
X165175000Y-104700000I-125000J0D01*
G01*
X164925000Y-104700000D01*
G75*
G02*
X164800000Y-104575000I0J125000D01*
G01*
X164800000Y-104265000D01*
G75*
G02*
X164925000Y-104140000I125000J0D01*
G01*
G37*
G36*
G01*
X164925000Y-103500000D02*
X165175000Y-103500000D01*
G75*
G02*
X165300000Y-103625000I0J-125000D01*
G01*
X165300000Y-103935000D01*
G75*
G02*
X165175000Y-104060000I-125000J0D01*
G01*
X164925000Y-104060000D01*
G75*
G02*
X164800000Y-103935000I0J125000D01*
G01*
X164800000Y-103625000D01*
G75*
G02*
X164925000Y-103500000I125000J0D01*
G01*
G37*
%TD*%
%TO.C,C36*%
G36*
G01*
X164191000Y-105560000D02*
X164441000Y-105560000D01*
G75*
G02*
X164566000Y-105685000I0J-125000D01*
G01*
X164566000Y-105995000D01*
G75*
G02*
X164441000Y-106120000I-125000J0D01*
G01*
X164191000Y-106120000D01*
G75*
G02*
X164066000Y-105995000I0J125000D01*
G01*
X164066000Y-105685000D01*
G75*
G02*
X164191000Y-105560000I125000J0D01*
G01*
G37*
G36*
G01*
X164191000Y-104920000D02*
X164441000Y-104920000D01*
G75*
G02*
X164566000Y-105045000I0J-125000D01*
G01*
X164566000Y-105355000D01*
G75*
G02*
X164441000Y-105480000I-125000J0D01*
G01*
X164191000Y-105480000D01*
G75*
G02*
X164066000Y-105355000I0J125000D01*
G01*
X164066000Y-105045000D01*
G75*
G02*
X164191000Y-104920000I125000J0D01*
G01*
G37*
%TD*%
%TO.C,C39*%
G36*
G01*
X159225000Y-104820000D02*
X159475000Y-104820000D01*
G75*
G02*
X159600000Y-104945000I0J-125000D01*
G01*
X159600000Y-105255000D01*
G75*
G02*
X159475000Y-105380000I-125000J0D01*
G01*
X159225000Y-105380000D01*
G75*
G02*
X159100000Y-105255000I0J125000D01*
G01*
X159100000Y-104945000D01*
G75*
G02*
X159225000Y-104820000I125000J0D01*
G01*
G37*
G36*
G01*
X159225000Y-104180000D02*
X159475000Y-104180000D01*
G75*
G02*
X159600000Y-104305000I0J-125000D01*
G01*
X159600000Y-104615000D01*
G75*
G02*
X159475000Y-104740000I-125000J0D01*
G01*
X159225000Y-104740000D01*
G75*
G02*
X159100000Y-104615000I0J125000D01*
G01*
X159100000Y-104305000D01*
G75*
G02*
X159225000Y-104180000I125000J0D01*
G01*
G37*
%TD*%
%TO.C,C40*%
G36*
G01*
X156155000Y-103200000D02*
X156405000Y-103200000D01*
G75*
G02*
X156530000Y-103325000I0J-125000D01*
G01*
X156530000Y-103635000D01*
G75*
G02*
X156405000Y-103760000I-125000J0D01*
G01*
X156155000Y-103760000D01*
G75*
G02*
X156030000Y-103635000I0J125000D01*
G01*
X156030000Y-103325000D01*
G75*
G02*
X156155000Y-103200000I125000J0D01*
G01*
G37*
G36*
G01*
X156155000Y-102560000D02*
X156405000Y-102560000D01*
G75*
G02*
X156530000Y-102685000I0J-125000D01*
G01*
X156530000Y-102995000D01*
G75*
G02*
X156405000Y-103120000I-125000J0D01*
G01*
X156155000Y-103120000D01*
G75*
G02*
X156030000Y-102995000I0J125000D01*
G01*
X156030000Y-102685000D01*
G75*
G02*
X156155000Y-102560000I125000J0D01*
G01*
G37*
%TD*%
%TO.C,C41*%
G36*
G01*
X159020000Y-103825000D02*
X159020000Y-103575000D01*
G75*
G02*
X159145000Y-103450000I125000J0D01*
G01*
X159455000Y-103450000D01*
G75*
G02*
X159580000Y-103575000I0J-125000D01*
G01*
X159580000Y-103825000D01*
G75*
G02*
X159455000Y-103950000I-125000J0D01*
G01*
X159145000Y-103950000D01*
G75*
G02*
X159020000Y-103825000I0J125000D01*
G01*
G37*
G36*
G01*
X158380000Y-103825000D02*
X158380000Y-103575000D01*
G75*
G02*
X158505000Y-103450000I125000J0D01*
G01*
X158815000Y-103450000D01*
G75*
G02*
X158940000Y-103575000I0J-125000D01*
G01*
X158940000Y-103825000D01*
G75*
G02*
X158815000Y-103950000I-125000J0D01*
G01*
X158505000Y-103950000D01*
G75*
G02*
X158380000Y-103825000I0J125000D01*
G01*
G37*
%TD*%
%TO.C,C43*%
G36*
G01*
X157370000Y-104345000D02*
X157370000Y-104095000D01*
G75*
G02*
X157495000Y-103970000I125000J0D01*
G01*
X157805000Y-103970000D01*
G75*
G02*
X157930000Y-104095000I0J-125000D01*
G01*
X157930000Y-104345000D01*
G75*
G02*
X157805000Y-104470000I-125000J0D01*
G01*
X157495000Y-104470000D01*
G75*
G02*
X157370000Y-104345000I0J125000D01*
G01*
G37*
G36*
G01*
X156730000Y-104345000D02*
X156730000Y-104095000D01*
G75*
G02*
X156855000Y-103970000I125000J0D01*
G01*
X157165000Y-103970000D01*
G75*
G02*
X157290000Y-104095000I0J-125000D01*
G01*
X157290000Y-104345000D01*
G75*
G02*
X157165000Y-104470000I-125000J0D01*
G01*
X156855000Y-104470000D01*
G75*
G02*
X156730000Y-104345000I0J125000D01*
G01*
G37*
%TD*%
%TO.C,C44*%
G36*
G01*
X158525000Y-104840000D02*
X158775000Y-104840000D01*
G75*
G02*
X158900000Y-104965000I0J-125000D01*
G01*
X158900000Y-105275000D01*
G75*
G02*
X158775000Y-105400000I-125000J0D01*
G01*
X158525000Y-105400000D01*
G75*
G02*
X158400000Y-105275000I0J125000D01*
G01*
X158400000Y-104965000D01*
G75*
G02*
X158525000Y-104840000I125000J0D01*
G01*
G37*
G36*
G01*
X158525000Y-104200000D02*
X158775000Y-104200000D01*
G75*
G02*
X158900000Y-104325000I0J-125000D01*
G01*
X158900000Y-104635000D01*
G75*
G02*
X158775000Y-104760000I-125000J0D01*
G01*
X158525000Y-104760000D01*
G75*
G02*
X158400000Y-104635000I0J125000D01*
G01*
X158400000Y-104325000D01*
G75*
G02*
X158525000Y-104200000I125000J0D01*
G01*
G37*
%TD*%
%TO.C,C45*%
G36*
G01*
X159020000Y-106025000D02*
X159020000Y-105775000D01*
G75*
G02*
X159145000Y-105650000I125000J0D01*
G01*
X159455000Y-105650000D01*
G75*
G02*
X159580000Y-105775000I0J-125000D01*
G01*
X159580000Y-106025000D01*
G75*
G02*
X159455000Y-106150000I-125000J0D01*
G01*
X159145000Y-106150000D01*
G75*
G02*
X159020000Y-106025000I0J125000D01*
G01*
G37*
G36*
G01*
X158380000Y-106025000D02*
X158380000Y-105775000D01*
G75*
G02*
X158505000Y-105650000I125000J0D01*
G01*
X158815000Y-105650000D01*
G75*
G02*
X158940000Y-105775000I0J-125000D01*
G01*
X158940000Y-106025000D01*
G75*
G02*
X158815000Y-106150000I-125000J0D01*
G01*
X158505000Y-106150000D01*
G75*
G02*
X158380000Y-106025000I0J125000D01*
G01*
G37*
%TD*%
%TO.C,C46*%
G36*
G01*
X156145000Y-101790000D02*
X156395000Y-101790000D01*
G75*
G02*
X156520000Y-101915000I0J-125000D01*
G01*
X156520000Y-102225000D01*
G75*
G02*
X156395000Y-102350000I-125000J0D01*
G01*
X156145000Y-102350000D01*
G75*
G02*
X156020000Y-102225000I0J125000D01*
G01*
X156020000Y-101915000D01*
G75*
G02*
X156145000Y-101790000I125000J0D01*
G01*
G37*
G36*
G01*
X156145000Y-101150000D02*
X156395000Y-101150000D01*
G75*
G02*
X156520000Y-101275000I0J-125000D01*
G01*
X156520000Y-101585000D01*
G75*
G02*
X156395000Y-101710000I-125000J0D01*
G01*
X156145000Y-101710000D01*
G75*
G02*
X156020000Y-101585000I0J125000D01*
G01*
X156020000Y-101275000D01*
G75*
G02*
X156145000Y-101150000I125000J0D01*
G01*
G37*
%TD*%
%TO.C,C47*%
G36*
G01*
X155005000Y-100010000D02*
X154755000Y-100010000D01*
G75*
G02*
X154630000Y-99885000I0J125000D01*
G01*
X154630000Y-99575000D01*
G75*
G02*
X154755000Y-99450000I125000J0D01*
G01*
X155005000Y-99450000D01*
G75*
G02*
X155130000Y-99575000I0J-125000D01*
G01*
X155130000Y-99885000D01*
G75*
G02*
X155005000Y-100010000I-125000J0D01*
G01*
G37*
G36*
G01*
X155005000Y-100650000D02*
X154755000Y-100650000D01*
G75*
G02*
X154630000Y-100525000I0J125000D01*
G01*
X154630000Y-100215000D01*
G75*
G02*
X154755000Y-100090000I125000J0D01*
G01*
X155005000Y-100090000D01*
G75*
G02*
X155130000Y-100215000I0J-125000D01*
G01*
X155130000Y-100525000D01*
G75*
G02*
X155005000Y-100650000I-125000J0D01*
G01*
G37*
%TD*%
%TO.C,C48*%
G36*
G01*
X155815000Y-105260000D02*
X156065000Y-105260000D01*
G75*
G02*
X156190000Y-105385000I0J-125000D01*
G01*
X156190000Y-105695000D01*
G75*
G02*
X156065000Y-105820000I-125000J0D01*
G01*
X155815000Y-105820000D01*
G75*
G02*
X155690000Y-105695000I0J125000D01*
G01*
X155690000Y-105385000D01*
G75*
G02*
X155815000Y-105260000I125000J0D01*
G01*
G37*
G36*
G01*
X155815000Y-104620000D02*
X156065000Y-104620000D01*
G75*
G02*
X156190000Y-104745000I0J-125000D01*
G01*
X156190000Y-105055000D01*
G75*
G02*
X156065000Y-105180000I-125000J0D01*
G01*
X155815000Y-105180000D01*
G75*
G02*
X155690000Y-105055000I0J125000D01*
G01*
X155690000Y-104745000D01*
G75*
G02*
X155815000Y-104620000I125000J0D01*
G01*
G37*
%TD*%
M02*
