%TF.GenerationSoftware,KiCad,Pcbnew,(5.1.6-0-10_14)*%
%TF.CreationDate,2020-10-05T23:02:53+09:00*%
%TF.ProjectId,RF920A,52463932-3041-42e6-9b69-6361645f7063,rev?*%
%TF.SameCoordinates,Original*%
%TF.FileFunction,Legend,Top*%
%TF.FilePolarity,Positive*%
%FSLAX46Y46*%
G04 Gerber Fmt 4.6, Leading zero omitted, Abs format (unit mm)*
G04 Created by KiCad (PCBNEW (5.1.6-0-10_14)) date 2020-10-05 23:02:53*
%MOMM*%
%LPD*%
G01*
G04 APERTURE LIST*
%ADD10C,0.120000*%
%ADD11C,0.127000*%
%ADD12C,0.200000*%
G04 APERTURE END LIST*
D10*
%TO.C,U1*%
X164875000Y-96200000D02*
X164367000Y-96200000D01*
X158633000Y-96941000D02*
X158633000Y-96433000D01*
X158633000Y-96433000D02*
X159141000Y-96433000D01*
X159141000Y-102767000D02*
X158633000Y-102767000D01*
X158633000Y-102767000D02*
X158633000Y-102259000D01*
X164967000Y-102259000D02*
X164967000Y-102767000D01*
X164967000Y-102767000D02*
X164459000Y-102767000D01*
D11*
%TO.C,U2*%
X150740000Y-104200000D02*
X150740000Y-104800000D01*
X150740000Y-104800000D02*
X150990000Y-104800000D01*
X150990000Y-104800000D02*
X150990000Y-105200000D01*
X150990000Y-103800000D02*
X150990000Y-104200000D01*
X150990000Y-104200000D02*
X150740000Y-104200000D01*
D12*
X155000000Y-104520000D02*
G75*
G03*
X155000000Y-104520000I-100000J0D01*
G01*
D10*
%TO.C,U5*%
X161000000Y-93550000D02*
X160600000Y-93550000D01*
%TO.C,C1*%
X166790000Y-104837221D02*
X166790000Y-105162779D01*
X167810000Y-104837221D02*
X167810000Y-105162779D01*
%TO.C,C13*%
X163699721Y-94810000D02*
X164025279Y-94810000D01*
X163699721Y-93790000D02*
X164025279Y-93790000D01*
%TO.C,C11*%
X167100279Y-93790000D02*
X166774721Y-93790000D01*
X167100279Y-94810000D02*
X166774721Y-94810000D01*
%TO.C,U6*%
X156600000Y-95200000D02*
X157000000Y-95200000D01*
X157000000Y-95200000D02*
X157000000Y-95600000D01*
%TO.C,U4*%
X163875000Y-105900000D02*
X163875000Y-105300000D01*
%TO.C,U3*%
X156400000Y-106500000D02*
X156400000Y-106375000D01*
%TD*%
M02*
