M48
; DRILL file {KiCad (5.1.6-0-10_14)} date Monday, October 05, 2020 at 11:02:06 PM
; FORMAT={-:-/ absolute / inch / decimal}
; #@! TF.CreationDate,2020-10-05T23:02:06+09:00
; #@! TF.GenerationSoftware,Kicad,Pcbnew,(5.1.6-0-10_14)
; #@! TF.FileFunction,Plated,1,4,PTH
FMAT,2
INCH
T1C0.0079
T2C0.0197
%
G90
G05
T1
X5.9728Y-4.0591
X5.9728Y-4.1732
X6.0122Y-3.7307
X6.0122Y-3.7701
X6.0122Y-3.8094
X6.0122Y-3.8492
X6.0122Y-3.9441
X6.0122Y-4.0591
X6.0122Y-4.1732
X6.0516Y-3.9441
X6.0516Y-3.9835
X6.0669Y-4.1752
X6.0713Y-3.8701
X6.0823Y-3.7681
X6.0827Y-3.7232
X6.0827Y-3.7933
X6.0831Y-3.6972
X6.1524Y-3.9933
X6.1524Y-4.0185
X6.1528Y-3.8654
X6.1528Y-3.9047
X6.1528Y-3.9441
X6.1528Y-4.074
X6.1567Y-3.698
X6.1571Y-3.7232
X6.1909Y-4.1331
X6.1909Y-4.1898
X6.2016Y-3.7925
X6.202Y-3.7669
X6.2067Y-4.1031
X6.2075Y-3.9339
X6.2079Y-3.9598
X6.2083Y-3.8598
X6.2087Y-3.8854
X6.2098Y-3.7051
X6.2465Y-4.1693
X6.2547Y-3.8327
X6.2547Y-3.9902
X6.2547Y-4.0102
X6.2551Y-3.8524
X6.2551Y-3.872
X6.2697Y-3.7059
X6.2717Y-4.1693
X6.2736Y-4.1382
X6.2815Y-3.8063
X6.2815Y-4.0366
X6.3012Y-3.8059
X6.3209Y-3.8051
X6.322Y-3.7469
X6.3228Y-3.874
X6.3228Y-3.9055
X6.3228Y-3.937
X6.3228Y-3.9685
X6.3291Y-4.1417
X6.3303Y-4.0831
X6.3406Y-3.8051
X6.3543Y-3.874
X6.3543Y-3.9055
X6.3543Y-3.937
X6.3543Y-3.9685
X6.3555Y-4.0831
X6.3602Y-3.8063
X6.376Y-3.7004
X6.3858Y-3.874
X6.3858Y-3.9055
X6.3858Y-3.937
X6.3858Y-3.9685
X6.3878Y-4.1457
X6.4173Y-3.874
X6.4173Y-3.9055
X6.4173Y-3.937
X6.4173Y-3.9685
X6.4185Y-3.761
X6.4197Y-3.7122
X6.4406Y-4.0827
X6.4406Y-4.1122
X6.4705Y-4.0858
X6.4705Y-4.111
X6.5039Y-3.761
X6.5256Y-4.1417
X6.5272Y-4.1831
X6.5354Y-4.0866
X6.5409Y-3.7126
X6.5409Y-3.7839
X6.5409Y-3.8091
X6.5441Y-3.9606
X6.5441Y-4.0472
X6.563Y-3.7551
X6.5697Y-3.9606
X6.5697Y-3.9882
X6.5697Y-4.0472
X6.5787Y-4.0953
X6.5787Y-4.1575
X6.5945Y-4.1102
X6.5945Y-4.172
X6.5965Y-3.8496
X6.6004Y-4.0402
X6.6012Y-3.7787
X6.6031Y-3.7126
X6.6138Y-3.9697
T2
X6.2008Y-3.622
X6.6929Y-4.0748
X6.6929Y-4.0157
X6.5157Y-4.252
X6.4567Y-4.252
X6.1417Y-3.622
X6.0827Y-3.622
X6.6929Y-3.7795
X6.437Y-3.622
X6.6929Y-3.8386
X6.6929Y-3.9567
X6.2598Y-3.622
X6.4961Y-3.622
X6.378Y-3.622
X6.6929Y-3.8976
X6.3189Y-3.622
X5.9055Y-3.8976
T0
M30
