%TF.GenerationSoftware,KiCad,Pcbnew,(5.1.6-0-10_14)*%
%TF.CreationDate,2020-10-05T23:02:53+09:00*%
%TF.ProjectId,RF920A,52463932-3041-42e6-9b69-6361645f7063,rev?*%
%TF.SameCoordinates,Original*%
%TF.FileFunction,Copper,L3,Inr*%
%TF.FilePolarity,Positive*%
%FSLAX46Y46*%
G04 Gerber Fmt 4.6, Leading zero omitted, Abs format (unit mm)*
G04 Created by KiCad (PCBNEW (5.1.6-0-10_14)) date 2020-10-05 23:02:53*
%MOMM*%
%LPD*%
G01*
G04 APERTURE LIST*
%TA.AperFunction,WasherPad*%
%ADD10O,1.600000X0.800000*%
%TD*%
%TA.AperFunction,WasherPad*%
%ADD11O,0.800000X1.600000*%
%TD*%
%TA.AperFunction,ViaPad*%
%ADD12C,1.000000*%
%TD*%
%TA.AperFunction,ViaPad*%
%ADD13C,0.400000*%
%TD*%
%TA.AperFunction,Conductor*%
%ADD14C,0.200000*%
%TD*%
%TA.AperFunction,Conductor*%
%ADD15C,0.500000*%
%TD*%
G04 APERTURE END LIST*
D10*
%TO.N,*%
%TO.C,REF\u002A\u002A*%
X162075000Y-107000000D03*
D11*
X151000000Y-96875000D03*
%TD*%
D12*
%TO.N,/SDA*%
%TO.C,J19*%
X157500000Y-92000000D03*
%TD*%
%TO.N,GND*%
%TO.C,J17*%
X170000000Y-103500000D03*
%TD*%
%TO.N,GND*%
%TO.C,J16*%
X170000000Y-102000000D03*
%TD*%
%TO.N,+3.3VA*%
%TO.C,J14*%
X165500000Y-108000000D03*
%TD*%
%TO.N,+3.3VA*%
%TO.C,J13*%
X164000000Y-108000000D03*
%TD*%
%TO.N,/SCL*%
%TO.C,J12*%
X156000000Y-92000000D03*
%TD*%
%TO.N,/WP*%
%TO.C,J11*%
X154500000Y-92000000D03*
%TD*%
%TO.N,/RESETN*%
%TO.C,J10*%
X170000000Y-96000000D03*
%TD*%
%TO.N,/REGPDIN*%
%TO.C,J9*%
X165000000Y-92000000D03*
%TD*%
%TO.N,/SDO*%
%TO.C,J8*%
X163500000Y-92000000D03*
%TD*%
%TO.N,/SINTN*%
%TO.C,J7*%
X162000000Y-92000000D03*
%TD*%
%TO.N,/SCLK*%
%TO.C,J6*%
X170000000Y-97500000D03*
%TD*%
%TO.N,/SCEN*%
%TO.C,J5*%
X170000000Y-99000000D03*
%TD*%
%TO.N,/SDI*%
%TO.C,J4*%
X170000000Y-100500000D03*
%TD*%
%TO.N,+3V3*%
%TO.C,J3*%
X160500000Y-92000000D03*
%TD*%
%TO.N,+3V3*%
%TO.C,J2*%
X159000000Y-92000000D03*
%TD*%
%TO.N,Net-(J1-Pad1)*%
%TO.C,J1*%
X150000000Y-99000000D03*
%TD*%
D13*
%TO.N,GND*%
X152710000Y-106000000D03*
X151710000Y-106000000D03*
X152710000Y-103100000D03*
X151710000Y-103100000D03*
X153710000Y-101180000D03*
X152710000Y-100180000D03*
X153710000Y-100180000D03*
X152710000Y-94760000D03*
X152710000Y-97770000D03*
X152710000Y-95760000D03*
X166000000Y-103800000D03*
X156280000Y-100180000D03*
X156280000Y-99180000D03*
X156280000Y-98180000D03*
X152710000Y-96760000D03*
X154100000Y-106050000D03*
X167990000Y-100830000D03*
X163000000Y-99200000D03*
X162200000Y-99200000D03*
X163000000Y-98400000D03*
X162200000Y-98400000D03*
X162200000Y-100000000D03*
X163000000Y-100000000D03*
X163000000Y-100800000D03*
X162200000Y-100800000D03*
X161400000Y-100800000D03*
X160600000Y-100800000D03*
X161400000Y-100000000D03*
X160600000Y-100000000D03*
X160600000Y-99200000D03*
X161400000Y-98400000D03*
X161400000Y-99200000D03*
X160600000Y-98400000D03*
X158870000Y-101350000D03*
X154210000Y-98300000D03*
X157690000Y-98040000D03*
X157670000Y-99920000D03*
X156280000Y-103480000D03*
X161550000Y-96680000D03*
X163030000Y-95530000D03*
X163060000Y-94290000D03*
X166700000Y-95380000D03*
X167720000Y-94300000D03*
X167550000Y-97780000D03*
X165200000Y-95530000D03*
X166140000Y-96110000D03*
X167670000Y-95980000D03*
X164350000Y-104420000D03*
X162250000Y-105300000D03*
X159350000Y-105110000D03*
X163590000Y-104450000D03*
X163590000Y-103700000D03*
X156270000Y-101430000D03*
X161430000Y-103710000D03*
X160760000Y-105200000D03*
X159300000Y-105900000D03*
X166870000Y-100600000D03*
X166870000Y-101300000D03*
X166870000Y-102800000D03*
X167650000Y-102620000D03*
X165790000Y-106250000D03*
X165750000Y-105200000D03*
X161950000Y-93990000D03*
X157730000Y-94110000D03*
X159250000Y-94130000D03*
X160580000Y-95170000D03*
X167100000Y-104020000D03*
X167500000Y-104400000D03*
X154500000Y-96350000D03*
X157650000Y-104220000D03*
%TO.N,/VDDCP*%
X160790000Y-103710000D03*
X166220000Y-100600000D03*
X166220000Y-102800000D03*
X166140000Y-94300000D03*
%TO.N,+3V3*%
X157700000Y-98690000D03*
X157680000Y-100580000D03*
X157530000Y-95680000D03*
X154510000Y-93910000D03*
X156380000Y-93930000D03*
X154490000Y-95710000D03*
%TO.N,Net-(C45-Pad1)*%
X157250000Y-106420000D03*
X158660000Y-105900000D03*
X159550000Y-102530000D03*
%TO.N,Net-(C46-Pad2)*%
X158870000Y-101860000D03*
X157250000Y-104980000D03*
X156270000Y-102070000D03*
%TO.N,/SDI*%
X158880000Y-98350000D03*
%TO.N,/SCEN*%
X158880000Y-97850000D03*
%TO.N,/SCLK*%
X158870000Y-97350000D03*
%TO.N,/SINTN*%
X159550000Y-96680000D03*
%TO.N,/SDO*%
X160050000Y-96670000D03*
%TO.N,/REGPDIN*%
X160550000Y-96650000D03*
%TO.N,/RESETN*%
X161050000Y-96650000D03*
%TO.N,+3.3VA*%
X164350000Y-103780000D03*
X167100000Y-105600000D03*
X167500000Y-105970000D03*
X166140000Y-96750000D03*
%TO.N,/WP*%
X154500000Y-94570000D03*
%TO.N,/SCL*%
X156390000Y-94570000D03*
%TO.N,/SDA*%
X157520000Y-96330000D03*
%TD*%
D14*
%TO.N,+3V3*%
X156380000Y-93930000D02*
X156960000Y-93350000D01*
X156960000Y-93350000D02*
X158950000Y-93350000D01*
D15*
X159000000Y-93300000D02*
X159000000Y-92225010D01*
D14*
X158950000Y-93350000D02*
X159000000Y-93300000D01*
X158950000Y-93350000D02*
X160350000Y-93350000D01*
D15*
X160500000Y-93200000D02*
X160500000Y-92225010D01*
D14*
X160350000Y-93350000D02*
X160500000Y-93200000D01*
%TD*%
%TO.N,+3V3*%
G36*
X163396739Y-93118234D02*
G01*
X163457882Y-93135124D01*
X163492890Y-93170595D01*
X163508978Y-93231957D01*
X163504998Y-94057758D01*
X163503094Y-94053161D01*
X163448375Y-93971269D01*
X163378731Y-93901625D01*
X163296839Y-93846906D01*
X163205845Y-93809215D01*
X163109246Y-93790000D01*
X163010754Y-93790000D01*
X162914155Y-93809215D01*
X162823161Y-93846906D01*
X162741269Y-93901625D01*
X162671625Y-93971269D01*
X162616906Y-94053161D01*
X162579215Y-94144155D01*
X162560000Y-94240754D01*
X162560000Y-94339246D01*
X162579215Y-94435845D01*
X162616906Y-94526839D01*
X162671625Y-94608731D01*
X162741269Y-94678375D01*
X162823161Y-94733094D01*
X162914155Y-94770785D01*
X163010754Y-94790000D01*
X163109246Y-94790000D01*
X163205845Y-94770785D01*
X163296839Y-94733094D01*
X163378731Y-94678375D01*
X163448375Y-94608731D01*
X163502735Y-94527377D01*
X163498745Y-95355089D01*
X163473094Y-95293161D01*
X163418375Y-95211269D01*
X163348731Y-95141625D01*
X163266839Y-95086906D01*
X163175845Y-95049215D01*
X163079246Y-95030000D01*
X162980754Y-95030000D01*
X162884155Y-95049215D01*
X162793161Y-95086906D01*
X162711269Y-95141625D01*
X162641625Y-95211269D01*
X162586906Y-95293161D01*
X162549215Y-95384155D01*
X162530000Y-95480754D01*
X162530000Y-95579246D01*
X162549215Y-95675845D01*
X162586906Y-95766839D01*
X162641625Y-95848731D01*
X162711269Y-95918375D01*
X162793161Y-95973094D01*
X162884155Y-96010785D01*
X162980754Y-96030000D01*
X163079246Y-96030000D01*
X163175845Y-96010785D01*
X163266839Y-95973094D01*
X163348731Y-95918375D01*
X163418375Y-95848731D01*
X163473094Y-95766839D01*
X163497040Y-95709029D01*
X163491012Y-96959690D01*
X163481363Y-97007011D01*
X163459961Y-97038712D01*
X163428054Y-97059812D01*
X163380646Y-97069008D01*
X161875216Y-97061890D01*
X161938375Y-96998731D01*
X161993094Y-96916839D01*
X162030785Y-96825845D01*
X162050000Y-96729246D01*
X162050000Y-96630754D01*
X162030785Y-96534155D01*
X161993094Y-96443161D01*
X161938375Y-96361269D01*
X161868731Y-96291625D01*
X161786839Y-96236906D01*
X161695845Y-96199215D01*
X161599246Y-96180000D01*
X161500754Y-96180000D01*
X161404155Y-96199215D01*
X161324628Y-96232156D01*
X161286839Y-96206906D01*
X161195845Y-96169215D01*
X161099246Y-96150000D01*
X161000754Y-96150000D01*
X160904155Y-96169215D01*
X160813161Y-96206906D01*
X160800000Y-96215700D01*
X160786839Y-96206906D01*
X160695845Y-96169215D01*
X160599246Y-96150000D01*
X160500754Y-96150000D01*
X160404155Y-96169215D01*
X160313161Y-96206906D01*
X160284611Y-96225983D01*
X160195845Y-96189215D01*
X160099246Y-96170000D01*
X160000754Y-96170000D01*
X159904155Y-96189215D01*
X159813161Y-96226906D01*
X159792517Y-96240700D01*
X159786839Y-96236906D01*
X159695845Y-96199215D01*
X159599246Y-96180000D01*
X159500754Y-96180000D01*
X159404155Y-96199215D01*
X159313161Y-96236906D01*
X159231269Y-96291625D01*
X159161625Y-96361269D01*
X159106906Y-96443161D01*
X159069215Y-96534155D01*
X159050000Y-96630754D01*
X159050000Y-96729246D01*
X159069215Y-96825845D01*
X159101953Y-96904882D01*
X159015845Y-96869215D01*
X158919246Y-96850000D01*
X158820754Y-96850000D01*
X158724155Y-96869215D01*
X158633161Y-96906906D01*
X158551269Y-96961625D01*
X158481625Y-97031269D01*
X158426906Y-97113161D01*
X158389215Y-97204155D01*
X158370000Y-97300754D01*
X158370000Y-97399246D01*
X158389215Y-97495845D01*
X158426906Y-97586839D01*
X158440700Y-97607483D01*
X158436906Y-97613161D01*
X158399215Y-97704155D01*
X158380000Y-97800754D01*
X158380000Y-97899246D01*
X158399215Y-97995845D01*
X158436906Y-98086839D01*
X158445700Y-98100000D01*
X158436906Y-98113161D01*
X158399215Y-98204155D01*
X158380000Y-98300754D01*
X158380000Y-98399246D01*
X158399215Y-98495845D01*
X158436906Y-98586839D01*
X158491625Y-98668731D01*
X158561269Y-98738375D01*
X158643161Y-98793094D01*
X158734155Y-98830785D01*
X158830754Y-98850000D01*
X158929246Y-98850000D01*
X159025845Y-98830785D01*
X159116839Y-98793094D01*
X159198731Y-98738375D01*
X159260000Y-98677106D01*
X159260000Y-100838030D01*
X159243663Y-100899235D01*
X159208569Y-100934531D01*
X159165702Y-100946237D01*
X159106839Y-100906906D01*
X159015845Y-100869215D01*
X158919246Y-100850000D01*
X158820754Y-100850000D01*
X158724155Y-100869215D01*
X158633161Y-100906906D01*
X158561804Y-100954586D01*
X156961461Y-100963783D01*
X156913744Y-100954512D01*
X156881696Y-100933180D01*
X156860336Y-100901154D01*
X156851020Y-100853446D01*
X156855750Y-99870754D01*
X157170000Y-99870754D01*
X157170000Y-99969246D01*
X157189215Y-100065845D01*
X157226906Y-100156839D01*
X157281625Y-100238731D01*
X157351269Y-100308375D01*
X157433161Y-100363094D01*
X157524155Y-100400785D01*
X157620754Y-100420000D01*
X157719246Y-100420000D01*
X157815845Y-100400785D01*
X157906839Y-100363094D01*
X157988731Y-100308375D01*
X158058375Y-100238731D01*
X158113094Y-100156839D01*
X158150785Y-100065845D01*
X158170000Y-99969246D01*
X158170000Y-99870754D01*
X158150785Y-99774155D01*
X158113094Y-99683161D01*
X158058375Y-99601269D01*
X157988731Y-99531625D01*
X157906839Y-99476906D01*
X157815845Y-99439215D01*
X157719246Y-99420000D01*
X157620754Y-99420000D01*
X157524155Y-99439215D01*
X157433161Y-99476906D01*
X157351269Y-99531625D01*
X157281625Y-99601269D01*
X157226906Y-99683161D01*
X157189215Y-99774155D01*
X157170000Y-99870754D01*
X156855750Y-99870754D01*
X156864799Y-97990754D01*
X157190000Y-97990754D01*
X157190000Y-98089246D01*
X157209215Y-98185845D01*
X157246906Y-98276839D01*
X157301625Y-98358731D01*
X157371269Y-98428375D01*
X157453161Y-98483094D01*
X157544155Y-98520785D01*
X157640754Y-98540000D01*
X157739246Y-98540000D01*
X157835845Y-98520785D01*
X157926839Y-98483094D01*
X158008731Y-98428375D01*
X158078375Y-98358731D01*
X158133094Y-98276839D01*
X158170785Y-98185845D01*
X158190000Y-98089246D01*
X158190000Y-97990754D01*
X158170785Y-97894155D01*
X158133094Y-97803161D01*
X158078375Y-97721269D01*
X158008731Y-97651625D01*
X157926839Y-97596906D01*
X157835845Y-97559215D01*
X157739246Y-97540000D01*
X157640754Y-97540000D01*
X157544155Y-97559215D01*
X157453161Y-97596906D01*
X157371269Y-97651625D01*
X157301625Y-97721269D01*
X157246906Y-97803161D01*
X157209215Y-97894155D01*
X157190000Y-97990754D01*
X156864799Y-97990754D01*
X156869032Y-97111444D01*
X156867193Y-97091867D01*
X156852246Y-97015035D01*
X156846634Y-96996252D01*
X156837400Y-96978824D01*
X156794110Y-96913612D01*
X156781719Y-96898421D01*
X156766503Y-96885873D01*
X156701501Y-96842270D01*
X156684229Y-96832997D01*
X156665362Y-96827249D01*
X156588603Y-96811933D01*
X156569035Y-96810000D01*
X154696024Y-96810000D01*
X154736839Y-96793094D01*
X154818731Y-96738375D01*
X154888375Y-96668731D01*
X154943094Y-96586839D01*
X154980785Y-96495845D01*
X155000000Y-96399246D01*
X155000000Y-96300754D01*
X154996022Y-96280754D01*
X157020000Y-96280754D01*
X157020000Y-96379246D01*
X157039215Y-96475845D01*
X157076906Y-96566839D01*
X157131625Y-96648731D01*
X157201269Y-96718375D01*
X157283161Y-96773094D01*
X157374155Y-96810785D01*
X157470754Y-96830000D01*
X157569246Y-96830000D01*
X157665845Y-96810785D01*
X157756839Y-96773094D01*
X157838731Y-96718375D01*
X157908375Y-96648731D01*
X157963094Y-96566839D01*
X158000785Y-96475845D01*
X158020000Y-96379246D01*
X158020000Y-96280754D01*
X158000785Y-96184155D01*
X157963094Y-96093161D01*
X157908375Y-96011269D01*
X157838731Y-95941625D01*
X157756839Y-95886906D01*
X157665845Y-95849215D01*
X157569246Y-95830000D01*
X157470754Y-95830000D01*
X157374155Y-95849215D01*
X157283161Y-95886906D01*
X157201269Y-95941625D01*
X157131625Y-96011269D01*
X157076906Y-96093161D01*
X157039215Y-96184155D01*
X157020000Y-96280754D01*
X154996022Y-96280754D01*
X154980785Y-96204155D01*
X154943094Y-96113161D01*
X154888375Y-96031269D01*
X154818731Y-95961625D01*
X154736839Y-95906906D01*
X154645845Y-95869215D01*
X154549246Y-95850000D01*
X154450754Y-95850000D01*
X154354155Y-95869215D01*
X154263161Y-95906906D01*
X154181269Y-95961625D01*
X154111625Y-96031269D01*
X154056906Y-96113161D01*
X154035636Y-96164510D01*
X154043523Y-95120754D01*
X160080000Y-95120754D01*
X160080000Y-95219246D01*
X160099215Y-95315845D01*
X160136906Y-95406839D01*
X160191625Y-95488731D01*
X160261269Y-95558375D01*
X160343161Y-95613094D01*
X160434155Y-95650785D01*
X160530754Y-95670000D01*
X160629246Y-95670000D01*
X160725845Y-95650785D01*
X160816839Y-95613094D01*
X160898731Y-95558375D01*
X160968375Y-95488731D01*
X161023094Y-95406839D01*
X161060785Y-95315845D01*
X161080000Y-95219246D01*
X161080000Y-95120754D01*
X161060785Y-95024155D01*
X161023094Y-94933161D01*
X160968375Y-94851269D01*
X160898731Y-94781625D01*
X160816839Y-94726906D01*
X160725845Y-94689215D01*
X160629246Y-94670000D01*
X160530754Y-94670000D01*
X160434155Y-94689215D01*
X160343161Y-94726906D01*
X160261269Y-94781625D01*
X160191625Y-94851269D01*
X160136906Y-94933161D01*
X160099215Y-95024155D01*
X160080000Y-95120754D01*
X154043523Y-95120754D01*
X154046093Y-94780734D01*
X154056906Y-94806839D01*
X154111625Y-94888731D01*
X154181269Y-94958375D01*
X154263161Y-95013094D01*
X154354155Y-95050785D01*
X154450754Y-95070000D01*
X154549246Y-95070000D01*
X154645845Y-95050785D01*
X154736839Y-95013094D01*
X154818731Y-94958375D01*
X154888375Y-94888731D01*
X154943094Y-94806839D01*
X154980785Y-94715845D01*
X155000000Y-94619246D01*
X155000000Y-94520754D01*
X155890000Y-94520754D01*
X155890000Y-94619246D01*
X155909215Y-94715845D01*
X155946906Y-94806839D01*
X156001625Y-94888731D01*
X156071269Y-94958375D01*
X156153161Y-95013094D01*
X156244155Y-95050785D01*
X156340754Y-95070000D01*
X156439246Y-95070000D01*
X156535845Y-95050785D01*
X156626839Y-95013094D01*
X156708731Y-94958375D01*
X156778375Y-94888731D01*
X156833094Y-94806839D01*
X156870785Y-94715845D01*
X156890000Y-94619246D01*
X156890000Y-94520754D01*
X156870785Y-94424155D01*
X156833094Y-94333161D01*
X156778375Y-94251269D01*
X156708731Y-94181625D01*
X156626839Y-94126906D01*
X156535845Y-94089215D01*
X156439246Y-94070000D01*
X156340754Y-94070000D01*
X156244155Y-94089215D01*
X156153161Y-94126906D01*
X156071269Y-94181625D01*
X156001625Y-94251269D01*
X155946906Y-94333161D01*
X155909215Y-94424155D01*
X155890000Y-94520754D01*
X155000000Y-94520754D01*
X154980785Y-94424155D01*
X154943094Y-94333161D01*
X154888375Y-94251269D01*
X154818731Y-94181625D01*
X154736839Y-94126906D01*
X154645845Y-94089215D01*
X154549246Y-94070000D01*
X154450754Y-94070000D01*
X154354155Y-94089215D01*
X154263161Y-94126906D01*
X154181269Y-94181625D01*
X154111625Y-94251269D01*
X154056906Y-94333161D01*
X154049337Y-94351434D01*
X154051533Y-94060754D01*
X157230000Y-94060754D01*
X157230000Y-94159246D01*
X157249215Y-94255845D01*
X157286906Y-94346839D01*
X157341625Y-94428731D01*
X157411269Y-94498375D01*
X157493161Y-94553094D01*
X157584155Y-94590785D01*
X157680754Y-94610000D01*
X157779246Y-94610000D01*
X157875845Y-94590785D01*
X157966839Y-94553094D01*
X158048731Y-94498375D01*
X158118375Y-94428731D01*
X158173094Y-94346839D01*
X158210785Y-94255845D01*
X158230000Y-94159246D01*
X158230000Y-94080754D01*
X158750000Y-94080754D01*
X158750000Y-94179246D01*
X158769215Y-94275845D01*
X158806906Y-94366839D01*
X158861625Y-94448731D01*
X158931269Y-94518375D01*
X159013161Y-94573094D01*
X159104155Y-94610785D01*
X159200754Y-94630000D01*
X159299246Y-94630000D01*
X159395845Y-94610785D01*
X159486839Y-94573094D01*
X159568731Y-94518375D01*
X159638375Y-94448731D01*
X159693094Y-94366839D01*
X159730785Y-94275845D01*
X159750000Y-94179246D01*
X159750000Y-94080754D01*
X159730785Y-93984155D01*
X159712808Y-93940754D01*
X161450000Y-93940754D01*
X161450000Y-94039246D01*
X161469215Y-94135845D01*
X161506906Y-94226839D01*
X161561625Y-94308731D01*
X161631269Y-94378375D01*
X161713161Y-94433094D01*
X161804155Y-94470785D01*
X161900754Y-94490000D01*
X161999246Y-94490000D01*
X162095845Y-94470785D01*
X162186839Y-94433094D01*
X162268731Y-94378375D01*
X162338375Y-94308731D01*
X162393094Y-94226839D01*
X162430785Y-94135845D01*
X162450000Y-94039246D01*
X162450000Y-93940754D01*
X162430785Y-93844155D01*
X162393094Y-93753161D01*
X162338375Y-93671269D01*
X162268731Y-93601625D01*
X162186839Y-93546906D01*
X162095845Y-93509215D01*
X161999246Y-93490000D01*
X161900754Y-93490000D01*
X161804155Y-93509215D01*
X161713161Y-93546906D01*
X161631269Y-93601625D01*
X161561625Y-93671269D01*
X161506906Y-93753161D01*
X161469215Y-93844155D01*
X161450000Y-93940754D01*
X159712808Y-93940754D01*
X159693094Y-93893161D01*
X159638375Y-93811269D01*
X159568731Y-93741625D01*
X159486839Y-93686906D01*
X159395845Y-93649215D01*
X159299246Y-93630000D01*
X159200754Y-93630000D01*
X159104155Y-93649215D01*
X159013161Y-93686906D01*
X158931269Y-93741625D01*
X158861625Y-93811269D01*
X158806906Y-93893161D01*
X158769215Y-93984155D01*
X158750000Y-94080754D01*
X158230000Y-94080754D01*
X158230000Y-94060754D01*
X158210785Y-93964155D01*
X158173094Y-93873161D01*
X158118375Y-93791269D01*
X158048731Y-93721625D01*
X157966839Y-93666906D01*
X157875845Y-93629215D01*
X157779246Y-93610000D01*
X157680754Y-93610000D01*
X157584155Y-93629215D01*
X157493161Y-93666906D01*
X157411269Y-93721625D01*
X157341625Y-93791269D01*
X157286906Y-93873161D01*
X157249215Y-93964155D01*
X157230000Y-94060754D01*
X154051533Y-94060754D01*
X154059241Y-93040745D01*
X163396739Y-93118234D01*
G37*
X163396739Y-93118234D02*
X163457882Y-93135124D01*
X163492890Y-93170595D01*
X163508978Y-93231957D01*
X163504998Y-94057758D01*
X163503094Y-94053161D01*
X163448375Y-93971269D01*
X163378731Y-93901625D01*
X163296839Y-93846906D01*
X163205845Y-93809215D01*
X163109246Y-93790000D01*
X163010754Y-93790000D01*
X162914155Y-93809215D01*
X162823161Y-93846906D01*
X162741269Y-93901625D01*
X162671625Y-93971269D01*
X162616906Y-94053161D01*
X162579215Y-94144155D01*
X162560000Y-94240754D01*
X162560000Y-94339246D01*
X162579215Y-94435845D01*
X162616906Y-94526839D01*
X162671625Y-94608731D01*
X162741269Y-94678375D01*
X162823161Y-94733094D01*
X162914155Y-94770785D01*
X163010754Y-94790000D01*
X163109246Y-94790000D01*
X163205845Y-94770785D01*
X163296839Y-94733094D01*
X163378731Y-94678375D01*
X163448375Y-94608731D01*
X163502735Y-94527377D01*
X163498745Y-95355089D01*
X163473094Y-95293161D01*
X163418375Y-95211269D01*
X163348731Y-95141625D01*
X163266839Y-95086906D01*
X163175845Y-95049215D01*
X163079246Y-95030000D01*
X162980754Y-95030000D01*
X162884155Y-95049215D01*
X162793161Y-95086906D01*
X162711269Y-95141625D01*
X162641625Y-95211269D01*
X162586906Y-95293161D01*
X162549215Y-95384155D01*
X162530000Y-95480754D01*
X162530000Y-95579246D01*
X162549215Y-95675845D01*
X162586906Y-95766839D01*
X162641625Y-95848731D01*
X162711269Y-95918375D01*
X162793161Y-95973094D01*
X162884155Y-96010785D01*
X162980754Y-96030000D01*
X163079246Y-96030000D01*
X163175845Y-96010785D01*
X163266839Y-95973094D01*
X163348731Y-95918375D01*
X163418375Y-95848731D01*
X163473094Y-95766839D01*
X163497040Y-95709029D01*
X163491012Y-96959690D01*
X163481363Y-97007011D01*
X163459961Y-97038712D01*
X163428054Y-97059812D01*
X163380646Y-97069008D01*
X161875216Y-97061890D01*
X161938375Y-96998731D01*
X161993094Y-96916839D01*
X162030785Y-96825845D01*
X162050000Y-96729246D01*
X162050000Y-96630754D01*
X162030785Y-96534155D01*
X161993094Y-96443161D01*
X161938375Y-96361269D01*
X161868731Y-96291625D01*
X161786839Y-96236906D01*
X161695845Y-96199215D01*
X161599246Y-96180000D01*
X161500754Y-96180000D01*
X161404155Y-96199215D01*
X161324628Y-96232156D01*
X161286839Y-96206906D01*
X161195845Y-96169215D01*
X161099246Y-96150000D01*
X161000754Y-96150000D01*
X160904155Y-96169215D01*
X160813161Y-96206906D01*
X160800000Y-96215700D01*
X160786839Y-96206906D01*
X160695845Y-96169215D01*
X160599246Y-96150000D01*
X160500754Y-96150000D01*
X160404155Y-96169215D01*
X160313161Y-96206906D01*
X160284611Y-96225983D01*
X160195845Y-96189215D01*
X160099246Y-96170000D01*
X160000754Y-96170000D01*
X159904155Y-96189215D01*
X159813161Y-96226906D01*
X159792517Y-96240700D01*
X159786839Y-96236906D01*
X159695845Y-96199215D01*
X159599246Y-96180000D01*
X159500754Y-96180000D01*
X159404155Y-96199215D01*
X159313161Y-96236906D01*
X159231269Y-96291625D01*
X159161625Y-96361269D01*
X159106906Y-96443161D01*
X159069215Y-96534155D01*
X159050000Y-96630754D01*
X159050000Y-96729246D01*
X159069215Y-96825845D01*
X159101953Y-96904882D01*
X159015845Y-96869215D01*
X158919246Y-96850000D01*
X158820754Y-96850000D01*
X158724155Y-96869215D01*
X158633161Y-96906906D01*
X158551269Y-96961625D01*
X158481625Y-97031269D01*
X158426906Y-97113161D01*
X158389215Y-97204155D01*
X158370000Y-97300754D01*
X158370000Y-97399246D01*
X158389215Y-97495845D01*
X158426906Y-97586839D01*
X158440700Y-97607483D01*
X158436906Y-97613161D01*
X158399215Y-97704155D01*
X158380000Y-97800754D01*
X158380000Y-97899246D01*
X158399215Y-97995845D01*
X158436906Y-98086839D01*
X158445700Y-98100000D01*
X158436906Y-98113161D01*
X158399215Y-98204155D01*
X158380000Y-98300754D01*
X158380000Y-98399246D01*
X158399215Y-98495845D01*
X158436906Y-98586839D01*
X158491625Y-98668731D01*
X158561269Y-98738375D01*
X158643161Y-98793094D01*
X158734155Y-98830785D01*
X158830754Y-98850000D01*
X158929246Y-98850000D01*
X159025845Y-98830785D01*
X159116839Y-98793094D01*
X159198731Y-98738375D01*
X159260000Y-98677106D01*
X159260000Y-100838030D01*
X159243663Y-100899235D01*
X159208569Y-100934531D01*
X159165702Y-100946237D01*
X159106839Y-100906906D01*
X159015845Y-100869215D01*
X158919246Y-100850000D01*
X158820754Y-100850000D01*
X158724155Y-100869215D01*
X158633161Y-100906906D01*
X158561804Y-100954586D01*
X156961461Y-100963783D01*
X156913744Y-100954512D01*
X156881696Y-100933180D01*
X156860336Y-100901154D01*
X156851020Y-100853446D01*
X156855750Y-99870754D01*
X157170000Y-99870754D01*
X157170000Y-99969246D01*
X157189215Y-100065845D01*
X157226906Y-100156839D01*
X157281625Y-100238731D01*
X157351269Y-100308375D01*
X157433161Y-100363094D01*
X157524155Y-100400785D01*
X157620754Y-100420000D01*
X157719246Y-100420000D01*
X157815845Y-100400785D01*
X157906839Y-100363094D01*
X157988731Y-100308375D01*
X158058375Y-100238731D01*
X158113094Y-100156839D01*
X158150785Y-100065845D01*
X158170000Y-99969246D01*
X158170000Y-99870754D01*
X158150785Y-99774155D01*
X158113094Y-99683161D01*
X158058375Y-99601269D01*
X157988731Y-99531625D01*
X157906839Y-99476906D01*
X157815845Y-99439215D01*
X157719246Y-99420000D01*
X157620754Y-99420000D01*
X157524155Y-99439215D01*
X157433161Y-99476906D01*
X157351269Y-99531625D01*
X157281625Y-99601269D01*
X157226906Y-99683161D01*
X157189215Y-99774155D01*
X157170000Y-99870754D01*
X156855750Y-99870754D01*
X156864799Y-97990754D01*
X157190000Y-97990754D01*
X157190000Y-98089246D01*
X157209215Y-98185845D01*
X157246906Y-98276839D01*
X157301625Y-98358731D01*
X157371269Y-98428375D01*
X157453161Y-98483094D01*
X157544155Y-98520785D01*
X157640754Y-98540000D01*
X157739246Y-98540000D01*
X157835845Y-98520785D01*
X157926839Y-98483094D01*
X158008731Y-98428375D01*
X158078375Y-98358731D01*
X158133094Y-98276839D01*
X158170785Y-98185845D01*
X158190000Y-98089246D01*
X158190000Y-97990754D01*
X158170785Y-97894155D01*
X158133094Y-97803161D01*
X158078375Y-97721269D01*
X158008731Y-97651625D01*
X157926839Y-97596906D01*
X157835845Y-97559215D01*
X157739246Y-97540000D01*
X157640754Y-97540000D01*
X157544155Y-97559215D01*
X157453161Y-97596906D01*
X157371269Y-97651625D01*
X157301625Y-97721269D01*
X157246906Y-97803161D01*
X157209215Y-97894155D01*
X157190000Y-97990754D01*
X156864799Y-97990754D01*
X156869032Y-97111444D01*
X156867193Y-97091867D01*
X156852246Y-97015035D01*
X156846634Y-96996252D01*
X156837400Y-96978824D01*
X156794110Y-96913612D01*
X156781719Y-96898421D01*
X156766503Y-96885873D01*
X156701501Y-96842270D01*
X156684229Y-96832997D01*
X156665362Y-96827249D01*
X156588603Y-96811933D01*
X156569035Y-96810000D01*
X154696024Y-96810000D01*
X154736839Y-96793094D01*
X154818731Y-96738375D01*
X154888375Y-96668731D01*
X154943094Y-96586839D01*
X154980785Y-96495845D01*
X155000000Y-96399246D01*
X155000000Y-96300754D01*
X154996022Y-96280754D01*
X157020000Y-96280754D01*
X157020000Y-96379246D01*
X157039215Y-96475845D01*
X157076906Y-96566839D01*
X157131625Y-96648731D01*
X157201269Y-96718375D01*
X157283161Y-96773094D01*
X157374155Y-96810785D01*
X157470754Y-96830000D01*
X157569246Y-96830000D01*
X157665845Y-96810785D01*
X157756839Y-96773094D01*
X157838731Y-96718375D01*
X157908375Y-96648731D01*
X157963094Y-96566839D01*
X158000785Y-96475845D01*
X158020000Y-96379246D01*
X158020000Y-96280754D01*
X158000785Y-96184155D01*
X157963094Y-96093161D01*
X157908375Y-96011269D01*
X157838731Y-95941625D01*
X157756839Y-95886906D01*
X157665845Y-95849215D01*
X157569246Y-95830000D01*
X157470754Y-95830000D01*
X157374155Y-95849215D01*
X157283161Y-95886906D01*
X157201269Y-95941625D01*
X157131625Y-96011269D01*
X157076906Y-96093161D01*
X157039215Y-96184155D01*
X157020000Y-96280754D01*
X154996022Y-96280754D01*
X154980785Y-96204155D01*
X154943094Y-96113161D01*
X154888375Y-96031269D01*
X154818731Y-95961625D01*
X154736839Y-95906906D01*
X154645845Y-95869215D01*
X154549246Y-95850000D01*
X154450754Y-95850000D01*
X154354155Y-95869215D01*
X154263161Y-95906906D01*
X154181269Y-95961625D01*
X154111625Y-96031269D01*
X154056906Y-96113161D01*
X154035636Y-96164510D01*
X154043523Y-95120754D01*
X160080000Y-95120754D01*
X160080000Y-95219246D01*
X160099215Y-95315845D01*
X160136906Y-95406839D01*
X160191625Y-95488731D01*
X160261269Y-95558375D01*
X160343161Y-95613094D01*
X160434155Y-95650785D01*
X160530754Y-95670000D01*
X160629246Y-95670000D01*
X160725845Y-95650785D01*
X160816839Y-95613094D01*
X160898731Y-95558375D01*
X160968375Y-95488731D01*
X161023094Y-95406839D01*
X161060785Y-95315845D01*
X161080000Y-95219246D01*
X161080000Y-95120754D01*
X161060785Y-95024155D01*
X161023094Y-94933161D01*
X160968375Y-94851269D01*
X160898731Y-94781625D01*
X160816839Y-94726906D01*
X160725845Y-94689215D01*
X160629246Y-94670000D01*
X160530754Y-94670000D01*
X160434155Y-94689215D01*
X160343161Y-94726906D01*
X160261269Y-94781625D01*
X160191625Y-94851269D01*
X160136906Y-94933161D01*
X160099215Y-95024155D01*
X160080000Y-95120754D01*
X154043523Y-95120754D01*
X154046093Y-94780734D01*
X154056906Y-94806839D01*
X154111625Y-94888731D01*
X154181269Y-94958375D01*
X154263161Y-95013094D01*
X154354155Y-95050785D01*
X154450754Y-95070000D01*
X154549246Y-95070000D01*
X154645845Y-95050785D01*
X154736839Y-95013094D01*
X154818731Y-94958375D01*
X154888375Y-94888731D01*
X154943094Y-94806839D01*
X154980785Y-94715845D01*
X155000000Y-94619246D01*
X155000000Y-94520754D01*
X155890000Y-94520754D01*
X155890000Y-94619246D01*
X155909215Y-94715845D01*
X155946906Y-94806839D01*
X156001625Y-94888731D01*
X156071269Y-94958375D01*
X156153161Y-95013094D01*
X156244155Y-95050785D01*
X156340754Y-95070000D01*
X156439246Y-95070000D01*
X156535845Y-95050785D01*
X156626839Y-95013094D01*
X156708731Y-94958375D01*
X156778375Y-94888731D01*
X156833094Y-94806839D01*
X156870785Y-94715845D01*
X156890000Y-94619246D01*
X156890000Y-94520754D01*
X156870785Y-94424155D01*
X156833094Y-94333161D01*
X156778375Y-94251269D01*
X156708731Y-94181625D01*
X156626839Y-94126906D01*
X156535845Y-94089215D01*
X156439246Y-94070000D01*
X156340754Y-94070000D01*
X156244155Y-94089215D01*
X156153161Y-94126906D01*
X156071269Y-94181625D01*
X156001625Y-94251269D01*
X155946906Y-94333161D01*
X155909215Y-94424155D01*
X155890000Y-94520754D01*
X155000000Y-94520754D01*
X154980785Y-94424155D01*
X154943094Y-94333161D01*
X154888375Y-94251269D01*
X154818731Y-94181625D01*
X154736839Y-94126906D01*
X154645845Y-94089215D01*
X154549246Y-94070000D01*
X154450754Y-94070000D01*
X154354155Y-94089215D01*
X154263161Y-94126906D01*
X154181269Y-94181625D01*
X154111625Y-94251269D01*
X154056906Y-94333161D01*
X154049337Y-94351434D01*
X154051533Y-94060754D01*
X157230000Y-94060754D01*
X157230000Y-94159246D01*
X157249215Y-94255845D01*
X157286906Y-94346839D01*
X157341625Y-94428731D01*
X157411269Y-94498375D01*
X157493161Y-94553094D01*
X157584155Y-94590785D01*
X157680754Y-94610000D01*
X157779246Y-94610000D01*
X157875845Y-94590785D01*
X157966839Y-94553094D01*
X158048731Y-94498375D01*
X158118375Y-94428731D01*
X158173094Y-94346839D01*
X158210785Y-94255845D01*
X158230000Y-94159246D01*
X158230000Y-94080754D01*
X158750000Y-94080754D01*
X158750000Y-94179246D01*
X158769215Y-94275845D01*
X158806906Y-94366839D01*
X158861625Y-94448731D01*
X158931269Y-94518375D01*
X159013161Y-94573094D01*
X159104155Y-94610785D01*
X159200754Y-94630000D01*
X159299246Y-94630000D01*
X159395845Y-94610785D01*
X159486839Y-94573094D01*
X159568731Y-94518375D01*
X159638375Y-94448731D01*
X159693094Y-94366839D01*
X159730785Y-94275845D01*
X159750000Y-94179246D01*
X159750000Y-94080754D01*
X159730785Y-93984155D01*
X159712808Y-93940754D01*
X161450000Y-93940754D01*
X161450000Y-94039246D01*
X161469215Y-94135845D01*
X161506906Y-94226839D01*
X161561625Y-94308731D01*
X161631269Y-94378375D01*
X161713161Y-94433094D01*
X161804155Y-94470785D01*
X161900754Y-94490000D01*
X161999246Y-94490000D01*
X162095845Y-94470785D01*
X162186839Y-94433094D01*
X162268731Y-94378375D01*
X162338375Y-94308731D01*
X162393094Y-94226839D01*
X162430785Y-94135845D01*
X162450000Y-94039246D01*
X162450000Y-93940754D01*
X162430785Y-93844155D01*
X162393094Y-93753161D01*
X162338375Y-93671269D01*
X162268731Y-93601625D01*
X162186839Y-93546906D01*
X162095845Y-93509215D01*
X161999246Y-93490000D01*
X161900754Y-93490000D01*
X161804155Y-93509215D01*
X161713161Y-93546906D01*
X161631269Y-93601625D01*
X161561625Y-93671269D01*
X161506906Y-93753161D01*
X161469215Y-93844155D01*
X161450000Y-93940754D01*
X159712808Y-93940754D01*
X159693094Y-93893161D01*
X159638375Y-93811269D01*
X159568731Y-93741625D01*
X159486839Y-93686906D01*
X159395845Y-93649215D01*
X159299246Y-93630000D01*
X159200754Y-93630000D01*
X159104155Y-93649215D01*
X159013161Y-93686906D01*
X158931269Y-93741625D01*
X158861625Y-93811269D01*
X158806906Y-93893161D01*
X158769215Y-93984155D01*
X158750000Y-94080754D01*
X158230000Y-94080754D01*
X158230000Y-94060754D01*
X158210785Y-93964155D01*
X158173094Y-93873161D01*
X158118375Y-93791269D01*
X158048731Y-93721625D01*
X157966839Y-93666906D01*
X157875845Y-93629215D01*
X157779246Y-93610000D01*
X157680754Y-93610000D01*
X157584155Y-93629215D01*
X157493161Y-93666906D01*
X157411269Y-93721625D01*
X157341625Y-93791269D01*
X157286906Y-93873161D01*
X157249215Y-93964155D01*
X157230000Y-94060754D01*
X154051533Y-94060754D01*
X154059241Y-93040745D01*
X163396739Y-93118234D01*
%TO.N,/VDDCP*%
G36*
X166709456Y-93686312D02*
G01*
X166744747Y-93721356D01*
X166761488Y-93782405D01*
X166769218Y-94883973D01*
X166749246Y-94880000D01*
X166650754Y-94880000D01*
X166554155Y-94899215D01*
X166463161Y-94936906D01*
X166381269Y-94991625D01*
X166311625Y-95061269D01*
X166256906Y-95143161D01*
X166219215Y-95234155D01*
X166200000Y-95330754D01*
X166200000Y-95429246D01*
X166219215Y-95525845D01*
X166256906Y-95616839D01*
X166262007Y-95624473D01*
X166189246Y-95610000D01*
X166090754Y-95610000D01*
X165994155Y-95629215D01*
X165903161Y-95666906D01*
X165821269Y-95721625D01*
X165751625Y-95791269D01*
X165696906Y-95873161D01*
X165659215Y-95964155D01*
X165640000Y-96060754D01*
X165640000Y-96159246D01*
X165659215Y-96255845D01*
X165687686Y-96324580D01*
X165624333Y-96337203D01*
X165605575Y-96342900D01*
X165588234Y-96352184D01*
X165523284Y-96395676D01*
X165508143Y-96408127D01*
X165495685Y-96423349D01*
X165452366Y-96488415D01*
X165443153Y-96505719D01*
X165437481Y-96524554D01*
X165422411Y-96601254D01*
X165420535Y-96620800D01*
X165429478Y-99974599D01*
X165432860Y-100000119D01*
X165459193Y-100098783D01*
X165466080Y-100117137D01*
X165476416Y-100133794D01*
X165484517Y-100143119D01*
X165556124Y-100215922D01*
X165571174Y-100228483D01*
X165588386Y-100237867D01*
X165600035Y-100241977D01*
X165698249Y-100269940D01*
X165723709Y-100273744D01*
X166360315Y-100285986D01*
X166420511Y-100303080D01*
X166448271Y-100331187D01*
X166426906Y-100363161D01*
X166389215Y-100454155D01*
X166370000Y-100550754D01*
X166370000Y-100649246D01*
X166389215Y-100745845D01*
X166426906Y-100836839D01*
X166474902Y-100908670D01*
X166475461Y-100990494D01*
X166426906Y-101063161D01*
X166389215Y-101154155D01*
X166370000Y-101250754D01*
X166370000Y-101349246D01*
X166389215Y-101445845D01*
X166426906Y-101536839D01*
X166479730Y-101615895D01*
X166485609Y-102477285D01*
X166481625Y-102481269D01*
X166426906Y-102563161D01*
X166389215Y-102654155D01*
X166370000Y-102750754D01*
X166370000Y-102849246D01*
X166389215Y-102945845D01*
X166416782Y-103012398D01*
X166378737Y-103020000D01*
X163890000Y-103020000D01*
X163870491Y-103021921D01*
X163793954Y-103037145D01*
X163775195Y-103042836D01*
X163757905Y-103052078D01*
X163693021Y-103095433D01*
X163677868Y-103107869D01*
X163665433Y-103123021D01*
X163622078Y-103187905D01*
X163615613Y-103200000D01*
X163540754Y-103200000D01*
X163444155Y-103219215D01*
X163353161Y-103256906D01*
X163271269Y-103311625D01*
X163201625Y-103381269D01*
X163146906Y-103463161D01*
X163109215Y-103554155D01*
X163090000Y-103650754D01*
X163090000Y-103749246D01*
X163109215Y-103845845D01*
X163146906Y-103936839D01*
X163201625Y-104018731D01*
X163257894Y-104075000D01*
X163201625Y-104131269D01*
X163146906Y-104213161D01*
X163109215Y-104304155D01*
X163090000Y-104400754D01*
X163090000Y-104499246D01*
X163109215Y-104595845D01*
X163146906Y-104686839D01*
X163157017Y-104701971D01*
X160861809Y-104710456D01*
X160809246Y-104700000D01*
X160710754Y-104700000D01*
X160654335Y-104711223D01*
X159658671Y-104714903D01*
X159586839Y-104666906D01*
X159495845Y-104629215D01*
X159399246Y-104610000D01*
X159300754Y-104610000D01*
X159204155Y-104629215D01*
X159113161Y-104666906D01*
X159037894Y-104717198D01*
X158495302Y-104719204D01*
X158447118Y-104709630D01*
X158414924Y-104687804D01*
X158393761Y-104655172D01*
X158385175Y-104606809D01*
X158408011Y-103660754D01*
X160930000Y-103660754D01*
X160930000Y-103759246D01*
X160949215Y-103855845D01*
X160986906Y-103946839D01*
X161041625Y-104028731D01*
X161111269Y-104098375D01*
X161193161Y-104153094D01*
X161284155Y-104190785D01*
X161380754Y-104210000D01*
X161479246Y-104210000D01*
X161575845Y-104190785D01*
X161666839Y-104153094D01*
X161748731Y-104098375D01*
X161818375Y-104028731D01*
X161873094Y-103946839D01*
X161910785Y-103855845D01*
X161930000Y-103759246D01*
X161930000Y-103660754D01*
X161910785Y-103564155D01*
X161873094Y-103473161D01*
X161818375Y-103391269D01*
X161748731Y-103321625D01*
X161666839Y-103266906D01*
X161575845Y-103229215D01*
X161479246Y-103210000D01*
X161380754Y-103210000D01*
X161284155Y-103229215D01*
X161193161Y-103266906D01*
X161111269Y-103321625D01*
X161041625Y-103391269D01*
X160986906Y-103473161D01*
X160949215Y-103564155D01*
X160930000Y-103660754D01*
X158408011Y-103660754D01*
X158444956Y-102130197D01*
X158446237Y-102125770D01*
X158481625Y-102178731D01*
X158551269Y-102248375D01*
X158633161Y-102303094D01*
X158724155Y-102340785D01*
X158820754Y-102360000D01*
X158919246Y-102360000D01*
X159015845Y-102340785D01*
X159101953Y-102305118D01*
X159069215Y-102384155D01*
X159050000Y-102480754D01*
X159050000Y-102579246D01*
X159069215Y-102675845D01*
X159106906Y-102766839D01*
X159161625Y-102848731D01*
X159231269Y-102918375D01*
X159313161Y-102973094D01*
X159404155Y-103010785D01*
X159500754Y-103030000D01*
X159599246Y-103030000D01*
X159695845Y-103010785D01*
X159786839Y-102973094D01*
X159868731Y-102918375D01*
X159938375Y-102848731D01*
X159993094Y-102766839D01*
X160030785Y-102675845D01*
X160050000Y-102579246D01*
X160050000Y-102480754D01*
X160030785Y-102384155D01*
X159993094Y-102293161D01*
X159938375Y-102211269D01*
X159868731Y-102141625D01*
X159786839Y-102086906D01*
X159695845Y-102049215D01*
X159599246Y-102030000D01*
X159500754Y-102030000D01*
X159404155Y-102049215D01*
X159318047Y-102084882D01*
X159345621Y-102018313D01*
X164050030Y-102010339D01*
X164069544Y-102008383D01*
X164146087Y-101993016D01*
X164164836Y-101987292D01*
X164182123Y-101978010D01*
X164246951Y-101934509D01*
X164262080Y-101922043D01*
X164274496Y-101906850D01*
X164317731Y-101841844D01*
X164326936Y-101824536D01*
X164332589Y-101805748D01*
X164347643Y-101729143D01*
X164349520Y-101709620D01*
X164334584Y-95480754D01*
X164700000Y-95480754D01*
X164700000Y-95579246D01*
X164719215Y-95675845D01*
X164756906Y-95766839D01*
X164811625Y-95848731D01*
X164881269Y-95918375D01*
X164963161Y-95973094D01*
X165054155Y-96010785D01*
X165150754Y-96030000D01*
X165249246Y-96030000D01*
X165345845Y-96010785D01*
X165436839Y-95973094D01*
X165518731Y-95918375D01*
X165588375Y-95848731D01*
X165643094Y-95766839D01*
X165680785Y-95675845D01*
X165700000Y-95579246D01*
X165700000Y-95480754D01*
X165680785Y-95384155D01*
X165643094Y-95293161D01*
X165588375Y-95211269D01*
X165518731Y-95141625D01*
X165436839Y-95086906D01*
X165345845Y-95049215D01*
X165249246Y-95030000D01*
X165150754Y-95030000D01*
X165054155Y-95049215D01*
X164963161Y-95086906D01*
X164881269Y-95141625D01*
X164811625Y-95211269D01*
X164756906Y-95293161D01*
X164719215Y-95384155D01*
X164700000Y-95480754D01*
X164334584Y-95480754D01*
X164330505Y-93780101D01*
X164339840Y-93732648D01*
X164361078Y-93700760D01*
X164392908Y-93679451D01*
X164440347Y-93670000D01*
X166648293Y-93670000D01*
X166709456Y-93686312D01*
G37*
X166709456Y-93686312D02*
X166744747Y-93721356D01*
X166761488Y-93782405D01*
X166769218Y-94883973D01*
X166749246Y-94880000D01*
X166650754Y-94880000D01*
X166554155Y-94899215D01*
X166463161Y-94936906D01*
X166381269Y-94991625D01*
X166311625Y-95061269D01*
X166256906Y-95143161D01*
X166219215Y-95234155D01*
X166200000Y-95330754D01*
X166200000Y-95429246D01*
X166219215Y-95525845D01*
X166256906Y-95616839D01*
X166262007Y-95624473D01*
X166189246Y-95610000D01*
X166090754Y-95610000D01*
X165994155Y-95629215D01*
X165903161Y-95666906D01*
X165821269Y-95721625D01*
X165751625Y-95791269D01*
X165696906Y-95873161D01*
X165659215Y-95964155D01*
X165640000Y-96060754D01*
X165640000Y-96159246D01*
X165659215Y-96255845D01*
X165687686Y-96324580D01*
X165624333Y-96337203D01*
X165605575Y-96342900D01*
X165588234Y-96352184D01*
X165523284Y-96395676D01*
X165508143Y-96408127D01*
X165495685Y-96423349D01*
X165452366Y-96488415D01*
X165443153Y-96505719D01*
X165437481Y-96524554D01*
X165422411Y-96601254D01*
X165420535Y-96620800D01*
X165429478Y-99974599D01*
X165432860Y-100000119D01*
X165459193Y-100098783D01*
X165466080Y-100117137D01*
X165476416Y-100133794D01*
X165484517Y-100143119D01*
X165556124Y-100215922D01*
X165571174Y-100228483D01*
X165588386Y-100237867D01*
X165600035Y-100241977D01*
X165698249Y-100269940D01*
X165723709Y-100273744D01*
X166360315Y-100285986D01*
X166420511Y-100303080D01*
X166448271Y-100331187D01*
X166426906Y-100363161D01*
X166389215Y-100454155D01*
X166370000Y-100550754D01*
X166370000Y-100649246D01*
X166389215Y-100745845D01*
X166426906Y-100836839D01*
X166474902Y-100908670D01*
X166475461Y-100990494D01*
X166426906Y-101063161D01*
X166389215Y-101154155D01*
X166370000Y-101250754D01*
X166370000Y-101349246D01*
X166389215Y-101445845D01*
X166426906Y-101536839D01*
X166479730Y-101615895D01*
X166485609Y-102477285D01*
X166481625Y-102481269D01*
X166426906Y-102563161D01*
X166389215Y-102654155D01*
X166370000Y-102750754D01*
X166370000Y-102849246D01*
X166389215Y-102945845D01*
X166416782Y-103012398D01*
X166378737Y-103020000D01*
X163890000Y-103020000D01*
X163870491Y-103021921D01*
X163793954Y-103037145D01*
X163775195Y-103042836D01*
X163757905Y-103052078D01*
X163693021Y-103095433D01*
X163677868Y-103107869D01*
X163665433Y-103123021D01*
X163622078Y-103187905D01*
X163615613Y-103200000D01*
X163540754Y-103200000D01*
X163444155Y-103219215D01*
X163353161Y-103256906D01*
X163271269Y-103311625D01*
X163201625Y-103381269D01*
X163146906Y-103463161D01*
X163109215Y-103554155D01*
X163090000Y-103650754D01*
X163090000Y-103749246D01*
X163109215Y-103845845D01*
X163146906Y-103936839D01*
X163201625Y-104018731D01*
X163257894Y-104075000D01*
X163201625Y-104131269D01*
X163146906Y-104213161D01*
X163109215Y-104304155D01*
X163090000Y-104400754D01*
X163090000Y-104499246D01*
X163109215Y-104595845D01*
X163146906Y-104686839D01*
X163157017Y-104701971D01*
X160861809Y-104710456D01*
X160809246Y-104700000D01*
X160710754Y-104700000D01*
X160654335Y-104711223D01*
X159658671Y-104714903D01*
X159586839Y-104666906D01*
X159495845Y-104629215D01*
X159399246Y-104610000D01*
X159300754Y-104610000D01*
X159204155Y-104629215D01*
X159113161Y-104666906D01*
X159037894Y-104717198D01*
X158495302Y-104719204D01*
X158447118Y-104709630D01*
X158414924Y-104687804D01*
X158393761Y-104655172D01*
X158385175Y-104606809D01*
X158408011Y-103660754D01*
X160930000Y-103660754D01*
X160930000Y-103759246D01*
X160949215Y-103855845D01*
X160986906Y-103946839D01*
X161041625Y-104028731D01*
X161111269Y-104098375D01*
X161193161Y-104153094D01*
X161284155Y-104190785D01*
X161380754Y-104210000D01*
X161479246Y-104210000D01*
X161575845Y-104190785D01*
X161666839Y-104153094D01*
X161748731Y-104098375D01*
X161818375Y-104028731D01*
X161873094Y-103946839D01*
X161910785Y-103855845D01*
X161930000Y-103759246D01*
X161930000Y-103660754D01*
X161910785Y-103564155D01*
X161873094Y-103473161D01*
X161818375Y-103391269D01*
X161748731Y-103321625D01*
X161666839Y-103266906D01*
X161575845Y-103229215D01*
X161479246Y-103210000D01*
X161380754Y-103210000D01*
X161284155Y-103229215D01*
X161193161Y-103266906D01*
X161111269Y-103321625D01*
X161041625Y-103391269D01*
X160986906Y-103473161D01*
X160949215Y-103564155D01*
X160930000Y-103660754D01*
X158408011Y-103660754D01*
X158444956Y-102130197D01*
X158446237Y-102125770D01*
X158481625Y-102178731D01*
X158551269Y-102248375D01*
X158633161Y-102303094D01*
X158724155Y-102340785D01*
X158820754Y-102360000D01*
X158919246Y-102360000D01*
X159015845Y-102340785D01*
X159101953Y-102305118D01*
X159069215Y-102384155D01*
X159050000Y-102480754D01*
X159050000Y-102579246D01*
X159069215Y-102675845D01*
X159106906Y-102766839D01*
X159161625Y-102848731D01*
X159231269Y-102918375D01*
X159313161Y-102973094D01*
X159404155Y-103010785D01*
X159500754Y-103030000D01*
X159599246Y-103030000D01*
X159695845Y-103010785D01*
X159786839Y-102973094D01*
X159868731Y-102918375D01*
X159938375Y-102848731D01*
X159993094Y-102766839D01*
X160030785Y-102675845D01*
X160050000Y-102579246D01*
X160050000Y-102480754D01*
X160030785Y-102384155D01*
X159993094Y-102293161D01*
X159938375Y-102211269D01*
X159868731Y-102141625D01*
X159786839Y-102086906D01*
X159695845Y-102049215D01*
X159599246Y-102030000D01*
X159500754Y-102030000D01*
X159404155Y-102049215D01*
X159318047Y-102084882D01*
X159345621Y-102018313D01*
X164050030Y-102010339D01*
X164069544Y-102008383D01*
X164146087Y-101993016D01*
X164164836Y-101987292D01*
X164182123Y-101978010D01*
X164246951Y-101934509D01*
X164262080Y-101922043D01*
X164274496Y-101906850D01*
X164317731Y-101841844D01*
X164326936Y-101824536D01*
X164332589Y-101805748D01*
X164347643Y-101729143D01*
X164349520Y-101709620D01*
X164334584Y-95480754D01*
X164700000Y-95480754D01*
X164700000Y-95579246D01*
X164719215Y-95675845D01*
X164756906Y-95766839D01*
X164811625Y-95848731D01*
X164881269Y-95918375D01*
X164963161Y-95973094D01*
X165054155Y-96010785D01*
X165150754Y-96030000D01*
X165249246Y-96030000D01*
X165345845Y-96010785D01*
X165436839Y-95973094D01*
X165518731Y-95918375D01*
X165588375Y-95848731D01*
X165643094Y-95766839D01*
X165680785Y-95675845D01*
X165700000Y-95579246D01*
X165700000Y-95480754D01*
X165680785Y-95384155D01*
X165643094Y-95293161D01*
X165588375Y-95211269D01*
X165518731Y-95141625D01*
X165436839Y-95086906D01*
X165345845Y-95049215D01*
X165249246Y-95030000D01*
X165150754Y-95030000D01*
X165054155Y-95049215D01*
X164963161Y-95086906D01*
X164881269Y-95141625D01*
X164811625Y-95211269D01*
X164756906Y-95293161D01*
X164719215Y-95384155D01*
X164700000Y-95480754D01*
X164334584Y-95480754D01*
X164330505Y-93780101D01*
X164339840Y-93732648D01*
X164361078Y-93700760D01*
X164392908Y-93679451D01*
X164440347Y-93670000D01*
X166648293Y-93670000D01*
X166709456Y-93686312D01*
%TO.N,+3.3VA*%
G36*
X168788340Y-96780478D02*
G01*
X168820279Y-96801508D01*
X168841742Y-96833154D01*
X168851496Y-96880445D01*
X168909991Y-105099090D01*
X168909994Y-105100987D01*
X168901114Y-106796994D01*
X168884406Y-106858198D01*
X168849034Y-106893315D01*
X168787713Y-106909581D01*
X164143091Y-106900420D01*
X164095331Y-106890730D01*
X164063405Y-106869052D01*
X164042323Y-106836727D01*
X164033524Y-106788800D01*
X164043297Y-106200754D01*
X165290000Y-106200754D01*
X165290000Y-106299246D01*
X165309215Y-106395845D01*
X165346906Y-106486839D01*
X165401625Y-106568731D01*
X165471269Y-106638375D01*
X165553161Y-106693094D01*
X165644155Y-106730785D01*
X165740754Y-106750000D01*
X165839246Y-106750000D01*
X165935845Y-106730785D01*
X166026839Y-106693094D01*
X166108731Y-106638375D01*
X166178375Y-106568731D01*
X166233094Y-106486839D01*
X166270785Y-106395845D01*
X166290000Y-106299246D01*
X166290000Y-106200754D01*
X166270785Y-106104155D01*
X166233094Y-106013161D01*
X166178375Y-105931269D01*
X166108731Y-105861625D01*
X166026839Y-105806906D01*
X165935845Y-105769215D01*
X165839246Y-105750000D01*
X165740754Y-105750000D01*
X165644155Y-105769215D01*
X165553161Y-105806906D01*
X165471269Y-105861625D01*
X165401625Y-105931269D01*
X165346906Y-106013161D01*
X165309215Y-106104155D01*
X165290000Y-106200754D01*
X164043297Y-106200754D01*
X164060748Y-105150754D01*
X165250000Y-105150754D01*
X165250000Y-105249246D01*
X165269215Y-105345845D01*
X165306906Y-105436839D01*
X165361625Y-105518731D01*
X165431269Y-105588375D01*
X165513161Y-105643094D01*
X165604155Y-105680785D01*
X165700754Y-105700000D01*
X165799246Y-105700000D01*
X165895845Y-105680785D01*
X165986839Y-105643094D01*
X166068731Y-105588375D01*
X166138375Y-105518731D01*
X166193094Y-105436839D01*
X166230785Y-105345845D01*
X166250000Y-105249246D01*
X166250000Y-105150754D01*
X166230785Y-105054155D01*
X166193094Y-104963161D01*
X166138375Y-104881269D01*
X166068731Y-104811625D01*
X165986839Y-104756906D01*
X165895845Y-104719215D01*
X165799246Y-104700000D01*
X165700754Y-104700000D01*
X165604155Y-104719215D01*
X165513161Y-104756906D01*
X165431269Y-104811625D01*
X165361625Y-104881269D01*
X165306906Y-104963161D01*
X165269215Y-105054155D01*
X165250000Y-105150754D01*
X164060748Y-105150754D01*
X164066053Y-104831617D01*
X164113161Y-104863094D01*
X164204155Y-104900785D01*
X164300754Y-104920000D01*
X164399246Y-104920000D01*
X164495845Y-104900785D01*
X164586839Y-104863094D01*
X164668731Y-104808375D01*
X164738375Y-104738731D01*
X164793094Y-104656839D01*
X164830785Y-104565845D01*
X164850000Y-104469246D01*
X164850000Y-104370754D01*
X164830785Y-104274155D01*
X164793094Y-104183161D01*
X164738375Y-104101269D01*
X164668731Y-104031625D01*
X164586839Y-103976906D01*
X164495845Y-103939215D01*
X164399246Y-103920000D01*
X164300754Y-103920000D01*
X164204155Y-103939215D01*
X164113161Y-103976906D01*
X164079889Y-103999138D01*
X164083500Y-103781925D01*
X164090000Y-103749246D01*
X164090000Y-103650754D01*
X164086013Y-103630710D01*
X164086457Y-103603991D01*
X164103847Y-103543001D01*
X164139594Y-103508289D01*
X164201064Y-103492697D01*
X165592148Y-103510418D01*
X165556906Y-103563161D01*
X165519215Y-103654155D01*
X165500000Y-103750754D01*
X165500000Y-103849246D01*
X165519215Y-103945845D01*
X165556906Y-104036839D01*
X165611625Y-104118731D01*
X165681269Y-104188375D01*
X165763161Y-104243094D01*
X165854155Y-104280785D01*
X165950754Y-104300000D01*
X166049246Y-104300000D01*
X166145845Y-104280785D01*
X166236839Y-104243094D01*
X166318731Y-104188375D01*
X166388375Y-104118731D01*
X166443094Y-104036839D01*
X166470467Y-103970754D01*
X166600000Y-103970754D01*
X166600000Y-104069246D01*
X166619215Y-104165845D01*
X166656906Y-104256839D01*
X166711625Y-104338731D01*
X166781269Y-104408375D01*
X166863161Y-104463094D01*
X166954155Y-104500785D01*
X167012563Y-104512403D01*
X167019215Y-104545845D01*
X167056906Y-104636839D01*
X167111625Y-104718731D01*
X167181269Y-104788375D01*
X167263161Y-104843094D01*
X167354155Y-104880785D01*
X167450754Y-104900000D01*
X167549246Y-104900000D01*
X167645845Y-104880785D01*
X167736839Y-104843094D01*
X167818731Y-104788375D01*
X167888375Y-104718731D01*
X167943094Y-104636839D01*
X167980785Y-104545845D01*
X168000000Y-104449246D01*
X168000000Y-104350754D01*
X167980785Y-104254155D01*
X167943094Y-104163161D01*
X167888375Y-104081269D01*
X167818731Y-104011625D01*
X167736839Y-103956906D01*
X167645845Y-103919215D01*
X167587437Y-103907597D01*
X167580785Y-103874155D01*
X167543094Y-103783161D01*
X167488375Y-103701269D01*
X167418731Y-103631625D01*
X167336839Y-103576906D01*
X167245845Y-103539215D01*
X167149246Y-103520000D01*
X167050754Y-103520000D01*
X166954155Y-103539215D01*
X166863161Y-103576906D01*
X166781269Y-103631625D01*
X166711625Y-103701269D01*
X166656906Y-103783161D01*
X166619215Y-103874155D01*
X166600000Y-103970754D01*
X166470467Y-103970754D01*
X166480785Y-103945845D01*
X166500000Y-103849246D01*
X166500000Y-103750754D01*
X166480785Y-103654155D01*
X166443094Y-103563161D01*
X166414854Y-103520898D01*
X166925664Y-103527405D01*
X166945383Y-103525697D01*
X167022816Y-103511165D01*
X167041636Y-103505678D01*
X167059344Y-103496415D01*
X167125157Y-103453104D01*
X167140398Y-103440774D01*
X167153153Y-103425392D01*
X167197132Y-103360025D01*
X167206428Y-103342766D01*
X167212254Y-103323651D01*
X167227576Y-103246370D01*
X167229485Y-103226669D01*
X167229285Y-103147821D01*
X167258375Y-103118731D01*
X167313094Y-103036839D01*
X167326754Y-103003860D01*
X167331269Y-103008375D01*
X167413161Y-103063094D01*
X167504155Y-103100785D01*
X167600754Y-103120000D01*
X167699246Y-103120000D01*
X167795845Y-103100785D01*
X167886839Y-103063094D01*
X167968731Y-103008375D01*
X168038375Y-102938731D01*
X168093094Y-102856839D01*
X168130785Y-102765845D01*
X168150000Y-102669246D01*
X168150000Y-102570754D01*
X168130785Y-102474155D01*
X168093094Y-102383161D01*
X168038375Y-102301269D01*
X167968731Y-102231625D01*
X167886839Y-102176906D01*
X167795845Y-102139215D01*
X167699246Y-102120000D01*
X167600754Y-102120000D01*
X167504155Y-102139215D01*
X167413161Y-102176906D01*
X167331269Y-102231625D01*
X167261625Y-102301269D01*
X167227270Y-102352685D01*
X167225493Y-101651613D01*
X167258375Y-101618731D01*
X167313094Y-101536839D01*
X167350785Y-101445845D01*
X167370000Y-101349246D01*
X167370000Y-101250754D01*
X167350785Y-101154155D01*
X167313094Y-101063161D01*
X167258375Y-100981269D01*
X167227106Y-100950000D01*
X167258375Y-100918731D01*
X167313094Y-100836839D01*
X167336325Y-100780754D01*
X167490000Y-100780754D01*
X167490000Y-100879246D01*
X167509215Y-100975845D01*
X167546906Y-101066839D01*
X167601625Y-101148731D01*
X167671269Y-101218375D01*
X167753161Y-101273094D01*
X167844155Y-101310785D01*
X167940754Y-101330000D01*
X168039246Y-101330000D01*
X168135845Y-101310785D01*
X168226839Y-101273094D01*
X168308731Y-101218375D01*
X168378375Y-101148731D01*
X168433094Y-101066839D01*
X168470785Y-100975845D01*
X168490000Y-100879246D01*
X168490000Y-100780754D01*
X168470785Y-100684155D01*
X168433094Y-100593161D01*
X168378375Y-100511269D01*
X168308731Y-100441625D01*
X168226839Y-100386906D01*
X168135845Y-100349215D01*
X168039246Y-100330000D01*
X167940754Y-100330000D01*
X167844155Y-100349215D01*
X167753161Y-100386906D01*
X167671269Y-100441625D01*
X167601625Y-100511269D01*
X167546906Y-100593161D01*
X167509215Y-100684155D01*
X167490000Y-100780754D01*
X167336325Y-100780754D01*
X167350785Y-100745845D01*
X167370000Y-100649246D01*
X167370000Y-100550754D01*
X167350785Y-100454155D01*
X167313094Y-100363161D01*
X167258375Y-100281269D01*
X167221927Y-100244821D01*
X167220506Y-99684240D01*
X167217044Y-99658407D01*
X167190080Y-99558621D01*
X167183135Y-99540288D01*
X167172748Y-99523663D01*
X167164163Y-99513907D01*
X167090981Y-99440910D01*
X167075812Y-99428493D01*
X167058511Y-99419274D01*
X167046201Y-99415106D01*
X166946347Y-99388396D01*
X166920506Y-99385000D01*
X166109851Y-99385000D01*
X166062480Y-99375577D01*
X166030675Y-99354325D01*
X166009423Y-99322520D01*
X166000000Y-99275149D01*
X166000000Y-97730754D01*
X167050000Y-97730754D01*
X167050000Y-97829246D01*
X167069215Y-97925845D01*
X167106906Y-98016839D01*
X167161625Y-98098731D01*
X167231269Y-98168375D01*
X167313161Y-98223094D01*
X167404155Y-98260785D01*
X167500754Y-98280000D01*
X167599246Y-98280000D01*
X167695845Y-98260785D01*
X167786839Y-98223094D01*
X167868731Y-98168375D01*
X167938375Y-98098731D01*
X167993094Y-98016839D01*
X168030785Y-97925845D01*
X168050000Y-97829246D01*
X168050000Y-97730754D01*
X168030785Y-97634155D01*
X167993094Y-97543161D01*
X167938375Y-97461269D01*
X167868731Y-97391625D01*
X167786839Y-97336906D01*
X167695845Y-97299215D01*
X167599246Y-97280000D01*
X167500754Y-97280000D01*
X167404155Y-97299215D01*
X167313161Y-97336906D01*
X167231269Y-97391625D01*
X167161625Y-97461269D01*
X167106906Y-97543161D01*
X167069215Y-97634155D01*
X167050000Y-97730754D01*
X166000000Y-97730754D01*
X166000000Y-96901804D01*
X166016322Y-96840623D01*
X166051383Y-96805332D01*
X166112456Y-96788609D01*
X168740926Y-96771374D01*
X168788340Y-96780478D01*
G37*
X168788340Y-96780478D02*
X168820279Y-96801508D01*
X168841742Y-96833154D01*
X168851496Y-96880445D01*
X168909991Y-105099090D01*
X168909994Y-105100987D01*
X168901114Y-106796994D01*
X168884406Y-106858198D01*
X168849034Y-106893315D01*
X168787713Y-106909581D01*
X164143091Y-106900420D01*
X164095331Y-106890730D01*
X164063405Y-106869052D01*
X164042323Y-106836727D01*
X164033524Y-106788800D01*
X164043297Y-106200754D01*
X165290000Y-106200754D01*
X165290000Y-106299246D01*
X165309215Y-106395845D01*
X165346906Y-106486839D01*
X165401625Y-106568731D01*
X165471269Y-106638375D01*
X165553161Y-106693094D01*
X165644155Y-106730785D01*
X165740754Y-106750000D01*
X165839246Y-106750000D01*
X165935845Y-106730785D01*
X166026839Y-106693094D01*
X166108731Y-106638375D01*
X166178375Y-106568731D01*
X166233094Y-106486839D01*
X166270785Y-106395845D01*
X166290000Y-106299246D01*
X166290000Y-106200754D01*
X166270785Y-106104155D01*
X166233094Y-106013161D01*
X166178375Y-105931269D01*
X166108731Y-105861625D01*
X166026839Y-105806906D01*
X165935845Y-105769215D01*
X165839246Y-105750000D01*
X165740754Y-105750000D01*
X165644155Y-105769215D01*
X165553161Y-105806906D01*
X165471269Y-105861625D01*
X165401625Y-105931269D01*
X165346906Y-106013161D01*
X165309215Y-106104155D01*
X165290000Y-106200754D01*
X164043297Y-106200754D01*
X164060748Y-105150754D01*
X165250000Y-105150754D01*
X165250000Y-105249246D01*
X165269215Y-105345845D01*
X165306906Y-105436839D01*
X165361625Y-105518731D01*
X165431269Y-105588375D01*
X165513161Y-105643094D01*
X165604155Y-105680785D01*
X165700754Y-105700000D01*
X165799246Y-105700000D01*
X165895845Y-105680785D01*
X165986839Y-105643094D01*
X166068731Y-105588375D01*
X166138375Y-105518731D01*
X166193094Y-105436839D01*
X166230785Y-105345845D01*
X166250000Y-105249246D01*
X166250000Y-105150754D01*
X166230785Y-105054155D01*
X166193094Y-104963161D01*
X166138375Y-104881269D01*
X166068731Y-104811625D01*
X165986839Y-104756906D01*
X165895845Y-104719215D01*
X165799246Y-104700000D01*
X165700754Y-104700000D01*
X165604155Y-104719215D01*
X165513161Y-104756906D01*
X165431269Y-104811625D01*
X165361625Y-104881269D01*
X165306906Y-104963161D01*
X165269215Y-105054155D01*
X165250000Y-105150754D01*
X164060748Y-105150754D01*
X164066053Y-104831617D01*
X164113161Y-104863094D01*
X164204155Y-104900785D01*
X164300754Y-104920000D01*
X164399246Y-104920000D01*
X164495845Y-104900785D01*
X164586839Y-104863094D01*
X164668731Y-104808375D01*
X164738375Y-104738731D01*
X164793094Y-104656839D01*
X164830785Y-104565845D01*
X164850000Y-104469246D01*
X164850000Y-104370754D01*
X164830785Y-104274155D01*
X164793094Y-104183161D01*
X164738375Y-104101269D01*
X164668731Y-104031625D01*
X164586839Y-103976906D01*
X164495845Y-103939215D01*
X164399246Y-103920000D01*
X164300754Y-103920000D01*
X164204155Y-103939215D01*
X164113161Y-103976906D01*
X164079889Y-103999138D01*
X164083500Y-103781925D01*
X164090000Y-103749246D01*
X164090000Y-103650754D01*
X164086013Y-103630710D01*
X164086457Y-103603991D01*
X164103847Y-103543001D01*
X164139594Y-103508289D01*
X164201064Y-103492697D01*
X165592148Y-103510418D01*
X165556906Y-103563161D01*
X165519215Y-103654155D01*
X165500000Y-103750754D01*
X165500000Y-103849246D01*
X165519215Y-103945845D01*
X165556906Y-104036839D01*
X165611625Y-104118731D01*
X165681269Y-104188375D01*
X165763161Y-104243094D01*
X165854155Y-104280785D01*
X165950754Y-104300000D01*
X166049246Y-104300000D01*
X166145845Y-104280785D01*
X166236839Y-104243094D01*
X166318731Y-104188375D01*
X166388375Y-104118731D01*
X166443094Y-104036839D01*
X166470467Y-103970754D01*
X166600000Y-103970754D01*
X166600000Y-104069246D01*
X166619215Y-104165845D01*
X166656906Y-104256839D01*
X166711625Y-104338731D01*
X166781269Y-104408375D01*
X166863161Y-104463094D01*
X166954155Y-104500785D01*
X167012563Y-104512403D01*
X167019215Y-104545845D01*
X167056906Y-104636839D01*
X167111625Y-104718731D01*
X167181269Y-104788375D01*
X167263161Y-104843094D01*
X167354155Y-104880785D01*
X167450754Y-104900000D01*
X167549246Y-104900000D01*
X167645845Y-104880785D01*
X167736839Y-104843094D01*
X167818731Y-104788375D01*
X167888375Y-104718731D01*
X167943094Y-104636839D01*
X167980785Y-104545845D01*
X168000000Y-104449246D01*
X168000000Y-104350754D01*
X167980785Y-104254155D01*
X167943094Y-104163161D01*
X167888375Y-104081269D01*
X167818731Y-104011625D01*
X167736839Y-103956906D01*
X167645845Y-103919215D01*
X167587437Y-103907597D01*
X167580785Y-103874155D01*
X167543094Y-103783161D01*
X167488375Y-103701269D01*
X167418731Y-103631625D01*
X167336839Y-103576906D01*
X167245845Y-103539215D01*
X167149246Y-103520000D01*
X167050754Y-103520000D01*
X166954155Y-103539215D01*
X166863161Y-103576906D01*
X166781269Y-103631625D01*
X166711625Y-103701269D01*
X166656906Y-103783161D01*
X166619215Y-103874155D01*
X166600000Y-103970754D01*
X166470467Y-103970754D01*
X166480785Y-103945845D01*
X166500000Y-103849246D01*
X166500000Y-103750754D01*
X166480785Y-103654155D01*
X166443094Y-103563161D01*
X166414854Y-103520898D01*
X166925664Y-103527405D01*
X166945383Y-103525697D01*
X167022816Y-103511165D01*
X167041636Y-103505678D01*
X167059344Y-103496415D01*
X167125157Y-103453104D01*
X167140398Y-103440774D01*
X167153153Y-103425392D01*
X167197132Y-103360025D01*
X167206428Y-103342766D01*
X167212254Y-103323651D01*
X167227576Y-103246370D01*
X167229485Y-103226669D01*
X167229285Y-103147821D01*
X167258375Y-103118731D01*
X167313094Y-103036839D01*
X167326754Y-103003860D01*
X167331269Y-103008375D01*
X167413161Y-103063094D01*
X167504155Y-103100785D01*
X167600754Y-103120000D01*
X167699246Y-103120000D01*
X167795845Y-103100785D01*
X167886839Y-103063094D01*
X167968731Y-103008375D01*
X168038375Y-102938731D01*
X168093094Y-102856839D01*
X168130785Y-102765845D01*
X168150000Y-102669246D01*
X168150000Y-102570754D01*
X168130785Y-102474155D01*
X168093094Y-102383161D01*
X168038375Y-102301269D01*
X167968731Y-102231625D01*
X167886839Y-102176906D01*
X167795845Y-102139215D01*
X167699246Y-102120000D01*
X167600754Y-102120000D01*
X167504155Y-102139215D01*
X167413161Y-102176906D01*
X167331269Y-102231625D01*
X167261625Y-102301269D01*
X167227270Y-102352685D01*
X167225493Y-101651613D01*
X167258375Y-101618731D01*
X167313094Y-101536839D01*
X167350785Y-101445845D01*
X167370000Y-101349246D01*
X167370000Y-101250754D01*
X167350785Y-101154155D01*
X167313094Y-101063161D01*
X167258375Y-100981269D01*
X167227106Y-100950000D01*
X167258375Y-100918731D01*
X167313094Y-100836839D01*
X167336325Y-100780754D01*
X167490000Y-100780754D01*
X167490000Y-100879246D01*
X167509215Y-100975845D01*
X167546906Y-101066839D01*
X167601625Y-101148731D01*
X167671269Y-101218375D01*
X167753161Y-101273094D01*
X167844155Y-101310785D01*
X167940754Y-101330000D01*
X168039246Y-101330000D01*
X168135845Y-101310785D01*
X168226839Y-101273094D01*
X168308731Y-101218375D01*
X168378375Y-101148731D01*
X168433094Y-101066839D01*
X168470785Y-100975845D01*
X168490000Y-100879246D01*
X168490000Y-100780754D01*
X168470785Y-100684155D01*
X168433094Y-100593161D01*
X168378375Y-100511269D01*
X168308731Y-100441625D01*
X168226839Y-100386906D01*
X168135845Y-100349215D01*
X168039246Y-100330000D01*
X167940754Y-100330000D01*
X167844155Y-100349215D01*
X167753161Y-100386906D01*
X167671269Y-100441625D01*
X167601625Y-100511269D01*
X167546906Y-100593161D01*
X167509215Y-100684155D01*
X167490000Y-100780754D01*
X167336325Y-100780754D01*
X167350785Y-100745845D01*
X167370000Y-100649246D01*
X167370000Y-100550754D01*
X167350785Y-100454155D01*
X167313094Y-100363161D01*
X167258375Y-100281269D01*
X167221927Y-100244821D01*
X167220506Y-99684240D01*
X167217044Y-99658407D01*
X167190080Y-99558621D01*
X167183135Y-99540288D01*
X167172748Y-99523663D01*
X167164163Y-99513907D01*
X167090981Y-99440910D01*
X167075812Y-99428493D01*
X167058511Y-99419274D01*
X167046201Y-99415106D01*
X166946347Y-99388396D01*
X166920506Y-99385000D01*
X166109851Y-99385000D01*
X166062480Y-99375577D01*
X166030675Y-99354325D01*
X166009423Y-99322520D01*
X166000000Y-99275149D01*
X166000000Y-97730754D01*
X167050000Y-97730754D01*
X167050000Y-97829246D01*
X167069215Y-97925845D01*
X167106906Y-98016839D01*
X167161625Y-98098731D01*
X167231269Y-98168375D01*
X167313161Y-98223094D01*
X167404155Y-98260785D01*
X167500754Y-98280000D01*
X167599246Y-98280000D01*
X167695845Y-98260785D01*
X167786839Y-98223094D01*
X167868731Y-98168375D01*
X167938375Y-98098731D01*
X167993094Y-98016839D01*
X168030785Y-97925845D01*
X168050000Y-97829246D01*
X168050000Y-97730754D01*
X168030785Y-97634155D01*
X167993094Y-97543161D01*
X167938375Y-97461269D01*
X167868731Y-97391625D01*
X167786839Y-97336906D01*
X167695845Y-97299215D01*
X167599246Y-97280000D01*
X167500754Y-97280000D01*
X167404155Y-97299215D01*
X167313161Y-97336906D01*
X167231269Y-97391625D01*
X167161625Y-97461269D01*
X167106906Y-97543161D01*
X167069215Y-97634155D01*
X167050000Y-97730754D01*
X166000000Y-97730754D01*
X166000000Y-96901804D01*
X166016322Y-96840623D01*
X166051383Y-96805332D01*
X166112456Y-96788609D01*
X168740926Y-96771374D01*
X168788340Y-96780478D01*
%TD*%
M02*
