%TF.GenerationSoftware,KiCad,Pcbnew,(5.1.6-0-10_14)*%
%TF.CreationDate,2020-10-05T23:02:53+09:00*%
%TF.ProjectId,RF920A,52463932-3041-42e6-9b69-6361645f7063,rev?*%
%TF.SameCoordinates,Original*%
%TF.FileFunction,Paste,Top*%
%TF.FilePolarity,Positive*%
%FSLAX46Y46*%
G04 Gerber Fmt 4.6, Leading zero omitted, Abs format (unit mm)*
G04 Created by KiCad (PCBNEW (5.1.6-0-10_14)) date 2020-10-05 23:02:53*
%MOMM*%
%LPD*%
G01*
G04 APERTURE LIST*
%ADD10R,0.600000X1.500000*%
%ADD11R,1.500000X0.600000*%
%ADD12C,0.100000*%
%ADD13R,0.700000X0.300000*%
%ADD14R,0.300000X0.700000*%
%ADD15R,1.230000X1.230000*%
%ADD16R,2.200000X1.050000*%
%ADD17R,1.050000X1.000000*%
%ADD18R,0.850000X0.750000*%
%ADD19C,0.250000*%
%ADD20R,0.250000X0.425000*%
%ADD21R,0.425000X0.325000*%
G04 APERTURE END LIST*
D10*
%TO.C,REF\u002A\u002A*%
X150800000Y-100500000D03*
D11*
X155800000Y-107100000D03*
D12*
G36*
X167500000Y-106800000D02*
G01*
X168900000Y-106800000D01*
X168900000Y-105400000D01*
X169500000Y-105400000D01*
X169500000Y-107400000D01*
X167500000Y-107400000D01*
X167500000Y-106800000D01*
G37*
G36*
X168800000Y-94500000D02*
G01*
X168800000Y-93100000D01*
X167400000Y-93100000D01*
X167400000Y-92500000D01*
X169400000Y-92500000D01*
X169400000Y-94500000D01*
X168800000Y-94500000D01*
G37*
G36*
X152500000Y-93200000D02*
G01*
X151100000Y-93200000D01*
X151100000Y-94600000D01*
X150500000Y-94600000D01*
X150500000Y-92600000D01*
X152500000Y-92600000D01*
X152500000Y-93200000D01*
G37*
%TD*%
D13*
%TO.C,U1*%
X164725000Y-97350000D03*
X164725000Y-97875000D03*
D14*
X164050000Y-102525000D03*
X163550000Y-102525000D03*
D13*
X158875000Y-101850000D03*
X158875000Y-101350000D03*
D14*
X159550000Y-96675000D03*
X160050000Y-96675000D03*
D15*
X162575000Y-100375000D03*
X162575000Y-98825000D03*
X161025000Y-98825000D03*
X161025000Y-100375000D03*
D13*
X164725000Y-98350000D03*
X164725000Y-98850000D03*
X164725000Y-99350000D03*
X164725000Y-99850000D03*
X164725000Y-100350000D03*
X164725000Y-100850000D03*
X164725000Y-101350000D03*
X164725000Y-101850000D03*
D14*
X163050000Y-102525000D03*
X162550000Y-102525000D03*
X162050000Y-102525000D03*
X161550000Y-102525000D03*
X161050000Y-102525000D03*
X160550000Y-102525000D03*
X160050000Y-102525000D03*
X159550000Y-102525000D03*
D13*
X158875000Y-100850000D03*
X158875000Y-100350000D03*
X158875000Y-99850000D03*
X158875000Y-99350000D03*
X158875000Y-98850000D03*
X158875000Y-98350000D03*
X158875000Y-97850000D03*
X158875000Y-97350000D03*
D14*
X160550000Y-96675000D03*
X161050000Y-96675000D03*
X161550000Y-96675000D03*
X162050000Y-96675000D03*
X162550000Y-96675000D03*
X163050000Y-96675000D03*
X163550000Y-96675000D03*
X164050000Y-96675000D03*
%TD*%
%TO.C,L10*%
G36*
G01*
X154716000Y-99100500D02*
X154716000Y-98899500D01*
G75*
G02*
X154795500Y-98820000I79500J0D01*
G01*
X154954500Y-98820000D01*
G75*
G02*
X155034000Y-98899500I0J-79500D01*
G01*
X155034000Y-99100500D01*
G75*
G02*
X154954500Y-99180000I-79500J0D01*
G01*
X154795500Y-99180000D01*
G75*
G02*
X154716000Y-99100500I0J79500D01*
G01*
G37*
G36*
G01*
X154026000Y-99100500D02*
X154026000Y-98899500D01*
G75*
G02*
X154105500Y-98820000I79500J0D01*
G01*
X154264500Y-98820000D01*
G75*
G02*
X154344000Y-98899500I0J-79500D01*
G01*
X154344000Y-99100500D01*
G75*
G02*
X154264500Y-99180000I-79500J0D01*
G01*
X154105500Y-99180000D01*
G75*
G02*
X154026000Y-99100500I0J79500D01*
G01*
G37*
%TD*%
D16*
%TO.C,U2*%
X152290000Y-105975000D03*
D17*
X153815000Y-104500000D03*
D16*
X152290000Y-103025000D03*
%TD*%
D18*
%TO.C,U5*%
X160575000Y-95175000D03*
X159250000Y-95175000D03*
X159250000Y-94125000D03*
X160575000Y-94125000D03*
%TD*%
%TO.C,C1*%
G36*
G01*
X167043750Y-105350000D02*
X167556250Y-105350000D01*
G75*
G02*
X167775000Y-105568750I0J-218750D01*
G01*
X167775000Y-106006250D01*
G75*
G02*
X167556250Y-106225000I-218750J0D01*
G01*
X167043750Y-106225000D01*
G75*
G02*
X166825000Y-106006250I0J218750D01*
G01*
X166825000Y-105568750D01*
G75*
G02*
X167043750Y-105350000I218750J0D01*
G01*
G37*
G36*
G01*
X167043750Y-103775000D02*
X167556250Y-103775000D01*
G75*
G02*
X167775000Y-103993750I0J-218750D01*
G01*
X167775000Y-104431250D01*
G75*
G02*
X167556250Y-104650000I-218750J0D01*
G01*
X167043750Y-104650000D01*
G75*
G02*
X166825000Y-104431250I0J218750D01*
G01*
X166825000Y-103993750D01*
G75*
G02*
X167043750Y-103775000I218750J0D01*
G01*
G37*
%TD*%
%TO.C,C19*%
G36*
G01*
X167497500Y-96660000D02*
X167842500Y-96660000D01*
G75*
G02*
X167990000Y-96807500I0J-147500D01*
G01*
X167990000Y-97102500D01*
G75*
G02*
X167842500Y-97250000I-147500J0D01*
G01*
X167497500Y-97250000D01*
G75*
G02*
X167350000Y-97102500I0J147500D01*
G01*
X167350000Y-96807500D01*
G75*
G02*
X167497500Y-96660000I147500J0D01*
G01*
G37*
G36*
G01*
X167497500Y-95690000D02*
X167842500Y-95690000D01*
G75*
G02*
X167990000Y-95837500I0J-147500D01*
G01*
X167990000Y-96132500D01*
G75*
G02*
X167842500Y-96280000I-147500J0D01*
G01*
X167497500Y-96280000D01*
G75*
G02*
X167350000Y-96132500I0J147500D01*
G01*
X167350000Y-95837500D01*
G75*
G02*
X167497500Y-95690000I147500J0D01*
G01*
G37*
%TD*%
%TO.C,C13*%
G36*
G01*
X164212500Y-94556250D02*
X164212500Y-94043750D01*
G75*
G02*
X164431250Y-93825000I218750J0D01*
G01*
X164868750Y-93825000D01*
G75*
G02*
X165087500Y-94043750I0J-218750D01*
G01*
X165087500Y-94556250D01*
G75*
G02*
X164868750Y-94775000I-218750J0D01*
G01*
X164431250Y-94775000D01*
G75*
G02*
X164212500Y-94556250I0J218750D01*
G01*
G37*
G36*
G01*
X162637500Y-94556250D02*
X162637500Y-94043750D01*
G75*
G02*
X162856250Y-93825000I218750J0D01*
G01*
X163293750Y-93825000D01*
G75*
G02*
X163512500Y-94043750I0J-218750D01*
G01*
X163512500Y-94556250D01*
G75*
G02*
X163293750Y-94775000I-218750J0D01*
G01*
X162856250Y-94775000D01*
G75*
G02*
X162637500Y-94556250I0J218750D01*
G01*
G37*
%TD*%
%TO.C,C11*%
G36*
G01*
X166587500Y-94043750D02*
X166587500Y-94556250D01*
G75*
G02*
X166368750Y-94775000I-218750J0D01*
G01*
X165931250Y-94775000D01*
G75*
G02*
X165712500Y-94556250I0J218750D01*
G01*
X165712500Y-94043750D01*
G75*
G02*
X165931250Y-93825000I218750J0D01*
G01*
X166368750Y-93825000D01*
G75*
G02*
X166587500Y-94043750I0J-218750D01*
G01*
G37*
G36*
G01*
X168162500Y-94043750D02*
X168162500Y-94556250D01*
G75*
G02*
X167943750Y-94775000I-218750J0D01*
G01*
X167506250Y-94775000D01*
G75*
G02*
X167287500Y-94556250I0J218750D01*
G01*
X167287500Y-94043750D01*
G75*
G02*
X167506250Y-93825000I218750J0D01*
G01*
X167943750Y-93825000D01*
G75*
G02*
X168162500Y-94043750I0J-218750D01*
G01*
G37*
%TD*%
%TO.C,C16*%
G36*
G01*
X157825500Y-94239000D02*
X157624500Y-94239000D01*
G75*
G02*
X157545000Y-94159500I0J79500D01*
G01*
X157545000Y-94000500D01*
G75*
G02*
X157624500Y-93921000I79500J0D01*
G01*
X157825500Y-93921000D01*
G75*
G02*
X157905000Y-94000500I0J-79500D01*
G01*
X157905000Y-94159500D01*
G75*
G02*
X157825500Y-94239000I-79500J0D01*
G01*
G37*
G36*
G01*
X157825500Y-94929000D02*
X157624500Y-94929000D01*
G75*
G02*
X157545000Y-94849500I0J79500D01*
G01*
X157545000Y-94690500D01*
G75*
G02*
X157624500Y-94611000I79500J0D01*
G01*
X157825500Y-94611000D01*
G75*
G02*
X157905000Y-94690500I0J-79500D01*
G01*
X157905000Y-94849500D01*
G75*
G02*
X157825500Y-94929000I-79500J0D01*
G01*
G37*
%TD*%
%TO.C,C42*%
G36*
G01*
X160884000Y-105799500D02*
X160884000Y-106000500D01*
G75*
G02*
X160804500Y-106080000I-79500J0D01*
G01*
X160645500Y-106080000D01*
G75*
G02*
X160566000Y-106000500I0J79500D01*
G01*
X160566000Y-105799500D01*
G75*
G02*
X160645500Y-105720000I79500J0D01*
G01*
X160804500Y-105720000D01*
G75*
G02*
X160884000Y-105799500I0J-79500D01*
G01*
G37*
G36*
G01*
X161574000Y-105799500D02*
X161574000Y-106000500D01*
G75*
G02*
X161494500Y-106080000I-79500J0D01*
G01*
X161335500Y-106080000D01*
G75*
G02*
X161256000Y-106000500I0J79500D01*
G01*
X161256000Y-105799500D01*
G75*
G02*
X161335500Y-105720000I79500J0D01*
G01*
X161494500Y-105720000D01*
G75*
G02*
X161574000Y-105799500I0J-79500D01*
G01*
G37*
%TD*%
D19*
%TO.C,U6*%
X155600000Y-95800000D03*
X155600000Y-96200000D03*
X156000000Y-95800000D03*
X156000000Y-96200000D03*
X156400000Y-96200000D03*
X156400000Y-95800000D03*
%TD*%
D20*
%TO.C,U4*%
X162875000Y-105937500D03*
X162875000Y-105262500D03*
D21*
X162237500Y-105887500D03*
X162237500Y-105312500D03*
X163462500Y-105600000D03*
%TD*%
%TO.C,U3*%
G36*
G01*
X157850301Y-106050000D02*
X156649699Y-106050000D01*
G75*
G02*
X156600000Y-106000301I0J49699D01*
G01*
X156600000Y-105399699D01*
G75*
G02*
X156649699Y-105350000I49699J0D01*
G01*
X157850301Y-105350000D01*
G75*
G02*
X157900000Y-105399699I0J-49699D01*
G01*
X157900000Y-106000301D01*
G75*
G02*
X157850301Y-106050000I-49699J0D01*
G01*
G37*
G36*
G01*
X156825000Y-105150000D02*
X156675000Y-105150000D01*
G75*
G02*
X156625000Y-105100000I0J50000D01*
G01*
X156625000Y-104850000D01*
G75*
G02*
X156675000Y-104800000I50000J0D01*
G01*
X156825000Y-104800000D01*
G75*
G02*
X156875000Y-104850000I0J-50000D01*
G01*
X156875000Y-105100000D01*
G75*
G02*
X156825000Y-105150000I-50000J0D01*
G01*
G37*
G36*
G01*
X157325000Y-105150000D02*
X157175000Y-105150000D01*
G75*
G02*
X157125000Y-105100000I0J50000D01*
G01*
X157125000Y-104850000D01*
G75*
G02*
X157175000Y-104800000I50000J0D01*
G01*
X157325000Y-104800000D01*
G75*
G02*
X157375000Y-104850000I0J-50000D01*
G01*
X157375000Y-105100000D01*
G75*
G02*
X157325000Y-105150000I-50000J0D01*
G01*
G37*
G36*
G01*
X157850000Y-105150000D02*
X157700000Y-105150000D01*
G75*
G02*
X157650000Y-105100000I0J50000D01*
G01*
X157650000Y-104850000D01*
G75*
G02*
X157700000Y-104800000I50000J0D01*
G01*
X157850000Y-104800000D01*
G75*
G02*
X157900000Y-104850000I0J-50000D01*
G01*
X157900000Y-105100000D01*
G75*
G02*
X157850000Y-105150000I-50000J0D01*
G01*
G37*
G36*
G01*
X157825000Y-106600000D02*
X157675000Y-106600000D01*
G75*
G02*
X157625000Y-106550000I0J50000D01*
G01*
X157625000Y-106300000D01*
G75*
G02*
X157675000Y-106250000I50000J0D01*
G01*
X157825000Y-106250000D01*
G75*
G02*
X157875000Y-106300000I0J-50000D01*
G01*
X157875000Y-106550000D01*
G75*
G02*
X157825000Y-106600000I-50000J0D01*
G01*
G37*
G36*
G01*
X157325000Y-106600000D02*
X157175000Y-106600000D01*
G75*
G02*
X157125000Y-106550000I0J50000D01*
G01*
X157125000Y-106300000D01*
G75*
G02*
X157175000Y-106250000I50000J0D01*
G01*
X157325000Y-106250000D01*
G75*
G02*
X157375000Y-106300000I0J-50000D01*
G01*
X157375000Y-106550000D01*
G75*
G02*
X157325000Y-106600000I-50000J0D01*
G01*
G37*
G36*
G01*
X156825000Y-106600000D02*
X156675000Y-106600000D01*
G75*
G02*
X156625000Y-106550000I0J50000D01*
G01*
X156625000Y-106300000D01*
G75*
G02*
X156675000Y-106250000I50000J0D01*
G01*
X156825000Y-106250000D01*
G75*
G02*
X156875000Y-106300000I0J-50000D01*
G01*
X156875000Y-106550000D01*
G75*
G02*
X156825000Y-106600000I-50000J0D01*
G01*
G37*
%TD*%
%TO.C,R5*%
G36*
G01*
X157429500Y-96186000D02*
X157630500Y-96186000D01*
G75*
G02*
X157710000Y-96265500I0J-79500D01*
G01*
X157710000Y-96424500D01*
G75*
G02*
X157630500Y-96504000I-79500J0D01*
G01*
X157429500Y-96504000D01*
G75*
G02*
X157350000Y-96424500I0J79500D01*
G01*
X157350000Y-96265500D01*
G75*
G02*
X157429500Y-96186000I79500J0D01*
G01*
G37*
G36*
G01*
X157429500Y-95496000D02*
X157630500Y-95496000D01*
G75*
G02*
X157710000Y-95575500I0J-79500D01*
G01*
X157710000Y-95734500D01*
G75*
G02*
X157630500Y-95814000I-79500J0D01*
G01*
X157429500Y-95814000D01*
G75*
G02*
X157350000Y-95734500I0J79500D01*
G01*
X157350000Y-95575500D01*
G75*
G02*
X157429500Y-95496000I79500J0D01*
G01*
G37*
%TD*%
%TO.C,R6*%
G36*
G01*
X156289500Y-94436000D02*
X156490500Y-94436000D01*
G75*
G02*
X156570000Y-94515500I0J-79500D01*
G01*
X156570000Y-94674500D01*
G75*
G02*
X156490500Y-94754000I-79500J0D01*
G01*
X156289500Y-94754000D01*
G75*
G02*
X156210000Y-94674500I0J79500D01*
G01*
X156210000Y-94515500D01*
G75*
G02*
X156289500Y-94436000I79500J0D01*
G01*
G37*
G36*
G01*
X156289500Y-93746000D02*
X156490500Y-93746000D01*
G75*
G02*
X156570000Y-93825500I0J-79500D01*
G01*
X156570000Y-93984500D01*
G75*
G02*
X156490500Y-94064000I-79500J0D01*
G01*
X156289500Y-94064000D01*
G75*
G02*
X156210000Y-93984500I0J79500D01*
G01*
X156210000Y-93825500D01*
G75*
G02*
X156289500Y-93746000I79500J0D01*
G01*
G37*
%TD*%
%TO.C,R7*%
G36*
G01*
X154610500Y-94044000D02*
X154409500Y-94044000D01*
G75*
G02*
X154330000Y-93964500I0J79500D01*
G01*
X154330000Y-93805500D01*
G75*
G02*
X154409500Y-93726000I79500J0D01*
G01*
X154610500Y-93726000D01*
G75*
G02*
X154690000Y-93805500I0J-79500D01*
G01*
X154690000Y-93964500D01*
G75*
G02*
X154610500Y-94044000I-79500J0D01*
G01*
G37*
G36*
G01*
X154610500Y-94734000D02*
X154409500Y-94734000D01*
G75*
G02*
X154330000Y-94654500I0J79500D01*
G01*
X154330000Y-94495500D01*
G75*
G02*
X154409500Y-94416000I79500J0D01*
G01*
X154610500Y-94416000D01*
G75*
G02*
X154690000Y-94495500I0J-79500D01*
G01*
X154690000Y-94654500D01*
G75*
G02*
X154610500Y-94734000I-79500J0D01*
G01*
G37*
%TD*%
%TO.C,R8*%
G36*
G01*
X167650500Y-97914000D02*
X167449500Y-97914000D01*
G75*
G02*
X167370000Y-97834500I0J79500D01*
G01*
X167370000Y-97675500D01*
G75*
G02*
X167449500Y-97596000I79500J0D01*
G01*
X167650500Y-97596000D01*
G75*
G02*
X167730000Y-97675500I0J-79500D01*
G01*
X167730000Y-97834500D01*
G75*
G02*
X167650500Y-97914000I-79500J0D01*
G01*
G37*
G36*
G01*
X167650500Y-98604000D02*
X167449500Y-98604000D01*
G75*
G02*
X167370000Y-98524500I0J79500D01*
G01*
X167370000Y-98365500D01*
G75*
G02*
X167449500Y-98286000I79500J0D01*
G01*
X167650500Y-98286000D01*
G75*
G02*
X167730000Y-98365500I0J-79500D01*
G01*
X167730000Y-98524500D01*
G75*
G02*
X167650500Y-98604000I-79500J0D01*
G01*
G37*
%TD*%
%TO.C,R9*%
G36*
G01*
X166726000Y-102112500D02*
X166726000Y-101911500D01*
G75*
G02*
X166805500Y-101832000I79500J0D01*
G01*
X166964500Y-101832000D01*
G75*
G02*
X167044000Y-101911500I0J-79500D01*
G01*
X167044000Y-102112500D01*
G75*
G02*
X166964500Y-102192000I-79500J0D01*
G01*
X166805500Y-102192000D01*
G75*
G02*
X166726000Y-102112500I0J79500D01*
G01*
G37*
G36*
G01*
X166036000Y-102112500D02*
X166036000Y-101911500D01*
G75*
G02*
X166115500Y-101832000I79500J0D01*
G01*
X166274500Y-101832000D01*
G75*
G02*
X166354000Y-101911500I0J-79500D01*
G01*
X166354000Y-102112500D01*
G75*
G02*
X166274500Y-102192000I-79500J0D01*
G01*
X166115500Y-102192000D01*
G75*
G02*
X166036000Y-102112500I0J79500D01*
G01*
G37*
%TD*%
%TO.C,L1*%
G36*
G01*
X166250500Y-99314000D02*
X166049500Y-99314000D01*
G75*
G02*
X165970000Y-99234500I0J79500D01*
G01*
X165970000Y-99075500D01*
G75*
G02*
X166049500Y-98996000I79500J0D01*
G01*
X166250500Y-98996000D01*
G75*
G02*
X166330000Y-99075500I0J-79500D01*
G01*
X166330000Y-99234500D01*
G75*
G02*
X166250500Y-99314000I-79500J0D01*
G01*
G37*
G36*
G01*
X166250500Y-100004000D02*
X166049500Y-100004000D01*
G75*
G02*
X165970000Y-99924500I0J79500D01*
G01*
X165970000Y-99765500D01*
G75*
G02*
X166049500Y-99686000I79500J0D01*
G01*
X166250500Y-99686000D01*
G75*
G02*
X166330000Y-99765500I0J-79500D01*
G01*
X166330000Y-99924500D01*
G75*
G02*
X166250500Y-100004000I-79500J0D01*
G01*
G37*
%TD*%
%TO.C,L2*%
G36*
G01*
X162074500Y-104266000D02*
X162275500Y-104266000D01*
G75*
G02*
X162355000Y-104345500I0J-79500D01*
G01*
X162355000Y-104504500D01*
G75*
G02*
X162275500Y-104584000I-79500J0D01*
G01*
X162074500Y-104584000D01*
G75*
G02*
X161995000Y-104504500I0J79500D01*
G01*
X161995000Y-104345500D01*
G75*
G02*
X162074500Y-104266000I79500J0D01*
G01*
G37*
G36*
G01*
X162074500Y-103576000D02*
X162275500Y-103576000D01*
G75*
G02*
X162355000Y-103655500I0J-79500D01*
G01*
X162355000Y-103814500D01*
G75*
G02*
X162275500Y-103894000I-79500J0D01*
G01*
X162074500Y-103894000D01*
G75*
G02*
X161995000Y-103814500I0J79500D01*
G01*
X161995000Y-103655500D01*
G75*
G02*
X162074500Y-103576000I79500J0D01*
G01*
G37*
%TD*%
%TO.C,L3*%
G36*
G01*
X165606000Y-105300500D02*
X165606000Y-105099500D01*
G75*
G02*
X165685500Y-105020000I79500J0D01*
G01*
X165844500Y-105020000D01*
G75*
G02*
X165924000Y-105099500I0J-79500D01*
G01*
X165924000Y-105300500D01*
G75*
G02*
X165844500Y-105380000I-79500J0D01*
G01*
X165685500Y-105380000D01*
G75*
G02*
X165606000Y-105300500I0J79500D01*
G01*
G37*
G36*
G01*
X164916000Y-105300500D02*
X164916000Y-105099500D01*
G75*
G02*
X164995500Y-105020000I79500J0D01*
G01*
X165154500Y-105020000D01*
G75*
G02*
X165234000Y-105099500I0J-79500D01*
G01*
X165234000Y-105300500D01*
G75*
G02*
X165154500Y-105380000I-79500J0D01*
G01*
X164995500Y-105380000D01*
G75*
G02*
X164916000Y-105300500I0J79500D01*
G01*
G37*
%TD*%
%TO.C,L5*%
G36*
G01*
X159949500Y-104286000D02*
X160150500Y-104286000D01*
G75*
G02*
X160230000Y-104365500I0J-79500D01*
G01*
X160230000Y-104524500D01*
G75*
G02*
X160150500Y-104604000I-79500J0D01*
G01*
X159949500Y-104604000D01*
G75*
G02*
X159870000Y-104524500I0J79500D01*
G01*
X159870000Y-104365500D01*
G75*
G02*
X159949500Y-104286000I79500J0D01*
G01*
G37*
G36*
G01*
X159949500Y-103596000D02*
X160150500Y-103596000D01*
G75*
G02*
X160230000Y-103675500I0J-79500D01*
G01*
X160230000Y-103834500D01*
G75*
G02*
X160150500Y-103914000I-79500J0D01*
G01*
X159949500Y-103914000D01*
G75*
G02*
X159870000Y-103834500I0J79500D01*
G01*
X159870000Y-103675500D01*
G75*
G02*
X159949500Y-103596000I79500J0D01*
G01*
G37*
%TD*%
%TO.C,L4*%
G36*
G01*
X165661000Y-106346500D02*
X165661000Y-106145500D01*
G75*
G02*
X165740500Y-106066000I79500J0D01*
G01*
X165899500Y-106066000D01*
G75*
G02*
X165979000Y-106145500I0J-79500D01*
G01*
X165979000Y-106346500D01*
G75*
G02*
X165899500Y-106426000I-79500J0D01*
G01*
X165740500Y-106426000D01*
G75*
G02*
X165661000Y-106346500I0J79500D01*
G01*
G37*
G36*
G01*
X164971000Y-106346500D02*
X164971000Y-106145500D01*
G75*
G02*
X165050500Y-106066000I79500J0D01*
G01*
X165209500Y-106066000D01*
G75*
G02*
X165289000Y-106145500I0J-79500D01*
G01*
X165289000Y-106346500D01*
G75*
G02*
X165209500Y-106426000I-79500J0D01*
G01*
X165050500Y-106426000D01*
G75*
G02*
X164971000Y-106346500I0J79500D01*
G01*
G37*
%TD*%
%TO.C,L6*%
G36*
G01*
X156879500Y-102656000D02*
X157080500Y-102656000D01*
G75*
G02*
X157160000Y-102735500I0J-79500D01*
G01*
X157160000Y-102894500D01*
G75*
G02*
X157080500Y-102974000I-79500J0D01*
G01*
X156879500Y-102974000D01*
G75*
G02*
X156800000Y-102894500I0J79500D01*
G01*
X156800000Y-102735500D01*
G75*
G02*
X156879500Y-102656000I79500J0D01*
G01*
G37*
G36*
G01*
X156879500Y-101966000D02*
X157080500Y-101966000D01*
G75*
G02*
X157160000Y-102045500I0J-79500D01*
G01*
X157160000Y-102204500D01*
G75*
G02*
X157080500Y-102284000I-79500J0D01*
G01*
X156879500Y-102284000D01*
G75*
G02*
X156800000Y-102204500I0J79500D01*
G01*
X156800000Y-102045500D01*
G75*
G02*
X156879500Y-101966000I79500J0D01*
G01*
G37*
%TD*%
%TO.C,L7*%
G36*
G01*
X157790500Y-102284000D02*
X157589500Y-102284000D01*
G75*
G02*
X157510000Y-102204500I0J79500D01*
G01*
X157510000Y-102045500D01*
G75*
G02*
X157589500Y-101966000I79500J0D01*
G01*
X157790500Y-101966000D01*
G75*
G02*
X157870000Y-102045500I0J-79500D01*
G01*
X157870000Y-102204500D01*
G75*
G02*
X157790500Y-102284000I-79500J0D01*
G01*
G37*
G36*
G01*
X157790500Y-102974000D02*
X157589500Y-102974000D01*
G75*
G02*
X157510000Y-102894500I0J79500D01*
G01*
X157510000Y-102735500D01*
G75*
G02*
X157589500Y-102656000I79500J0D01*
G01*
X157790500Y-102656000D01*
G75*
G02*
X157870000Y-102735500I0J-79500D01*
G01*
X157870000Y-102894500D01*
G75*
G02*
X157790500Y-102974000I-79500J0D01*
G01*
G37*
%TD*%
%TO.C,L8*%
G36*
G01*
X157154000Y-103419500D02*
X157154000Y-103620500D01*
G75*
G02*
X157074500Y-103700000I-79500J0D01*
G01*
X156915500Y-103700000D01*
G75*
G02*
X156836000Y-103620500I0J79500D01*
G01*
X156836000Y-103419500D01*
G75*
G02*
X156915500Y-103340000I79500J0D01*
G01*
X157074500Y-103340000D01*
G75*
G02*
X157154000Y-103419500I0J-79500D01*
G01*
G37*
G36*
G01*
X157844000Y-103419500D02*
X157844000Y-103620500D01*
G75*
G02*
X157764500Y-103700000I-79500J0D01*
G01*
X157605500Y-103700000D01*
G75*
G02*
X157526000Y-103620500I0J79500D01*
G01*
X157526000Y-103419500D01*
G75*
G02*
X157605500Y-103340000I79500J0D01*
G01*
X157764500Y-103340000D01*
G75*
G02*
X157844000Y-103419500I0J-79500D01*
G01*
G37*
%TD*%
%TO.C,L9*%
G36*
G01*
X153316000Y-99100500D02*
X153316000Y-98899500D01*
G75*
G02*
X153395500Y-98820000I79500J0D01*
G01*
X153554500Y-98820000D01*
G75*
G02*
X153634000Y-98899500I0J-79500D01*
G01*
X153634000Y-99100500D01*
G75*
G02*
X153554500Y-99180000I-79500J0D01*
G01*
X153395500Y-99180000D01*
G75*
G02*
X153316000Y-99100500I0J79500D01*
G01*
G37*
G36*
G01*
X152626000Y-99100500D02*
X152626000Y-98899500D01*
G75*
G02*
X152705500Y-98820000I79500J0D01*
G01*
X152864500Y-98820000D01*
G75*
G02*
X152944000Y-98899500I0J-79500D01*
G01*
X152944000Y-99100500D01*
G75*
G02*
X152864500Y-99180000I-79500J0D01*
G01*
X152705500Y-99180000D01*
G75*
G02*
X152626000Y-99100500I0J79500D01*
G01*
G37*
%TD*%
%TO.C,L11*%
G36*
G01*
X154716000Y-98400500D02*
X154716000Y-98199500D01*
G75*
G02*
X154795500Y-98120000I79500J0D01*
G01*
X154954500Y-98120000D01*
G75*
G02*
X155034000Y-98199500I0J-79500D01*
G01*
X155034000Y-98400500D01*
G75*
G02*
X154954500Y-98480000I-79500J0D01*
G01*
X154795500Y-98480000D01*
G75*
G02*
X154716000Y-98400500I0J79500D01*
G01*
G37*
G36*
G01*
X154026000Y-98400500D02*
X154026000Y-98199500D01*
G75*
G02*
X154105500Y-98120000I79500J0D01*
G01*
X154264500Y-98120000D01*
G75*
G02*
X154344000Y-98199500I0J-79500D01*
G01*
X154344000Y-98400500D01*
G75*
G02*
X154264500Y-98480000I-79500J0D01*
G01*
X154105500Y-98480000D01*
G75*
G02*
X154026000Y-98400500I0J79500D01*
G01*
G37*
%TD*%
%TO.C,C5*%
G36*
G01*
X154389500Y-96216000D02*
X154590500Y-96216000D01*
G75*
G02*
X154670000Y-96295500I0J-79500D01*
G01*
X154670000Y-96454500D01*
G75*
G02*
X154590500Y-96534000I-79500J0D01*
G01*
X154389500Y-96534000D01*
G75*
G02*
X154310000Y-96454500I0J79500D01*
G01*
X154310000Y-96295500D01*
G75*
G02*
X154389500Y-96216000I79500J0D01*
G01*
G37*
G36*
G01*
X154389500Y-95526000D02*
X154590500Y-95526000D01*
G75*
G02*
X154670000Y-95605500I0J-79500D01*
G01*
X154670000Y-95764500D01*
G75*
G02*
X154590500Y-95844000I-79500J0D01*
G01*
X154389500Y-95844000D01*
G75*
G02*
X154310000Y-95764500I0J79500D01*
G01*
X154310000Y-95605500D01*
G75*
G02*
X154389500Y-95526000I79500J0D01*
G01*
G37*
%TD*%
%TO.C,C12*%
G36*
G01*
X163174000Y-95279500D02*
X163174000Y-95480500D01*
G75*
G02*
X163094500Y-95560000I-79500J0D01*
G01*
X162935500Y-95560000D01*
G75*
G02*
X162856000Y-95480500I0J79500D01*
G01*
X162856000Y-95279500D01*
G75*
G02*
X162935500Y-95200000I79500J0D01*
G01*
X163094500Y-95200000D01*
G75*
G02*
X163174000Y-95279500I0J-79500D01*
G01*
G37*
G36*
G01*
X163864000Y-95279500D02*
X163864000Y-95480500D01*
G75*
G02*
X163784500Y-95560000I-79500J0D01*
G01*
X163625500Y-95560000D01*
G75*
G02*
X163546000Y-95480500I0J79500D01*
G01*
X163546000Y-95279500D01*
G75*
G02*
X163625500Y-95200000I79500J0D01*
G01*
X163784500Y-95200000D01*
G75*
G02*
X163864000Y-95279500I0J-79500D01*
G01*
G37*
%TD*%
%TO.C,C15*%
G36*
G01*
X161849500Y-94491000D02*
X162050500Y-94491000D01*
G75*
G02*
X162130000Y-94570500I0J-79500D01*
G01*
X162130000Y-94729500D01*
G75*
G02*
X162050500Y-94809000I-79500J0D01*
G01*
X161849500Y-94809000D01*
G75*
G02*
X161770000Y-94729500I0J79500D01*
G01*
X161770000Y-94570500D01*
G75*
G02*
X161849500Y-94491000I79500J0D01*
G01*
G37*
G36*
G01*
X161849500Y-93801000D02*
X162050500Y-93801000D01*
G75*
G02*
X162130000Y-93880500I0J-79500D01*
G01*
X162130000Y-94039500D01*
G75*
G02*
X162050500Y-94119000I-79500J0D01*
G01*
X161849500Y-94119000D01*
G75*
G02*
X161770000Y-94039500I0J79500D01*
G01*
X161770000Y-93880500D01*
G75*
G02*
X161849500Y-93801000I79500J0D01*
G01*
G37*
%TD*%
%TO.C,C10*%
G36*
G01*
X165061000Y-95490500D02*
X165061000Y-95289500D01*
G75*
G02*
X165140500Y-95210000I79500J0D01*
G01*
X165299500Y-95210000D01*
G75*
G02*
X165379000Y-95289500I0J-79500D01*
G01*
X165379000Y-95490500D01*
G75*
G02*
X165299500Y-95570000I-79500J0D01*
G01*
X165140500Y-95570000D01*
G75*
G02*
X165061000Y-95490500I0J79500D01*
G01*
G37*
G36*
G01*
X164371000Y-95490500D02*
X164371000Y-95289500D01*
G75*
G02*
X164450500Y-95210000I79500J0D01*
G01*
X164609500Y-95210000D01*
G75*
G02*
X164689000Y-95289500I0J-79500D01*
G01*
X164689000Y-95490500D01*
G75*
G02*
X164609500Y-95570000I-79500J0D01*
G01*
X164450500Y-95570000D01*
G75*
G02*
X164371000Y-95490500I0J79500D01*
G01*
G37*
%TD*%
%TO.C,C17*%
G36*
G01*
X166194000Y-95279500D02*
X166194000Y-95480500D01*
G75*
G02*
X166114500Y-95560000I-79500J0D01*
G01*
X165955500Y-95560000D01*
G75*
G02*
X165876000Y-95480500I0J79500D01*
G01*
X165876000Y-95279500D01*
G75*
G02*
X165955500Y-95200000I79500J0D01*
G01*
X166114500Y-95200000D01*
G75*
G02*
X166194000Y-95279500I0J-79500D01*
G01*
G37*
G36*
G01*
X166884000Y-95279500D02*
X166884000Y-95480500D01*
G75*
G02*
X166804500Y-95560000I-79500J0D01*
G01*
X166645500Y-95560000D01*
G75*
G02*
X166566000Y-95480500I0J79500D01*
G01*
X166566000Y-95279500D01*
G75*
G02*
X166645500Y-95200000I79500J0D01*
G01*
X166804500Y-95200000D01*
G75*
G02*
X166884000Y-95279500I0J-79500D01*
G01*
G37*
%TD*%
%TO.C,C18*%
G36*
G01*
X166240500Y-96244000D02*
X166039500Y-96244000D01*
G75*
G02*
X165960000Y-96164500I0J79500D01*
G01*
X165960000Y-96005500D01*
G75*
G02*
X166039500Y-95926000I79500J0D01*
G01*
X166240500Y-95926000D01*
G75*
G02*
X166320000Y-96005500I0J-79500D01*
G01*
X166320000Y-96164500D01*
G75*
G02*
X166240500Y-96244000I-79500J0D01*
G01*
G37*
G36*
G01*
X166240500Y-96934000D02*
X166039500Y-96934000D01*
G75*
G02*
X165960000Y-96854500I0J79500D01*
G01*
X165960000Y-96695500D01*
G75*
G02*
X166039500Y-96616000I79500J0D01*
G01*
X166240500Y-96616000D01*
G75*
G02*
X166320000Y-96695500I0J-79500D01*
G01*
X166320000Y-96854500D01*
G75*
G02*
X166240500Y-96934000I-79500J0D01*
G01*
G37*
%TD*%
%TO.C,C20*%
G36*
G01*
X166049500Y-98286000D02*
X166250500Y-98286000D01*
G75*
G02*
X166330000Y-98365500I0J-79500D01*
G01*
X166330000Y-98524500D01*
G75*
G02*
X166250500Y-98604000I-79500J0D01*
G01*
X166049500Y-98604000D01*
G75*
G02*
X165970000Y-98524500I0J79500D01*
G01*
X165970000Y-98365500D01*
G75*
G02*
X166049500Y-98286000I79500J0D01*
G01*
G37*
G36*
G01*
X166049500Y-97596000D02*
X166250500Y-97596000D01*
G75*
G02*
X166330000Y-97675500I0J-79500D01*
G01*
X166330000Y-97834500D01*
G75*
G02*
X166250500Y-97914000I-79500J0D01*
G01*
X166049500Y-97914000D01*
G75*
G02*
X165970000Y-97834500I0J79500D01*
G01*
X165970000Y-97675500D01*
G75*
G02*
X166049500Y-97596000I79500J0D01*
G01*
G37*
%TD*%
%TO.C,C21*%
G36*
G01*
X166950500Y-97914000D02*
X166749500Y-97914000D01*
G75*
G02*
X166670000Y-97834500I0J79500D01*
G01*
X166670000Y-97675500D01*
G75*
G02*
X166749500Y-97596000I79500J0D01*
G01*
X166950500Y-97596000D01*
G75*
G02*
X167030000Y-97675500I0J-79500D01*
G01*
X167030000Y-97834500D01*
G75*
G02*
X166950500Y-97914000I-79500J0D01*
G01*
G37*
G36*
G01*
X166950500Y-98604000D02*
X166749500Y-98604000D01*
G75*
G02*
X166670000Y-98524500I0J79500D01*
G01*
X166670000Y-98365500D01*
G75*
G02*
X166749500Y-98286000I79500J0D01*
G01*
X166950500Y-98286000D01*
G75*
G02*
X167030000Y-98365500I0J-79500D01*
G01*
X167030000Y-98524500D01*
G75*
G02*
X166950500Y-98604000I-79500J0D01*
G01*
G37*
%TD*%
%TO.C,C22*%
G36*
G01*
X157599500Y-98546000D02*
X157800500Y-98546000D01*
G75*
G02*
X157880000Y-98625500I0J-79500D01*
G01*
X157880000Y-98784500D01*
G75*
G02*
X157800500Y-98864000I-79500J0D01*
G01*
X157599500Y-98864000D01*
G75*
G02*
X157520000Y-98784500I0J79500D01*
G01*
X157520000Y-98625500D01*
G75*
G02*
X157599500Y-98546000I79500J0D01*
G01*
G37*
G36*
G01*
X157599500Y-97856000D02*
X157800500Y-97856000D01*
G75*
G02*
X157880000Y-97935500I0J-79500D01*
G01*
X157880000Y-98094500D01*
G75*
G02*
X157800500Y-98174000I-79500J0D01*
G01*
X157599500Y-98174000D01*
G75*
G02*
X157520000Y-98094500I0J79500D01*
G01*
X157520000Y-97935500D01*
G75*
G02*
X157599500Y-97856000I79500J0D01*
G01*
G37*
%TD*%
%TO.C,C23*%
G36*
G01*
X166950500Y-99314000D02*
X166749500Y-99314000D01*
G75*
G02*
X166670000Y-99234500I0J79500D01*
G01*
X166670000Y-99075500D01*
G75*
G02*
X166749500Y-98996000I79500J0D01*
G01*
X166950500Y-98996000D01*
G75*
G02*
X167030000Y-99075500I0J-79500D01*
G01*
X167030000Y-99234500D01*
G75*
G02*
X166950500Y-99314000I-79500J0D01*
G01*
G37*
G36*
G01*
X166950500Y-100004000D02*
X166749500Y-100004000D01*
G75*
G02*
X166670000Y-99924500I0J79500D01*
G01*
X166670000Y-99765500D01*
G75*
G02*
X166749500Y-99686000I79500J0D01*
G01*
X166950500Y-99686000D01*
G75*
G02*
X167030000Y-99765500I0J-79500D01*
G01*
X167030000Y-99924500D01*
G75*
G02*
X166950500Y-100004000I-79500J0D01*
G01*
G37*
%TD*%
%TO.C,C25*%
G36*
G01*
X157569500Y-100426000D02*
X157770500Y-100426000D01*
G75*
G02*
X157850000Y-100505500I0J-79500D01*
G01*
X157850000Y-100664500D01*
G75*
G02*
X157770500Y-100744000I-79500J0D01*
G01*
X157569500Y-100744000D01*
G75*
G02*
X157490000Y-100664500I0J79500D01*
G01*
X157490000Y-100505500D01*
G75*
G02*
X157569500Y-100426000I79500J0D01*
G01*
G37*
G36*
G01*
X157569500Y-99736000D02*
X157770500Y-99736000D01*
G75*
G02*
X157850000Y-99815500I0J-79500D01*
G01*
X157850000Y-99974500D01*
G75*
G02*
X157770500Y-100054000I-79500J0D01*
G01*
X157569500Y-100054000D01*
G75*
G02*
X157490000Y-99974500I0J79500D01*
G01*
X157490000Y-99815500D01*
G75*
G02*
X157569500Y-99736000I79500J0D01*
G01*
G37*
%TD*%
%TO.C,C24*%
G36*
G01*
X166736000Y-100700500D02*
X166736000Y-100499500D01*
G75*
G02*
X166815500Y-100420000I79500J0D01*
G01*
X166974500Y-100420000D01*
G75*
G02*
X167054000Y-100499500I0J-79500D01*
G01*
X167054000Y-100700500D01*
G75*
G02*
X166974500Y-100780000I-79500J0D01*
G01*
X166815500Y-100780000D01*
G75*
G02*
X166736000Y-100700500I0J79500D01*
G01*
G37*
G36*
G01*
X166046000Y-100700500D02*
X166046000Y-100499500D01*
G75*
G02*
X166125500Y-100420000I79500J0D01*
G01*
X166284500Y-100420000D01*
G75*
G02*
X166364000Y-100499500I0J-79500D01*
G01*
X166364000Y-100700500D01*
G75*
G02*
X166284500Y-100780000I-79500J0D01*
G01*
X166125500Y-100780000D01*
G75*
G02*
X166046000Y-100700500I0J79500D01*
G01*
G37*
%TD*%
%TO.C,C26*%
G36*
G01*
X166736000Y-101400500D02*
X166736000Y-101199500D01*
G75*
G02*
X166815500Y-101120000I79500J0D01*
G01*
X166974500Y-101120000D01*
G75*
G02*
X167054000Y-101199500I0J-79500D01*
G01*
X167054000Y-101400500D01*
G75*
G02*
X166974500Y-101480000I-79500J0D01*
G01*
X166815500Y-101480000D01*
G75*
G02*
X166736000Y-101400500I0J79500D01*
G01*
G37*
G36*
G01*
X166046000Y-101400500D02*
X166046000Y-101199500D01*
G75*
G02*
X166125500Y-101120000I79500J0D01*
G01*
X166284500Y-101120000D01*
G75*
G02*
X166364000Y-101199500I0J-79500D01*
G01*
X166364000Y-101400500D01*
G75*
G02*
X166284500Y-101480000I-79500J0D01*
G01*
X166125500Y-101480000D01*
G75*
G02*
X166046000Y-101400500I0J79500D01*
G01*
G37*
%TD*%
%TO.C,C28*%
G36*
G01*
X167549500Y-102486000D02*
X167750500Y-102486000D01*
G75*
G02*
X167830000Y-102565500I0J-79500D01*
G01*
X167830000Y-102724500D01*
G75*
G02*
X167750500Y-102804000I-79500J0D01*
G01*
X167549500Y-102804000D01*
G75*
G02*
X167470000Y-102724500I0J79500D01*
G01*
X167470000Y-102565500D01*
G75*
G02*
X167549500Y-102486000I79500J0D01*
G01*
G37*
G36*
G01*
X167549500Y-101796000D02*
X167750500Y-101796000D01*
G75*
G02*
X167830000Y-101875500I0J-79500D01*
G01*
X167830000Y-102034500D01*
G75*
G02*
X167750500Y-102114000I-79500J0D01*
G01*
X167549500Y-102114000D01*
G75*
G02*
X167470000Y-102034500I0J79500D01*
G01*
X167470000Y-101875500D01*
G75*
G02*
X167549500Y-101796000I79500J0D01*
G01*
G37*
%TD*%
%TO.C,C31*%
G36*
G01*
X164249500Y-104286000D02*
X164450500Y-104286000D01*
G75*
G02*
X164530000Y-104365500I0J-79500D01*
G01*
X164530000Y-104524500D01*
G75*
G02*
X164450500Y-104604000I-79500J0D01*
G01*
X164249500Y-104604000D01*
G75*
G02*
X164170000Y-104524500I0J79500D01*
G01*
X164170000Y-104365500D01*
G75*
G02*
X164249500Y-104286000I79500J0D01*
G01*
G37*
G36*
G01*
X164249500Y-103596000D02*
X164450500Y-103596000D01*
G75*
G02*
X164530000Y-103675500I0J-79500D01*
G01*
X164530000Y-103834500D01*
G75*
G02*
X164450500Y-103914000I-79500J0D01*
G01*
X164249500Y-103914000D01*
G75*
G02*
X164170000Y-103834500I0J79500D01*
G01*
X164170000Y-103675500D01*
G75*
G02*
X164249500Y-103596000I79500J0D01*
G01*
G37*
%TD*%
%TO.C,C29*%
G36*
G01*
X166364000Y-102699500D02*
X166364000Y-102900500D01*
G75*
G02*
X166284500Y-102980000I-79500J0D01*
G01*
X166125500Y-102980000D01*
G75*
G02*
X166046000Y-102900500I0J79500D01*
G01*
X166046000Y-102699500D01*
G75*
G02*
X166125500Y-102620000I79500J0D01*
G01*
X166284500Y-102620000D01*
G75*
G02*
X166364000Y-102699500I0J-79500D01*
G01*
G37*
G36*
G01*
X167054000Y-102699500D02*
X167054000Y-102900500D01*
G75*
G02*
X166974500Y-102980000I-79500J0D01*
G01*
X166815500Y-102980000D01*
G75*
G02*
X166736000Y-102900500I0J79500D01*
G01*
X166736000Y-102699500D01*
G75*
G02*
X166815500Y-102620000I79500J0D01*
G01*
X166974500Y-102620000D01*
G75*
G02*
X167054000Y-102699500I0J-79500D01*
G01*
G37*
%TD*%
%TO.C,C33*%
G36*
G01*
X160884000Y-105099500D02*
X160884000Y-105300500D01*
G75*
G02*
X160804500Y-105380000I-79500J0D01*
G01*
X160645500Y-105380000D01*
G75*
G02*
X160566000Y-105300500I0J79500D01*
G01*
X160566000Y-105099500D01*
G75*
G02*
X160645500Y-105020000I79500J0D01*
G01*
X160804500Y-105020000D01*
G75*
G02*
X160884000Y-105099500I0J-79500D01*
G01*
G37*
G36*
G01*
X161574000Y-105099500D02*
X161574000Y-105300500D01*
G75*
G02*
X161494500Y-105380000I-79500J0D01*
G01*
X161335500Y-105380000D01*
G75*
G02*
X161256000Y-105300500I0J79500D01*
G01*
X161256000Y-105099500D01*
G75*
G02*
X161335500Y-105020000I79500J0D01*
G01*
X161494500Y-105020000D01*
G75*
G02*
X161574000Y-105099500I0J-79500D01*
G01*
G37*
%TD*%
%TO.C,C32*%
G36*
G01*
X160924000Y-103599500D02*
X160924000Y-103800500D01*
G75*
G02*
X160844500Y-103880000I-79500J0D01*
G01*
X160685500Y-103880000D01*
G75*
G02*
X160606000Y-103800500I0J79500D01*
G01*
X160606000Y-103599500D01*
G75*
G02*
X160685500Y-103520000I79500J0D01*
G01*
X160844500Y-103520000D01*
G75*
G02*
X160924000Y-103599500I0J-79500D01*
G01*
G37*
G36*
G01*
X161614000Y-103599500D02*
X161614000Y-103800500D01*
G75*
G02*
X161534500Y-103880000I-79500J0D01*
G01*
X161375500Y-103880000D01*
G75*
G02*
X161296000Y-103800500I0J79500D01*
G01*
X161296000Y-103599500D01*
G75*
G02*
X161375500Y-103520000I79500J0D01*
G01*
X161534500Y-103520000D01*
G75*
G02*
X161614000Y-103599500I0J-79500D01*
G01*
G37*
%TD*%
%TO.C,C38*%
G36*
G01*
X163084000Y-103599500D02*
X163084000Y-103800500D01*
G75*
G02*
X163004500Y-103880000I-79500J0D01*
G01*
X162845500Y-103880000D01*
G75*
G02*
X162766000Y-103800500I0J79500D01*
G01*
X162766000Y-103599500D01*
G75*
G02*
X162845500Y-103520000I79500J0D01*
G01*
X163004500Y-103520000D01*
G75*
G02*
X163084000Y-103599500I0J-79500D01*
G01*
G37*
G36*
G01*
X163774000Y-103599500D02*
X163774000Y-103800500D01*
G75*
G02*
X163694500Y-103880000I-79500J0D01*
G01*
X163535500Y-103880000D01*
G75*
G02*
X163456000Y-103800500I0J79500D01*
G01*
X163456000Y-103599500D01*
G75*
G02*
X163535500Y-103520000I79500J0D01*
G01*
X163694500Y-103520000D01*
G75*
G02*
X163774000Y-103599500I0J-79500D01*
G01*
G37*
%TD*%
%TO.C,C37*%
G36*
G01*
X163456000Y-104550500D02*
X163456000Y-104349500D01*
G75*
G02*
X163535500Y-104270000I79500J0D01*
G01*
X163694500Y-104270000D01*
G75*
G02*
X163774000Y-104349500I0J-79500D01*
G01*
X163774000Y-104550500D01*
G75*
G02*
X163694500Y-104630000I-79500J0D01*
G01*
X163535500Y-104630000D01*
G75*
G02*
X163456000Y-104550500I0J79500D01*
G01*
G37*
G36*
G01*
X162766000Y-104550500D02*
X162766000Y-104349500D01*
G75*
G02*
X162845500Y-104270000I79500J0D01*
G01*
X163004500Y-104270000D01*
G75*
G02*
X163084000Y-104349500I0J-79500D01*
G01*
X163084000Y-104550500D01*
G75*
G02*
X163004500Y-104630000I-79500J0D01*
G01*
X162845500Y-104630000D01*
G75*
G02*
X162766000Y-104550500I0J79500D01*
G01*
G37*
%TD*%
%TO.C,C35*%
G36*
G01*
X160919000Y-104299500D02*
X160919000Y-104500500D01*
G75*
G02*
X160839500Y-104580000I-79500J0D01*
G01*
X160680500Y-104580000D01*
G75*
G02*
X160601000Y-104500500I0J79500D01*
G01*
X160601000Y-104299500D01*
G75*
G02*
X160680500Y-104220000I79500J0D01*
G01*
X160839500Y-104220000D01*
G75*
G02*
X160919000Y-104299500I0J-79500D01*
G01*
G37*
G36*
G01*
X161609000Y-104299500D02*
X161609000Y-104500500D01*
G75*
G02*
X161529500Y-104580000I-79500J0D01*
G01*
X161370500Y-104580000D01*
G75*
G02*
X161291000Y-104500500I0J79500D01*
G01*
X161291000Y-104299500D01*
G75*
G02*
X161370500Y-104220000I79500J0D01*
G01*
X161529500Y-104220000D01*
G75*
G02*
X161609000Y-104299500I0J-79500D01*
G01*
G37*
%TD*%
%TO.C,C34*%
G36*
G01*
X164949500Y-104286000D02*
X165150500Y-104286000D01*
G75*
G02*
X165230000Y-104365500I0J-79500D01*
G01*
X165230000Y-104524500D01*
G75*
G02*
X165150500Y-104604000I-79500J0D01*
G01*
X164949500Y-104604000D01*
G75*
G02*
X164870000Y-104524500I0J79500D01*
G01*
X164870000Y-104365500D01*
G75*
G02*
X164949500Y-104286000I79500J0D01*
G01*
G37*
G36*
G01*
X164949500Y-103596000D02*
X165150500Y-103596000D01*
G75*
G02*
X165230000Y-103675500I0J-79500D01*
G01*
X165230000Y-103834500D01*
G75*
G02*
X165150500Y-103914000I-79500J0D01*
G01*
X164949500Y-103914000D01*
G75*
G02*
X164870000Y-103834500I0J79500D01*
G01*
X164870000Y-103675500D01*
G75*
G02*
X164949500Y-103596000I79500J0D01*
G01*
G37*
%TD*%
%TO.C,C36*%
G36*
G01*
X164215500Y-105706000D02*
X164416500Y-105706000D01*
G75*
G02*
X164496000Y-105785500I0J-79500D01*
G01*
X164496000Y-105944500D01*
G75*
G02*
X164416500Y-106024000I-79500J0D01*
G01*
X164215500Y-106024000D01*
G75*
G02*
X164136000Y-105944500I0J79500D01*
G01*
X164136000Y-105785500D01*
G75*
G02*
X164215500Y-105706000I79500J0D01*
G01*
G37*
G36*
G01*
X164215500Y-105016000D02*
X164416500Y-105016000D01*
G75*
G02*
X164496000Y-105095500I0J-79500D01*
G01*
X164496000Y-105254500D01*
G75*
G02*
X164416500Y-105334000I-79500J0D01*
G01*
X164215500Y-105334000D01*
G75*
G02*
X164136000Y-105254500I0J79500D01*
G01*
X164136000Y-105095500D01*
G75*
G02*
X164215500Y-105016000I79500J0D01*
G01*
G37*
%TD*%
%TO.C,C39*%
G36*
G01*
X159249500Y-104966000D02*
X159450500Y-104966000D01*
G75*
G02*
X159530000Y-105045500I0J-79500D01*
G01*
X159530000Y-105204500D01*
G75*
G02*
X159450500Y-105284000I-79500J0D01*
G01*
X159249500Y-105284000D01*
G75*
G02*
X159170000Y-105204500I0J79500D01*
G01*
X159170000Y-105045500D01*
G75*
G02*
X159249500Y-104966000I79500J0D01*
G01*
G37*
G36*
G01*
X159249500Y-104276000D02*
X159450500Y-104276000D01*
G75*
G02*
X159530000Y-104355500I0J-79500D01*
G01*
X159530000Y-104514500D01*
G75*
G02*
X159450500Y-104594000I-79500J0D01*
G01*
X159249500Y-104594000D01*
G75*
G02*
X159170000Y-104514500I0J79500D01*
G01*
X159170000Y-104355500D01*
G75*
G02*
X159249500Y-104276000I79500J0D01*
G01*
G37*
%TD*%
%TO.C,C40*%
G36*
G01*
X156179500Y-103346000D02*
X156380500Y-103346000D01*
G75*
G02*
X156460000Y-103425500I0J-79500D01*
G01*
X156460000Y-103584500D01*
G75*
G02*
X156380500Y-103664000I-79500J0D01*
G01*
X156179500Y-103664000D01*
G75*
G02*
X156100000Y-103584500I0J79500D01*
G01*
X156100000Y-103425500D01*
G75*
G02*
X156179500Y-103346000I79500J0D01*
G01*
G37*
G36*
G01*
X156179500Y-102656000D02*
X156380500Y-102656000D01*
G75*
G02*
X156460000Y-102735500I0J-79500D01*
G01*
X156460000Y-102894500D01*
G75*
G02*
X156380500Y-102974000I-79500J0D01*
G01*
X156179500Y-102974000D01*
G75*
G02*
X156100000Y-102894500I0J79500D01*
G01*
X156100000Y-102735500D01*
G75*
G02*
X156179500Y-102656000I79500J0D01*
G01*
G37*
%TD*%
%TO.C,C41*%
G36*
G01*
X159166000Y-103800500D02*
X159166000Y-103599500D01*
G75*
G02*
X159245500Y-103520000I79500J0D01*
G01*
X159404500Y-103520000D01*
G75*
G02*
X159484000Y-103599500I0J-79500D01*
G01*
X159484000Y-103800500D01*
G75*
G02*
X159404500Y-103880000I-79500J0D01*
G01*
X159245500Y-103880000D01*
G75*
G02*
X159166000Y-103800500I0J79500D01*
G01*
G37*
G36*
G01*
X158476000Y-103800500D02*
X158476000Y-103599500D01*
G75*
G02*
X158555500Y-103520000I79500J0D01*
G01*
X158714500Y-103520000D01*
G75*
G02*
X158794000Y-103599500I0J-79500D01*
G01*
X158794000Y-103800500D01*
G75*
G02*
X158714500Y-103880000I-79500J0D01*
G01*
X158555500Y-103880000D01*
G75*
G02*
X158476000Y-103800500I0J79500D01*
G01*
G37*
%TD*%
%TO.C,C43*%
G36*
G01*
X157516000Y-104320500D02*
X157516000Y-104119500D01*
G75*
G02*
X157595500Y-104040000I79500J0D01*
G01*
X157754500Y-104040000D01*
G75*
G02*
X157834000Y-104119500I0J-79500D01*
G01*
X157834000Y-104320500D01*
G75*
G02*
X157754500Y-104400000I-79500J0D01*
G01*
X157595500Y-104400000D01*
G75*
G02*
X157516000Y-104320500I0J79500D01*
G01*
G37*
G36*
G01*
X156826000Y-104320500D02*
X156826000Y-104119500D01*
G75*
G02*
X156905500Y-104040000I79500J0D01*
G01*
X157064500Y-104040000D01*
G75*
G02*
X157144000Y-104119500I0J-79500D01*
G01*
X157144000Y-104320500D01*
G75*
G02*
X157064500Y-104400000I-79500J0D01*
G01*
X156905500Y-104400000D01*
G75*
G02*
X156826000Y-104320500I0J79500D01*
G01*
G37*
%TD*%
%TO.C,C44*%
G36*
G01*
X158549500Y-104986000D02*
X158750500Y-104986000D01*
G75*
G02*
X158830000Y-105065500I0J-79500D01*
G01*
X158830000Y-105224500D01*
G75*
G02*
X158750500Y-105304000I-79500J0D01*
G01*
X158549500Y-105304000D01*
G75*
G02*
X158470000Y-105224500I0J79500D01*
G01*
X158470000Y-105065500D01*
G75*
G02*
X158549500Y-104986000I79500J0D01*
G01*
G37*
G36*
G01*
X158549500Y-104296000D02*
X158750500Y-104296000D01*
G75*
G02*
X158830000Y-104375500I0J-79500D01*
G01*
X158830000Y-104534500D01*
G75*
G02*
X158750500Y-104614000I-79500J0D01*
G01*
X158549500Y-104614000D01*
G75*
G02*
X158470000Y-104534500I0J79500D01*
G01*
X158470000Y-104375500D01*
G75*
G02*
X158549500Y-104296000I79500J0D01*
G01*
G37*
%TD*%
%TO.C,C45*%
G36*
G01*
X159166000Y-106000500D02*
X159166000Y-105799500D01*
G75*
G02*
X159245500Y-105720000I79500J0D01*
G01*
X159404500Y-105720000D01*
G75*
G02*
X159484000Y-105799500I0J-79500D01*
G01*
X159484000Y-106000500D01*
G75*
G02*
X159404500Y-106080000I-79500J0D01*
G01*
X159245500Y-106080000D01*
G75*
G02*
X159166000Y-106000500I0J79500D01*
G01*
G37*
G36*
G01*
X158476000Y-106000500D02*
X158476000Y-105799500D01*
G75*
G02*
X158555500Y-105720000I79500J0D01*
G01*
X158714500Y-105720000D01*
G75*
G02*
X158794000Y-105799500I0J-79500D01*
G01*
X158794000Y-106000500D01*
G75*
G02*
X158714500Y-106080000I-79500J0D01*
G01*
X158555500Y-106080000D01*
G75*
G02*
X158476000Y-106000500I0J79500D01*
G01*
G37*
%TD*%
%TO.C,C46*%
G36*
G01*
X156169500Y-101936000D02*
X156370500Y-101936000D01*
G75*
G02*
X156450000Y-102015500I0J-79500D01*
G01*
X156450000Y-102174500D01*
G75*
G02*
X156370500Y-102254000I-79500J0D01*
G01*
X156169500Y-102254000D01*
G75*
G02*
X156090000Y-102174500I0J79500D01*
G01*
X156090000Y-102015500D01*
G75*
G02*
X156169500Y-101936000I79500J0D01*
G01*
G37*
G36*
G01*
X156169500Y-101246000D02*
X156370500Y-101246000D01*
G75*
G02*
X156450000Y-101325500I0J-79500D01*
G01*
X156450000Y-101484500D01*
G75*
G02*
X156370500Y-101564000I-79500J0D01*
G01*
X156169500Y-101564000D01*
G75*
G02*
X156090000Y-101484500I0J79500D01*
G01*
X156090000Y-101325500D01*
G75*
G02*
X156169500Y-101246000I79500J0D01*
G01*
G37*
%TD*%
%TO.C,C47*%
G36*
G01*
X154980500Y-99864000D02*
X154779500Y-99864000D01*
G75*
G02*
X154700000Y-99784500I0J79500D01*
G01*
X154700000Y-99625500D01*
G75*
G02*
X154779500Y-99546000I79500J0D01*
G01*
X154980500Y-99546000D01*
G75*
G02*
X155060000Y-99625500I0J-79500D01*
G01*
X155060000Y-99784500D01*
G75*
G02*
X154980500Y-99864000I-79500J0D01*
G01*
G37*
G36*
G01*
X154980500Y-100554000D02*
X154779500Y-100554000D01*
G75*
G02*
X154700000Y-100474500I0J79500D01*
G01*
X154700000Y-100315500D01*
G75*
G02*
X154779500Y-100236000I79500J0D01*
G01*
X154980500Y-100236000D01*
G75*
G02*
X155060000Y-100315500I0J-79500D01*
G01*
X155060000Y-100474500D01*
G75*
G02*
X154980500Y-100554000I-79500J0D01*
G01*
G37*
%TD*%
%TO.C,C48*%
G36*
G01*
X155839500Y-105406000D02*
X156040500Y-105406000D01*
G75*
G02*
X156120000Y-105485500I0J-79500D01*
G01*
X156120000Y-105644500D01*
G75*
G02*
X156040500Y-105724000I-79500J0D01*
G01*
X155839500Y-105724000D01*
G75*
G02*
X155760000Y-105644500I0J79500D01*
G01*
X155760000Y-105485500D01*
G75*
G02*
X155839500Y-105406000I79500J0D01*
G01*
G37*
G36*
G01*
X155839500Y-104716000D02*
X156040500Y-104716000D01*
G75*
G02*
X156120000Y-104795500I0J-79500D01*
G01*
X156120000Y-104954500D01*
G75*
G02*
X156040500Y-105034000I-79500J0D01*
G01*
X155839500Y-105034000D01*
G75*
G02*
X155760000Y-104954500I0J79500D01*
G01*
X155760000Y-104795500D01*
G75*
G02*
X155839500Y-104716000I79500J0D01*
G01*
G37*
%TD*%
M02*
