%TF.GenerationSoftware,KiCad,Pcbnew,(5.1.6-0-10_14)*%
%TF.CreationDate,2020-10-05T23:02:53+09:00*%
%TF.ProjectId,RF920A,52463932-3041-42e6-9b69-6361645f7063,rev?*%
%TF.SameCoordinates,Original*%
%TF.FileFunction,Copper,L1,Top*%
%TF.FilePolarity,Positive*%
%FSLAX46Y46*%
G04 Gerber Fmt 4.6, Leading zero omitted, Abs format (unit mm)*
G04 Created by KiCad (PCBNEW (5.1.6-0-10_14)) date 2020-10-05 23:02:53*
%MOMM*%
%LPD*%
G01*
G04 APERTURE LIST*
%TA.AperFunction,WasherPad*%
%ADD10O,1.600000X0.800000*%
%TD*%
%TA.AperFunction,SMDPad,CuDef*%
%ADD11R,0.600000X1.500000*%
%TD*%
%TA.AperFunction,SMDPad,CuDef*%
%ADD12R,1.500000X0.600000*%
%TD*%
%TA.AperFunction,SMDPad,CuDef*%
%ADD13C,0.100000*%
%TD*%
%TA.AperFunction,WasherPad*%
%ADD14O,0.800000X1.600000*%
%TD*%
%TA.AperFunction,SMDPad,CuDef*%
%ADD15R,0.700000X0.300000*%
%TD*%
%TA.AperFunction,SMDPad,CuDef*%
%ADD16R,0.300000X0.700000*%
%TD*%
%TA.AperFunction,SMDPad,CuDef*%
%ADD17R,4.200000X4.200000*%
%TD*%
%TA.AperFunction,SMDPad,CuDef*%
%ADD18R,2.200000X1.050000*%
%TD*%
%TA.AperFunction,SMDPad,CuDef*%
%ADD19R,1.050000X1.000000*%
%TD*%
%TA.AperFunction,SMDPad,CuDef*%
%ADD20R,0.850000X0.750000*%
%TD*%
%TA.AperFunction,SMDPad,CuDef*%
%ADD21C,0.250000*%
%TD*%
%TA.AperFunction,SMDPad,CuDef*%
%ADD22R,0.250000X0.425000*%
%TD*%
%TA.AperFunction,SMDPad,CuDef*%
%ADD23R,0.425000X0.325000*%
%TD*%
%TA.AperFunction,ComponentPad*%
%ADD24C,1.000000*%
%TD*%
%TA.AperFunction,ViaPad*%
%ADD25C,0.400000*%
%TD*%
%TA.AperFunction,Conductor*%
%ADD26C,0.200000*%
%TD*%
%TA.AperFunction,Conductor*%
%ADD27C,0.500000*%
%TD*%
%TA.AperFunction,Conductor*%
%ADD28C,0.254000*%
%TD*%
G04 APERTURE END LIST*
D10*
%TO.P,REF\u002A\u002A,*%
%TO.N,*%
X162075000Y-107000000D03*
D11*
%TO.P,REF\u002A\u002A,1*%
%TO.N,N/C*%
X150800000Y-100500000D03*
D12*
X155800000Y-107100000D03*
%TA.AperFunction,SMDPad,CuDef*%
D13*
G36*
X167500000Y-106800000D02*
G01*
X168900000Y-106800000D01*
X168900000Y-105400000D01*
X169500000Y-105400000D01*
X169500000Y-107400000D01*
X167500000Y-107400000D01*
X167500000Y-106800000D01*
G37*
%TD.AperFunction*%
%TA.AperFunction,SMDPad,CuDef*%
G36*
X168800000Y-94500000D02*
G01*
X168800000Y-93100000D01*
X167400000Y-93100000D01*
X167400000Y-92500000D01*
X169400000Y-92500000D01*
X169400000Y-94500000D01*
X168800000Y-94500000D01*
G37*
%TD.AperFunction*%
D14*
%TO.P,REF\u002A\u002A,*%
%TO.N,*%
X151000000Y-96875000D03*
%TA.AperFunction,SMDPad,CuDef*%
D13*
%TO.P,REF\u002A\u002A,1*%
%TO.N,N/C*%
G36*
X152500000Y-93200000D02*
G01*
X151100000Y-93200000D01*
X151100000Y-94600000D01*
X150500000Y-94600000D01*
X150500000Y-92600000D01*
X152500000Y-92600000D01*
X152500000Y-93200000D01*
G37*
%TD.AperFunction*%
%TD*%
D15*
%TO.P,U1,40*%
%TO.N,+3.3VA*%
X164725000Y-97350000D03*
%TO.P,U1,39*%
%TO.N,Net-(C19-Pad2)*%
X164725000Y-97875000D03*
D16*
%TO.P,U1,30*%
%TO.N,Net-(C34-Pad1)*%
X164050000Y-102525000D03*
%TO.P,U1,29*%
%TO.N,+3.3VA*%
X163550000Y-102525000D03*
D15*
%TO.P,U1,20*%
%TO.N,Net-(C46-Pad2)*%
X158875000Y-101850000D03*
%TO.P,U1,19*%
%TO.N,GND*%
X158875000Y-101350000D03*
D16*
%TO.P,U1,10*%
%TO.N,/SINTN*%
X159550000Y-96675000D03*
%TO.P,U1,9*%
%TO.N,/SDO*%
X160050000Y-96675000D03*
D15*
%TO.P,U1,38*%
%TO.N,Net-(C20-Pad2)*%
X164725000Y-98350000D03*
%TO.P,U1,37*%
%TO.N,Net-(C23-Pad2)*%
X164725000Y-98850000D03*
%TO.P,U1,36*%
%TO.N,Net-(C23-Pad1)*%
X164725000Y-99350000D03*
%TO.P,U1,35*%
%TO.N,Net-(U1-Pad35)*%
X164725000Y-99850000D03*
%TO.P,U1,34*%
%TO.N,/VDDCP*%
X164725000Y-100350000D03*
%TO.P,U1,33*%
%TO.N,Net-(C26-Pad1)*%
X164725000Y-100850000D03*
%TO.P,U1,32*%
%TO.N,/VDDCP*%
X164725000Y-101350000D03*
%TO.P,U1,31*%
%TO.N,Net-(U1-Pad31)*%
X164725000Y-101850000D03*
D16*
%TO.P,U1,28*%
%TO.N,Net-(C37-Pad1)*%
X163050000Y-102525000D03*
%TO.P,U1,27*%
%TO.N,Net-(C33-Pad1)*%
X162550000Y-102525000D03*
%TO.P,U1,26*%
%TO.N,Net-(U1-Pad26)*%
X162050000Y-102525000D03*
%TO.P,U1,25*%
%TO.N,Net-(U1-Pad25)*%
X161550000Y-102525000D03*
%TO.P,U1,24*%
%TO.N,Net-(U1-Pad24)*%
X161050000Y-102525000D03*
%TO.P,U1,23*%
%TO.N,/VDDCP*%
X160550000Y-102525000D03*
%TO.P,U1,22*%
%TO.N,Net-(U1-Pad22)*%
X160050000Y-102525000D03*
%TO.P,U1,21*%
%TO.N,Net-(C45-Pad1)*%
X159550000Y-102525000D03*
D15*
%TO.P,U1,18*%
%TO.N,+3V3*%
X158875000Y-100850000D03*
%TO.P,U1,17*%
%TO.N,Net-(U1-Pad17)*%
X158875000Y-100350000D03*
%TO.P,U1,16*%
%TO.N,Net-(U1-Pad16)*%
X158875000Y-99850000D03*
%TO.P,U1,15*%
%TO.N,Net-(U1-Pad15)*%
X158875000Y-99350000D03*
%TO.P,U1,14*%
%TO.N,+3V3*%
X158875000Y-98850000D03*
%TO.P,U1,13*%
%TO.N,/SDI*%
X158875000Y-98350000D03*
%TO.P,U1,12*%
%TO.N,/SCEN*%
X158875000Y-97850000D03*
%TO.P,U1,11*%
%TO.N,/SCLK*%
X158875000Y-97350000D03*
D16*
%TO.P,U1,8*%
%TO.N,/REGPDIN*%
X160550000Y-96675000D03*
%TO.P,U1,7*%
%TO.N,/RESETN*%
X161050000Y-96675000D03*
%TO.P,U1,6*%
%TO.N,GND*%
X161550000Y-96675000D03*
%TO.P,U1,5*%
%TO.N,/XT-*%
X162050000Y-96675000D03*
%TO.P,U1,4*%
%TO.N,/XT+*%
X162550000Y-96675000D03*
%TO.P,U1,3*%
%TO.N,Net-(C12-Pad1)*%
X163050000Y-96675000D03*
%TO.P,U1,2*%
%TO.N,/VDDCP*%
X163550000Y-96675000D03*
%TO.P,U1,1*%
%TO.N,Net-(C17-Pad2)*%
X164050000Y-96675000D03*
D17*
%TO.P,U1,41*%
%TO.N,GND*%
X161800000Y-99600000D03*
%TD*%
%TO.P,L10,2*%
%TO.N,Net-(C47-Pad2)*%
%TA.AperFunction,SMDPad,CuDef*%
G36*
G01*
X154620000Y-99100000D02*
X154620000Y-98900000D01*
G75*
G02*
X154720000Y-98800000I100000J0D01*
G01*
X154980000Y-98800000D01*
G75*
G02*
X155080000Y-98900000I0J-100000D01*
G01*
X155080000Y-99100000D01*
G75*
G02*
X154980000Y-99200000I-100000J0D01*
G01*
X154720000Y-99200000D01*
G75*
G02*
X154620000Y-99100000I0J100000D01*
G01*
G37*
%TD.AperFunction*%
%TO.P,L10,1*%
%TO.N,Net-(L10-Pad1)*%
%TA.AperFunction,SMDPad,CuDef*%
G36*
G01*
X153980000Y-99100000D02*
X153980000Y-98900000D01*
G75*
G02*
X154080000Y-98800000I100000J0D01*
G01*
X154340000Y-98800000D01*
G75*
G02*
X154440000Y-98900000I0J-100000D01*
G01*
X154440000Y-99100000D01*
G75*
G02*
X154340000Y-99200000I-100000J0D01*
G01*
X154080000Y-99200000D01*
G75*
G02*
X153980000Y-99100000I0J100000D01*
G01*
G37*
%TD.AperFunction*%
%TD*%
D18*
%TO.P,U2,3*%
%TO.N,GND*%
X152290000Y-105975000D03*
D19*
%TO.P,U2,1*%
%TO.N,Net-(C48-Pad1)*%
X153815000Y-104500000D03*
D18*
%TO.P,U2,2*%
%TO.N,GND*%
X152290000Y-103025000D03*
%TD*%
D20*
%TO.P,U5,4*%
%TO.N,GND*%
X160575000Y-95175000D03*
%TO.P,U5,3*%
%TO.N,/XT-*%
X159250000Y-95175000D03*
%TO.P,U5,2*%
%TO.N,GND*%
X159250000Y-94125000D03*
%TO.P,U5,1*%
%TO.N,/XT+*%
X160575000Y-94125000D03*
%TD*%
%TO.P,C1,2*%
%TO.N,+3.3VA*%
%TA.AperFunction,SMDPad,CuDef*%
G36*
G01*
X167043750Y-105350000D02*
X167556250Y-105350000D01*
G75*
G02*
X167775000Y-105568750I0J-218750D01*
G01*
X167775000Y-106006250D01*
G75*
G02*
X167556250Y-106225000I-218750J0D01*
G01*
X167043750Y-106225000D01*
G75*
G02*
X166825000Y-106006250I0J218750D01*
G01*
X166825000Y-105568750D01*
G75*
G02*
X167043750Y-105350000I218750J0D01*
G01*
G37*
%TD.AperFunction*%
%TO.P,C1,1*%
%TO.N,GND*%
%TA.AperFunction,SMDPad,CuDef*%
G36*
G01*
X167043750Y-103775000D02*
X167556250Y-103775000D01*
G75*
G02*
X167775000Y-103993750I0J-218750D01*
G01*
X167775000Y-104431250D01*
G75*
G02*
X167556250Y-104650000I-218750J0D01*
G01*
X167043750Y-104650000D01*
G75*
G02*
X166825000Y-104431250I0J218750D01*
G01*
X166825000Y-103993750D01*
G75*
G02*
X167043750Y-103775000I218750J0D01*
G01*
G37*
%TD.AperFunction*%
%TD*%
%TO.P,C19,2*%
%TO.N,Net-(C19-Pad2)*%
%TA.AperFunction,SMDPad,CuDef*%
G36*
G01*
X167497500Y-96660000D02*
X167842500Y-96660000D01*
G75*
G02*
X167990000Y-96807500I0J-147500D01*
G01*
X167990000Y-97102500D01*
G75*
G02*
X167842500Y-97250000I-147500J0D01*
G01*
X167497500Y-97250000D01*
G75*
G02*
X167350000Y-97102500I0J147500D01*
G01*
X167350000Y-96807500D01*
G75*
G02*
X167497500Y-96660000I147500J0D01*
G01*
G37*
%TD.AperFunction*%
%TO.P,C19,1*%
%TO.N,GND*%
%TA.AperFunction,SMDPad,CuDef*%
G36*
G01*
X167497500Y-95690000D02*
X167842500Y-95690000D01*
G75*
G02*
X167990000Y-95837500I0J-147500D01*
G01*
X167990000Y-96132500D01*
G75*
G02*
X167842500Y-96280000I-147500J0D01*
G01*
X167497500Y-96280000D01*
G75*
G02*
X167350000Y-96132500I0J147500D01*
G01*
X167350000Y-95837500D01*
G75*
G02*
X167497500Y-95690000I147500J0D01*
G01*
G37*
%TD.AperFunction*%
%TD*%
%TO.P,C13,2*%
%TO.N,Net-(C12-Pad1)*%
%TA.AperFunction,SMDPad,CuDef*%
G36*
G01*
X164212500Y-94556250D02*
X164212500Y-94043750D01*
G75*
G02*
X164431250Y-93825000I218750J0D01*
G01*
X164868750Y-93825000D01*
G75*
G02*
X165087500Y-94043750I0J-218750D01*
G01*
X165087500Y-94556250D01*
G75*
G02*
X164868750Y-94775000I-218750J0D01*
G01*
X164431250Y-94775000D01*
G75*
G02*
X164212500Y-94556250I0J218750D01*
G01*
G37*
%TD.AperFunction*%
%TO.P,C13,1*%
%TO.N,GND*%
%TA.AperFunction,SMDPad,CuDef*%
G36*
G01*
X162637500Y-94556250D02*
X162637500Y-94043750D01*
G75*
G02*
X162856250Y-93825000I218750J0D01*
G01*
X163293750Y-93825000D01*
G75*
G02*
X163512500Y-94043750I0J-218750D01*
G01*
X163512500Y-94556250D01*
G75*
G02*
X163293750Y-94775000I-218750J0D01*
G01*
X162856250Y-94775000D01*
G75*
G02*
X162637500Y-94556250I0J218750D01*
G01*
G37*
%TD.AperFunction*%
%TD*%
%TO.P,C11,2*%
%TO.N,/VDDCP*%
%TA.AperFunction,SMDPad,CuDef*%
G36*
G01*
X166587500Y-94043750D02*
X166587500Y-94556250D01*
G75*
G02*
X166368750Y-94775000I-218750J0D01*
G01*
X165931250Y-94775000D01*
G75*
G02*
X165712500Y-94556250I0J218750D01*
G01*
X165712500Y-94043750D01*
G75*
G02*
X165931250Y-93825000I218750J0D01*
G01*
X166368750Y-93825000D01*
G75*
G02*
X166587500Y-94043750I0J-218750D01*
G01*
G37*
%TD.AperFunction*%
%TO.P,C11,1*%
%TO.N,GND*%
%TA.AperFunction,SMDPad,CuDef*%
G36*
G01*
X168162500Y-94043750D02*
X168162500Y-94556250D01*
G75*
G02*
X167943750Y-94775000I-218750J0D01*
G01*
X167506250Y-94775000D01*
G75*
G02*
X167287500Y-94556250I0J218750D01*
G01*
X167287500Y-94043750D01*
G75*
G02*
X167506250Y-93825000I218750J0D01*
G01*
X167943750Y-93825000D01*
G75*
G02*
X168162500Y-94043750I0J-218750D01*
G01*
G37*
%TD.AperFunction*%
%TD*%
%TO.P,C16,2*%
%TO.N,GND*%
%TA.AperFunction,SMDPad,CuDef*%
G36*
G01*
X157825000Y-94335000D02*
X157625000Y-94335000D01*
G75*
G02*
X157525000Y-94235000I0J100000D01*
G01*
X157525000Y-93975000D01*
G75*
G02*
X157625000Y-93875000I100000J0D01*
G01*
X157825000Y-93875000D01*
G75*
G02*
X157925000Y-93975000I0J-100000D01*
G01*
X157925000Y-94235000D01*
G75*
G02*
X157825000Y-94335000I-100000J0D01*
G01*
G37*
%TD.AperFunction*%
%TO.P,C16,1*%
%TO.N,/XT-*%
%TA.AperFunction,SMDPad,CuDef*%
G36*
G01*
X157825000Y-94975000D02*
X157625000Y-94975000D01*
G75*
G02*
X157525000Y-94875000I0J100000D01*
G01*
X157525000Y-94615000D01*
G75*
G02*
X157625000Y-94515000I100000J0D01*
G01*
X157825000Y-94515000D01*
G75*
G02*
X157925000Y-94615000I0J-100000D01*
G01*
X157925000Y-94875000D01*
G75*
G02*
X157825000Y-94975000I-100000J0D01*
G01*
G37*
%TD.AperFunction*%
%TD*%
%TO.P,C42,2*%
%TO.N,Net-(C42-Pad2)*%
%TA.AperFunction,SMDPad,CuDef*%
G36*
G01*
X160980000Y-105800000D02*
X160980000Y-106000000D01*
G75*
G02*
X160880000Y-106100000I-100000J0D01*
G01*
X160620000Y-106100000D01*
G75*
G02*
X160520000Y-106000000I0J100000D01*
G01*
X160520000Y-105800000D01*
G75*
G02*
X160620000Y-105700000I100000J0D01*
G01*
X160880000Y-105700000D01*
G75*
G02*
X160980000Y-105800000I0J-100000D01*
G01*
G37*
%TD.AperFunction*%
%TO.P,C42,1*%
%TO.N,Net-(C42-Pad1)*%
%TA.AperFunction,SMDPad,CuDef*%
G36*
G01*
X161620000Y-105800000D02*
X161620000Y-106000000D01*
G75*
G02*
X161520000Y-106100000I-100000J0D01*
G01*
X161260000Y-106100000D01*
G75*
G02*
X161160000Y-106000000I0J100000D01*
G01*
X161160000Y-105800000D01*
G75*
G02*
X161260000Y-105700000I100000J0D01*
G01*
X161520000Y-105700000D01*
G75*
G02*
X161620000Y-105800000I0J-100000D01*
G01*
G37*
%TD.AperFunction*%
%TD*%
D21*
%TO.P,U6,A3*%
%TO.N,+3V3*%
X155600000Y-95800000D03*
%TO.P,U6,B3*%
%TO.N,GND*%
X155600000Y-96200000D03*
%TO.P,U6,A2*%
%TO.N,/WP*%
X156000000Y-95800000D03*
%TO.P,U6,B2*%
%TO.N,GND*%
X156000000Y-96200000D03*
%TO.P,U6,B1*%
%TO.N,/SDA*%
X156400000Y-96200000D03*
%TO.P,U6,A1*%
%TO.N,/SCL*%
X156400000Y-95800000D03*
%TD*%
D22*
%TO.P,U4,5*%
%TO.N,GND*%
X162875000Y-105937500D03*
%TO.P,U4,2*%
X162875000Y-105262500D03*
D23*
%TO.P,U4,4*%
%TO.N,Net-(C42-Pad1)*%
X162237500Y-105887500D03*
%TO.P,U4,3*%
%TO.N,GND*%
X162237500Y-105312500D03*
%TO.P,U4,1*%
%TO.N,Net-(C36-Pad2)*%
X163462500Y-105600000D03*
%TD*%
%TO.P,U3,7*%
%TO.N,N/C*%
%TA.AperFunction,SMDPad,CuDef*%
G36*
G01*
X157850301Y-106050000D02*
X156649699Y-106050000D01*
G75*
G02*
X156600000Y-106000301I0J49699D01*
G01*
X156600000Y-105399699D01*
G75*
G02*
X156649699Y-105350000I49699J0D01*
G01*
X157850301Y-105350000D01*
G75*
G02*
X157900000Y-105399699I0J-49699D01*
G01*
X157900000Y-106000301D01*
G75*
G02*
X157850301Y-106050000I-49699J0D01*
G01*
G37*
%TD.AperFunction*%
%TO.P,U3,6*%
%TO.N,Net-(C47-Pad1)*%
%TA.AperFunction,SMDPad,CuDef*%
G36*
G01*
X156825000Y-105150000D02*
X156675000Y-105150000D01*
G75*
G02*
X156625000Y-105100000I0J50000D01*
G01*
X156625000Y-104850000D01*
G75*
G02*
X156675000Y-104800000I50000J0D01*
G01*
X156825000Y-104800000D01*
G75*
G02*
X156875000Y-104850000I0J-50000D01*
G01*
X156875000Y-105100000D01*
G75*
G02*
X156825000Y-105150000I-50000J0D01*
G01*
G37*
%TD.AperFunction*%
%TO.P,U3,5*%
%TO.N,Net-(C46-Pad2)*%
%TA.AperFunction,SMDPad,CuDef*%
G36*
G01*
X157325000Y-105150000D02*
X157175000Y-105150000D01*
G75*
G02*
X157125000Y-105100000I0J50000D01*
G01*
X157125000Y-104850000D01*
G75*
G02*
X157175000Y-104800000I50000J0D01*
G01*
X157325000Y-104800000D01*
G75*
G02*
X157375000Y-104850000I0J-50000D01*
G01*
X157375000Y-105100000D01*
G75*
G02*
X157325000Y-105150000I-50000J0D01*
G01*
G37*
%TD.AperFunction*%
%TO.P,U3,4*%
%TO.N,Net-(C44-Pad2)*%
%TA.AperFunction,SMDPad,CuDef*%
G36*
G01*
X157850000Y-105150000D02*
X157700000Y-105150000D01*
G75*
G02*
X157650000Y-105100000I0J50000D01*
G01*
X157650000Y-104850000D01*
G75*
G02*
X157700000Y-104800000I50000J0D01*
G01*
X157850000Y-104800000D01*
G75*
G02*
X157900000Y-104850000I0J-50000D01*
G01*
X157900000Y-105100000D01*
G75*
G02*
X157850000Y-105150000I-50000J0D01*
G01*
G37*
%TD.AperFunction*%
%TO.P,U3,3*%
%TO.N,Net-(C42-Pad2)*%
%TA.AperFunction,SMDPad,CuDef*%
G36*
G01*
X157825000Y-106600000D02*
X157675000Y-106600000D01*
G75*
G02*
X157625000Y-106550000I0J50000D01*
G01*
X157625000Y-106300000D01*
G75*
G02*
X157675000Y-106250000I50000J0D01*
G01*
X157825000Y-106250000D01*
G75*
G02*
X157875000Y-106300000I0J-50000D01*
G01*
X157875000Y-106550000D01*
G75*
G02*
X157825000Y-106600000I-50000J0D01*
G01*
G37*
%TD.AperFunction*%
%TO.P,U3,2*%
%TO.N,Net-(C45-Pad1)*%
%TA.AperFunction,SMDPad,CuDef*%
G36*
G01*
X157325000Y-106600000D02*
X157175000Y-106600000D01*
G75*
G02*
X157125000Y-106550000I0J50000D01*
G01*
X157125000Y-106300000D01*
G75*
G02*
X157175000Y-106250000I50000J0D01*
G01*
X157325000Y-106250000D01*
G75*
G02*
X157375000Y-106300000I0J-50000D01*
G01*
X157375000Y-106550000D01*
G75*
G02*
X157325000Y-106600000I-50000J0D01*
G01*
G37*
%TD.AperFunction*%
%TO.P,U3,1*%
%TO.N,Net-(C48-Pad2)*%
%TA.AperFunction,SMDPad,CuDef*%
G36*
G01*
X156825000Y-106600000D02*
X156675000Y-106600000D01*
G75*
G02*
X156625000Y-106550000I0J50000D01*
G01*
X156625000Y-106300000D01*
G75*
G02*
X156675000Y-106250000I50000J0D01*
G01*
X156825000Y-106250000D01*
G75*
G02*
X156875000Y-106300000I0J-50000D01*
G01*
X156875000Y-106550000D01*
G75*
G02*
X156825000Y-106600000I-50000J0D01*
G01*
G37*
%TD.AperFunction*%
%TD*%
%TO.P,R5,2*%
%TO.N,/SDA*%
%TA.AperFunction,SMDPad,CuDef*%
G36*
G01*
X157430000Y-96090000D02*
X157630000Y-96090000D01*
G75*
G02*
X157730000Y-96190000I0J-100000D01*
G01*
X157730000Y-96450000D01*
G75*
G02*
X157630000Y-96550000I-100000J0D01*
G01*
X157430000Y-96550000D01*
G75*
G02*
X157330000Y-96450000I0J100000D01*
G01*
X157330000Y-96190000D01*
G75*
G02*
X157430000Y-96090000I100000J0D01*
G01*
G37*
%TD.AperFunction*%
%TO.P,R5,1*%
%TO.N,+3V3*%
%TA.AperFunction,SMDPad,CuDef*%
G36*
G01*
X157430000Y-95450000D02*
X157630000Y-95450000D01*
G75*
G02*
X157730000Y-95550000I0J-100000D01*
G01*
X157730000Y-95810000D01*
G75*
G02*
X157630000Y-95910000I-100000J0D01*
G01*
X157430000Y-95910000D01*
G75*
G02*
X157330000Y-95810000I0J100000D01*
G01*
X157330000Y-95550000D01*
G75*
G02*
X157430000Y-95450000I100000J0D01*
G01*
G37*
%TD.AperFunction*%
%TD*%
%TO.P,R6,2*%
%TO.N,/SCL*%
%TA.AperFunction,SMDPad,CuDef*%
G36*
G01*
X156290000Y-94340000D02*
X156490000Y-94340000D01*
G75*
G02*
X156590000Y-94440000I0J-100000D01*
G01*
X156590000Y-94700000D01*
G75*
G02*
X156490000Y-94800000I-100000J0D01*
G01*
X156290000Y-94800000D01*
G75*
G02*
X156190000Y-94700000I0J100000D01*
G01*
X156190000Y-94440000D01*
G75*
G02*
X156290000Y-94340000I100000J0D01*
G01*
G37*
%TD.AperFunction*%
%TO.P,R6,1*%
%TO.N,+3V3*%
%TA.AperFunction,SMDPad,CuDef*%
G36*
G01*
X156290000Y-93700000D02*
X156490000Y-93700000D01*
G75*
G02*
X156590000Y-93800000I0J-100000D01*
G01*
X156590000Y-94060000D01*
G75*
G02*
X156490000Y-94160000I-100000J0D01*
G01*
X156290000Y-94160000D01*
G75*
G02*
X156190000Y-94060000I0J100000D01*
G01*
X156190000Y-93800000D01*
G75*
G02*
X156290000Y-93700000I100000J0D01*
G01*
G37*
%TD.AperFunction*%
%TD*%
%TO.P,R7,2*%
%TO.N,+3V3*%
%TA.AperFunction,SMDPad,CuDef*%
G36*
G01*
X154610000Y-94140000D02*
X154410000Y-94140000D01*
G75*
G02*
X154310000Y-94040000I0J100000D01*
G01*
X154310000Y-93780000D01*
G75*
G02*
X154410000Y-93680000I100000J0D01*
G01*
X154610000Y-93680000D01*
G75*
G02*
X154710000Y-93780000I0J-100000D01*
G01*
X154710000Y-94040000D01*
G75*
G02*
X154610000Y-94140000I-100000J0D01*
G01*
G37*
%TD.AperFunction*%
%TO.P,R7,1*%
%TO.N,/WP*%
%TA.AperFunction,SMDPad,CuDef*%
G36*
G01*
X154610000Y-94780000D02*
X154410000Y-94780000D01*
G75*
G02*
X154310000Y-94680000I0J100000D01*
G01*
X154310000Y-94420000D01*
G75*
G02*
X154410000Y-94320000I100000J0D01*
G01*
X154610000Y-94320000D01*
G75*
G02*
X154710000Y-94420000I0J-100000D01*
G01*
X154710000Y-94680000D01*
G75*
G02*
X154610000Y-94780000I-100000J0D01*
G01*
G37*
%TD.AperFunction*%
%TD*%
%TO.P,R8,2*%
%TO.N,GND*%
%TA.AperFunction,SMDPad,CuDef*%
G36*
G01*
X167650000Y-98010000D02*
X167450000Y-98010000D01*
G75*
G02*
X167350000Y-97910000I0J100000D01*
G01*
X167350000Y-97650000D01*
G75*
G02*
X167450000Y-97550000I100000J0D01*
G01*
X167650000Y-97550000D01*
G75*
G02*
X167750000Y-97650000I0J-100000D01*
G01*
X167750000Y-97910000D01*
G75*
G02*
X167650000Y-98010000I-100000J0D01*
G01*
G37*
%TD.AperFunction*%
%TO.P,R8,1*%
%TO.N,Net-(C19-Pad2)*%
%TA.AperFunction,SMDPad,CuDef*%
G36*
G01*
X167650000Y-98650000D02*
X167450000Y-98650000D01*
G75*
G02*
X167350000Y-98550000I0J100000D01*
G01*
X167350000Y-98290000D01*
G75*
G02*
X167450000Y-98190000I100000J0D01*
G01*
X167650000Y-98190000D01*
G75*
G02*
X167750000Y-98290000I0J-100000D01*
G01*
X167750000Y-98550000D01*
G75*
G02*
X167650000Y-98650000I-100000J0D01*
G01*
G37*
%TD.AperFunction*%
%TD*%
%TO.P,R9,2*%
%TO.N,Net-(C28-Pad1)*%
%TA.AperFunction,SMDPad,CuDef*%
G36*
G01*
X166630000Y-102112000D02*
X166630000Y-101912000D01*
G75*
G02*
X166730000Y-101812000I100000J0D01*
G01*
X166990000Y-101812000D01*
G75*
G02*
X167090000Y-101912000I0J-100000D01*
G01*
X167090000Y-102112000D01*
G75*
G02*
X166990000Y-102212000I-100000J0D01*
G01*
X166730000Y-102212000D01*
G75*
G02*
X166630000Y-102112000I0J100000D01*
G01*
G37*
%TD.AperFunction*%
%TO.P,R9,1*%
%TO.N,Net-(C26-Pad1)*%
%TA.AperFunction,SMDPad,CuDef*%
G36*
G01*
X165990000Y-102112000D02*
X165990000Y-101912000D01*
G75*
G02*
X166090000Y-101812000I100000J0D01*
G01*
X166350000Y-101812000D01*
G75*
G02*
X166450000Y-101912000I0J-100000D01*
G01*
X166450000Y-102112000D01*
G75*
G02*
X166350000Y-102212000I-100000J0D01*
G01*
X166090000Y-102212000D01*
G75*
G02*
X165990000Y-102112000I0J100000D01*
G01*
G37*
%TD.AperFunction*%
%TD*%
%TO.P,L1,2*%
%TO.N,Net-(C23-Pad2)*%
%TA.AperFunction,SMDPad,CuDef*%
G36*
G01*
X166250000Y-99410000D02*
X166050000Y-99410000D01*
G75*
G02*
X165950000Y-99310000I0J100000D01*
G01*
X165950000Y-99050000D01*
G75*
G02*
X166050000Y-98950000I100000J0D01*
G01*
X166250000Y-98950000D01*
G75*
G02*
X166350000Y-99050000I0J-100000D01*
G01*
X166350000Y-99310000D01*
G75*
G02*
X166250000Y-99410000I-100000J0D01*
G01*
G37*
%TD.AperFunction*%
%TO.P,L1,1*%
%TO.N,Net-(C23-Pad1)*%
%TA.AperFunction,SMDPad,CuDef*%
G36*
G01*
X166250000Y-100050000D02*
X166050000Y-100050000D01*
G75*
G02*
X165950000Y-99950000I0J100000D01*
G01*
X165950000Y-99690000D01*
G75*
G02*
X166050000Y-99590000I100000J0D01*
G01*
X166250000Y-99590000D01*
G75*
G02*
X166350000Y-99690000I0J-100000D01*
G01*
X166350000Y-99950000D01*
G75*
G02*
X166250000Y-100050000I-100000J0D01*
G01*
G37*
%TD.AperFunction*%
%TD*%
%TO.P,L2,2*%
%TO.N,Net-(C37-Pad1)*%
%TA.AperFunction,SMDPad,CuDef*%
G36*
G01*
X162075000Y-104170000D02*
X162275000Y-104170000D01*
G75*
G02*
X162375000Y-104270000I0J-100000D01*
G01*
X162375000Y-104530000D01*
G75*
G02*
X162275000Y-104630000I-100000J0D01*
G01*
X162075000Y-104630000D01*
G75*
G02*
X161975000Y-104530000I0J100000D01*
G01*
X161975000Y-104270000D01*
G75*
G02*
X162075000Y-104170000I100000J0D01*
G01*
G37*
%TD.AperFunction*%
%TO.P,L2,1*%
%TO.N,Net-(C33-Pad1)*%
%TA.AperFunction,SMDPad,CuDef*%
G36*
G01*
X162075000Y-103530000D02*
X162275000Y-103530000D01*
G75*
G02*
X162375000Y-103630000I0J-100000D01*
G01*
X162375000Y-103890000D01*
G75*
G02*
X162275000Y-103990000I-100000J0D01*
G01*
X162075000Y-103990000D01*
G75*
G02*
X161975000Y-103890000I0J100000D01*
G01*
X161975000Y-103630000D01*
G75*
G02*
X162075000Y-103530000I100000J0D01*
G01*
G37*
%TD.AperFunction*%
%TD*%
%TO.P,L3,2*%
%TO.N,GND*%
%TA.AperFunction,SMDPad,CuDef*%
G36*
G01*
X165510000Y-105300000D02*
X165510000Y-105100000D01*
G75*
G02*
X165610000Y-105000000I100000J0D01*
G01*
X165870000Y-105000000D01*
G75*
G02*
X165970000Y-105100000I0J-100000D01*
G01*
X165970000Y-105300000D01*
G75*
G02*
X165870000Y-105400000I-100000J0D01*
G01*
X165610000Y-105400000D01*
G75*
G02*
X165510000Y-105300000I0J100000D01*
G01*
G37*
%TD.AperFunction*%
%TO.P,L3,1*%
%TO.N,Net-(C34-Pad2)*%
%TA.AperFunction,SMDPad,CuDef*%
G36*
G01*
X164870000Y-105300000D02*
X164870000Y-105100000D01*
G75*
G02*
X164970000Y-105000000I100000J0D01*
G01*
X165230000Y-105000000D01*
G75*
G02*
X165330000Y-105100000I0J-100000D01*
G01*
X165330000Y-105300000D01*
G75*
G02*
X165230000Y-105400000I-100000J0D01*
G01*
X164970000Y-105400000D01*
G75*
G02*
X164870000Y-105300000I0J100000D01*
G01*
G37*
%TD.AperFunction*%
%TD*%
%TO.P,L5,2*%
%TO.N,Net-(C35-Pad2)*%
%TA.AperFunction,SMDPad,CuDef*%
G36*
G01*
X159950000Y-104190000D02*
X160150000Y-104190000D01*
G75*
G02*
X160250000Y-104290000I0J-100000D01*
G01*
X160250000Y-104550000D01*
G75*
G02*
X160150000Y-104650000I-100000J0D01*
G01*
X159950000Y-104650000D01*
G75*
G02*
X159850000Y-104550000I0J100000D01*
G01*
X159850000Y-104290000D01*
G75*
G02*
X159950000Y-104190000I100000J0D01*
G01*
G37*
%TD.AperFunction*%
%TO.P,L5,1*%
%TO.N,Net-(C39-Pad1)*%
%TA.AperFunction,SMDPad,CuDef*%
G36*
G01*
X159950000Y-103550000D02*
X160150000Y-103550000D01*
G75*
G02*
X160250000Y-103650000I0J-100000D01*
G01*
X160250000Y-103910000D01*
G75*
G02*
X160150000Y-104010000I-100000J0D01*
G01*
X159950000Y-104010000D01*
G75*
G02*
X159850000Y-103910000I0J100000D01*
G01*
X159850000Y-103650000D01*
G75*
G02*
X159950000Y-103550000I100000J0D01*
G01*
G37*
%TD.AperFunction*%
%TD*%
%TO.P,L4,2*%
%TO.N,GND*%
%TA.AperFunction,SMDPad,CuDef*%
G36*
G01*
X165565000Y-106346000D02*
X165565000Y-106146000D01*
G75*
G02*
X165665000Y-106046000I100000J0D01*
G01*
X165925000Y-106046000D01*
G75*
G02*
X166025000Y-106146000I0J-100000D01*
G01*
X166025000Y-106346000D01*
G75*
G02*
X165925000Y-106446000I-100000J0D01*
G01*
X165665000Y-106446000D01*
G75*
G02*
X165565000Y-106346000I0J100000D01*
G01*
G37*
%TD.AperFunction*%
%TO.P,L4,1*%
%TO.N,Net-(C36-Pad2)*%
%TA.AperFunction,SMDPad,CuDef*%
G36*
G01*
X164925000Y-106346000D02*
X164925000Y-106146000D01*
G75*
G02*
X165025000Y-106046000I100000J0D01*
G01*
X165285000Y-106046000D01*
G75*
G02*
X165385000Y-106146000I0J-100000D01*
G01*
X165385000Y-106346000D01*
G75*
G02*
X165285000Y-106446000I-100000J0D01*
G01*
X165025000Y-106446000D01*
G75*
G02*
X164925000Y-106346000I0J100000D01*
G01*
G37*
%TD.AperFunction*%
%TD*%
%TO.P,L6,2*%
%TO.N,Net-(C40-Pad1)*%
%TA.AperFunction,SMDPad,CuDef*%
G36*
G01*
X156880000Y-102560000D02*
X157080000Y-102560000D01*
G75*
G02*
X157180000Y-102660000I0J-100000D01*
G01*
X157180000Y-102920000D01*
G75*
G02*
X157080000Y-103020000I-100000J0D01*
G01*
X156880000Y-103020000D01*
G75*
G02*
X156780000Y-102920000I0J100000D01*
G01*
X156780000Y-102660000D01*
G75*
G02*
X156880000Y-102560000I100000J0D01*
G01*
G37*
%TD.AperFunction*%
%TO.P,L6,1*%
%TO.N,Net-(C39-Pad1)*%
%TA.AperFunction,SMDPad,CuDef*%
G36*
G01*
X156880000Y-101920000D02*
X157080000Y-101920000D01*
G75*
G02*
X157180000Y-102020000I0J-100000D01*
G01*
X157180000Y-102280000D01*
G75*
G02*
X157080000Y-102380000I-100000J0D01*
G01*
X156880000Y-102380000D01*
G75*
G02*
X156780000Y-102280000I0J100000D01*
G01*
X156780000Y-102020000D01*
G75*
G02*
X156880000Y-101920000I100000J0D01*
G01*
G37*
%TD.AperFunction*%
%TD*%
%TO.P,L7,2*%
%TO.N,Net-(C39-Pad1)*%
%TA.AperFunction,SMDPad,CuDef*%
G36*
G01*
X157790000Y-102380000D02*
X157590000Y-102380000D01*
G75*
G02*
X157490000Y-102280000I0J100000D01*
G01*
X157490000Y-102020000D01*
G75*
G02*
X157590000Y-101920000I100000J0D01*
G01*
X157790000Y-101920000D01*
G75*
G02*
X157890000Y-102020000I0J-100000D01*
G01*
X157890000Y-102280000D01*
G75*
G02*
X157790000Y-102380000I-100000J0D01*
G01*
G37*
%TD.AperFunction*%
%TO.P,L7,1*%
%TO.N,Net-(C41-Pad1)*%
%TA.AperFunction,SMDPad,CuDef*%
G36*
G01*
X157790000Y-103020000D02*
X157590000Y-103020000D01*
G75*
G02*
X157490000Y-102920000I0J100000D01*
G01*
X157490000Y-102660000D01*
G75*
G02*
X157590000Y-102560000I100000J0D01*
G01*
X157790000Y-102560000D01*
G75*
G02*
X157890000Y-102660000I0J-100000D01*
G01*
X157890000Y-102920000D01*
G75*
G02*
X157790000Y-103020000I-100000J0D01*
G01*
G37*
%TD.AperFunction*%
%TD*%
%TO.P,L8,2*%
%TO.N,Net-(C43-Pad1)*%
%TA.AperFunction,SMDPad,CuDef*%
G36*
G01*
X157250000Y-103420000D02*
X157250000Y-103620000D01*
G75*
G02*
X157150000Y-103720000I-100000J0D01*
G01*
X156890000Y-103720000D01*
G75*
G02*
X156790000Y-103620000I0J100000D01*
G01*
X156790000Y-103420000D01*
G75*
G02*
X156890000Y-103320000I100000J0D01*
G01*
X157150000Y-103320000D01*
G75*
G02*
X157250000Y-103420000I0J-100000D01*
G01*
G37*
%TD.AperFunction*%
%TO.P,L8,1*%
%TO.N,Net-(C41-Pad1)*%
%TA.AperFunction,SMDPad,CuDef*%
G36*
G01*
X157890000Y-103420000D02*
X157890000Y-103620000D01*
G75*
G02*
X157790000Y-103720000I-100000J0D01*
G01*
X157530000Y-103720000D01*
G75*
G02*
X157430000Y-103620000I0J100000D01*
G01*
X157430000Y-103420000D01*
G75*
G02*
X157530000Y-103320000I100000J0D01*
G01*
X157790000Y-103320000D01*
G75*
G02*
X157890000Y-103420000I0J-100000D01*
G01*
G37*
%TD.AperFunction*%
%TD*%
%TO.P,L9,2*%
%TO.N,Net-(L10-Pad1)*%
%TA.AperFunction,SMDPad,CuDef*%
G36*
G01*
X153220000Y-99100000D02*
X153220000Y-98900000D01*
G75*
G02*
X153320000Y-98800000I100000J0D01*
G01*
X153580000Y-98800000D01*
G75*
G02*
X153680000Y-98900000I0J-100000D01*
G01*
X153680000Y-99100000D01*
G75*
G02*
X153580000Y-99200000I-100000J0D01*
G01*
X153320000Y-99200000D01*
G75*
G02*
X153220000Y-99100000I0J100000D01*
G01*
G37*
%TD.AperFunction*%
%TO.P,L9,1*%
%TO.N,Net-(J1-Pad1)*%
%TA.AperFunction,SMDPad,CuDef*%
G36*
G01*
X152580000Y-99100000D02*
X152580000Y-98900000D01*
G75*
G02*
X152680000Y-98800000I100000J0D01*
G01*
X152940000Y-98800000D01*
G75*
G02*
X153040000Y-98900000I0J-100000D01*
G01*
X153040000Y-99100000D01*
G75*
G02*
X152940000Y-99200000I-100000J0D01*
G01*
X152680000Y-99200000D01*
G75*
G02*
X152580000Y-99100000I0J100000D01*
G01*
G37*
%TD.AperFunction*%
%TD*%
%TO.P,L11,2*%
%TO.N,Net-(C47-Pad2)*%
%TA.AperFunction,SMDPad,CuDef*%
G36*
G01*
X154620000Y-98400000D02*
X154620000Y-98200000D01*
G75*
G02*
X154720000Y-98100000I100000J0D01*
G01*
X154980000Y-98100000D01*
G75*
G02*
X155080000Y-98200000I0J-100000D01*
G01*
X155080000Y-98400000D01*
G75*
G02*
X154980000Y-98500000I-100000J0D01*
G01*
X154720000Y-98500000D01*
G75*
G02*
X154620000Y-98400000I0J100000D01*
G01*
G37*
%TD.AperFunction*%
%TO.P,L11,1*%
%TO.N,GND*%
%TA.AperFunction,SMDPad,CuDef*%
G36*
G01*
X153980000Y-98400000D02*
X153980000Y-98200000D01*
G75*
G02*
X154080000Y-98100000I100000J0D01*
G01*
X154340000Y-98100000D01*
G75*
G02*
X154440000Y-98200000I0J-100000D01*
G01*
X154440000Y-98400000D01*
G75*
G02*
X154340000Y-98500000I-100000J0D01*
G01*
X154080000Y-98500000D01*
G75*
G02*
X153980000Y-98400000I0J100000D01*
G01*
G37*
%TD.AperFunction*%
%TD*%
D24*
%TO.P,J19,1*%
%TO.N,/SDA*%
X157500000Y-92000000D03*
%TD*%
%TO.P,J17,1*%
%TO.N,GND*%
X170000000Y-103500000D03*
%TD*%
%TO.P,J16,1*%
%TO.N,GND*%
X170000000Y-102000000D03*
%TD*%
%TO.P,J14,1*%
%TO.N,+3.3VA*%
X165500000Y-108000000D03*
%TD*%
%TO.P,J13,1*%
%TO.N,+3.3VA*%
X164000000Y-108000000D03*
%TD*%
%TO.P,J12,1*%
%TO.N,/SCL*%
X156000000Y-92000000D03*
%TD*%
%TO.P,J11,1*%
%TO.N,/WP*%
X154500000Y-92000000D03*
%TD*%
%TO.P,J10,1*%
%TO.N,/RESETN*%
X170000000Y-96000000D03*
%TD*%
%TO.P,J9,1*%
%TO.N,/REGPDIN*%
X165000000Y-92000000D03*
%TD*%
%TO.P,J8,1*%
%TO.N,/SDO*%
X163500000Y-92000000D03*
%TD*%
%TO.P,J7,1*%
%TO.N,/SINTN*%
X162000000Y-92000000D03*
%TD*%
%TO.P,J6,1*%
%TO.N,/SCLK*%
X170000000Y-97500000D03*
%TD*%
%TO.P,J5,1*%
%TO.N,/SCEN*%
X170000000Y-99000000D03*
%TD*%
%TO.P,J4,1*%
%TO.N,/SDI*%
X170000000Y-100500000D03*
%TD*%
%TO.P,J3,1*%
%TO.N,+3V3*%
X160500000Y-92000000D03*
%TD*%
%TO.P,J2,1*%
%TO.N,+3V3*%
X159000000Y-92000000D03*
%TD*%
%TO.P,J1,1*%
%TO.N,Net-(J1-Pad1)*%
X150000000Y-99000000D03*
%TD*%
%TO.P,C5,2*%
%TO.N,GND*%
%TA.AperFunction,SMDPad,CuDef*%
G36*
G01*
X154390000Y-96120000D02*
X154590000Y-96120000D01*
G75*
G02*
X154690000Y-96220000I0J-100000D01*
G01*
X154690000Y-96480000D01*
G75*
G02*
X154590000Y-96580000I-100000J0D01*
G01*
X154390000Y-96580000D01*
G75*
G02*
X154290000Y-96480000I0J100000D01*
G01*
X154290000Y-96220000D01*
G75*
G02*
X154390000Y-96120000I100000J0D01*
G01*
G37*
%TD.AperFunction*%
%TO.P,C5,1*%
%TO.N,+3V3*%
%TA.AperFunction,SMDPad,CuDef*%
G36*
G01*
X154390000Y-95480000D02*
X154590000Y-95480000D01*
G75*
G02*
X154690000Y-95580000I0J-100000D01*
G01*
X154690000Y-95840000D01*
G75*
G02*
X154590000Y-95940000I-100000J0D01*
G01*
X154390000Y-95940000D01*
G75*
G02*
X154290000Y-95840000I0J100000D01*
G01*
X154290000Y-95580000D01*
G75*
G02*
X154390000Y-95480000I100000J0D01*
G01*
G37*
%TD.AperFunction*%
%TD*%
%TO.P,C12,2*%
%TO.N,GND*%
%TA.AperFunction,SMDPad,CuDef*%
G36*
G01*
X163270000Y-95280000D02*
X163270000Y-95480000D01*
G75*
G02*
X163170000Y-95580000I-100000J0D01*
G01*
X162910000Y-95580000D01*
G75*
G02*
X162810000Y-95480000I0J100000D01*
G01*
X162810000Y-95280000D01*
G75*
G02*
X162910000Y-95180000I100000J0D01*
G01*
X163170000Y-95180000D01*
G75*
G02*
X163270000Y-95280000I0J-100000D01*
G01*
G37*
%TD.AperFunction*%
%TO.P,C12,1*%
%TO.N,Net-(C12-Pad1)*%
%TA.AperFunction,SMDPad,CuDef*%
G36*
G01*
X163910000Y-95280000D02*
X163910000Y-95480000D01*
G75*
G02*
X163810000Y-95580000I-100000J0D01*
G01*
X163550000Y-95580000D01*
G75*
G02*
X163450000Y-95480000I0J100000D01*
G01*
X163450000Y-95280000D01*
G75*
G02*
X163550000Y-95180000I100000J0D01*
G01*
X163810000Y-95180000D01*
G75*
G02*
X163910000Y-95280000I0J-100000D01*
G01*
G37*
%TD.AperFunction*%
%TD*%
%TO.P,C15,2*%
%TO.N,/XT+*%
%TA.AperFunction,SMDPad,CuDef*%
G36*
G01*
X161850000Y-94395000D02*
X162050000Y-94395000D01*
G75*
G02*
X162150000Y-94495000I0J-100000D01*
G01*
X162150000Y-94755000D01*
G75*
G02*
X162050000Y-94855000I-100000J0D01*
G01*
X161850000Y-94855000D01*
G75*
G02*
X161750000Y-94755000I0J100000D01*
G01*
X161750000Y-94495000D01*
G75*
G02*
X161850000Y-94395000I100000J0D01*
G01*
G37*
%TD.AperFunction*%
%TO.P,C15,1*%
%TO.N,GND*%
%TA.AperFunction,SMDPad,CuDef*%
G36*
G01*
X161850000Y-93755000D02*
X162050000Y-93755000D01*
G75*
G02*
X162150000Y-93855000I0J-100000D01*
G01*
X162150000Y-94115000D01*
G75*
G02*
X162050000Y-94215000I-100000J0D01*
G01*
X161850000Y-94215000D01*
G75*
G02*
X161750000Y-94115000I0J100000D01*
G01*
X161750000Y-93855000D01*
G75*
G02*
X161850000Y-93755000I100000J0D01*
G01*
G37*
%TD.AperFunction*%
%TD*%
%TO.P,C10,2*%
%TO.N,GND*%
%TA.AperFunction,SMDPad,CuDef*%
G36*
G01*
X164965000Y-95490000D02*
X164965000Y-95290000D01*
G75*
G02*
X165065000Y-95190000I100000J0D01*
G01*
X165325000Y-95190000D01*
G75*
G02*
X165425000Y-95290000I0J-100000D01*
G01*
X165425000Y-95490000D01*
G75*
G02*
X165325000Y-95590000I-100000J0D01*
G01*
X165065000Y-95590000D01*
G75*
G02*
X164965000Y-95490000I0J100000D01*
G01*
G37*
%TD.AperFunction*%
%TO.P,C10,1*%
%TO.N,/VDDCP*%
%TA.AperFunction,SMDPad,CuDef*%
G36*
G01*
X164325000Y-95490000D02*
X164325000Y-95290000D01*
G75*
G02*
X164425000Y-95190000I100000J0D01*
G01*
X164685000Y-95190000D01*
G75*
G02*
X164785000Y-95290000I0J-100000D01*
G01*
X164785000Y-95490000D01*
G75*
G02*
X164685000Y-95590000I-100000J0D01*
G01*
X164425000Y-95590000D01*
G75*
G02*
X164325000Y-95490000I0J100000D01*
G01*
G37*
%TD.AperFunction*%
%TD*%
%TO.P,C17,2*%
%TO.N,Net-(C17-Pad2)*%
%TA.AperFunction,SMDPad,CuDef*%
G36*
G01*
X166290000Y-95280000D02*
X166290000Y-95480000D01*
G75*
G02*
X166190000Y-95580000I-100000J0D01*
G01*
X165930000Y-95580000D01*
G75*
G02*
X165830000Y-95480000I0J100000D01*
G01*
X165830000Y-95280000D01*
G75*
G02*
X165930000Y-95180000I100000J0D01*
G01*
X166190000Y-95180000D01*
G75*
G02*
X166290000Y-95280000I0J-100000D01*
G01*
G37*
%TD.AperFunction*%
%TO.P,C17,1*%
%TO.N,GND*%
%TA.AperFunction,SMDPad,CuDef*%
G36*
G01*
X166930000Y-95280000D02*
X166930000Y-95480000D01*
G75*
G02*
X166830000Y-95580000I-100000J0D01*
G01*
X166570000Y-95580000D01*
G75*
G02*
X166470000Y-95480000I0J100000D01*
G01*
X166470000Y-95280000D01*
G75*
G02*
X166570000Y-95180000I100000J0D01*
G01*
X166830000Y-95180000D01*
G75*
G02*
X166930000Y-95280000I0J-100000D01*
G01*
G37*
%TD.AperFunction*%
%TD*%
%TO.P,C18,2*%
%TO.N,GND*%
%TA.AperFunction,SMDPad,CuDef*%
G36*
G01*
X166240000Y-96340000D02*
X166040000Y-96340000D01*
G75*
G02*
X165940000Y-96240000I0J100000D01*
G01*
X165940000Y-95980000D01*
G75*
G02*
X166040000Y-95880000I100000J0D01*
G01*
X166240000Y-95880000D01*
G75*
G02*
X166340000Y-95980000I0J-100000D01*
G01*
X166340000Y-96240000D01*
G75*
G02*
X166240000Y-96340000I-100000J0D01*
G01*
G37*
%TD.AperFunction*%
%TO.P,C18,1*%
%TO.N,+3.3VA*%
%TA.AperFunction,SMDPad,CuDef*%
G36*
G01*
X166240000Y-96980000D02*
X166040000Y-96980000D01*
G75*
G02*
X165940000Y-96880000I0J100000D01*
G01*
X165940000Y-96620000D01*
G75*
G02*
X166040000Y-96520000I100000J0D01*
G01*
X166240000Y-96520000D01*
G75*
G02*
X166340000Y-96620000I0J-100000D01*
G01*
X166340000Y-96880000D01*
G75*
G02*
X166240000Y-96980000I-100000J0D01*
G01*
G37*
%TD.AperFunction*%
%TD*%
%TO.P,C20,2*%
%TO.N,Net-(C20-Pad2)*%
%TA.AperFunction,SMDPad,CuDef*%
G36*
G01*
X166050000Y-98190000D02*
X166250000Y-98190000D01*
G75*
G02*
X166350000Y-98290000I0J-100000D01*
G01*
X166350000Y-98550000D01*
G75*
G02*
X166250000Y-98650000I-100000J0D01*
G01*
X166050000Y-98650000D01*
G75*
G02*
X165950000Y-98550000I0J100000D01*
G01*
X165950000Y-98290000D01*
G75*
G02*
X166050000Y-98190000I100000J0D01*
G01*
G37*
%TD.AperFunction*%
%TO.P,C20,1*%
%TO.N,Net-(C19-Pad2)*%
%TA.AperFunction,SMDPad,CuDef*%
G36*
G01*
X166050000Y-97550000D02*
X166250000Y-97550000D01*
G75*
G02*
X166350000Y-97650000I0J-100000D01*
G01*
X166350000Y-97910000D01*
G75*
G02*
X166250000Y-98010000I-100000J0D01*
G01*
X166050000Y-98010000D01*
G75*
G02*
X165950000Y-97910000I0J100000D01*
G01*
X165950000Y-97650000D01*
G75*
G02*
X166050000Y-97550000I100000J0D01*
G01*
G37*
%TD.AperFunction*%
%TD*%
%TO.P,C21,2*%
%TO.N,Net-(C19-Pad2)*%
%TA.AperFunction,SMDPad,CuDef*%
G36*
G01*
X166950000Y-98010000D02*
X166750000Y-98010000D01*
G75*
G02*
X166650000Y-97910000I0J100000D01*
G01*
X166650000Y-97650000D01*
G75*
G02*
X166750000Y-97550000I100000J0D01*
G01*
X166950000Y-97550000D01*
G75*
G02*
X167050000Y-97650000I0J-100000D01*
G01*
X167050000Y-97910000D01*
G75*
G02*
X166950000Y-98010000I-100000J0D01*
G01*
G37*
%TD.AperFunction*%
%TO.P,C21,1*%
%TO.N,Net-(C20-Pad2)*%
%TA.AperFunction,SMDPad,CuDef*%
G36*
G01*
X166950000Y-98650000D02*
X166750000Y-98650000D01*
G75*
G02*
X166650000Y-98550000I0J100000D01*
G01*
X166650000Y-98290000D01*
G75*
G02*
X166750000Y-98190000I100000J0D01*
G01*
X166950000Y-98190000D01*
G75*
G02*
X167050000Y-98290000I0J-100000D01*
G01*
X167050000Y-98550000D01*
G75*
G02*
X166950000Y-98650000I-100000J0D01*
G01*
G37*
%TD.AperFunction*%
%TD*%
%TO.P,C22,2*%
%TO.N,+3V3*%
%TA.AperFunction,SMDPad,CuDef*%
G36*
G01*
X157600000Y-98450000D02*
X157800000Y-98450000D01*
G75*
G02*
X157900000Y-98550000I0J-100000D01*
G01*
X157900000Y-98810000D01*
G75*
G02*
X157800000Y-98910000I-100000J0D01*
G01*
X157600000Y-98910000D01*
G75*
G02*
X157500000Y-98810000I0J100000D01*
G01*
X157500000Y-98550000D01*
G75*
G02*
X157600000Y-98450000I100000J0D01*
G01*
G37*
%TD.AperFunction*%
%TO.P,C22,1*%
%TO.N,GND*%
%TA.AperFunction,SMDPad,CuDef*%
G36*
G01*
X157600000Y-97810000D02*
X157800000Y-97810000D01*
G75*
G02*
X157900000Y-97910000I0J-100000D01*
G01*
X157900000Y-98170000D01*
G75*
G02*
X157800000Y-98270000I-100000J0D01*
G01*
X157600000Y-98270000D01*
G75*
G02*
X157500000Y-98170000I0J100000D01*
G01*
X157500000Y-97910000D01*
G75*
G02*
X157600000Y-97810000I100000J0D01*
G01*
G37*
%TD.AperFunction*%
%TD*%
%TO.P,C23,2*%
%TO.N,Net-(C23-Pad2)*%
%TA.AperFunction,SMDPad,CuDef*%
G36*
G01*
X166950000Y-99410000D02*
X166750000Y-99410000D01*
G75*
G02*
X166650000Y-99310000I0J100000D01*
G01*
X166650000Y-99050000D01*
G75*
G02*
X166750000Y-98950000I100000J0D01*
G01*
X166950000Y-98950000D01*
G75*
G02*
X167050000Y-99050000I0J-100000D01*
G01*
X167050000Y-99310000D01*
G75*
G02*
X166950000Y-99410000I-100000J0D01*
G01*
G37*
%TD.AperFunction*%
%TO.P,C23,1*%
%TO.N,Net-(C23-Pad1)*%
%TA.AperFunction,SMDPad,CuDef*%
G36*
G01*
X166950000Y-100050000D02*
X166750000Y-100050000D01*
G75*
G02*
X166650000Y-99950000I0J100000D01*
G01*
X166650000Y-99690000D01*
G75*
G02*
X166750000Y-99590000I100000J0D01*
G01*
X166950000Y-99590000D01*
G75*
G02*
X167050000Y-99690000I0J-100000D01*
G01*
X167050000Y-99950000D01*
G75*
G02*
X166950000Y-100050000I-100000J0D01*
G01*
G37*
%TD.AperFunction*%
%TD*%
%TO.P,C25,2*%
%TO.N,+3V3*%
%TA.AperFunction,SMDPad,CuDef*%
G36*
G01*
X157570000Y-100330000D02*
X157770000Y-100330000D01*
G75*
G02*
X157870000Y-100430000I0J-100000D01*
G01*
X157870000Y-100690000D01*
G75*
G02*
X157770000Y-100790000I-100000J0D01*
G01*
X157570000Y-100790000D01*
G75*
G02*
X157470000Y-100690000I0J100000D01*
G01*
X157470000Y-100430000D01*
G75*
G02*
X157570000Y-100330000I100000J0D01*
G01*
G37*
%TD.AperFunction*%
%TO.P,C25,1*%
%TO.N,GND*%
%TA.AperFunction,SMDPad,CuDef*%
G36*
G01*
X157570000Y-99690000D02*
X157770000Y-99690000D01*
G75*
G02*
X157870000Y-99790000I0J-100000D01*
G01*
X157870000Y-100050000D01*
G75*
G02*
X157770000Y-100150000I-100000J0D01*
G01*
X157570000Y-100150000D01*
G75*
G02*
X157470000Y-100050000I0J100000D01*
G01*
X157470000Y-99790000D01*
G75*
G02*
X157570000Y-99690000I100000J0D01*
G01*
G37*
%TD.AperFunction*%
%TD*%
%TO.P,C24,2*%
%TO.N,GND*%
%TA.AperFunction,SMDPad,CuDef*%
G36*
G01*
X166640000Y-100700000D02*
X166640000Y-100500000D01*
G75*
G02*
X166740000Y-100400000I100000J0D01*
G01*
X167000000Y-100400000D01*
G75*
G02*
X167100000Y-100500000I0J-100000D01*
G01*
X167100000Y-100700000D01*
G75*
G02*
X167000000Y-100800000I-100000J0D01*
G01*
X166740000Y-100800000D01*
G75*
G02*
X166640000Y-100700000I0J100000D01*
G01*
G37*
%TD.AperFunction*%
%TO.P,C24,1*%
%TO.N,/VDDCP*%
%TA.AperFunction,SMDPad,CuDef*%
G36*
G01*
X166000000Y-100700000D02*
X166000000Y-100500000D01*
G75*
G02*
X166100000Y-100400000I100000J0D01*
G01*
X166360000Y-100400000D01*
G75*
G02*
X166460000Y-100500000I0J-100000D01*
G01*
X166460000Y-100700000D01*
G75*
G02*
X166360000Y-100800000I-100000J0D01*
G01*
X166100000Y-100800000D01*
G75*
G02*
X166000000Y-100700000I0J100000D01*
G01*
G37*
%TD.AperFunction*%
%TD*%
%TO.P,C26,2*%
%TO.N,GND*%
%TA.AperFunction,SMDPad,CuDef*%
G36*
G01*
X166640000Y-101400000D02*
X166640000Y-101200000D01*
G75*
G02*
X166740000Y-101100000I100000J0D01*
G01*
X167000000Y-101100000D01*
G75*
G02*
X167100000Y-101200000I0J-100000D01*
G01*
X167100000Y-101400000D01*
G75*
G02*
X167000000Y-101500000I-100000J0D01*
G01*
X166740000Y-101500000D01*
G75*
G02*
X166640000Y-101400000I0J100000D01*
G01*
G37*
%TD.AperFunction*%
%TO.P,C26,1*%
%TO.N,Net-(C26-Pad1)*%
%TA.AperFunction,SMDPad,CuDef*%
G36*
G01*
X166000000Y-101400000D02*
X166000000Y-101200000D01*
G75*
G02*
X166100000Y-101100000I100000J0D01*
G01*
X166360000Y-101100000D01*
G75*
G02*
X166460000Y-101200000I0J-100000D01*
G01*
X166460000Y-101400000D01*
G75*
G02*
X166360000Y-101500000I-100000J0D01*
G01*
X166100000Y-101500000D01*
G75*
G02*
X166000000Y-101400000I0J100000D01*
G01*
G37*
%TD.AperFunction*%
%TD*%
%TO.P,C28,2*%
%TO.N,GND*%
%TA.AperFunction,SMDPad,CuDef*%
G36*
G01*
X167550000Y-102390000D02*
X167750000Y-102390000D01*
G75*
G02*
X167850000Y-102490000I0J-100000D01*
G01*
X167850000Y-102750000D01*
G75*
G02*
X167750000Y-102850000I-100000J0D01*
G01*
X167550000Y-102850000D01*
G75*
G02*
X167450000Y-102750000I0J100000D01*
G01*
X167450000Y-102490000D01*
G75*
G02*
X167550000Y-102390000I100000J0D01*
G01*
G37*
%TD.AperFunction*%
%TO.P,C28,1*%
%TO.N,Net-(C28-Pad1)*%
%TA.AperFunction,SMDPad,CuDef*%
G36*
G01*
X167550000Y-101750000D02*
X167750000Y-101750000D01*
G75*
G02*
X167850000Y-101850000I0J-100000D01*
G01*
X167850000Y-102110000D01*
G75*
G02*
X167750000Y-102210000I-100000J0D01*
G01*
X167550000Y-102210000D01*
G75*
G02*
X167450000Y-102110000I0J100000D01*
G01*
X167450000Y-101850000D01*
G75*
G02*
X167550000Y-101750000I100000J0D01*
G01*
G37*
%TD.AperFunction*%
%TD*%
%TO.P,C31,2*%
%TO.N,GND*%
%TA.AperFunction,SMDPad,CuDef*%
G36*
G01*
X164250000Y-104190000D02*
X164450000Y-104190000D01*
G75*
G02*
X164550000Y-104290000I0J-100000D01*
G01*
X164550000Y-104550000D01*
G75*
G02*
X164450000Y-104650000I-100000J0D01*
G01*
X164250000Y-104650000D01*
G75*
G02*
X164150000Y-104550000I0J100000D01*
G01*
X164150000Y-104290000D01*
G75*
G02*
X164250000Y-104190000I100000J0D01*
G01*
G37*
%TD.AperFunction*%
%TO.P,C31,1*%
%TO.N,+3.3VA*%
%TA.AperFunction,SMDPad,CuDef*%
G36*
G01*
X164250000Y-103550000D02*
X164450000Y-103550000D01*
G75*
G02*
X164550000Y-103650000I0J-100000D01*
G01*
X164550000Y-103910000D01*
G75*
G02*
X164450000Y-104010000I-100000J0D01*
G01*
X164250000Y-104010000D01*
G75*
G02*
X164150000Y-103910000I0J100000D01*
G01*
X164150000Y-103650000D01*
G75*
G02*
X164250000Y-103550000I100000J0D01*
G01*
G37*
%TD.AperFunction*%
%TD*%
%TO.P,C29,2*%
%TO.N,/VDDCP*%
%TA.AperFunction,SMDPad,CuDef*%
G36*
G01*
X166460000Y-102700000D02*
X166460000Y-102900000D01*
G75*
G02*
X166360000Y-103000000I-100000J0D01*
G01*
X166100000Y-103000000D01*
G75*
G02*
X166000000Y-102900000I0J100000D01*
G01*
X166000000Y-102700000D01*
G75*
G02*
X166100000Y-102600000I100000J0D01*
G01*
X166360000Y-102600000D01*
G75*
G02*
X166460000Y-102700000I0J-100000D01*
G01*
G37*
%TD.AperFunction*%
%TO.P,C29,1*%
%TO.N,GND*%
%TA.AperFunction,SMDPad,CuDef*%
G36*
G01*
X167100000Y-102700000D02*
X167100000Y-102900000D01*
G75*
G02*
X167000000Y-103000000I-100000J0D01*
G01*
X166740000Y-103000000D01*
G75*
G02*
X166640000Y-102900000I0J100000D01*
G01*
X166640000Y-102700000D01*
G75*
G02*
X166740000Y-102600000I100000J0D01*
G01*
X167000000Y-102600000D01*
G75*
G02*
X167100000Y-102700000I0J-100000D01*
G01*
G37*
%TD.AperFunction*%
%TD*%
%TO.P,C33,2*%
%TO.N,GND*%
%TA.AperFunction,SMDPad,CuDef*%
G36*
G01*
X160980000Y-105100000D02*
X160980000Y-105300000D01*
G75*
G02*
X160880000Y-105400000I-100000J0D01*
G01*
X160620000Y-105400000D01*
G75*
G02*
X160520000Y-105300000I0J100000D01*
G01*
X160520000Y-105100000D01*
G75*
G02*
X160620000Y-105000000I100000J0D01*
G01*
X160880000Y-105000000D01*
G75*
G02*
X160980000Y-105100000I0J-100000D01*
G01*
G37*
%TD.AperFunction*%
%TO.P,C33,1*%
%TO.N,Net-(C33-Pad1)*%
%TA.AperFunction,SMDPad,CuDef*%
G36*
G01*
X161620000Y-105100000D02*
X161620000Y-105300000D01*
G75*
G02*
X161520000Y-105400000I-100000J0D01*
G01*
X161260000Y-105400000D01*
G75*
G02*
X161160000Y-105300000I0J100000D01*
G01*
X161160000Y-105100000D01*
G75*
G02*
X161260000Y-105000000I100000J0D01*
G01*
X161520000Y-105000000D01*
G75*
G02*
X161620000Y-105100000I0J-100000D01*
G01*
G37*
%TD.AperFunction*%
%TD*%
%TO.P,C32,2*%
%TO.N,/VDDCP*%
%TA.AperFunction,SMDPad,CuDef*%
G36*
G01*
X161020000Y-103600000D02*
X161020000Y-103800000D01*
G75*
G02*
X160920000Y-103900000I-100000J0D01*
G01*
X160660000Y-103900000D01*
G75*
G02*
X160560000Y-103800000I0J100000D01*
G01*
X160560000Y-103600000D01*
G75*
G02*
X160660000Y-103500000I100000J0D01*
G01*
X160920000Y-103500000D01*
G75*
G02*
X161020000Y-103600000I0J-100000D01*
G01*
G37*
%TD.AperFunction*%
%TO.P,C32,1*%
%TO.N,GND*%
%TA.AperFunction,SMDPad,CuDef*%
G36*
G01*
X161660000Y-103600000D02*
X161660000Y-103800000D01*
G75*
G02*
X161560000Y-103900000I-100000J0D01*
G01*
X161300000Y-103900000D01*
G75*
G02*
X161200000Y-103800000I0J100000D01*
G01*
X161200000Y-103600000D01*
G75*
G02*
X161300000Y-103500000I100000J0D01*
G01*
X161560000Y-103500000D01*
G75*
G02*
X161660000Y-103600000I0J-100000D01*
G01*
G37*
%TD.AperFunction*%
%TD*%
%TO.P,C38,2*%
%TO.N,Net-(C37-Pad1)*%
%TA.AperFunction,SMDPad,CuDef*%
G36*
G01*
X163180000Y-103600000D02*
X163180000Y-103800000D01*
G75*
G02*
X163080000Y-103900000I-100000J0D01*
G01*
X162820000Y-103900000D01*
G75*
G02*
X162720000Y-103800000I0J100000D01*
G01*
X162720000Y-103600000D01*
G75*
G02*
X162820000Y-103500000I100000J0D01*
G01*
X163080000Y-103500000D01*
G75*
G02*
X163180000Y-103600000I0J-100000D01*
G01*
G37*
%TD.AperFunction*%
%TO.P,C38,1*%
%TO.N,GND*%
%TA.AperFunction,SMDPad,CuDef*%
G36*
G01*
X163820000Y-103600000D02*
X163820000Y-103800000D01*
G75*
G02*
X163720000Y-103900000I-100000J0D01*
G01*
X163460000Y-103900000D01*
G75*
G02*
X163360000Y-103800000I0J100000D01*
G01*
X163360000Y-103600000D01*
G75*
G02*
X163460000Y-103500000I100000J0D01*
G01*
X163720000Y-103500000D01*
G75*
G02*
X163820000Y-103600000I0J-100000D01*
G01*
G37*
%TD.AperFunction*%
%TD*%
%TO.P,C37,2*%
%TO.N,GND*%
%TA.AperFunction,SMDPad,CuDef*%
G36*
G01*
X163360000Y-104550000D02*
X163360000Y-104350000D01*
G75*
G02*
X163460000Y-104250000I100000J0D01*
G01*
X163720000Y-104250000D01*
G75*
G02*
X163820000Y-104350000I0J-100000D01*
G01*
X163820000Y-104550000D01*
G75*
G02*
X163720000Y-104650000I-100000J0D01*
G01*
X163460000Y-104650000D01*
G75*
G02*
X163360000Y-104550000I0J100000D01*
G01*
G37*
%TD.AperFunction*%
%TO.P,C37,1*%
%TO.N,Net-(C37-Pad1)*%
%TA.AperFunction,SMDPad,CuDef*%
G36*
G01*
X162720000Y-104550000D02*
X162720000Y-104350000D01*
G75*
G02*
X162820000Y-104250000I100000J0D01*
G01*
X163080000Y-104250000D01*
G75*
G02*
X163180000Y-104350000I0J-100000D01*
G01*
X163180000Y-104550000D01*
G75*
G02*
X163080000Y-104650000I-100000J0D01*
G01*
X162820000Y-104650000D01*
G75*
G02*
X162720000Y-104550000I0J100000D01*
G01*
G37*
%TD.AperFunction*%
%TD*%
%TO.P,C35,2*%
%TO.N,Net-(C35-Pad2)*%
%TA.AperFunction,SMDPad,CuDef*%
G36*
G01*
X161015000Y-104300000D02*
X161015000Y-104500000D01*
G75*
G02*
X160915000Y-104600000I-100000J0D01*
G01*
X160655000Y-104600000D01*
G75*
G02*
X160555000Y-104500000I0J100000D01*
G01*
X160555000Y-104300000D01*
G75*
G02*
X160655000Y-104200000I100000J0D01*
G01*
X160915000Y-104200000D01*
G75*
G02*
X161015000Y-104300000I0J-100000D01*
G01*
G37*
%TD.AperFunction*%
%TO.P,C35,1*%
%TO.N,Net-(C33-Pad1)*%
%TA.AperFunction,SMDPad,CuDef*%
G36*
G01*
X161655000Y-104300000D02*
X161655000Y-104500000D01*
G75*
G02*
X161555000Y-104600000I-100000J0D01*
G01*
X161295000Y-104600000D01*
G75*
G02*
X161195000Y-104500000I0J100000D01*
G01*
X161195000Y-104300000D01*
G75*
G02*
X161295000Y-104200000I100000J0D01*
G01*
X161555000Y-104200000D01*
G75*
G02*
X161655000Y-104300000I0J-100000D01*
G01*
G37*
%TD.AperFunction*%
%TD*%
%TO.P,C34,2*%
%TO.N,Net-(C34-Pad2)*%
%TA.AperFunction,SMDPad,CuDef*%
G36*
G01*
X164950000Y-104190000D02*
X165150000Y-104190000D01*
G75*
G02*
X165250000Y-104290000I0J-100000D01*
G01*
X165250000Y-104550000D01*
G75*
G02*
X165150000Y-104650000I-100000J0D01*
G01*
X164950000Y-104650000D01*
G75*
G02*
X164850000Y-104550000I0J100000D01*
G01*
X164850000Y-104290000D01*
G75*
G02*
X164950000Y-104190000I100000J0D01*
G01*
G37*
%TD.AperFunction*%
%TO.P,C34,1*%
%TO.N,Net-(C34-Pad1)*%
%TA.AperFunction,SMDPad,CuDef*%
G36*
G01*
X164950000Y-103550000D02*
X165150000Y-103550000D01*
G75*
G02*
X165250000Y-103650000I0J-100000D01*
G01*
X165250000Y-103910000D01*
G75*
G02*
X165150000Y-104010000I-100000J0D01*
G01*
X164950000Y-104010000D01*
G75*
G02*
X164850000Y-103910000I0J100000D01*
G01*
X164850000Y-103650000D01*
G75*
G02*
X164950000Y-103550000I100000J0D01*
G01*
G37*
%TD.AperFunction*%
%TD*%
%TO.P,C36,2*%
%TO.N,Net-(C36-Pad2)*%
%TA.AperFunction,SMDPad,CuDef*%
G36*
G01*
X164216000Y-105610000D02*
X164416000Y-105610000D01*
G75*
G02*
X164516000Y-105710000I0J-100000D01*
G01*
X164516000Y-105970000D01*
G75*
G02*
X164416000Y-106070000I-100000J0D01*
G01*
X164216000Y-106070000D01*
G75*
G02*
X164116000Y-105970000I0J100000D01*
G01*
X164116000Y-105710000D01*
G75*
G02*
X164216000Y-105610000I100000J0D01*
G01*
G37*
%TD.AperFunction*%
%TO.P,C36,1*%
%TO.N,Net-(C34-Pad2)*%
%TA.AperFunction,SMDPad,CuDef*%
G36*
G01*
X164216000Y-104970000D02*
X164416000Y-104970000D01*
G75*
G02*
X164516000Y-105070000I0J-100000D01*
G01*
X164516000Y-105330000D01*
G75*
G02*
X164416000Y-105430000I-100000J0D01*
G01*
X164216000Y-105430000D01*
G75*
G02*
X164116000Y-105330000I0J100000D01*
G01*
X164116000Y-105070000D01*
G75*
G02*
X164216000Y-104970000I100000J0D01*
G01*
G37*
%TD.AperFunction*%
%TD*%
%TO.P,C39,2*%
%TO.N,GND*%
%TA.AperFunction,SMDPad,CuDef*%
G36*
G01*
X159250000Y-104870000D02*
X159450000Y-104870000D01*
G75*
G02*
X159550000Y-104970000I0J-100000D01*
G01*
X159550000Y-105230000D01*
G75*
G02*
X159450000Y-105330000I-100000J0D01*
G01*
X159250000Y-105330000D01*
G75*
G02*
X159150000Y-105230000I0J100000D01*
G01*
X159150000Y-104970000D01*
G75*
G02*
X159250000Y-104870000I100000J0D01*
G01*
G37*
%TD.AperFunction*%
%TO.P,C39,1*%
%TO.N,Net-(C39-Pad1)*%
%TA.AperFunction,SMDPad,CuDef*%
G36*
G01*
X159250000Y-104230000D02*
X159450000Y-104230000D01*
G75*
G02*
X159550000Y-104330000I0J-100000D01*
G01*
X159550000Y-104590000D01*
G75*
G02*
X159450000Y-104690000I-100000J0D01*
G01*
X159250000Y-104690000D01*
G75*
G02*
X159150000Y-104590000I0J100000D01*
G01*
X159150000Y-104330000D01*
G75*
G02*
X159250000Y-104230000I100000J0D01*
G01*
G37*
%TD.AperFunction*%
%TD*%
%TO.P,C40,2*%
%TO.N,GND*%
%TA.AperFunction,SMDPad,CuDef*%
G36*
G01*
X156180000Y-103250000D02*
X156380000Y-103250000D01*
G75*
G02*
X156480000Y-103350000I0J-100000D01*
G01*
X156480000Y-103610000D01*
G75*
G02*
X156380000Y-103710000I-100000J0D01*
G01*
X156180000Y-103710000D01*
G75*
G02*
X156080000Y-103610000I0J100000D01*
G01*
X156080000Y-103350000D01*
G75*
G02*
X156180000Y-103250000I100000J0D01*
G01*
G37*
%TD.AperFunction*%
%TO.P,C40,1*%
%TO.N,Net-(C40-Pad1)*%
%TA.AperFunction,SMDPad,CuDef*%
G36*
G01*
X156180000Y-102610000D02*
X156380000Y-102610000D01*
G75*
G02*
X156480000Y-102710000I0J-100000D01*
G01*
X156480000Y-102970000D01*
G75*
G02*
X156380000Y-103070000I-100000J0D01*
G01*
X156180000Y-103070000D01*
G75*
G02*
X156080000Y-102970000I0J100000D01*
G01*
X156080000Y-102710000D01*
G75*
G02*
X156180000Y-102610000I100000J0D01*
G01*
G37*
%TD.AperFunction*%
%TD*%
%TO.P,C41,2*%
%TO.N,Net-(C39-Pad1)*%
%TA.AperFunction,SMDPad,CuDef*%
G36*
G01*
X159070000Y-103800000D02*
X159070000Y-103600000D01*
G75*
G02*
X159170000Y-103500000I100000J0D01*
G01*
X159430000Y-103500000D01*
G75*
G02*
X159530000Y-103600000I0J-100000D01*
G01*
X159530000Y-103800000D01*
G75*
G02*
X159430000Y-103900000I-100000J0D01*
G01*
X159170000Y-103900000D01*
G75*
G02*
X159070000Y-103800000I0J100000D01*
G01*
G37*
%TD.AperFunction*%
%TO.P,C41,1*%
%TO.N,Net-(C41-Pad1)*%
%TA.AperFunction,SMDPad,CuDef*%
G36*
G01*
X158430000Y-103800000D02*
X158430000Y-103600000D01*
G75*
G02*
X158530000Y-103500000I100000J0D01*
G01*
X158790000Y-103500000D01*
G75*
G02*
X158890000Y-103600000I0J-100000D01*
G01*
X158890000Y-103800000D01*
G75*
G02*
X158790000Y-103900000I-100000J0D01*
G01*
X158530000Y-103900000D01*
G75*
G02*
X158430000Y-103800000I0J100000D01*
G01*
G37*
%TD.AperFunction*%
%TD*%
%TO.P,C43,2*%
%TO.N,GND*%
%TA.AperFunction,SMDPad,CuDef*%
G36*
G01*
X157420000Y-104320000D02*
X157420000Y-104120000D01*
G75*
G02*
X157520000Y-104020000I100000J0D01*
G01*
X157780000Y-104020000D01*
G75*
G02*
X157880000Y-104120000I0J-100000D01*
G01*
X157880000Y-104320000D01*
G75*
G02*
X157780000Y-104420000I-100000J0D01*
G01*
X157520000Y-104420000D01*
G75*
G02*
X157420000Y-104320000I0J100000D01*
G01*
G37*
%TD.AperFunction*%
%TO.P,C43,1*%
%TO.N,Net-(C43-Pad1)*%
%TA.AperFunction,SMDPad,CuDef*%
G36*
G01*
X156780000Y-104320000D02*
X156780000Y-104120000D01*
G75*
G02*
X156880000Y-104020000I100000J0D01*
G01*
X157140000Y-104020000D01*
G75*
G02*
X157240000Y-104120000I0J-100000D01*
G01*
X157240000Y-104320000D01*
G75*
G02*
X157140000Y-104420000I-100000J0D01*
G01*
X156880000Y-104420000D01*
G75*
G02*
X156780000Y-104320000I0J100000D01*
G01*
G37*
%TD.AperFunction*%
%TD*%
%TO.P,C44,2*%
%TO.N,Net-(C44-Pad2)*%
%TA.AperFunction,SMDPad,CuDef*%
G36*
G01*
X158550000Y-104890000D02*
X158750000Y-104890000D01*
G75*
G02*
X158850000Y-104990000I0J-100000D01*
G01*
X158850000Y-105250000D01*
G75*
G02*
X158750000Y-105350000I-100000J0D01*
G01*
X158550000Y-105350000D01*
G75*
G02*
X158450000Y-105250000I0J100000D01*
G01*
X158450000Y-104990000D01*
G75*
G02*
X158550000Y-104890000I100000J0D01*
G01*
G37*
%TD.AperFunction*%
%TO.P,C44,1*%
%TO.N,Net-(C41-Pad1)*%
%TA.AperFunction,SMDPad,CuDef*%
G36*
G01*
X158550000Y-104250000D02*
X158750000Y-104250000D01*
G75*
G02*
X158850000Y-104350000I0J-100000D01*
G01*
X158850000Y-104610000D01*
G75*
G02*
X158750000Y-104710000I-100000J0D01*
G01*
X158550000Y-104710000D01*
G75*
G02*
X158450000Y-104610000I0J100000D01*
G01*
X158450000Y-104350000D01*
G75*
G02*
X158550000Y-104250000I100000J0D01*
G01*
G37*
%TD.AperFunction*%
%TD*%
%TO.P,C45,2*%
%TO.N,GND*%
%TA.AperFunction,SMDPad,CuDef*%
G36*
G01*
X159070000Y-106000000D02*
X159070000Y-105800000D01*
G75*
G02*
X159170000Y-105700000I100000J0D01*
G01*
X159430000Y-105700000D01*
G75*
G02*
X159530000Y-105800000I0J-100000D01*
G01*
X159530000Y-106000000D01*
G75*
G02*
X159430000Y-106100000I-100000J0D01*
G01*
X159170000Y-106100000D01*
G75*
G02*
X159070000Y-106000000I0J100000D01*
G01*
G37*
%TD.AperFunction*%
%TO.P,C45,1*%
%TO.N,Net-(C45-Pad1)*%
%TA.AperFunction,SMDPad,CuDef*%
G36*
G01*
X158430000Y-106000000D02*
X158430000Y-105800000D01*
G75*
G02*
X158530000Y-105700000I100000J0D01*
G01*
X158790000Y-105700000D01*
G75*
G02*
X158890000Y-105800000I0J-100000D01*
G01*
X158890000Y-106000000D01*
G75*
G02*
X158790000Y-106100000I-100000J0D01*
G01*
X158530000Y-106100000D01*
G75*
G02*
X158430000Y-106000000I0J100000D01*
G01*
G37*
%TD.AperFunction*%
%TD*%
%TO.P,C46,2*%
%TO.N,Net-(C46-Pad2)*%
%TA.AperFunction,SMDPad,CuDef*%
G36*
G01*
X156170000Y-101840000D02*
X156370000Y-101840000D01*
G75*
G02*
X156470000Y-101940000I0J-100000D01*
G01*
X156470000Y-102200000D01*
G75*
G02*
X156370000Y-102300000I-100000J0D01*
G01*
X156170000Y-102300000D01*
G75*
G02*
X156070000Y-102200000I0J100000D01*
G01*
X156070000Y-101940000D01*
G75*
G02*
X156170000Y-101840000I100000J0D01*
G01*
G37*
%TD.AperFunction*%
%TO.P,C46,1*%
%TO.N,GND*%
%TA.AperFunction,SMDPad,CuDef*%
G36*
G01*
X156170000Y-101200000D02*
X156370000Y-101200000D01*
G75*
G02*
X156470000Y-101300000I0J-100000D01*
G01*
X156470000Y-101560000D01*
G75*
G02*
X156370000Y-101660000I-100000J0D01*
G01*
X156170000Y-101660000D01*
G75*
G02*
X156070000Y-101560000I0J100000D01*
G01*
X156070000Y-101300000D01*
G75*
G02*
X156170000Y-101200000I100000J0D01*
G01*
G37*
%TD.AperFunction*%
%TD*%
%TO.P,C47,2*%
%TO.N,Net-(C47-Pad2)*%
%TA.AperFunction,SMDPad,CuDef*%
G36*
G01*
X154980000Y-99960000D02*
X154780000Y-99960000D01*
G75*
G02*
X154680000Y-99860000I0J100000D01*
G01*
X154680000Y-99600000D01*
G75*
G02*
X154780000Y-99500000I100000J0D01*
G01*
X154980000Y-99500000D01*
G75*
G02*
X155080000Y-99600000I0J-100000D01*
G01*
X155080000Y-99860000D01*
G75*
G02*
X154980000Y-99960000I-100000J0D01*
G01*
G37*
%TD.AperFunction*%
%TO.P,C47,1*%
%TO.N,Net-(C47-Pad1)*%
%TA.AperFunction,SMDPad,CuDef*%
G36*
G01*
X154980000Y-100600000D02*
X154780000Y-100600000D01*
G75*
G02*
X154680000Y-100500000I0J100000D01*
G01*
X154680000Y-100240000D01*
G75*
G02*
X154780000Y-100140000I100000J0D01*
G01*
X154980000Y-100140000D01*
G75*
G02*
X155080000Y-100240000I0J-100000D01*
G01*
X155080000Y-100500000D01*
G75*
G02*
X154980000Y-100600000I-100000J0D01*
G01*
G37*
%TD.AperFunction*%
%TD*%
%TO.P,C48,2*%
%TO.N,Net-(C48-Pad2)*%
%TA.AperFunction,SMDPad,CuDef*%
G36*
G01*
X155840000Y-105310000D02*
X156040000Y-105310000D01*
G75*
G02*
X156140000Y-105410000I0J-100000D01*
G01*
X156140000Y-105670000D01*
G75*
G02*
X156040000Y-105770000I-100000J0D01*
G01*
X155840000Y-105770000D01*
G75*
G02*
X155740000Y-105670000I0J100000D01*
G01*
X155740000Y-105410000D01*
G75*
G02*
X155840000Y-105310000I100000J0D01*
G01*
G37*
%TD.AperFunction*%
%TO.P,C48,1*%
%TO.N,Net-(C48-Pad1)*%
%TA.AperFunction,SMDPad,CuDef*%
G36*
G01*
X155840000Y-104670000D02*
X156040000Y-104670000D01*
G75*
G02*
X156140000Y-104770000I0J-100000D01*
G01*
X156140000Y-105030000D01*
G75*
G02*
X156040000Y-105130000I-100000J0D01*
G01*
X155840000Y-105130000D01*
G75*
G02*
X155740000Y-105030000I0J100000D01*
G01*
X155740000Y-104770000D01*
G75*
G02*
X155840000Y-104670000I100000J0D01*
G01*
G37*
%TD.AperFunction*%
%TD*%
D25*
%TO.N,GND*%
X152710000Y-106000000D03*
X151710000Y-106000000D03*
X152710000Y-103100000D03*
X151710000Y-103100000D03*
X153710000Y-101180000D03*
X152710000Y-100180000D03*
X153710000Y-100180000D03*
X152710000Y-94760000D03*
X152710000Y-97770000D03*
X152710000Y-95760000D03*
X166000000Y-103800000D03*
X156280000Y-100180000D03*
X156280000Y-99180000D03*
X156280000Y-98180000D03*
X152710000Y-96760000D03*
X154100000Y-106050000D03*
X167990000Y-100830000D03*
X163000000Y-99200000D03*
X162200000Y-99200000D03*
X163000000Y-98400000D03*
X162200000Y-98400000D03*
X162200000Y-100000000D03*
X163000000Y-100000000D03*
X163000000Y-100800000D03*
X162200000Y-100800000D03*
X161400000Y-100800000D03*
X160600000Y-100800000D03*
X161400000Y-100000000D03*
X160600000Y-100000000D03*
X160600000Y-99200000D03*
X161400000Y-98400000D03*
X161400000Y-99200000D03*
X160600000Y-98400000D03*
X158870000Y-101350000D03*
X154210000Y-98300000D03*
X157690000Y-98040000D03*
X157670000Y-99920000D03*
X156280000Y-103480000D03*
X161550000Y-96680000D03*
X163030000Y-95530000D03*
X163060000Y-94290000D03*
X166700000Y-95380000D03*
X167720000Y-94300000D03*
X167550000Y-97780000D03*
X165200000Y-95530000D03*
X166140000Y-96110000D03*
X167670000Y-95980000D03*
X164350000Y-104420000D03*
X162250000Y-105300000D03*
X159350000Y-105110000D03*
X163590000Y-104450000D03*
X163590000Y-103700000D03*
X156270000Y-101430000D03*
X161430000Y-103710000D03*
X160760000Y-105200000D03*
X159300000Y-105900000D03*
X166870000Y-100600000D03*
X166870000Y-101300000D03*
X166870000Y-102800000D03*
X167650000Y-102620000D03*
X165790000Y-106250000D03*
X165750000Y-105200000D03*
X161950000Y-93990000D03*
X157730000Y-94110000D03*
X159250000Y-94130000D03*
X160580000Y-95170000D03*
X167100000Y-104020000D03*
X167500000Y-104400000D03*
X154500000Y-96350000D03*
X157650000Y-104220000D03*
%TO.N,/VDDCP*%
X160790000Y-103710000D03*
X166220000Y-100600000D03*
X166220000Y-102800000D03*
X166140000Y-94300000D03*
%TO.N,+3V3*%
X157700000Y-98690000D03*
X157680000Y-100580000D03*
X157530000Y-95680000D03*
X154510000Y-93910000D03*
X156380000Y-93930000D03*
X154490000Y-95710000D03*
%TO.N,Net-(C45-Pad1)*%
X157250000Y-106420000D03*
X158660000Y-105900000D03*
X159550000Y-102530000D03*
%TO.N,Net-(C46-Pad2)*%
X158870000Y-101860000D03*
X157250000Y-104980000D03*
X156270000Y-102070000D03*
%TO.N,/SDI*%
X158880000Y-98350000D03*
%TO.N,/SCEN*%
X158880000Y-97850000D03*
%TO.N,/SCLK*%
X158870000Y-97350000D03*
%TO.N,/SINTN*%
X159550000Y-96680000D03*
%TO.N,/SDO*%
X160050000Y-96670000D03*
%TO.N,/REGPDIN*%
X160550000Y-96650000D03*
%TO.N,/RESETN*%
X161050000Y-96650000D03*
%TO.N,+3.3VA*%
X164350000Y-103780000D03*
X167100000Y-105600000D03*
X167500000Y-105970000D03*
X166140000Y-96750000D03*
%TO.N,/WP*%
X154500000Y-94570000D03*
%TO.N,/SCL*%
X156390000Y-94570000D03*
%TO.N,/SDA*%
X157520000Y-96330000D03*
%TD*%
D26*
%TO.N,GND*%
X155475001Y-96350000D02*
X155600000Y-96225001D01*
X154490000Y-96350000D02*
X155475001Y-96350000D01*
X155600000Y-96200000D02*
X156000000Y-96200000D01*
X159235000Y-94110000D02*
X159250000Y-94125000D01*
D27*
X169287500Y-104212500D02*
X169774990Y-103725010D01*
X169287500Y-102712500D02*
X169774990Y-102225010D01*
X169287500Y-104212500D02*
X169287500Y-102712500D01*
X169287500Y-104212500D02*
X167300000Y-104212500D01*
D26*
X162837500Y-105300000D02*
X162875000Y-105262500D01*
X162250000Y-105300000D02*
X162837500Y-105300000D01*
X162875000Y-105262500D02*
X162875000Y-105937500D01*
%TO.N,Net-(C12-Pad1)*%
X163680000Y-95472002D02*
X163680000Y-95380000D01*
X163050000Y-96102002D02*
X163680000Y-95472002D01*
X163050000Y-96675000D02*
X163050000Y-96102002D01*
X163680000Y-95270000D02*
X164650000Y-94300000D01*
X163680000Y-95380000D02*
X163680000Y-95270000D01*
%TO.N,/VDDCP*%
X160575000Y-103545000D02*
X160575000Y-102500000D01*
X160730000Y-103700000D02*
X160575000Y-103545000D01*
X165789990Y-102359990D02*
X166230000Y-102800000D01*
X165110002Y-101325000D02*
X165789990Y-102004988D01*
X165789990Y-102004988D02*
X165789990Y-102359990D01*
X164750000Y-101325000D02*
X165110002Y-101325000D01*
X165955000Y-100325000D02*
X164750000Y-100325000D01*
X166230000Y-100600000D02*
X165955000Y-100325000D01*
X163575000Y-96650000D02*
X163575000Y-96289998D01*
X165765720Y-94300000D02*
X166150000Y-94300000D01*
X164474998Y-95390000D02*
X164555000Y-95390000D01*
X163575000Y-96289998D02*
X164474998Y-95390000D01*
X165474990Y-94975010D02*
X166150000Y-94300000D01*
X164769990Y-94975010D02*
X165474990Y-94975010D01*
X164555000Y-95190000D02*
X164769990Y-94975010D01*
X164555000Y-95390000D02*
X164555000Y-95190000D01*
%TO.N,+3V3*%
X154490000Y-95710000D02*
X155510000Y-95710000D01*
X155510000Y-95710000D02*
X155574999Y-95774999D01*
X157694280Y-100580000D02*
X157680000Y-100580000D01*
X157964280Y-100850000D02*
X157694280Y-100580000D01*
X158875000Y-100850000D02*
X157964280Y-100850000D01*
X157870000Y-98850000D02*
X157700000Y-98680000D01*
X158875000Y-98850000D02*
X157870000Y-98850000D01*
%TO.N,Net-(C23-Pad2)*%
X165820000Y-98850000D02*
X166150000Y-99180000D01*
X164725000Y-98850000D02*
X165820000Y-98850000D01*
X166850000Y-99180000D02*
X166150000Y-99180000D01*
%TO.N,Net-(C26-Pad1)*%
X166220000Y-101310000D02*
X166230000Y-101300000D01*
X166220000Y-102012000D02*
X166220000Y-101310000D01*
X165780000Y-100850000D02*
X164725000Y-100850000D01*
X166230000Y-101300000D02*
X165780000Y-100850000D01*
%TO.N,Net-(C33-Pad1)*%
X162550000Y-103385000D02*
X162550000Y-102525000D01*
X162175000Y-103760000D02*
X162550000Y-103385000D01*
X162065000Y-103760000D02*
X162175000Y-103760000D01*
X161425000Y-104400000D02*
X162065000Y-103760000D01*
X161390000Y-104435000D02*
X161425000Y-104400000D01*
X161390000Y-105200000D02*
X161390000Y-104435000D01*
%TO.N,Net-(C34-Pad2)*%
X164316000Y-105200000D02*
X165100000Y-105200000D01*
X165100000Y-104470000D02*
X165050000Y-104420000D01*
X165100000Y-105200000D02*
X165100000Y-104470000D01*
%TO.N,Net-(J1-Pad1)*%
X152810000Y-99000000D02*
X150225010Y-99000000D01*
%TO.N,/XT-*%
X158155000Y-95175000D02*
X157725000Y-94745000D01*
X159250000Y-95175000D02*
X158155000Y-95175000D01*
X159825001Y-95750001D02*
X159250000Y-95175000D01*
X161525001Y-95750001D02*
X159825001Y-95750001D01*
X162050000Y-96275000D02*
X161525001Y-95750001D01*
X162050000Y-96675000D02*
X162050000Y-96275000D01*
%TO.N,/XT+*%
X160595002Y-94125000D02*
X160575000Y-94125000D01*
X160685002Y-94125000D02*
X160575000Y-94125000D01*
X162575000Y-96014998D02*
X160685002Y-94125000D01*
X162575000Y-96650000D02*
X162575000Y-96014998D01*
X161700000Y-94625000D02*
X161950000Y-94625000D01*
X161200000Y-94125000D02*
X161700000Y-94625000D01*
X160575000Y-94125000D02*
X161200000Y-94125000D01*
%TO.N,Net-(C17-Pad2)*%
X164765000Y-96675000D02*
X166060000Y-95380000D01*
X164050000Y-96675000D02*
X164765000Y-96675000D01*
%TO.N,Net-(C19-Pad2)*%
X166055000Y-97875000D02*
X166150000Y-97780000D01*
X164725000Y-97875000D02*
X166055000Y-97875000D01*
X166850000Y-97780000D02*
X166150000Y-97780000D01*
X167504280Y-98420000D02*
X167550000Y-98420000D01*
X166864280Y-97780000D02*
X167504280Y-98420000D01*
X166850000Y-97780000D02*
X166864280Y-97780000D01*
X166850000Y-97775000D02*
X167670000Y-96955000D01*
X166850000Y-97780000D02*
X166850000Y-97775000D01*
%TO.N,Net-(C20-Pad2)*%
X166080000Y-98350000D02*
X166150000Y-98420000D01*
X164725000Y-98350000D02*
X166080000Y-98350000D01*
X166150000Y-98420000D02*
X166850000Y-98420000D01*
%TO.N,Net-(C23-Pad1)*%
X166850000Y-99820000D02*
X166150000Y-99820000D01*
X165085002Y-99350000D02*
X164725000Y-99350000D01*
X165555002Y-99820000D02*
X165085002Y-99350000D01*
X166150000Y-99820000D02*
X165555002Y-99820000D01*
%TO.N,Net-(C28-Pad1)*%
X166892000Y-101980000D02*
X166860000Y-102012000D01*
X167650000Y-101980000D02*
X166892000Y-101980000D01*
%TO.N,Net-(C34-Pad1)*%
X165050000Y-103525000D02*
X164050000Y-102525000D01*
X165050000Y-103780000D02*
X165050000Y-103525000D01*
%TO.N,Net-(C35-Pad2)*%
X160765000Y-104420000D02*
X160785000Y-104400000D01*
X160050000Y-104420000D02*
X160765000Y-104420000D01*
%TO.N,Net-(C36-Pad2)*%
X164722000Y-106246000D02*
X164316000Y-105840000D01*
X165155000Y-106246000D02*
X164722000Y-106246000D01*
X163702500Y-105840000D02*
X163462500Y-105600000D01*
X164316000Y-105840000D02*
X163702500Y-105840000D01*
%TO.N,Net-(C37-Pad1)*%
X163050000Y-103600000D02*
X162950000Y-103700000D01*
X163050000Y-102525000D02*
X163050000Y-103600000D01*
X162950000Y-103700000D02*
X162950000Y-104450000D01*
X162225000Y-104450000D02*
X162175000Y-104400000D01*
X162950000Y-104450000D02*
X162225000Y-104450000D01*
%TO.N,Net-(C39-Pad1)*%
X159380000Y-103780000D02*
X159300000Y-103700000D01*
X160050000Y-103780000D02*
X159380000Y-103780000D01*
X159350000Y-103750000D02*
X159300000Y-103700000D01*
X159350000Y-104460000D02*
X159350000Y-103750000D01*
X157950000Y-102150000D02*
X157690000Y-102150000D01*
X159300000Y-103500000D02*
X157950000Y-102150000D01*
X159300000Y-103700000D02*
X159300000Y-103500000D01*
X157690000Y-102150000D02*
X156980000Y-102150000D01*
%TO.N,Net-(C40-Pad1)*%
X156330000Y-102790000D02*
X156280000Y-102840000D01*
X156980000Y-102790000D02*
X156330000Y-102790000D01*
%TO.N,Net-(C41-Pad1)*%
X158650000Y-103710000D02*
X158660000Y-103700000D01*
X158650000Y-104480000D02*
X158650000Y-103710000D01*
X157840000Y-103700000D02*
X157660000Y-103520000D01*
X158660000Y-103700000D02*
X157840000Y-103700000D01*
X157660000Y-102820000D02*
X157690000Y-102790000D01*
X157660000Y-103520000D02*
X157660000Y-102820000D01*
%TO.N,Net-(C42-Pad2)*%
X160525000Y-106425000D02*
X159765000Y-106425000D01*
X159765000Y-106425000D02*
X157750000Y-106425000D01*
X160750000Y-106200000D02*
X160525000Y-106425000D01*
X160750000Y-105900000D02*
X160750000Y-106200000D01*
%TO.N,Net-(C42-Pad1)*%
X161402500Y-105887500D02*
X161390000Y-105900000D01*
X162237500Y-105887500D02*
X161402500Y-105887500D01*
%TO.N,Net-(C43-Pad1)*%
X157010000Y-103530000D02*
X157020000Y-103520000D01*
X157010000Y-104220000D02*
X157010000Y-103530000D01*
%TO.N,Net-(C44-Pad2)*%
X158505000Y-104975000D02*
X158650000Y-105120000D01*
X157775000Y-104975000D02*
X158505000Y-104975000D01*
%TO.N,Net-(C47-Pad2)*%
X154850000Y-99000000D02*
X154850000Y-98300000D01*
X154880000Y-99030000D02*
X154850000Y-99000000D01*
X154880000Y-99730000D02*
X154880000Y-99030000D01*
%TO.N,Net-(C47-Pad1)*%
X154880000Y-103105000D02*
X154880000Y-100370000D01*
X156750000Y-104975000D02*
X154880000Y-103105000D01*
%TO.N,Net-(C48-Pad2)*%
X156700000Y-106375000D02*
X156750000Y-106425000D01*
X156625000Y-106425000D02*
X155940000Y-105740000D01*
X155940000Y-105740000D02*
X155940000Y-105540000D01*
X156750000Y-106425000D02*
X156625000Y-106425000D01*
%TO.N,Net-(C48-Pad1)*%
X155940000Y-104900000D02*
X155940000Y-104840000D01*
X155600000Y-104500000D02*
X153815000Y-104500000D01*
X155940000Y-104840000D02*
X155600000Y-104500000D01*
%TO.N,+3.3VA*%
X163575000Y-103005000D02*
X163575000Y-102500000D01*
X164350000Y-103780000D02*
X163575000Y-103005000D01*
D27*
X166500000Y-107000000D02*
X165725010Y-107774990D01*
X165050000Y-107000000D02*
X164275010Y-107774990D01*
D26*
X165540000Y-97350000D02*
X166140000Y-96750000D01*
X164725000Y-97350000D02*
X165540000Y-97350000D01*
D27*
X165050000Y-107000000D02*
X166500000Y-107000000D01*
X166500000Y-106200000D02*
X167100000Y-105600000D01*
X166500000Y-107000000D02*
X166500000Y-106200000D01*
D26*
%TO.N,Net-(L10-Pad1)*%
X153450000Y-99000000D02*
X154210000Y-99000000D01*
%TO.N,/WP*%
X154750000Y-94550000D02*
X154510000Y-94550000D01*
X154946776Y-94570000D02*
X154500000Y-94570000D01*
X156000000Y-95623224D02*
X154946776Y-94570000D01*
X156000000Y-95800000D02*
X156000000Y-95623224D01*
%TO.N,/SCL*%
X156400000Y-94580000D02*
X156390000Y-94570000D01*
X156400000Y-95800000D02*
X156400000Y-94580000D01*
%TO.N,/SDA*%
X156400000Y-96200000D02*
X157410000Y-96200000D01*
%TD*%
D28*
%TO.N,GND*%
G36*
X152441893Y-99456353D02*
G01*
X152515989Y-99495958D01*
X152596388Y-99520347D01*
X152680000Y-99528582D01*
X152940000Y-99528582D01*
X153023612Y-99520347D01*
X153104011Y-99495958D01*
X153130000Y-99482067D01*
X153155989Y-99495958D01*
X153236388Y-99520347D01*
X153320000Y-99528582D01*
X153580000Y-99528582D01*
X153663612Y-99520347D01*
X153744011Y-99495958D01*
X153818107Y-99456353D01*
X153830000Y-99446593D01*
X153841893Y-99456353D01*
X153915989Y-99495958D01*
X153996388Y-99520347D01*
X154080000Y-99528582D01*
X154340000Y-99528582D01*
X154358633Y-99526747D01*
X154351418Y-99600000D01*
X154351418Y-99860000D01*
X154359653Y-99943612D01*
X154384042Y-100024011D01*
X154397933Y-100050000D01*
X154384042Y-100075989D01*
X154359653Y-100156388D01*
X154351418Y-100240000D01*
X154351418Y-100500000D01*
X154359653Y-100583612D01*
X154384042Y-100664011D01*
X154423647Y-100738107D01*
X154453001Y-100773875D01*
X154453000Y-103084033D01*
X154450935Y-103105000D01*
X154453000Y-103125967D01*
X154453000Y-103125977D01*
X154459178Y-103188706D01*
X154483595Y-103269195D01*
X154500409Y-103300652D01*
X154523245Y-103343376D01*
X154563062Y-103391893D01*
X154576605Y-103408395D01*
X154592900Y-103421768D01*
X155244131Y-104073000D01*
X154668582Y-104073000D01*
X154668582Y-104000000D01*
X154662268Y-103935897D01*
X154643570Y-103874257D01*
X154613206Y-103817450D01*
X154572343Y-103767657D01*
X154522550Y-103726794D01*
X154465743Y-103696430D01*
X154404103Y-103677732D01*
X154340000Y-103671418D01*
X154016114Y-103671418D01*
X154028072Y-103550000D01*
X154025000Y-103310750D01*
X153866250Y-103152000D01*
X152417000Y-103152000D01*
X152417000Y-104026250D01*
X152575750Y-104185000D01*
X152961418Y-104186455D01*
X152961418Y-104813545D01*
X152575750Y-104815000D01*
X152417000Y-104973750D01*
X152417000Y-105848000D01*
X153866250Y-105848000D01*
X154025000Y-105689250D01*
X154028072Y-105450000D01*
X154016114Y-105328582D01*
X154340000Y-105328582D01*
X154404103Y-105322268D01*
X154465743Y-105303570D01*
X154522550Y-105273206D01*
X154572343Y-105232343D01*
X154613206Y-105182550D01*
X154643570Y-105125743D01*
X154662268Y-105064103D01*
X154668582Y-105000000D01*
X154668582Y-104927000D01*
X155411418Y-104927000D01*
X155411418Y-105030000D01*
X155419653Y-105113612D01*
X155444042Y-105194011D01*
X155457933Y-105220000D01*
X155444042Y-105245989D01*
X155419653Y-105326388D01*
X155411418Y-105410000D01*
X155411418Y-105670000D01*
X155419653Y-105753612D01*
X155444042Y-105834011D01*
X155483647Y-105908107D01*
X155536947Y-105973053D01*
X155601893Y-106026353D01*
X155641888Y-106047731D01*
X155652900Y-106056768D01*
X156067549Y-106471418D01*
X155050000Y-106471418D01*
X154985897Y-106477732D01*
X154924257Y-106496430D01*
X154867450Y-106526794D01*
X154817657Y-106567657D01*
X154776794Y-106617450D01*
X154746430Y-106674257D01*
X154727732Y-106735897D01*
X154721418Y-106800000D01*
X154721418Y-106865122D01*
X153912194Y-106864660D01*
X153920537Y-106854494D01*
X153979502Y-106744180D01*
X154015812Y-106624482D01*
X154028072Y-106500000D01*
X154025000Y-106260750D01*
X153866250Y-106102000D01*
X152417000Y-106102000D01*
X152417000Y-106122000D01*
X152163000Y-106122000D01*
X152163000Y-106102000D01*
X152143000Y-106102000D01*
X152143000Y-105848000D01*
X152163000Y-105848000D01*
X152163000Y-104973750D01*
X152004250Y-104815000D01*
X151190000Y-104811928D01*
X151135161Y-104817329D01*
X151134624Y-104182618D01*
X151190000Y-104188072D01*
X152004250Y-104185000D01*
X152163000Y-104026250D01*
X152163000Y-103152000D01*
X152143000Y-103152000D01*
X152143000Y-102898000D01*
X152163000Y-102898000D01*
X152163000Y-102409989D01*
X152181256Y-102397604D01*
X152198736Y-102379876D01*
X152212422Y-102359079D01*
X152221787Y-102336011D01*
X152227000Y-102300000D01*
X152227000Y-102023750D01*
X152417000Y-102023750D01*
X152417000Y-102898000D01*
X153866250Y-102898000D01*
X154025000Y-102739250D01*
X154028072Y-102500000D01*
X154015812Y-102375518D01*
X153979502Y-102255820D01*
X153920537Y-102145506D01*
X153841185Y-102048815D01*
X153744494Y-101969463D01*
X153634180Y-101910498D01*
X153514482Y-101874188D01*
X153390000Y-101861928D01*
X152575750Y-101865000D01*
X152417000Y-102023750D01*
X152227000Y-102023750D01*
X152227000Y-99427000D01*
X152406126Y-99427000D01*
X152441893Y-99456353D01*
G37*
X152441893Y-99456353D02*
X152515989Y-99495958D01*
X152596388Y-99520347D01*
X152680000Y-99528582D01*
X152940000Y-99528582D01*
X153023612Y-99520347D01*
X153104011Y-99495958D01*
X153130000Y-99482067D01*
X153155989Y-99495958D01*
X153236388Y-99520347D01*
X153320000Y-99528582D01*
X153580000Y-99528582D01*
X153663612Y-99520347D01*
X153744011Y-99495958D01*
X153818107Y-99456353D01*
X153830000Y-99446593D01*
X153841893Y-99456353D01*
X153915989Y-99495958D01*
X153996388Y-99520347D01*
X154080000Y-99528582D01*
X154340000Y-99528582D01*
X154358633Y-99526747D01*
X154351418Y-99600000D01*
X154351418Y-99860000D01*
X154359653Y-99943612D01*
X154384042Y-100024011D01*
X154397933Y-100050000D01*
X154384042Y-100075989D01*
X154359653Y-100156388D01*
X154351418Y-100240000D01*
X154351418Y-100500000D01*
X154359653Y-100583612D01*
X154384042Y-100664011D01*
X154423647Y-100738107D01*
X154453001Y-100773875D01*
X154453000Y-103084033D01*
X154450935Y-103105000D01*
X154453000Y-103125967D01*
X154453000Y-103125977D01*
X154459178Y-103188706D01*
X154483595Y-103269195D01*
X154500409Y-103300652D01*
X154523245Y-103343376D01*
X154563062Y-103391893D01*
X154576605Y-103408395D01*
X154592900Y-103421768D01*
X155244131Y-104073000D01*
X154668582Y-104073000D01*
X154668582Y-104000000D01*
X154662268Y-103935897D01*
X154643570Y-103874257D01*
X154613206Y-103817450D01*
X154572343Y-103767657D01*
X154522550Y-103726794D01*
X154465743Y-103696430D01*
X154404103Y-103677732D01*
X154340000Y-103671418D01*
X154016114Y-103671418D01*
X154028072Y-103550000D01*
X154025000Y-103310750D01*
X153866250Y-103152000D01*
X152417000Y-103152000D01*
X152417000Y-104026250D01*
X152575750Y-104185000D01*
X152961418Y-104186455D01*
X152961418Y-104813545D01*
X152575750Y-104815000D01*
X152417000Y-104973750D01*
X152417000Y-105848000D01*
X153866250Y-105848000D01*
X154025000Y-105689250D01*
X154028072Y-105450000D01*
X154016114Y-105328582D01*
X154340000Y-105328582D01*
X154404103Y-105322268D01*
X154465743Y-105303570D01*
X154522550Y-105273206D01*
X154572343Y-105232343D01*
X154613206Y-105182550D01*
X154643570Y-105125743D01*
X154662268Y-105064103D01*
X154668582Y-105000000D01*
X154668582Y-104927000D01*
X155411418Y-104927000D01*
X155411418Y-105030000D01*
X155419653Y-105113612D01*
X155444042Y-105194011D01*
X155457933Y-105220000D01*
X155444042Y-105245989D01*
X155419653Y-105326388D01*
X155411418Y-105410000D01*
X155411418Y-105670000D01*
X155419653Y-105753612D01*
X155444042Y-105834011D01*
X155483647Y-105908107D01*
X155536947Y-105973053D01*
X155601893Y-106026353D01*
X155641888Y-106047731D01*
X155652900Y-106056768D01*
X156067549Y-106471418D01*
X155050000Y-106471418D01*
X154985897Y-106477732D01*
X154924257Y-106496430D01*
X154867450Y-106526794D01*
X154817657Y-106567657D01*
X154776794Y-106617450D01*
X154746430Y-106674257D01*
X154727732Y-106735897D01*
X154721418Y-106800000D01*
X154721418Y-106865122D01*
X153912194Y-106864660D01*
X153920537Y-106854494D01*
X153979502Y-106744180D01*
X154015812Y-106624482D01*
X154028072Y-106500000D01*
X154025000Y-106260750D01*
X153866250Y-106102000D01*
X152417000Y-106102000D01*
X152417000Y-106122000D01*
X152163000Y-106122000D01*
X152163000Y-106102000D01*
X152143000Y-106102000D01*
X152143000Y-105848000D01*
X152163000Y-105848000D01*
X152163000Y-104973750D01*
X152004250Y-104815000D01*
X151190000Y-104811928D01*
X151135161Y-104817329D01*
X151134624Y-104182618D01*
X151190000Y-104188072D01*
X152004250Y-104185000D01*
X152163000Y-104026250D01*
X152163000Y-103152000D01*
X152143000Y-103152000D01*
X152143000Y-102898000D01*
X152163000Y-102898000D01*
X152163000Y-102409989D01*
X152181256Y-102397604D01*
X152198736Y-102379876D01*
X152212422Y-102359079D01*
X152221787Y-102336011D01*
X152227000Y-102300000D01*
X152227000Y-102023750D01*
X152417000Y-102023750D01*
X152417000Y-102898000D01*
X153866250Y-102898000D01*
X154025000Y-102739250D01*
X154028072Y-102500000D01*
X154015812Y-102375518D01*
X153979502Y-102255820D01*
X153920537Y-102145506D01*
X153841185Y-102048815D01*
X153744494Y-101969463D01*
X153634180Y-101910498D01*
X153514482Y-101874188D01*
X153390000Y-101861928D01*
X152575750Y-101865000D01*
X152417000Y-102023750D01*
X152227000Y-102023750D01*
X152227000Y-99427000D01*
X152406126Y-99427000D01*
X152441893Y-99456353D01*
G36*
X165362990Y-102181858D02*
G01*
X165362990Y-102339023D01*
X165360925Y-102359990D01*
X165362990Y-102380957D01*
X165362990Y-102380968D01*
X165369168Y-102443697D01*
X165385032Y-102495989D01*
X165393586Y-102524186D01*
X165433235Y-102598366D01*
X165473222Y-102647090D01*
X165473227Y-102647095D01*
X165486596Y-102663385D01*
X165502885Y-102676753D01*
X165671418Y-102845286D01*
X165671418Y-102900000D01*
X165679653Y-102983612D01*
X165704042Y-103064011D01*
X165743647Y-103138107D01*
X165796947Y-103203053D01*
X165861893Y-103256353D01*
X165935989Y-103295958D01*
X166016388Y-103320347D01*
X166096198Y-103328208D01*
X166119960Y-103369722D01*
X166202081Y-103464072D01*
X166250969Y-103501876D01*
X166235498Y-103530820D01*
X166199188Y-103650518D01*
X166186928Y-103775000D01*
X166190000Y-103926750D01*
X166348750Y-104085500D01*
X167173000Y-104085500D01*
X167173000Y-104065500D01*
X167427000Y-104065500D01*
X167427000Y-104085500D01*
X167447000Y-104085500D01*
X167447000Y-104339500D01*
X167427000Y-104339500D01*
X167427000Y-104359500D01*
X167173000Y-104359500D01*
X167173000Y-104339500D01*
X166348750Y-104339500D01*
X166255470Y-104432780D01*
X166196991Y-104403669D01*
X166076291Y-104370843D01*
X166001750Y-104365000D01*
X165843000Y-104523750D01*
X165843000Y-105127000D01*
X165887000Y-105127000D01*
X165887000Y-105273000D01*
X165843000Y-105273000D01*
X165843000Y-105876250D01*
X165898000Y-105931250D01*
X165898000Y-106173000D01*
X165922869Y-106173000D01*
X165920210Y-106200000D01*
X165923000Y-106228331D01*
X165923000Y-106319000D01*
X165898000Y-106319000D01*
X165898000Y-106393000D01*
X165708953Y-106393000D01*
X165713582Y-106346000D01*
X165713582Y-106146000D01*
X165705347Y-106062388D01*
X165692000Y-106018389D01*
X165692000Y-105569750D01*
X165637000Y-105514750D01*
X165637000Y-105427611D01*
X165650347Y-105383612D01*
X165658582Y-105300000D01*
X165658582Y-105100000D01*
X165650347Y-105016388D01*
X165637000Y-104972389D01*
X165637000Y-104523750D01*
X165578582Y-104465332D01*
X165578582Y-104290000D01*
X165570347Y-104206388D01*
X165545958Y-104125989D01*
X165532067Y-104100000D01*
X165545958Y-104074011D01*
X165570347Y-103993612D01*
X165578582Y-103910000D01*
X165578582Y-103650000D01*
X165570347Y-103566388D01*
X165545958Y-103485989D01*
X165506353Y-103411893D01*
X165453053Y-103346947D01*
X165428016Y-103326400D01*
X165406756Y-103286624D01*
X165366768Y-103237899D01*
X165366764Y-103237895D01*
X165353395Y-103221605D01*
X165337105Y-103208236D01*
X164528582Y-102399714D01*
X164528582Y-102328582D01*
X165075000Y-102328582D01*
X165139103Y-102322268D01*
X165200743Y-102303570D01*
X165257550Y-102273206D01*
X165307343Y-102232343D01*
X165348206Y-102182550D01*
X165353597Y-102172464D01*
X165362990Y-102181858D01*
G37*
X165362990Y-102181858D02*
X165362990Y-102339023D01*
X165360925Y-102359990D01*
X165362990Y-102380957D01*
X165362990Y-102380968D01*
X165369168Y-102443697D01*
X165385032Y-102495989D01*
X165393586Y-102524186D01*
X165433235Y-102598366D01*
X165473222Y-102647090D01*
X165473227Y-102647095D01*
X165486596Y-102663385D01*
X165502885Y-102676753D01*
X165671418Y-102845286D01*
X165671418Y-102900000D01*
X165679653Y-102983612D01*
X165704042Y-103064011D01*
X165743647Y-103138107D01*
X165796947Y-103203053D01*
X165861893Y-103256353D01*
X165935989Y-103295958D01*
X166016388Y-103320347D01*
X166096198Y-103328208D01*
X166119960Y-103369722D01*
X166202081Y-103464072D01*
X166250969Y-103501876D01*
X166235498Y-103530820D01*
X166199188Y-103650518D01*
X166186928Y-103775000D01*
X166190000Y-103926750D01*
X166348750Y-104085500D01*
X167173000Y-104085500D01*
X167173000Y-104065500D01*
X167427000Y-104065500D01*
X167427000Y-104085500D01*
X167447000Y-104085500D01*
X167447000Y-104339500D01*
X167427000Y-104339500D01*
X167427000Y-104359500D01*
X167173000Y-104359500D01*
X167173000Y-104339500D01*
X166348750Y-104339500D01*
X166255470Y-104432780D01*
X166196991Y-104403669D01*
X166076291Y-104370843D01*
X166001750Y-104365000D01*
X165843000Y-104523750D01*
X165843000Y-105127000D01*
X165887000Y-105127000D01*
X165887000Y-105273000D01*
X165843000Y-105273000D01*
X165843000Y-105876250D01*
X165898000Y-105931250D01*
X165898000Y-106173000D01*
X165922869Y-106173000D01*
X165920210Y-106200000D01*
X165923000Y-106228331D01*
X165923000Y-106319000D01*
X165898000Y-106319000D01*
X165898000Y-106393000D01*
X165708953Y-106393000D01*
X165713582Y-106346000D01*
X165713582Y-106146000D01*
X165705347Y-106062388D01*
X165692000Y-106018389D01*
X165692000Y-105569750D01*
X165637000Y-105514750D01*
X165637000Y-105427611D01*
X165650347Y-105383612D01*
X165658582Y-105300000D01*
X165658582Y-105100000D01*
X165650347Y-105016388D01*
X165637000Y-104972389D01*
X165637000Y-104523750D01*
X165578582Y-104465332D01*
X165578582Y-104290000D01*
X165570347Y-104206388D01*
X165545958Y-104125989D01*
X165532067Y-104100000D01*
X165545958Y-104074011D01*
X165570347Y-103993612D01*
X165578582Y-103910000D01*
X165578582Y-103650000D01*
X165570347Y-103566388D01*
X165545958Y-103485989D01*
X165506353Y-103411893D01*
X165453053Y-103346947D01*
X165428016Y-103326400D01*
X165406756Y-103286624D01*
X165366768Y-103237899D01*
X165366764Y-103237895D01*
X165353395Y-103221605D01*
X165337105Y-103208236D01*
X164528582Y-102399714D01*
X164528582Y-102328582D01*
X165075000Y-102328582D01*
X165139103Y-102322268D01*
X165200743Y-102303570D01*
X165257550Y-102273206D01*
X165307343Y-102232343D01*
X165348206Y-102182550D01*
X165353597Y-102172464D01*
X165362990Y-102181858D01*
G36*
X159497000Y-105129750D02*
G01*
X159423750Y-105203000D01*
X159423000Y-105203000D01*
X159423000Y-105203750D01*
X159403000Y-105223750D01*
X159403000Y-105827000D01*
X159443750Y-105827000D01*
X159447000Y-105830250D01*
X159447000Y-105973000D01*
X159403000Y-105973000D01*
X159403000Y-105998000D01*
X159218582Y-105998000D01*
X159218582Y-105864668D01*
X159277000Y-105806250D01*
X159277000Y-105203000D01*
X159203000Y-105203000D01*
X159203000Y-105013953D01*
X159250000Y-105018582D01*
X159450000Y-105018582D01*
X159497000Y-105013953D01*
X159497000Y-105129750D01*
G37*
X159497000Y-105129750D02*
X159423750Y-105203000D01*
X159423000Y-105203000D01*
X159423000Y-105203750D01*
X159403000Y-105223750D01*
X159403000Y-105827000D01*
X159443750Y-105827000D01*
X159447000Y-105830250D01*
X159447000Y-105973000D01*
X159403000Y-105973000D01*
X159403000Y-105998000D01*
X159218582Y-105998000D01*
X159218582Y-105864668D01*
X159277000Y-105806250D01*
X159277000Y-105203000D01*
X159203000Y-105203000D01*
X159203000Y-105013953D01*
X159250000Y-105018582D01*
X159450000Y-105018582D01*
X159497000Y-105013953D01*
X159497000Y-105129750D01*
G36*
X162204076Y-105396418D02*
G01*
X162152000Y-105396418D01*
X162152000Y-105389502D01*
X162207495Y-105389502D01*
X162204076Y-105396418D01*
G37*
X162204076Y-105396418D02*
X162152000Y-105396418D01*
X162152000Y-105389502D01*
X162207495Y-105389502D01*
X162204076Y-105396418D01*
G36*
X162115000Y-105348000D02*
G01*
X162090500Y-105348000D01*
X162090500Y-105277000D01*
X162115000Y-105277000D01*
X162115000Y-105348000D01*
G37*
X162115000Y-105348000D02*
X162090500Y-105348000D01*
X162090500Y-105277000D01*
X162115000Y-105277000D01*
X162115000Y-105348000D01*
G36*
X160831418Y-105100000D02*
G01*
X160831418Y-105300000D01*
X160836047Y-105347000D01*
X160647000Y-105347000D01*
X160647000Y-105273000D01*
X160603000Y-105273000D01*
X160603000Y-105127000D01*
X160647000Y-105127000D01*
X160647000Y-105053000D01*
X160836047Y-105053000D01*
X160831418Y-105100000D01*
G37*
X160831418Y-105100000D02*
X160831418Y-105300000D01*
X160836047Y-105347000D01*
X160647000Y-105347000D01*
X160647000Y-105273000D01*
X160603000Y-105273000D01*
X160603000Y-105127000D01*
X160647000Y-105127000D01*
X160647000Y-105053000D01*
X160836047Y-105053000D01*
X160831418Y-105100000D01*
G36*
X163673750Y-104317000D02*
G01*
X163693000Y-104317000D01*
X163693000Y-104377000D01*
X163693750Y-104377000D01*
X163839750Y-104523000D01*
X163673750Y-104523000D01*
X163599750Y-104597000D01*
X163503953Y-104597000D01*
X163508582Y-104550000D01*
X163508582Y-104350000D01*
X163503953Y-104303000D01*
X163659750Y-104303000D01*
X163673750Y-104317000D01*
G37*
X163673750Y-104317000D02*
X163693000Y-104317000D01*
X163693000Y-104377000D01*
X163693750Y-104377000D01*
X163839750Y-104523000D01*
X163673750Y-104523000D01*
X163599750Y-104597000D01*
X163503953Y-104597000D01*
X163508582Y-104550000D01*
X163508582Y-104350000D01*
X163503953Y-104303000D01*
X163659750Y-104303000D01*
X163673750Y-104317000D01*
G36*
X164497000Y-104523000D02*
G01*
X164423000Y-104523000D01*
X164423000Y-104567000D01*
X164340250Y-104567000D01*
X164296250Y-104523000D01*
X163948930Y-104523000D01*
X164046991Y-104496331D01*
X164158968Y-104440589D01*
X164241201Y-104377000D01*
X164296250Y-104377000D01*
X164334668Y-104338582D01*
X164450000Y-104338582D01*
X164497000Y-104333953D01*
X164497000Y-104523000D01*
G37*
X164497000Y-104523000D02*
X164423000Y-104523000D01*
X164423000Y-104567000D01*
X164340250Y-104567000D01*
X164296250Y-104523000D01*
X163948930Y-104523000D01*
X164046991Y-104496331D01*
X164158968Y-104440589D01*
X164241201Y-104377000D01*
X164296250Y-104377000D01*
X164334668Y-104338582D01*
X164450000Y-104338582D01*
X164497000Y-104333953D01*
X164497000Y-104523000D01*
G36*
X157675804Y-104096405D02*
G01*
X157753000Y-104119823D01*
X157753000Y-104147000D01*
X157797000Y-104147000D01*
X157797000Y-104293000D01*
X157753000Y-104293000D01*
X157753000Y-104367000D01*
X157563953Y-104367000D01*
X157568582Y-104320000D01*
X157568582Y-104120000D01*
X157563953Y-104073000D01*
X157632016Y-104073000D01*
X157675804Y-104096405D01*
G37*
X157675804Y-104096405D02*
X157753000Y-104119823D01*
X157753000Y-104147000D01*
X157797000Y-104147000D01*
X157797000Y-104293000D01*
X157753000Y-104293000D01*
X157753000Y-104367000D01*
X157563953Y-104367000D01*
X157568582Y-104320000D01*
X157568582Y-104120000D01*
X157563953Y-104073000D01*
X157632016Y-104073000D01*
X157675804Y-104096405D01*
G36*
X161533000Y-103627000D02*
G01*
X161577000Y-103627000D01*
X161577000Y-103644131D01*
X161374132Y-103847000D01*
X161343953Y-103847000D01*
X161348582Y-103800000D01*
X161348582Y-103600000D01*
X161343953Y-103553000D01*
X161533000Y-103553000D01*
X161533000Y-103627000D01*
G37*
X161533000Y-103627000D02*
X161577000Y-103627000D01*
X161577000Y-103644131D01*
X161374132Y-103847000D01*
X161343953Y-103847000D01*
X161348582Y-103800000D01*
X161348582Y-103600000D01*
X161343953Y-103553000D01*
X161533000Y-103553000D01*
X161533000Y-103627000D01*
G36*
X156427000Y-103583000D02*
G01*
X156353000Y-103583000D01*
X156353000Y-103627000D01*
X156207000Y-103627000D01*
X156207000Y-103583000D01*
X156133000Y-103583000D01*
X156133000Y-103393953D01*
X156180000Y-103398582D01*
X156380000Y-103398582D01*
X156427000Y-103393953D01*
X156427000Y-103583000D01*
G37*
X156427000Y-103583000D02*
X156353000Y-103583000D01*
X156353000Y-103627000D01*
X156207000Y-103627000D01*
X156207000Y-103583000D01*
X156133000Y-103583000D01*
X156133000Y-103393953D01*
X156180000Y-103398582D01*
X156380000Y-103398582D01*
X156427000Y-103393953D01*
X156427000Y-103583000D01*
G36*
X163581132Y-103615000D02*
G01*
X163508582Y-103615000D01*
X163508582Y-103600000D01*
X163503953Y-103553000D01*
X163519132Y-103553000D01*
X163581132Y-103615000D01*
G37*
X163581132Y-103615000D02*
X163508582Y-103615000D01*
X163508582Y-103600000D01*
X163503953Y-103553000D01*
X163519132Y-103553000D01*
X163581132Y-103615000D01*
G36*
X154007152Y-93638703D02*
G01*
X153989653Y-93696388D01*
X153981418Y-93780000D01*
X153981418Y-94040000D01*
X153989653Y-94123612D01*
X154014042Y-94204011D01*
X154027933Y-94230000D01*
X154014042Y-94255989D01*
X153989653Y-94336388D01*
X153981418Y-94420000D01*
X153981418Y-94475774D01*
X153973000Y-94518095D01*
X153973000Y-94621905D01*
X153981418Y-94664226D01*
X153981418Y-94680000D01*
X153989653Y-94763612D01*
X154014042Y-94844011D01*
X154053647Y-94918107D01*
X154106947Y-94983053D01*
X154171893Y-95036353D01*
X154245989Y-95075958D01*
X154326388Y-95100347D01*
X154410000Y-95108582D01*
X154610000Y-95108582D01*
X154693612Y-95100347D01*
X154774011Y-95075958D01*
X154822792Y-95049884D01*
X155055908Y-95283000D01*
X154898021Y-95283000D01*
X154893053Y-95276947D01*
X154828107Y-95223647D01*
X154754011Y-95184042D01*
X154673612Y-95159653D01*
X154590000Y-95151418D01*
X154390000Y-95151418D01*
X154306388Y-95159653D01*
X154225989Y-95184042D01*
X154151893Y-95223647D01*
X154086947Y-95276947D01*
X154033647Y-95341893D01*
X153994042Y-95415989D01*
X153969653Y-95496388D01*
X153961792Y-95576198D01*
X153920278Y-95599960D01*
X153825928Y-95682081D01*
X153749411Y-95781032D01*
X153693669Y-95893009D01*
X153660843Y-96013709D01*
X153655000Y-96088250D01*
X153813750Y-96247000D01*
X154262389Y-96247000D01*
X154306388Y-96260347D01*
X154390000Y-96268582D01*
X154590000Y-96268582D01*
X154637000Y-96263953D01*
X154637000Y-96453000D01*
X154563000Y-96453000D01*
X154563000Y-97056250D01*
X154721750Y-97215000D01*
X154832567Y-97201941D01*
X154951163Y-97162177D01*
X155059722Y-97100040D01*
X155154072Y-97017919D01*
X155230589Y-96918968D01*
X155251616Y-96876728D01*
X155280279Y-96893528D01*
X155421722Y-96942576D01*
X155570017Y-96963088D01*
X155719464Y-96954274D01*
X155797063Y-96934025D01*
X155821722Y-96942576D01*
X155970017Y-96963088D01*
X156119464Y-96954274D01*
X156264320Y-96916475D01*
X156399019Y-96851142D01*
X156448878Y-96817827D01*
X156430444Y-96652000D01*
X156444518Y-96652000D01*
X156516719Y-96637638D01*
X156617827Y-96648878D01*
X156630650Y-96627000D01*
X157040985Y-96627000D01*
X157073647Y-96688107D01*
X157126947Y-96753053D01*
X157191893Y-96806353D01*
X157265989Y-96845958D01*
X157346388Y-96870347D01*
X157430000Y-96878582D01*
X157630000Y-96878582D01*
X157713612Y-96870347D01*
X157794011Y-96845958D01*
X157868107Y-96806353D01*
X157933053Y-96753053D01*
X157986353Y-96688107D01*
X158025958Y-96614011D01*
X158050347Y-96533612D01*
X158058582Y-96450000D01*
X158058582Y-96190000D01*
X158050347Y-96106388D01*
X158025958Y-96025989D01*
X158012067Y-96000000D01*
X158025958Y-95974011D01*
X158050347Y-95893612D01*
X158058582Y-95810000D01*
X158058582Y-95591966D01*
X158071293Y-95595822D01*
X158134022Y-95602000D01*
X158134033Y-95602000D01*
X158155000Y-95604065D01*
X158175967Y-95602000D01*
X158501540Y-95602000D01*
X158502732Y-95614103D01*
X158521430Y-95675743D01*
X158551794Y-95732550D01*
X158592657Y-95782343D01*
X158642450Y-95823206D01*
X158699257Y-95853570D01*
X158760897Y-95872268D01*
X158825000Y-95878582D01*
X159349713Y-95878582D01*
X159467548Y-95996418D01*
X159400000Y-95996418D01*
X159335897Y-96002732D01*
X159274257Y-96021430D01*
X159217450Y-96051794D01*
X159167657Y-96092657D01*
X159126794Y-96142450D01*
X159096430Y-96199257D01*
X159077732Y-96260897D01*
X159071418Y-96325000D01*
X159071418Y-96458282D01*
X159043252Y-96526280D01*
X159023000Y-96628095D01*
X159023000Y-96731905D01*
X159043252Y-96833720D01*
X159052063Y-96854992D01*
X159023720Y-96843252D01*
X158921905Y-96823000D01*
X158818095Y-96823000D01*
X158716280Y-96843252D01*
X158648282Y-96871418D01*
X158525000Y-96871418D01*
X158460897Y-96877732D01*
X158399257Y-96896430D01*
X158342450Y-96926794D01*
X158292657Y-96967657D01*
X158251794Y-97017450D01*
X158221430Y-97074257D01*
X158202732Y-97135897D01*
X158196418Y-97200000D01*
X158196418Y-97248002D01*
X158161163Y-97227823D01*
X158042567Y-97188059D01*
X157931750Y-97175000D01*
X157773000Y-97333750D01*
X157773000Y-97937000D01*
X157847000Y-97937000D01*
X157847000Y-98126047D01*
X157800000Y-98121418D01*
X157600000Y-98121418D01*
X157516388Y-98129653D01*
X157472389Y-98143000D01*
X157023750Y-98143000D01*
X156865000Y-98301750D01*
X156870843Y-98376291D01*
X156903669Y-98496991D01*
X156959411Y-98608968D01*
X157035928Y-98707919D01*
X157130278Y-98790040D01*
X157171792Y-98813802D01*
X157179653Y-98893612D01*
X157204042Y-98974011D01*
X157243647Y-99048107D01*
X157274568Y-99085784D01*
X157208837Y-99107823D01*
X157100278Y-99169960D01*
X157005928Y-99252081D01*
X156929411Y-99351032D01*
X156873669Y-99463009D01*
X156840843Y-99583709D01*
X156835000Y-99658250D01*
X156993750Y-99817000D01*
X157597000Y-99817000D01*
X157597000Y-99773000D01*
X157743000Y-99773000D01*
X157743000Y-99817000D01*
X157817000Y-99817000D01*
X157817000Y-100006047D01*
X157770000Y-100001418D01*
X157570000Y-100001418D01*
X157486388Y-100009653D01*
X157442389Y-100023000D01*
X156993750Y-100023000D01*
X156835000Y-100181750D01*
X156840843Y-100256291D01*
X156873669Y-100376991D01*
X156929411Y-100488968D01*
X157005928Y-100587919D01*
X157100278Y-100670040D01*
X157141792Y-100693802D01*
X157149653Y-100773612D01*
X157174042Y-100854011D01*
X157213647Y-100928107D01*
X157266947Y-100993053D01*
X157331893Y-101046353D01*
X157405989Y-101085958D01*
X157486388Y-101110347D01*
X157570000Y-101118582D01*
X157628994Y-101118582D01*
X157647512Y-101137100D01*
X157660885Y-101153395D01*
X157677180Y-101166768D01*
X157725903Y-101206756D01*
X157800083Y-101246405D01*
X157818817Y-101252088D01*
X157880573Y-101270822D01*
X157943302Y-101277000D01*
X157943313Y-101277000D01*
X157964280Y-101279065D01*
X157985247Y-101277000D01*
X157998750Y-101277000D01*
X158048750Y-101327000D01*
X158508939Y-101327000D01*
X158525000Y-101328582D01*
X159022000Y-101328582D01*
X159022000Y-101352910D01*
X158921905Y-101333000D01*
X158818095Y-101333000D01*
X158716280Y-101353252D01*
X158672424Y-101371418D01*
X158525000Y-101371418D01*
X158508939Y-101373000D01*
X158048750Y-101373000D01*
X157890000Y-101531750D01*
X157898650Y-101607248D01*
X157873612Y-101599653D01*
X157790000Y-101591418D01*
X157590000Y-101591418D01*
X157506388Y-101599653D01*
X157425989Y-101624042D01*
X157351893Y-101663647D01*
X157335000Y-101677511D01*
X157318107Y-101663647D01*
X157244011Y-101624042D01*
X157163612Y-101599653D01*
X157080000Y-101591418D01*
X157004668Y-101591418D01*
X156946250Y-101533000D01*
X156497611Y-101533000D01*
X156453612Y-101519653D01*
X156370000Y-101511418D01*
X156170000Y-101511418D01*
X156086388Y-101519653D01*
X156042389Y-101533000D01*
X155593750Y-101533000D01*
X155435000Y-101691750D01*
X155440843Y-101766291D01*
X155473669Y-101886991D01*
X155529411Y-101998968D01*
X155605928Y-102097919D01*
X155700278Y-102180040D01*
X155741792Y-102203802D01*
X155749653Y-102283612D01*
X155774042Y-102364011D01*
X155813647Y-102438107D01*
X155832511Y-102461092D01*
X155823647Y-102471893D01*
X155784042Y-102545989D01*
X155759653Y-102626388D01*
X155751792Y-102706198D01*
X155710278Y-102729960D01*
X155615928Y-102812081D01*
X155539411Y-102911032D01*
X155483669Y-103023009D01*
X155466181Y-103087312D01*
X155307000Y-102928132D01*
X155307000Y-101168250D01*
X155435000Y-101168250D01*
X155593750Y-101327000D01*
X156197000Y-101327000D01*
X156197000Y-100723750D01*
X156343000Y-100723750D01*
X156343000Y-101327000D01*
X156946250Y-101327000D01*
X157105000Y-101168250D01*
X157099157Y-101093709D01*
X157066331Y-100973009D01*
X157010589Y-100861032D01*
X156934072Y-100762081D01*
X156839722Y-100679960D01*
X156731163Y-100617823D01*
X156612567Y-100578059D01*
X156501750Y-100565000D01*
X156343000Y-100723750D01*
X156197000Y-100723750D01*
X156038250Y-100565000D01*
X155927433Y-100578059D01*
X155808837Y-100617823D01*
X155700278Y-100679960D01*
X155605928Y-100762081D01*
X155529411Y-100861032D01*
X155473669Y-100973009D01*
X155440843Y-101093709D01*
X155435000Y-101168250D01*
X155307000Y-101168250D01*
X155307000Y-100773874D01*
X155336353Y-100738107D01*
X155375958Y-100664011D01*
X155400347Y-100583612D01*
X155408582Y-100500000D01*
X155408582Y-100240000D01*
X155400347Y-100156388D01*
X155375958Y-100075989D01*
X155362067Y-100050000D01*
X155375958Y-100024011D01*
X155400347Y-99943612D01*
X155408582Y-99860000D01*
X155408582Y-99600000D01*
X155400347Y-99516388D01*
X155375958Y-99435989D01*
X155336353Y-99361893D01*
X155326593Y-99350000D01*
X155336353Y-99338107D01*
X155375958Y-99264011D01*
X155400347Y-99183612D01*
X155408582Y-99100000D01*
X155408582Y-98900000D01*
X155400347Y-98816388D01*
X155375958Y-98735989D01*
X155336353Y-98661893D01*
X155326593Y-98650000D01*
X155336353Y-98638107D01*
X155375958Y-98564011D01*
X155400347Y-98483612D01*
X155408582Y-98400000D01*
X155408582Y-98200000D01*
X155400347Y-98116388D01*
X155375958Y-98035989D01*
X155336353Y-97961893D01*
X155283053Y-97896947D01*
X155218107Y-97843647D01*
X155144011Y-97804042D01*
X155063612Y-97779653D01*
X155049368Y-97778250D01*
X156865000Y-97778250D01*
X157023750Y-97937000D01*
X157627000Y-97937000D01*
X157627000Y-97333750D01*
X157468250Y-97175000D01*
X157357433Y-97188059D01*
X157238837Y-97227823D01*
X157130278Y-97289960D01*
X157035928Y-97372081D01*
X156959411Y-97471032D01*
X156903669Y-97583009D01*
X156870843Y-97703709D01*
X156865000Y-97778250D01*
X155049368Y-97778250D01*
X154983802Y-97771792D01*
X154960040Y-97730278D01*
X154877919Y-97635928D01*
X154778968Y-97559411D01*
X154666991Y-97503669D01*
X154546291Y-97470843D01*
X154471750Y-97465000D01*
X154313000Y-97623750D01*
X154313000Y-98072389D01*
X154299653Y-98116388D01*
X154291418Y-98200000D01*
X154291418Y-98400000D01*
X154296047Y-98447000D01*
X154107000Y-98447000D01*
X154107000Y-98373000D01*
X153503750Y-98373000D01*
X153405332Y-98471418D01*
X153320000Y-98471418D01*
X153236388Y-98479653D01*
X153155989Y-98504042D01*
X153130000Y-98517933D01*
X153104011Y-98504042D01*
X153023612Y-98479653D01*
X152940000Y-98471418D01*
X152680000Y-98471418D01*
X152596388Y-98479653D01*
X152515989Y-98504042D01*
X152441893Y-98543647D01*
X152406126Y-98573000D01*
X152227000Y-98573000D01*
X152227000Y-98068250D01*
X153345000Y-98068250D01*
X153503750Y-98227000D01*
X154107000Y-98227000D01*
X154107000Y-97623750D01*
X153948250Y-97465000D01*
X153873709Y-97470843D01*
X153753009Y-97503669D01*
X153641032Y-97559411D01*
X153542081Y-97635928D01*
X153459960Y-97730278D01*
X153397823Y-97838837D01*
X153358059Y-97957433D01*
X153345000Y-98068250D01*
X152227000Y-98068250D01*
X152227000Y-96611750D01*
X153655000Y-96611750D01*
X153660843Y-96686291D01*
X153693669Y-96806991D01*
X153749411Y-96918968D01*
X153825928Y-97017919D01*
X153920278Y-97100040D01*
X154028837Y-97162177D01*
X154147433Y-97201941D01*
X154258250Y-97215000D01*
X154417000Y-97056250D01*
X154417000Y-96453000D01*
X153813750Y-96453000D01*
X153655000Y-96611750D01*
X152227000Y-96611750D01*
X152227000Y-93627782D01*
X154007152Y-93638703D01*
G37*
X154007152Y-93638703D02*
X153989653Y-93696388D01*
X153981418Y-93780000D01*
X153981418Y-94040000D01*
X153989653Y-94123612D01*
X154014042Y-94204011D01*
X154027933Y-94230000D01*
X154014042Y-94255989D01*
X153989653Y-94336388D01*
X153981418Y-94420000D01*
X153981418Y-94475774D01*
X153973000Y-94518095D01*
X153973000Y-94621905D01*
X153981418Y-94664226D01*
X153981418Y-94680000D01*
X153989653Y-94763612D01*
X154014042Y-94844011D01*
X154053647Y-94918107D01*
X154106947Y-94983053D01*
X154171893Y-95036353D01*
X154245989Y-95075958D01*
X154326388Y-95100347D01*
X154410000Y-95108582D01*
X154610000Y-95108582D01*
X154693612Y-95100347D01*
X154774011Y-95075958D01*
X154822792Y-95049884D01*
X155055908Y-95283000D01*
X154898021Y-95283000D01*
X154893053Y-95276947D01*
X154828107Y-95223647D01*
X154754011Y-95184042D01*
X154673612Y-95159653D01*
X154590000Y-95151418D01*
X154390000Y-95151418D01*
X154306388Y-95159653D01*
X154225989Y-95184042D01*
X154151893Y-95223647D01*
X154086947Y-95276947D01*
X154033647Y-95341893D01*
X153994042Y-95415989D01*
X153969653Y-95496388D01*
X153961792Y-95576198D01*
X153920278Y-95599960D01*
X153825928Y-95682081D01*
X153749411Y-95781032D01*
X153693669Y-95893009D01*
X153660843Y-96013709D01*
X153655000Y-96088250D01*
X153813750Y-96247000D01*
X154262389Y-96247000D01*
X154306388Y-96260347D01*
X154390000Y-96268582D01*
X154590000Y-96268582D01*
X154637000Y-96263953D01*
X154637000Y-96453000D01*
X154563000Y-96453000D01*
X154563000Y-97056250D01*
X154721750Y-97215000D01*
X154832567Y-97201941D01*
X154951163Y-97162177D01*
X155059722Y-97100040D01*
X155154072Y-97017919D01*
X155230589Y-96918968D01*
X155251616Y-96876728D01*
X155280279Y-96893528D01*
X155421722Y-96942576D01*
X155570017Y-96963088D01*
X155719464Y-96954274D01*
X155797063Y-96934025D01*
X155821722Y-96942576D01*
X155970017Y-96963088D01*
X156119464Y-96954274D01*
X156264320Y-96916475D01*
X156399019Y-96851142D01*
X156448878Y-96817827D01*
X156430444Y-96652000D01*
X156444518Y-96652000D01*
X156516719Y-96637638D01*
X156617827Y-96648878D01*
X156630650Y-96627000D01*
X157040985Y-96627000D01*
X157073647Y-96688107D01*
X157126947Y-96753053D01*
X157191893Y-96806353D01*
X157265989Y-96845958D01*
X157346388Y-96870347D01*
X157430000Y-96878582D01*
X157630000Y-96878582D01*
X157713612Y-96870347D01*
X157794011Y-96845958D01*
X157868107Y-96806353D01*
X157933053Y-96753053D01*
X157986353Y-96688107D01*
X158025958Y-96614011D01*
X158050347Y-96533612D01*
X158058582Y-96450000D01*
X158058582Y-96190000D01*
X158050347Y-96106388D01*
X158025958Y-96025989D01*
X158012067Y-96000000D01*
X158025958Y-95974011D01*
X158050347Y-95893612D01*
X158058582Y-95810000D01*
X158058582Y-95591966D01*
X158071293Y-95595822D01*
X158134022Y-95602000D01*
X158134033Y-95602000D01*
X158155000Y-95604065D01*
X158175967Y-95602000D01*
X158501540Y-95602000D01*
X158502732Y-95614103D01*
X158521430Y-95675743D01*
X158551794Y-95732550D01*
X158592657Y-95782343D01*
X158642450Y-95823206D01*
X158699257Y-95853570D01*
X158760897Y-95872268D01*
X158825000Y-95878582D01*
X159349713Y-95878582D01*
X159467548Y-95996418D01*
X159400000Y-95996418D01*
X159335897Y-96002732D01*
X159274257Y-96021430D01*
X159217450Y-96051794D01*
X159167657Y-96092657D01*
X159126794Y-96142450D01*
X159096430Y-96199257D01*
X159077732Y-96260897D01*
X159071418Y-96325000D01*
X159071418Y-96458282D01*
X159043252Y-96526280D01*
X159023000Y-96628095D01*
X159023000Y-96731905D01*
X159043252Y-96833720D01*
X159052063Y-96854992D01*
X159023720Y-96843252D01*
X158921905Y-96823000D01*
X158818095Y-96823000D01*
X158716280Y-96843252D01*
X158648282Y-96871418D01*
X158525000Y-96871418D01*
X158460897Y-96877732D01*
X158399257Y-96896430D01*
X158342450Y-96926794D01*
X158292657Y-96967657D01*
X158251794Y-97017450D01*
X158221430Y-97074257D01*
X158202732Y-97135897D01*
X158196418Y-97200000D01*
X158196418Y-97248002D01*
X158161163Y-97227823D01*
X158042567Y-97188059D01*
X157931750Y-97175000D01*
X157773000Y-97333750D01*
X157773000Y-97937000D01*
X157847000Y-97937000D01*
X157847000Y-98126047D01*
X157800000Y-98121418D01*
X157600000Y-98121418D01*
X157516388Y-98129653D01*
X157472389Y-98143000D01*
X157023750Y-98143000D01*
X156865000Y-98301750D01*
X156870843Y-98376291D01*
X156903669Y-98496991D01*
X156959411Y-98608968D01*
X157035928Y-98707919D01*
X157130278Y-98790040D01*
X157171792Y-98813802D01*
X157179653Y-98893612D01*
X157204042Y-98974011D01*
X157243647Y-99048107D01*
X157274568Y-99085784D01*
X157208837Y-99107823D01*
X157100278Y-99169960D01*
X157005928Y-99252081D01*
X156929411Y-99351032D01*
X156873669Y-99463009D01*
X156840843Y-99583709D01*
X156835000Y-99658250D01*
X156993750Y-99817000D01*
X157597000Y-99817000D01*
X157597000Y-99773000D01*
X157743000Y-99773000D01*
X157743000Y-99817000D01*
X157817000Y-99817000D01*
X157817000Y-100006047D01*
X157770000Y-100001418D01*
X157570000Y-100001418D01*
X157486388Y-100009653D01*
X157442389Y-100023000D01*
X156993750Y-100023000D01*
X156835000Y-100181750D01*
X156840843Y-100256291D01*
X156873669Y-100376991D01*
X156929411Y-100488968D01*
X157005928Y-100587919D01*
X157100278Y-100670040D01*
X157141792Y-100693802D01*
X157149653Y-100773612D01*
X157174042Y-100854011D01*
X157213647Y-100928107D01*
X157266947Y-100993053D01*
X157331893Y-101046353D01*
X157405989Y-101085958D01*
X157486388Y-101110347D01*
X157570000Y-101118582D01*
X157628994Y-101118582D01*
X157647512Y-101137100D01*
X157660885Y-101153395D01*
X157677180Y-101166768D01*
X157725903Y-101206756D01*
X157800083Y-101246405D01*
X157818817Y-101252088D01*
X157880573Y-101270822D01*
X157943302Y-101277000D01*
X157943313Y-101277000D01*
X157964280Y-101279065D01*
X157985247Y-101277000D01*
X157998750Y-101277000D01*
X158048750Y-101327000D01*
X158508939Y-101327000D01*
X158525000Y-101328582D01*
X159022000Y-101328582D01*
X159022000Y-101352910D01*
X158921905Y-101333000D01*
X158818095Y-101333000D01*
X158716280Y-101353252D01*
X158672424Y-101371418D01*
X158525000Y-101371418D01*
X158508939Y-101373000D01*
X158048750Y-101373000D01*
X157890000Y-101531750D01*
X157898650Y-101607248D01*
X157873612Y-101599653D01*
X157790000Y-101591418D01*
X157590000Y-101591418D01*
X157506388Y-101599653D01*
X157425989Y-101624042D01*
X157351893Y-101663647D01*
X157335000Y-101677511D01*
X157318107Y-101663647D01*
X157244011Y-101624042D01*
X157163612Y-101599653D01*
X157080000Y-101591418D01*
X157004668Y-101591418D01*
X156946250Y-101533000D01*
X156497611Y-101533000D01*
X156453612Y-101519653D01*
X156370000Y-101511418D01*
X156170000Y-101511418D01*
X156086388Y-101519653D01*
X156042389Y-101533000D01*
X155593750Y-101533000D01*
X155435000Y-101691750D01*
X155440843Y-101766291D01*
X155473669Y-101886991D01*
X155529411Y-101998968D01*
X155605928Y-102097919D01*
X155700278Y-102180040D01*
X155741792Y-102203802D01*
X155749653Y-102283612D01*
X155774042Y-102364011D01*
X155813647Y-102438107D01*
X155832511Y-102461092D01*
X155823647Y-102471893D01*
X155784042Y-102545989D01*
X155759653Y-102626388D01*
X155751792Y-102706198D01*
X155710278Y-102729960D01*
X155615928Y-102812081D01*
X155539411Y-102911032D01*
X155483669Y-103023009D01*
X155466181Y-103087312D01*
X155307000Y-102928132D01*
X155307000Y-101168250D01*
X155435000Y-101168250D01*
X155593750Y-101327000D01*
X156197000Y-101327000D01*
X156197000Y-100723750D01*
X156343000Y-100723750D01*
X156343000Y-101327000D01*
X156946250Y-101327000D01*
X157105000Y-101168250D01*
X157099157Y-101093709D01*
X157066331Y-100973009D01*
X157010589Y-100861032D01*
X156934072Y-100762081D01*
X156839722Y-100679960D01*
X156731163Y-100617823D01*
X156612567Y-100578059D01*
X156501750Y-100565000D01*
X156343000Y-100723750D01*
X156197000Y-100723750D01*
X156038250Y-100565000D01*
X155927433Y-100578059D01*
X155808837Y-100617823D01*
X155700278Y-100679960D01*
X155605928Y-100762081D01*
X155529411Y-100861032D01*
X155473669Y-100973009D01*
X155440843Y-101093709D01*
X155435000Y-101168250D01*
X155307000Y-101168250D01*
X155307000Y-100773874D01*
X155336353Y-100738107D01*
X155375958Y-100664011D01*
X155400347Y-100583612D01*
X155408582Y-100500000D01*
X155408582Y-100240000D01*
X155400347Y-100156388D01*
X155375958Y-100075989D01*
X155362067Y-100050000D01*
X155375958Y-100024011D01*
X155400347Y-99943612D01*
X155408582Y-99860000D01*
X155408582Y-99600000D01*
X155400347Y-99516388D01*
X155375958Y-99435989D01*
X155336353Y-99361893D01*
X155326593Y-99350000D01*
X155336353Y-99338107D01*
X155375958Y-99264011D01*
X155400347Y-99183612D01*
X155408582Y-99100000D01*
X155408582Y-98900000D01*
X155400347Y-98816388D01*
X155375958Y-98735989D01*
X155336353Y-98661893D01*
X155326593Y-98650000D01*
X155336353Y-98638107D01*
X155375958Y-98564011D01*
X155400347Y-98483612D01*
X155408582Y-98400000D01*
X155408582Y-98200000D01*
X155400347Y-98116388D01*
X155375958Y-98035989D01*
X155336353Y-97961893D01*
X155283053Y-97896947D01*
X155218107Y-97843647D01*
X155144011Y-97804042D01*
X155063612Y-97779653D01*
X155049368Y-97778250D01*
X156865000Y-97778250D01*
X157023750Y-97937000D01*
X157627000Y-97937000D01*
X157627000Y-97333750D01*
X157468250Y-97175000D01*
X157357433Y-97188059D01*
X157238837Y-97227823D01*
X157130278Y-97289960D01*
X157035928Y-97372081D01*
X156959411Y-97471032D01*
X156903669Y-97583009D01*
X156870843Y-97703709D01*
X156865000Y-97778250D01*
X155049368Y-97778250D01*
X154983802Y-97771792D01*
X154960040Y-97730278D01*
X154877919Y-97635928D01*
X154778968Y-97559411D01*
X154666991Y-97503669D01*
X154546291Y-97470843D01*
X154471750Y-97465000D01*
X154313000Y-97623750D01*
X154313000Y-98072389D01*
X154299653Y-98116388D01*
X154291418Y-98200000D01*
X154291418Y-98400000D01*
X154296047Y-98447000D01*
X154107000Y-98447000D01*
X154107000Y-98373000D01*
X153503750Y-98373000D01*
X153405332Y-98471418D01*
X153320000Y-98471418D01*
X153236388Y-98479653D01*
X153155989Y-98504042D01*
X153130000Y-98517933D01*
X153104011Y-98504042D01*
X153023612Y-98479653D01*
X152940000Y-98471418D01*
X152680000Y-98471418D01*
X152596388Y-98479653D01*
X152515989Y-98504042D01*
X152441893Y-98543647D01*
X152406126Y-98573000D01*
X152227000Y-98573000D01*
X152227000Y-98068250D01*
X153345000Y-98068250D01*
X153503750Y-98227000D01*
X154107000Y-98227000D01*
X154107000Y-97623750D01*
X153948250Y-97465000D01*
X153873709Y-97470843D01*
X153753009Y-97503669D01*
X153641032Y-97559411D01*
X153542081Y-97635928D01*
X153459960Y-97730278D01*
X153397823Y-97838837D01*
X153358059Y-97957433D01*
X153345000Y-98068250D01*
X152227000Y-98068250D01*
X152227000Y-96611750D01*
X153655000Y-96611750D01*
X153660843Y-96686291D01*
X153693669Y-96806991D01*
X153749411Y-96918968D01*
X153825928Y-97017919D01*
X153920278Y-97100040D01*
X154028837Y-97162177D01*
X154147433Y-97201941D01*
X154258250Y-97215000D01*
X154417000Y-97056250D01*
X154417000Y-96453000D01*
X153813750Y-96453000D01*
X153655000Y-96611750D01*
X152227000Y-96611750D01*
X152227000Y-93627782D01*
X154007152Y-93638703D01*
G36*
X166973000Y-102723750D02*
G01*
X166815000Y-102881750D01*
X166820115Y-102947000D01*
X166783953Y-102947000D01*
X166788582Y-102900000D01*
X166788582Y-102700000D01*
X166783953Y-102653000D01*
X166973000Y-102653000D01*
X166973000Y-102723750D01*
G37*
X166973000Y-102723750D02*
X166815000Y-102881750D01*
X166820115Y-102947000D01*
X166783953Y-102947000D01*
X166788582Y-102900000D01*
X166788582Y-102700000D01*
X166783953Y-102653000D01*
X166973000Y-102653000D01*
X166973000Y-102723750D01*
G36*
X167797000Y-102723000D02*
G01*
X167735000Y-102723000D01*
X167735000Y-102672998D01*
X167630252Y-102672998D01*
X167735000Y-102568250D01*
X167731504Y-102538582D01*
X167750000Y-102538582D01*
X167797000Y-102533953D01*
X167797000Y-102723000D01*
G37*
X167797000Y-102723000D02*
X167735000Y-102723000D01*
X167735000Y-102672998D01*
X167630252Y-102672998D01*
X167735000Y-102568250D01*
X167731504Y-102538582D01*
X167750000Y-102538582D01*
X167797000Y-102533953D01*
X167797000Y-102723000D01*
G36*
X168335533Y-101979834D02*
G01*
X168314072Y-101952081D01*
X168219722Y-101869960D01*
X168178208Y-101846198D01*
X168170347Y-101766388D01*
X168145958Y-101685989D01*
X168106353Y-101611893D01*
X168053053Y-101546947D01*
X167988107Y-101493647D01*
X167914011Y-101454042D01*
X167833612Y-101429653D01*
X167750000Y-101421418D01*
X167624668Y-101421418D01*
X167576250Y-101373000D01*
X167373859Y-101373000D01*
X167438968Y-101340589D01*
X167537919Y-101264072D01*
X167570186Y-101227000D01*
X167576250Y-101227000D01*
X167735000Y-101068250D01*
X167721941Y-100957433D01*
X167719449Y-100950000D01*
X167721941Y-100942567D01*
X167735000Y-100831750D01*
X167576250Y-100673000D01*
X167570186Y-100673000D01*
X167537919Y-100635928D01*
X167438968Y-100559411D01*
X167373859Y-100527000D01*
X167576250Y-100527000D01*
X167735000Y-100368250D01*
X167721941Y-100257433D01*
X167682177Y-100138837D01*
X167620040Y-100030278D01*
X167537919Y-99935928D01*
X167438968Y-99859411D01*
X167378582Y-99829351D01*
X167378582Y-99690000D01*
X167370347Y-99606388D01*
X167345958Y-99525989D01*
X167332067Y-99500000D01*
X167345958Y-99474011D01*
X167370347Y-99393612D01*
X167378582Y-99310000D01*
X167378582Y-99050000D01*
X167370780Y-98970780D01*
X167450000Y-98978582D01*
X167650000Y-98978582D01*
X167733612Y-98970347D01*
X167814011Y-98945958D01*
X167888107Y-98906353D01*
X167953053Y-98853053D01*
X168006353Y-98788107D01*
X168045958Y-98714011D01*
X168070347Y-98633612D01*
X168078208Y-98553802D01*
X168119722Y-98530040D01*
X168214072Y-98447919D01*
X168290589Y-98348968D01*
X168308174Y-98313643D01*
X168335533Y-101979834D01*
G37*
X168335533Y-101979834D02*
X168314072Y-101952081D01*
X168219722Y-101869960D01*
X168178208Y-101846198D01*
X168170347Y-101766388D01*
X168145958Y-101685989D01*
X168106353Y-101611893D01*
X168053053Y-101546947D01*
X167988107Y-101493647D01*
X167914011Y-101454042D01*
X167833612Y-101429653D01*
X167750000Y-101421418D01*
X167624668Y-101421418D01*
X167576250Y-101373000D01*
X167373859Y-101373000D01*
X167438968Y-101340589D01*
X167537919Y-101264072D01*
X167570186Y-101227000D01*
X167576250Y-101227000D01*
X167735000Y-101068250D01*
X167721941Y-100957433D01*
X167719449Y-100950000D01*
X167721941Y-100942567D01*
X167735000Y-100831750D01*
X167576250Y-100673000D01*
X167570186Y-100673000D01*
X167537919Y-100635928D01*
X167438968Y-100559411D01*
X167373859Y-100527000D01*
X167576250Y-100527000D01*
X167735000Y-100368250D01*
X167721941Y-100257433D01*
X167682177Y-100138837D01*
X167620040Y-100030278D01*
X167537919Y-99935928D01*
X167438968Y-99859411D01*
X167378582Y-99829351D01*
X167378582Y-99690000D01*
X167370347Y-99606388D01*
X167345958Y-99525989D01*
X167332067Y-99500000D01*
X167345958Y-99474011D01*
X167370347Y-99393612D01*
X167378582Y-99310000D01*
X167378582Y-99050000D01*
X167370780Y-98970780D01*
X167450000Y-98978582D01*
X167650000Y-98978582D01*
X167733612Y-98970347D01*
X167814011Y-98945958D01*
X167888107Y-98906353D01*
X167953053Y-98853053D01*
X168006353Y-98788107D01*
X168045958Y-98714011D01*
X168070347Y-98633612D01*
X168078208Y-98553802D01*
X168119722Y-98530040D01*
X168214072Y-98447919D01*
X168290589Y-98348968D01*
X168308174Y-98313643D01*
X168335533Y-101979834D01*
G36*
X166973000Y-100527000D02*
G01*
X167069750Y-100527000D01*
X166973000Y-100623750D01*
X166973000Y-101276250D01*
X167069750Y-101373000D01*
X166973000Y-101373000D01*
X166973000Y-101447000D01*
X166783953Y-101447000D01*
X166788582Y-101400000D01*
X166788582Y-101200000D01*
X166780347Y-101116388D01*
X166767000Y-101072389D01*
X166767000Y-100827611D01*
X166780347Y-100783612D01*
X166788582Y-100700000D01*
X166788582Y-100500000D01*
X166783953Y-100453000D01*
X166973000Y-100453000D01*
X166973000Y-100527000D01*
G37*
X166973000Y-100527000D02*
X167069750Y-100527000D01*
X166973000Y-100623750D01*
X166973000Y-101276250D01*
X167069750Y-101373000D01*
X166973000Y-101373000D01*
X166973000Y-101447000D01*
X166783953Y-101447000D01*
X166788582Y-101400000D01*
X166788582Y-101200000D01*
X166780347Y-101116388D01*
X166767000Y-101072389D01*
X166767000Y-100827611D01*
X166780347Y-100783612D01*
X166788582Y-100700000D01*
X166788582Y-100500000D01*
X166783953Y-100453000D01*
X166973000Y-100453000D01*
X166973000Y-100527000D01*
G36*
X161927000Y-99473000D02*
G01*
X161947000Y-99473000D01*
X161947000Y-99727000D01*
X161927000Y-99727000D01*
X161927000Y-99747000D01*
X161673000Y-99747000D01*
X161673000Y-99727000D01*
X161653000Y-99727000D01*
X161653000Y-99473000D01*
X161673000Y-99473000D01*
X161673000Y-99453000D01*
X161927000Y-99453000D01*
X161927000Y-99473000D01*
G37*
X161927000Y-99473000D02*
X161947000Y-99473000D01*
X161947000Y-99727000D01*
X161927000Y-99727000D01*
X161927000Y-99747000D01*
X161673000Y-99747000D01*
X161673000Y-99727000D01*
X161653000Y-99727000D01*
X161653000Y-99473000D01*
X161673000Y-99473000D01*
X161673000Y-99453000D01*
X161927000Y-99453000D01*
X161927000Y-99473000D01*
G36*
X167623000Y-97677000D02*
G01*
X167697000Y-97677000D01*
X167697000Y-97866047D01*
X167650000Y-97861418D01*
X167549567Y-97861418D01*
X167458508Y-97770360D01*
X167595869Y-97633000D01*
X167623000Y-97633000D01*
X167623000Y-97677000D01*
G37*
X167623000Y-97677000D02*
X167697000Y-97677000D01*
X167697000Y-97866047D01*
X167650000Y-97861418D01*
X167549567Y-97861418D01*
X167458508Y-97770360D01*
X167595869Y-97633000D01*
X167623000Y-97633000D01*
X167623000Y-97677000D01*
G36*
X161571418Y-96822000D02*
G01*
X161549176Y-96822000D01*
X161556748Y-96803720D01*
X161571418Y-96729968D01*
X161571418Y-96822000D01*
G37*
X161571418Y-96822000D02*
X161549176Y-96822000D01*
X161556748Y-96803720D01*
X161571418Y-96729968D01*
X161571418Y-96822000D01*
G36*
X161571418Y-96570032D02*
G01*
X161563057Y-96528000D01*
X161571418Y-96528000D01*
X161571418Y-96570032D01*
G37*
X161571418Y-96570032D02*
X161563057Y-96528000D01*
X161571418Y-96528000D01*
X161571418Y-96570032D01*
G36*
X166032081Y-96044072D02*
G01*
X166131032Y-96120589D01*
X166243009Y-96176331D01*
X166287000Y-96188295D01*
X166287000Y-96196047D01*
X166240000Y-96191418D01*
X166040000Y-96191418D01*
X165993000Y-96196047D01*
X165993000Y-96050868D01*
X166017057Y-96026811D01*
X166032081Y-96044072D01*
G37*
X166032081Y-96044072D02*
X166131032Y-96120589D01*
X166243009Y-96176331D01*
X166287000Y-96188295D01*
X166287000Y-96196047D01*
X166240000Y-96191418D01*
X166040000Y-96191418D01*
X165993000Y-96196047D01*
X165993000Y-96050868D01*
X166017057Y-96026811D01*
X166032081Y-96044072D01*
G36*
X167852000Y-94173000D02*
G01*
X167872000Y-94173000D01*
X167872000Y-94427000D01*
X167852000Y-94427000D01*
X167852000Y-95158750D01*
X167797000Y-95213750D01*
X167797000Y-95858000D01*
X167817000Y-95858000D01*
X167817000Y-96112000D01*
X167797000Y-96112000D01*
X167797000Y-96132000D01*
X167543000Y-96132000D01*
X167543000Y-96112000D01*
X167523000Y-96112000D01*
X167523000Y-95858000D01*
X167543000Y-95858000D01*
X167543000Y-95749234D01*
X167551941Y-95722567D01*
X167565000Y-95611750D01*
X167543000Y-95589750D01*
X167543000Y-95306250D01*
X167598000Y-95251250D01*
X167598000Y-94427000D01*
X167578000Y-94427000D01*
X167578000Y-94173000D01*
X167598000Y-94173000D01*
X167598000Y-94153000D01*
X167852000Y-94153000D01*
X167852000Y-94173000D01*
G37*
X167852000Y-94173000D02*
X167872000Y-94173000D01*
X167872000Y-94427000D01*
X167852000Y-94427000D01*
X167852000Y-95158750D01*
X167797000Y-95213750D01*
X167797000Y-95858000D01*
X167817000Y-95858000D01*
X167817000Y-96112000D01*
X167797000Y-96112000D01*
X167797000Y-96132000D01*
X167543000Y-96132000D01*
X167543000Y-96112000D01*
X167523000Y-96112000D01*
X167523000Y-95858000D01*
X167543000Y-95858000D01*
X167543000Y-95749234D01*
X167551941Y-95722567D01*
X167565000Y-95611750D01*
X167543000Y-95589750D01*
X167543000Y-95306250D01*
X167598000Y-95251250D01*
X167598000Y-94427000D01*
X167578000Y-94427000D01*
X167578000Y-94173000D01*
X167598000Y-94173000D01*
X167598000Y-94153000D01*
X167852000Y-94153000D01*
X167852000Y-94173000D01*
G36*
X165342000Y-95463000D02*
G01*
X165298000Y-95463000D01*
X165298000Y-95537000D01*
X165108953Y-95537000D01*
X165113582Y-95490000D01*
X165113582Y-95402010D01*
X165342000Y-95402010D01*
X165342000Y-95463000D01*
G37*
X165342000Y-95463000D02*
X165298000Y-95463000D01*
X165298000Y-95537000D01*
X165108953Y-95537000D01*
X165113582Y-95490000D01*
X165113582Y-95402010D01*
X165342000Y-95402010D01*
X165342000Y-95463000D01*
G36*
X163202000Y-94173000D02*
G01*
X163222000Y-94173000D01*
X163222000Y-94427000D01*
X163202000Y-94427000D01*
X163202000Y-94644750D01*
X163143000Y-94703750D01*
X163143000Y-95152389D01*
X163129653Y-95196388D01*
X163121418Y-95280000D01*
X163121418Y-95426715D01*
X163021134Y-95527000D01*
X162937000Y-95527000D01*
X162937000Y-95453000D01*
X162893000Y-95453000D01*
X162893000Y-95307000D01*
X162937000Y-95307000D01*
X162937000Y-95262250D01*
X162948000Y-95251250D01*
X162948000Y-94427000D01*
X162928000Y-94427000D01*
X162928000Y-94173000D01*
X162948000Y-94173000D01*
X162948000Y-94153000D01*
X163202000Y-94153000D01*
X163202000Y-94173000D01*
G37*
X163202000Y-94173000D02*
X163222000Y-94173000D01*
X163222000Y-94427000D01*
X163202000Y-94427000D01*
X163202000Y-94644750D01*
X163143000Y-94703750D01*
X163143000Y-95152389D01*
X163129653Y-95196388D01*
X163121418Y-95280000D01*
X163121418Y-95426715D01*
X163021134Y-95527000D01*
X162937000Y-95527000D01*
X162937000Y-95453000D01*
X162893000Y-95453000D01*
X162893000Y-95307000D01*
X162937000Y-95307000D01*
X162937000Y-95262250D01*
X162948000Y-95251250D01*
X162948000Y-94427000D01*
X162928000Y-94427000D01*
X162928000Y-94173000D01*
X162948000Y-94173000D01*
X162948000Y-94153000D01*
X163202000Y-94153000D01*
X163202000Y-94173000D01*
G36*
X166803000Y-95307000D02*
G01*
X166842857Y-95307000D01*
X166819463Y-95335506D01*
X166775697Y-95417384D01*
X166709722Y-95359960D01*
X166618582Y-95307793D01*
X166618582Y-95280000D01*
X166613953Y-95233000D01*
X166803000Y-95233000D01*
X166803000Y-95307000D01*
G37*
X166803000Y-95307000D02*
X166842857Y-95307000D01*
X166819463Y-95335506D01*
X166775697Y-95417384D01*
X166709722Y-95359960D01*
X166618582Y-95307793D01*
X166618582Y-95280000D01*
X166613953Y-95233000D01*
X166803000Y-95233000D01*
X166803000Y-95307000D01*
G36*
X160702000Y-95048000D02*
G01*
X160722000Y-95048000D01*
X160722000Y-95302000D01*
X160702000Y-95302000D01*
X160702000Y-95322000D01*
X160448000Y-95322000D01*
X160448000Y-95302000D01*
X160428000Y-95302000D01*
X160428000Y-95048000D01*
X160448000Y-95048000D01*
X160448000Y-95028000D01*
X160702000Y-95028000D01*
X160702000Y-95048000D01*
G37*
X160702000Y-95048000D02*
X160722000Y-95048000D01*
X160722000Y-95302000D01*
X160702000Y-95302000D01*
X160702000Y-95322000D01*
X160448000Y-95322000D01*
X160448000Y-95302000D01*
X160428000Y-95302000D01*
X160428000Y-95048000D01*
X160448000Y-95048000D01*
X160448000Y-95028000D01*
X160702000Y-95028000D01*
X160702000Y-95048000D01*
G36*
X157798000Y-94002000D02*
G01*
X158401250Y-94002000D01*
X158405250Y-93998000D01*
X159123000Y-93998000D01*
X159123000Y-93978000D01*
X159377000Y-93978000D01*
X159377000Y-93998000D01*
X159397000Y-93998000D01*
X159397000Y-94252000D01*
X159377000Y-94252000D01*
X159377000Y-94272000D01*
X159123000Y-94272000D01*
X159123000Y-94252000D01*
X158445250Y-94252000D01*
X158401250Y-94208000D01*
X157952611Y-94208000D01*
X157908612Y-94194653D01*
X157825000Y-94186418D01*
X157625000Y-94186418D01*
X157578000Y-94191047D01*
X157578000Y-94002000D01*
X157652000Y-94002000D01*
X157652000Y-93958000D01*
X157798000Y-93958000D01*
X157798000Y-94002000D01*
G37*
X157798000Y-94002000D02*
X158401250Y-94002000D01*
X158405250Y-93998000D01*
X159123000Y-93998000D01*
X159123000Y-93978000D01*
X159377000Y-93978000D01*
X159377000Y-93998000D01*
X159397000Y-93998000D01*
X159397000Y-94252000D01*
X159377000Y-94252000D01*
X159377000Y-94272000D01*
X159123000Y-94272000D01*
X159123000Y-94252000D01*
X158445250Y-94252000D01*
X158401250Y-94208000D01*
X157952611Y-94208000D01*
X157908612Y-94194653D01*
X157825000Y-94186418D01*
X157625000Y-94186418D01*
X157578000Y-94191047D01*
X157578000Y-94002000D01*
X157652000Y-94002000D01*
X157652000Y-93958000D01*
X157798000Y-93958000D01*
X157798000Y-94002000D01*
G36*
X162002500Y-94014250D02*
G01*
X162055178Y-94066928D01*
X162050000Y-94066418D01*
X161850000Y-94066418D01*
X161803000Y-94071047D01*
X161803000Y-93882000D01*
X161877000Y-93882000D01*
X161877000Y-93838000D01*
X161999639Y-93838000D01*
X162002500Y-94014250D01*
G37*
X162002500Y-94014250D02*
X162055178Y-94066928D01*
X162050000Y-94066418D01*
X161850000Y-94066418D01*
X161803000Y-94071047D01*
X161803000Y-93882000D01*
X161877000Y-93882000D01*
X161877000Y-93838000D01*
X161999639Y-93838000D01*
X162002500Y-94014250D01*
%TD*%
M02*
