%TF.GenerationSoftware,KiCad,Pcbnew,(5.1.6-0-10_14)*%
%TF.CreationDate,2020-10-05T23:02:53+09:00*%
%TF.ProjectId,RF920A,52463932-3041-42e6-9b69-6361645f7063,rev?*%
%TF.SameCoordinates,Original*%
%TF.FileFunction,Copper,L4,Bot*%
%TF.FilePolarity,Positive*%
%FSLAX46Y46*%
G04 Gerber Fmt 4.6, Leading zero omitted, Abs format (unit mm)*
G04 Created by KiCad (PCBNEW (5.1.6-0-10_14)) date 2020-10-05 23:02:53*
%MOMM*%
%LPD*%
G01*
G04 APERTURE LIST*
%TA.AperFunction,WasherPad*%
%ADD10O,1.600000X0.800000*%
%TD*%
%TA.AperFunction,WasherPad*%
%ADD11O,0.800000X1.600000*%
%TD*%
%TA.AperFunction,ComponentPad*%
%ADD12C,1.000000*%
%TD*%
%TA.AperFunction,ViaPad*%
%ADD13C,0.400000*%
%TD*%
%TA.AperFunction,Conductor*%
%ADD14C,0.200000*%
%TD*%
G04 APERTURE END LIST*
D10*
%TO.P,REF\u002A\u002A,*%
%TO.N,*%
X162075000Y-107000000D03*
D11*
X151000000Y-96875000D03*
%TD*%
D12*
%TO.P,J19,1*%
%TO.N,/SDA*%
X157500000Y-92000000D03*
%TD*%
%TO.P,J17,1*%
%TO.N,GND*%
X170000000Y-103500000D03*
%TD*%
%TO.P,J16,1*%
%TO.N,GND*%
X170000000Y-102000000D03*
%TD*%
%TO.P,J14,1*%
%TO.N,+3.3VA*%
X165500000Y-108000000D03*
%TD*%
%TO.P,J13,1*%
%TO.N,+3.3VA*%
X164000000Y-108000000D03*
%TD*%
%TO.P,J12,1*%
%TO.N,/SCL*%
X156000000Y-92000000D03*
%TD*%
%TO.P,J11,1*%
%TO.N,/WP*%
X154500000Y-92000000D03*
%TD*%
%TO.P,J10,1*%
%TO.N,/RESETN*%
X170000000Y-96000000D03*
%TD*%
%TO.P,J9,1*%
%TO.N,/REGPDIN*%
X165000000Y-92000000D03*
%TD*%
%TO.P,J8,1*%
%TO.N,/SDO*%
X163500000Y-92000000D03*
%TD*%
%TO.P,J7,1*%
%TO.N,/SINTN*%
X162000000Y-92000000D03*
%TD*%
%TO.P,J6,1*%
%TO.N,/SCLK*%
X170000000Y-97500000D03*
%TD*%
%TO.P,J5,1*%
%TO.N,/SCEN*%
X170000000Y-99000000D03*
%TD*%
%TO.P,J4,1*%
%TO.N,/SDI*%
X170000000Y-100500000D03*
%TD*%
%TO.P,J3,1*%
%TO.N,+3V3*%
X160500000Y-92000000D03*
%TD*%
%TO.P,J2,1*%
%TO.N,+3V3*%
X159000000Y-92000000D03*
%TD*%
%TO.P,J1,1*%
%TO.N,Net-(J1-Pad1)*%
X150000000Y-99000000D03*
%TD*%
D13*
%TO.N,GND*%
X152710000Y-106000000D03*
X151710000Y-106000000D03*
X152710000Y-103100000D03*
X151710000Y-103100000D03*
X153710000Y-101180000D03*
X152710000Y-100180000D03*
X153710000Y-100180000D03*
X152710000Y-94760000D03*
X152710000Y-97770000D03*
X152710000Y-95760000D03*
X166000000Y-103800000D03*
X156280000Y-100180000D03*
X156280000Y-99180000D03*
X156280000Y-98180000D03*
X152710000Y-96760000D03*
X154100000Y-106050000D03*
X167990000Y-100830000D03*
X163000000Y-99200000D03*
X162200000Y-99200000D03*
X163000000Y-98400000D03*
X162200000Y-98400000D03*
X162200000Y-100000000D03*
X163000000Y-100000000D03*
X163000000Y-100800000D03*
X162200000Y-100800000D03*
X161400000Y-100800000D03*
X160600000Y-100800000D03*
X161400000Y-100000000D03*
X160600000Y-100000000D03*
X160600000Y-99200000D03*
X161400000Y-98400000D03*
X161400000Y-99200000D03*
X160600000Y-98400000D03*
X158870000Y-101350000D03*
X154210000Y-98300000D03*
X157690000Y-98040000D03*
X157670000Y-99920000D03*
X156280000Y-103480000D03*
X161550000Y-96680000D03*
X163030000Y-95530000D03*
X163060000Y-94290000D03*
X166700000Y-95380000D03*
X167720000Y-94300000D03*
X167550000Y-97780000D03*
X165200000Y-95530000D03*
X166140000Y-96110000D03*
X167670000Y-95980000D03*
X164350000Y-104420000D03*
X162250000Y-105300000D03*
X159350000Y-105110000D03*
X163590000Y-104450000D03*
X163590000Y-103700000D03*
X156270000Y-101430000D03*
X161430000Y-103710000D03*
X160760000Y-105200000D03*
X159300000Y-105900000D03*
X166870000Y-100600000D03*
X166870000Y-101300000D03*
X166870000Y-102800000D03*
X167650000Y-102620000D03*
X165790000Y-106250000D03*
X165750000Y-105200000D03*
X161950000Y-93990000D03*
X157730000Y-94110000D03*
X159250000Y-94130000D03*
X160580000Y-95170000D03*
X167100000Y-104020000D03*
X167500000Y-104400000D03*
X154500000Y-96350000D03*
X157650000Y-104220000D03*
%TO.N,/VDDCP*%
X160790000Y-103710000D03*
X166220000Y-100600000D03*
X166220000Y-102800000D03*
X166140000Y-94300000D03*
%TO.N,+3V3*%
X157700000Y-98690000D03*
X157680000Y-100580000D03*
X157530000Y-95680000D03*
X154510000Y-93910000D03*
X156380000Y-93930000D03*
X154490000Y-95710000D03*
%TO.N,Net-(C45-Pad1)*%
X157250000Y-106420000D03*
X158660000Y-105900000D03*
X159550000Y-102530000D03*
%TO.N,Net-(C46-Pad2)*%
X158870000Y-101860000D03*
X157250000Y-104980000D03*
X156270000Y-102070000D03*
%TO.N,/SDI*%
X158880000Y-98350000D03*
%TO.N,/SCEN*%
X158880000Y-97850000D03*
%TO.N,/SCLK*%
X158870000Y-97350000D03*
%TO.N,/SINTN*%
X159550000Y-96680000D03*
%TO.N,/SDO*%
X160050000Y-96670000D03*
%TO.N,/REGPDIN*%
X160550000Y-96650000D03*
%TO.N,/RESETN*%
X161050000Y-96650000D03*
%TO.N,+3.3VA*%
X164350000Y-103780000D03*
X167100000Y-105600000D03*
X167500000Y-105970000D03*
X166140000Y-96750000D03*
%TO.N,/WP*%
X154500000Y-94570000D03*
%TO.N,/SCL*%
X156390000Y-94570000D03*
%TO.N,/SDA*%
X157520000Y-96330000D03*
%TD*%
D14*
%TO.N,Net-(C45-Pad1)*%
X158140000Y-106420000D02*
X158660000Y-105900000D01*
X157250000Y-106420000D02*
X158140000Y-106420000D01*
X159550000Y-104317998D02*
X159550000Y-102530000D01*
X158660000Y-105207998D02*
X159550000Y-104317998D01*
X158660000Y-105900000D02*
X158660000Y-105207998D01*
%TO.N,Net-(C46-Pad2)*%
X156480000Y-101860000D02*
X156270000Y-102070000D01*
X158870000Y-101860000D02*
X156480000Y-101860000D01*
X157250000Y-103050000D02*
X156270000Y-102070000D01*
X157250000Y-104980000D02*
X157250000Y-103050000D01*
%TO.N,/SDI*%
X169100000Y-100500000D02*
X169774990Y-100500000D01*
X160407999Y-97999999D02*
X166599999Y-97999999D01*
X160057998Y-98350000D02*
X160407999Y-97999999D01*
X166599999Y-97999999D02*
X169100000Y-100500000D01*
X158880000Y-98350000D02*
X160057998Y-98350000D01*
%TO.N,/SCEN*%
X166877987Y-97699989D02*
X168177998Y-99000000D01*
X168177998Y-99000000D02*
X169774990Y-99000000D01*
X160283731Y-97699989D02*
X166877987Y-97699989D01*
X160133720Y-97850000D02*
X160283731Y-97699989D01*
X158880000Y-97850000D02*
X160133720Y-97850000D01*
%TO.N,/SCLK*%
X158870000Y-97350000D02*
X169774990Y-97350000D01*
%TO.N,/SINTN*%
X159550000Y-95607998D02*
X161977998Y-93180000D01*
X159550000Y-96680000D02*
X159550000Y-95607998D01*
X161977998Y-92225010D02*
X162000000Y-92225010D01*
X161977998Y-93180000D02*
X161977998Y-92225010D01*
%TO.N,/SDO*%
X160050000Y-96387158D02*
X161747157Y-94690001D01*
X160050000Y-96670000D02*
X160050000Y-96387158D01*
X163500000Y-93032002D02*
X163500000Y-92225010D01*
X161842001Y-94690001D02*
X163500000Y-93032002D01*
X161747157Y-94690001D02*
X161842001Y-94690001D01*
%TO.N,/REGPDIN*%
X160649999Y-96457999D02*
X161177997Y-95930001D01*
X160649999Y-96570001D02*
X160649999Y-96457999D01*
X160570000Y-96650000D02*
X160649999Y-96570001D01*
X160550000Y-96650000D02*
X160570000Y-96650000D01*
X162012001Y-95930001D02*
X165000000Y-92942002D01*
X165000000Y-92942002D02*
X165000000Y-92225010D01*
X161177997Y-95930001D02*
X162012001Y-95930001D01*
%TO.N,/RESETN*%
X161050000Y-96650000D02*
X161050000Y-96482276D01*
X167477999Y-95579999D02*
X169579999Y-95579999D01*
X169579999Y-95579999D02*
X169774990Y-95774990D01*
X167269999Y-95787999D02*
X167477999Y-95579999D01*
X166515997Y-95787999D02*
X167269999Y-95787999D01*
X166437997Y-95709999D02*
X166515997Y-95787999D01*
X165947999Y-95709999D02*
X166437997Y-95709999D01*
X161357999Y-96279999D02*
X165377999Y-96279999D01*
X165377999Y-96279999D02*
X165947999Y-95709999D01*
X161050000Y-96587998D02*
X161357999Y-96279999D01*
X161050000Y-96650000D02*
X161050000Y-96587998D01*
%TO.N,/WP*%
X154274990Y-92225010D02*
X154500000Y-92225010D01*
X154109999Y-92390001D02*
X154274990Y-92225010D01*
X154109999Y-94179999D02*
X154109999Y-92390001D01*
X154500000Y-94570000D02*
X154109999Y-94179999D01*
%TO.N,/SCL*%
X156780001Y-92780001D02*
X156225010Y-92225010D01*
X156780001Y-94179999D02*
X156780001Y-92780001D01*
X156225010Y-92225010D02*
X156000000Y-92225010D01*
X156390000Y-94570000D02*
X156780001Y-94179999D01*
%TO.N,/SDA*%
X157274990Y-92225010D02*
X157500000Y-92225010D01*
X157129999Y-92370001D02*
X157274990Y-92225010D01*
X157129999Y-95939999D02*
X157129999Y-92370001D01*
X157520000Y-96330000D02*
X157129999Y-95939999D01*
%TD*%
%TO.N,GND*%
G36*
X153709999Y-94160352D02*
G01*
X153708064Y-94179999D01*
X153709999Y-94199645D01*
X153715787Y-94258412D01*
X153738659Y-94333812D01*
X153775802Y-94403301D01*
X153825788Y-94464210D01*
X153841051Y-94476736D01*
X154004082Y-94639767D01*
X154019215Y-94715845D01*
X154056906Y-94806839D01*
X154111625Y-94888731D01*
X154181269Y-94958375D01*
X154263161Y-95013094D01*
X154354155Y-95050785D01*
X154450754Y-95070000D01*
X154549246Y-95070000D01*
X154645845Y-95050785D01*
X154736839Y-95013094D01*
X154818731Y-94958375D01*
X154888375Y-94888731D01*
X154943094Y-94806839D01*
X154980785Y-94715845D01*
X155000000Y-94619246D01*
X155000000Y-94520754D01*
X154980785Y-94424155D01*
X154943094Y-94333161D01*
X154888375Y-94251269D01*
X154882106Y-94245000D01*
X154898375Y-94228731D01*
X154953094Y-94146839D01*
X154990785Y-94055845D01*
X155010000Y-93959246D01*
X155010000Y-93860754D01*
X154990785Y-93764155D01*
X154953094Y-93673161D01*
X154898375Y-93591269D01*
X154828731Y-93521625D01*
X154746839Y-93466906D01*
X154655845Y-93429215D01*
X154559246Y-93410000D01*
X154509999Y-93410000D01*
X154509999Y-93100000D01*
X156380002Y-93100000D01*
X156380002Y-93430000D01*
X156330754Y-93430000D01*
X156234155Y-93449215D01*
X156143161Y-93486906D01*
X156061269Y-93541625D01*
X155991625Y-93611269D01*
X155936906Y-93693161D01*
X155899215Y-93784155D01*
X155880000Y-93880754D01*
X155880000Y-93979246D01*
X155899215Y-94075845D01*
X155936906Y-94166839D01*
X155991625Y-94248731D01*
X155998636Y-94255742D01*
X155946906Y-94333161D01*
X155909215Y-94424155D01*
X155890000Y-94520754D01*
X155890000Y-94619246D01*
X155909215Y-94715845D01*
X155946906Y-94806839D01*
X156001625Y-94888731D01*
X156071269Y-94958375D01*
X156153161Y-95013094D01*
X156244155Y-95050785D01*
X156340754Y-95070000D01*
X156439246Y-95070000D01*
X156535845Y-95050785D01*
X156626839Y-95013094D01*
X156708731Y-94958375D01*
X156729999Y-94937107D01*
X156729999Y-95920352D01*
X156728064Y-95939999D01*
X156729999Y-95959645D01*
X156735787Y-96018412D01*
X156758659Y-96093812D01*
X156795802Y-96163301D01*
X156845788Y-96224210D01*
X156861051Y-96236736D01*
X157024082Y-96399767D01*
X157039215Y-96475845D01*
X157076906Y-96566839D01*
X157131625Y-96648731D01*
X157201269Y-96718375D01*
X157283161Y-96773094D01*
X157374155Y-96810785D01*
X157470754Y-96830000D01*
X157569246Y-96830000D01*
X157665845Y-96810785D01*
X157756839Y-96773094D01*
X157838731Y-96718375D01*
X157908375Y-96648731D01*
X157963094Y-96566839D01*
X158000785Y-96475845D01*
X158020000Y-96379246D01*
X158020000Y-96280754D01*
X158000785Y-96184155D01*
X157963094Y-96093161D01*
X157908375Y-96011269D01*
X157907106Y-96010000D01*
X157918375Y-95998731D01*
X157973094Y-95916839D01*
X158010785Y-95825845D01*
X158030000Y-95729246D01*
X158030000Y-95630754D01*
X158010785Y-95534155D01*
X157973094Y-95443161D01*
X157918375Y-95361269D01*
X157848731Y-95291625D01*
X157766839Y-95236906D01*
X157675845Y-95199215D01*
X157579246Y-95180000D01*
X157529999Y-95180000D01*
X157529999Y-93100000D01*
X161492313Y-93100000D01*
X159281048Y-95311265D01*
X159265790Y-95323787D01*
X159253268Y-95339045D01*
X159253265Y-95339048D01*
X159215803Y-95384696D01*
X159178661Y-95454184D01*
X159155788Y-95529585D01*
X159148065Y-95607998D01*
X159150001Y-95627654D01*
X159150000Y-96378666D01*
X159106906Y-96443161D01*
X159069215Y-96534155D01*
X159050000Y-96630754D01*
X159050000Y-96729246D01*
X159069215Y-96825845D01*
X159101953Y-96904882D01*
X159015845Y-96869215D01*
X158919246Y-96850000D01*
X158820754Y-96850000D01*
X158724155Y-96869215D01*
X158633161Y-96906906D01*
X158551269Y-96961625D01*
X158481625Y-97031269D01*
X158426906Y-97113161D01*
X158389215Y-97204155D01*
X158370000Y-97300754D01*
X158370000Y-97399246D01*
X158389215Y-97495845D01*
X158426906Y-97586839D01*
X158440700Y-97607483D01*
X158436906Y-97613161D01*
X158399215Y-97704155D01*
X158380000Y-97800754D01*
X158380000Y-97899246D01*
X158399215Y-97995845D01*
X158436906Y-98086839D01*
X158445700Y-98100000D01*
X158436906Y-98113161D01*
X158399215Y-98204155D01*
X158380000Y-98300754D01*
X158380000Y-98399246D01*
X158399215Y-98495845D01*
X158436906Y-98586839D01*
X158491625Y-98668731D01*
X158561269Y-98738375D01*
X158643161Y-98793094D01*
X158734155Y-98830785D01*
X158830754Y-98850000D01*
X158929246Y-98850000D01*
X159025845Y-98830785D01*
X159116839Y-98793094D01*
X159181333Y-98750000D01*
X160038352Y-98750000D01*
X160057998Y-98751935D01*
X160077644Y-98750000D01*
X160077645Y-98750000D01*
X160136412Y-98744212D01*
X160211812Y-98721340D01*
X160281301Y-98684197D01*
X160342209Y-98634211D01*
X160354735Y-98618948D01*
X160573685Y-98399999D01*
X166434314Y-98399999D01*
X168803267Y-100768953D01*
X168815789Y-100784211D01*
X168831047Y-100796733D01*
X168831049Y-100796735D01*
X168855546Y-100816839D01*
X168876697Y-100834197D01*
X168900000Y-100846653D01*
X168900000Y-101851108D01*
X168891856Y-101892335D01*
X168892145Y-102110592D01*
X168900000Y-102149811D01*
X168900000Y-103351108D01*
X168891856Y-103392335D01*
X168892145Y-103610592D01*
X168900000Y-103649811D01*
X168900000Y-106900000D01*
X163168538Y-106900000D01*
X163164872Y-106862776D01*
X163124845Y-106730825D01*
X163059845Y-106609219D01*
X162972370Y-106502630D01*
X162865781Y-106415155D01*
X162744175Y-106350155D01*
X162612224Y-106310128D01*
X162509390Y-106300000D01*
X161640610Y-106300000D01*
X161537776Y-106310128D01*
X161405825Y-106350155D01*
X161284219Y-106415155D01*
X161177630Y-106502630D01*
X161090155Y-106609219D01*
X161025155Y-106730825D01*
X160985128Y-106862776D01*
X160981462Y-106900000D01*
X157397740Y-106900000D01*
X157486839Y-106863094D01*
X157551333Y-106820000D01*
X158120354Y-106820000D01*
X158140000Y-106821935D01*
X158159646Y-106820000D01*
X158159647Y-106820000D01*
X158218414Y-106814212D01*
X158293814Y-106791340D01*
X158363303Y-106754197D01*
X158424211Y-106704211D01*
X158436737Y-106688948D01*
X158729768Y-106395918D01*
X158805845Y-106380785D01*
X158896839Y-106343094D01*
X158978731Y-106288375D01*
X159048375Y-106218731D01*
X159103094Y-106136839D01*
X159140785Y-106045845D01*
X159160000Y-105949246D01*
X159160000Y-105850754D01*
X159140785Y-105754155D01*
X159103094Y-105663161D01*
X159060000Y-105598667D01*
X159060000Y-105550754D01*
X166600000Y-105550754D01*
X166600000Y-105649246D01*
X166619215Y-105745845D01*
X166656906Y-105836839D01*
X166711625Y-105918731D01*
X166781269Y-105988375D01*
X166863161Y-106043094D01*
X166954155Y-106080785D01*
X167014634Y-106092815D01*
X167019215Y-106115845D01*
X167056906Y-106206839D01*
X167111625Y-106288731D01*
X167181269Y-106358375D01*
X167263161Y-106413094D01*
X167354155Y-106450785D01*
X167450754Y-106470000D01*
X167549246Y-106470000D01*
X167645845Y-106450785D01*
X167736839Y-106413094D01*
X167818731Y-106358375D01*
X167888375Y-106288731D01*
X167943094Y-106206839D01*
X167980785Y-106115845D01*
X168000000Y-106019246D01*
X168000000Y-105920754D01*
X167980785Y-105824155D01*
X167943094Y-105733161D01*
X167888375Y-105651269D01*
X167818731Y-105581625D01*
X167736839Y-105526906D01*
X167645845Y-105489215D01*
X167585366Y-105477185D01*
X167580785Y-105454155D01*
X167543094Y-105363161D01*
X167488375Y-105281269D01*
X167418731Y-105211625D01*
X167336839Y-105156906D01*
X167245845Y-105119215D01*
X167149246Y-105100000D01*
X167050754Y-105100000D01*
X166954155Y-105119215D01*
X166863161Y-105156906D01*
X166781269Y-105211625D01*
X166711625Y-105281269D01*
X166656906Y-105363161D01*
X166619215Y-105454155D01*
X166600000Y-105550754D01*
X159060000Y-105550754D01*
X159060000Y-105373683D01*
X159818954Y-104614730D01*
X159834211Y-104602209D01*
X159884197Y-104541301D01*
X159921340Y-104471812D01*
X159944212Y-104396412D01*
X159950000Y-104337645D01*
X159950000Y-104337643D01*
X159951935Y-104317999D01*
X159950000Y-104298355D01*
X159950000Y-103660754D01*
X160290000Y-103660754D01*
X160290000Y-103759246D01*
X160309215Y-103855845D01*
X160346906Y-103946839D01*
X160401625Y-104028731D01*
X160471269Y-104098375D01*
X160553161Y-104153094D01*
X160644155Y-104190785D01*
X160740754Y-104210000D01*
X160839246Y-104210000D01*
X160935845Y-104190785D01*
X161026839Y-104153094D01*
X161108731Y-104098375D01*
X161178375Y-104028731D01*
X161233094Y-103946839D01*
X161270785Y-103855845D01*
X161290000Y-103759246D01*
X161290000Y-103730754D01*
X163850000Y-103730754D01*
X163850000Y-103829246D01*
X163869215Y-103925845D01*
X163906906Y-104016839D01*
X163961625Y-104098731D01*
X164031269Y-104168375D01*
X164113161Y-104223094D01*
X164204155Y-104260785D01*
X164300754Y-104280000D01*
X164399246Y-104280000D01*
X164495845Y-104260785D01*
X164586839Y-104223094D01*
X164668731Y-104168375D01*
X164738375Y-104098731D01*
X164793094Y-104016839D01*
X164830785Y-103925845D01*
X164850000Y-103829246D01*
X164850000Y-103730754D01*
X164830785Y-103634155D01*
X164793094Y-103543161D01*
X164738375Y-103461269D01*
X164668731Y-103391625D01*
X164586839Y-103336906D01*
X164495845Y-103299215D01*
X164399246Y-103280000D01*
X164300754Y-103280000D01*
X164204155Y-103299215D01*
X164113161Y-103336906D01*
X164031269Y-103391625D01*
X163961625Y-103461269D01*
X163906906Y-103543161D01*
X163869215Y-103634155D01*
X163850000Y-103730754D01*
X161290000Y-103730754D01*
X161290000Y-103660754D01*
X161270785Y-103564155D01*
X161233094Y-103473161D01*
X161178375Y-103391269D01*
X161108731Y-103321625D01*
X161026839Y-103266906D01*
X160935845Y-103229215D01*
X160839246Y-103210000D01*
X160740754Y-103210000D01*
X160644155Y-103229215D01*
X160553161Y-103266906D01*
X160471269Y-103321625D01*
X160401625Y-103391269D01*
X160346906Y-103473161D01*
X160309215Y-103564155D01*
X160290000Y-103660754D01*
X159950000Y-103660754D01*
X159950000Y-102831333D01*
X159993094Y-102766839D01*
X159999756Y-102750754D01*
X165720000Y-102750754D01*
X165720000Y-102849246D01*
X165739215Y-102945845D01*
X165776906Y-103036839D01*
X165831625Y-103118731D01*
X165901269Y-103188375D01*
X165983161Y-103243094D01*
X166074155Y-103280785D01*
X166170754Y-103300000D01*
X166269246Y-103300000D01*
X166365845Y-103280785D01*
X166456839Y-103243094D01*
X166538731Y-103188375D01*
X166608375Y-103118731D01*
X166663094Y-103036839D01*
X166700785Y-102945845D01*
X166720000Y-102849246D01*
X166720000Y-102750754D01*
X166700785Y-102654155D01*
X166663094Y-102563161D01*
X166608375Y-102481269D01*
X166538731Y-102411625D01*
X166456839Y-102356906D01*
X166365845Y-102319215D01*
X166269246Y-102300000D01*
X166170754Y-102300000D01*
X166074155Y-102319215D01*
X165983161Y-102356906D01*
X165901269Y-102411625D01*
X165831625Y-102481269D01*
X165776906Y-102563161D01*
X165739215Y-102654155D01*
X165720000Y-102750754D01*
X159999756Y-102750754D01*
X160030785Y-102675845D01*
X160050000Y-102579246D01*
X160050000Y-102480754D01*
X160030785Y-102384155D01*
X159993094Y-102293161D01*
X159938375Y-102211269D01*
X159868731Y-102141625D01*
X159786839Y-102086906D01*
X159695845Y-102049215D01*
X159599246Y-102030000D01*
X159500754Y-102030000D01*
X159404155Y-102049215D01*
X159318047Y-102084882D01*
X159350785Y-102005845D01*
X159370000Y-101909246D01*
X159370000Y-101810754D01*
X159350785Y-101714155D01*
X159313094Y-101623161D01*
X159258375Y-101541269D01*
X159188731Y-101471625D01*
X159106839Y-101416906D01*
X159015845Y-101379215D01*
X158919246Y-101360000D01*
X158820754Y-101360000D01*
X158724155Y-101379215D01*
X158633161Y-101416906D01*
X158568667Y-101460000D01*
X156499647Y-101460000D01*
X156480000Y-101458065D01*
X156401586Y-101465788D01*
X156326185Y-101488660D01*
X156291442Y-101507231D01*
X156256697Y-101525803D01*
X156197113Y-101574703D01*
X156124155Y-101589215D01*
X156033161Y-101626906D01*
X155951269Y-101681625D01*
X155881625Y-101751269D01*
X155826906Y-101833161D01*
X155789215Y-101924155D01*
X155770000Y-102020754D01*
X155770000Y-102119246D01*
X155789215Y-102215845D01*
X155826906Y-102306839D01*
X155881625Y-102388731D01*
X155951269Y-102458375D01*
X156033161Y-102513094D01*
X156124155Y-102550785D01*
X156200233Y-102565918D01*
X156850001Y-103215687D01*
X156850000Y-104678667D01*
X156806906Y-104743161D01*
X156769215Y-104834155D01*
X156750000Y-104930754D01*
X156750000Y-105029246D01*
X156769215Y-105125845D01*
X156806906Y-105216839D01*
X156861625Y-105298731D01*
X156931269Y-105368375D01*
X157013161Y-105423094D01*
X157104155Y-105460785D01*
X157200754Y-105480000D01*
X157299246Y-105480000D01*
X157395845Y-105460785D01*
X157486839Y-105423094D01*
X157568731Y-105368375D01*
X157638375Y-105298731D01*
X157693094Y-105216839D01*
X157730785Y-105125845D01*
X157750000Y-105029246D01*
X157750000Y-104930754D01*
X157730785Y-104834155D01*
X157693094Y-104743161D01*
X157650000Y-104678667D01*
X157650000Y-103069635D01*
X157651934Y-103049999D01*
X157650000Y-103030363D01*
X157650000Y-103030353D01*
X157644212Y-102971586D01*
X157621340Y-102896186D01*
X157584197Y-102826697D01*
X157534211Y-102765789D01*
X157518953Y-102753267D01*
X157025685Y-102260000D01*
X158568667Y-102260000D01*
X158633161Y-102303094D01*
X158724155Y-102340785D01*
X158820754Y-102360000D01*
X158919246Y-102360000D01*
X159015845Y-102340785D01*
X159101953Y-102305118D01*
X159069215Y-102384155D01*
X159050000Y-102480754D01*
X159050000Y-102579246D01*
X159069215Y-102675845D01*
X159106906Y-102766839D01*
X159150001Y-102831334D01*
X159150000Y-104152312D01*
X158391048Y-104911265D01*
X158375790Y-104923787D01*
X158363268Y-104939045D01*
X158363265Y-104939048D01*
X158325803Y-104984696D01*
X158288661Y-105054184D01*
X158265788Y-105129585D01*
X158258065Y-105207998D01*
X158260001Y-105227654D01*
X158260000Y-105598666D01*
X158216906Y-105663161D01*
X158179215Y-105754155D01*
X158164082Y-105830232D01*
X157974315Y-106020000D01*
X157551333Y-106020000D01*
X157486839Y-105976906D01*
X157395845Y-105939215D01*
X157299246Y-105920000D01*
X157200754Y-105920000D01*
X157104155Y-105939215D01*
X157013161Y-105976906D01*
X156931269Y-106031625D01*
X156861625Y-106101269D01*
X156806906Y-106183161D01*
X156769215Y-106274155D01*
X156750000Y-106370754D01*
X156750000Y-106469246D01*
X156769215Y-106565845D01*
X156806906Y-106656839D01*
X156861625Y-106738731D01*
X156931269Y-106808375D01*
X157013161Y-106863094D01*
X157102260Y-106900000D01*
X151100000Y-106900000D01*
X151100000Y-100530754D01*
X157180000Y-100530754D01*
X157180000Y-100629246D01*
X157199215Y-100725845D01*
X157236906Y-100816839D01*
X157291625Y-100898731D01*
X157361269Y-100968375D01*
X157443161Y-101023094D01*
X157534155Y-101060785D01*
X157630754Y-101080000D01*
X157729246Y-101080000D01*
X157825845Y-101060785D01*
X157916839Y-101023094D01*
X157998731Y-100968375D01*
X158068375Y-100898731D01*
X158123094Y-100816839D01*
X158160785Y-100725845D01*
X158180000Y-100629246D01*
X158180000Y-100550754D01*
X165720000Y-100550754D01*
X165720000Y-100649246D01*
X165739215Y-100745845D01*
X165776906Y-100836839D01*
X165831625Y-100918731D01*
X165901269Y-100988375D01*
X165983161Y-101043094D01*
X166074155Y-101080785D01*
X166170754Y-101100000D01*
X166269246Y-101100000D01*
X166365845Y-101080785D01*
X166456839Y-101043094D01*
X166538731Y-100988375D01*
X166608375Y-100918731D01*
X166663094Y-100836839D01*
X166700785Y-100745845D01*
X166720000Y-100649246D01*
X166720000Y-100550754D01*
X166700785Y-100454155D01*
X166663094Y-100363161D01*
X166608375Y-100281269D01*
X166538731Y-100211625D01*
X166456839Y-100156906D01*
X166365845Y-100119215D01*
X166269246Y-100100000D01*
X166170754Y-100100000D01*
X166074155Y-100119215D01*
X165983161Y-100156906D01*
X165901269Y-100211625D01*
X165831625Y-100281269D01*
X165776906Y-100363161D01*
X165739215Y-100454155D01*
X165720000Y-100550754D01*
X158180000Y-100550754D01*
X158180000Y-100530754D01*
X158160785Y-100434155D01*
X158123094Y-100343161D01*
X158068375Y-100261269D01*
X157998731Y-100191625D01*
X157916839Y-100136906D01*
X157825845Y-100099215D01*
X157729246Y-100080000D01*
X157630754Y-100080000D01*
X157534155Y-100099215D01*
X157443161Y-100136906D01*
X157361269Y-100191625D01*
X157291625Y-100261269D01*
X157236906Y-100343161D01*
X157199215Y-100434155D01*
X157180000Y-100530754D01*
X151100000Y-100530754D01*
X151100000Y-98640754D01*
X157200000Y-98640754D01*
X157200000Y-98739246D01*
X157219215Y-98835845D01*
X157256906Y-98926839D01*
X157311625Y-99008731D01*
X157381269Y-99078375D01*
X157463161Y-99133094D01*
X157554155Y-99170785D01*
X157650754Y-99190000D01*
X157749246Y-99190000D01*
X157845845Y-99170785D01*
X157936839Y-99133094D01*
X158018731Y-99078375D01*
X158088375Y-99008731D01*
X158143094Y-98926839D01*
X158180785Y-98835845D01*
X158200000Y-98739246D01*
X158200000Y-98640754D01*
X158180785Y-98544155D01*
X158143094Y-98453161D01*
X158088375Y-98371269D01*
X158018731Y-98301625D01*
X157936839Y-98246906D01*
X157845845Y-98209215D01*
X157749246Y-98190000D01*
X157650754Y-98190000D01*
X157554155Y-98209215D01*
X157463161Y-98246906D01*
X157381269Y-98301625D01*
X157311625Y-98371269D01*
X157256906Y-98453161D01*
X157219215Y-98544155D01*
X157200000Y-98640754D01*
X151100000Y-98640754D01*
X151100000Y-97968538D01*
X151137224Y-97964872D01*
X151269175Y-97924845D01*
X151390781Y-97859845D01*
X151497370Y-97772370D01*
X151584845Y-97665781D01*
X151649845Y-97544175D01*
X151689872Y-97412224D01*
X151700000Y-97309390D01*
X151700000Y-96440610D01*
X151689872Y-96337776D01*
X151649845Y-96205825D01*
X151584845Y-96084219D01*
X151497369Y-95977630D01*
X151390780Y-95890155D01*
X151269174Y-95825155D01*
X151137223Y-95785128D01*
X151100000Y-95781462D01*
X151100000Y-95660754D01*
X153990000Y-95660754D01*
X153990000Y-95759246D01*
X154009215Y-95855845D01*
X154046906Y-95946839D01*
X154101625Y-96028731D01*
X154171269Y-96098375D01*
X154253161Y-96153094D01*
X154344155Y-96190785D01*
X154440754Y-96210000D01*
X154539246Y-96210000D01*
X154635845Y-96190785D01*
X154726839Y-96153094D01*
X154808731Y-96098375D01*
X154878375Y-96028731D01*
X154933094Y-95946839D01*
X154970785Y-95855845D01*
X154990000Y-95759246D01*
X154990000Y-95660754D01*
X154970785Y-95564155D01*
X154933094Y-95473161D01*
X154878375Y-95391269D01*
X154808731Y-95321625D01*
X154726839Y-95266906D01*
X154635845Y-95229215D01*
X154539246Y-95210000D01*
X154440754Y-95210000D01*
X154344155Y-95229215D01*
X154253161Y-95266906D01*
X154171269Y-95321625D01*
X154101625Y-95391269D01*
X154046906Y-95473161D01*
X154009215Y-95564155D01*
X153990000Y-95660754D01*
X151100000Y-95660754D01*
X151100000Y-93100000D01*
X153710000Y-93100000D01*
X153709999Y-94160352D01*
G37*
X153709999Y-94160352D02*
X153708064Y-94179999D01*
X153709999Y-94199645D01*
X153715787Y-94258412D01*
X153738659Y-94333812D01*
X153775802Y-94403301D01*
X153825788Y-94464210D01*
X153841051Y-94476736D01*
X154004082Y-94639767D01*
X154019215Y-94715845D01*
X154056906Y-94806839D01*
X154111625Y-94888731D01*
X154181269Y-94958375D01*
X154263161Y-95013094D01*
X154354155Y-95050785D01*
X154450754Y-95070000D01*
X154549246Y-95070000D01*
X154645845Y-95050785D01*
X154736839Y-95013094D01*
X154818731Y-94958375D01*
X154888375Y-94888731D01*
X154943094Y-94806839D01*
X154980785Y-94715845D01*
X155000000Y-94619246D01*
X155000000Y-94520754D01*
X154980785Y-94424155D01*
X154943094Y-94333161D01*
X154888375Y-94251269D01*
X154882106Y-94245000D01*
X154898375Y-94228731D01*
X154953094Y-94146839D01*
X154990785Y-94055845D01*
X155010000Y-93959246D01*
X155010000Y-93860754D01*
X154990785Y-93764155D01*
X154953094Y-93673161D01*
X154898375Y-93591269D01*
X154828731Y-93521625D01*
X154746839Y-93466906D01*
X154655845Y-93429215D01*
X154559246Y-93410000D01*
X154509999Y-93410000D01*
X154509999Y-93100000D01*
X156380002Y-93100000D01*
X156380002Y-93430000D01*
X156330754Y-93430000D01*
X156234155Y-93449215D01*
X156143161Y-93486906D01*
X156061269Y-93541625D01*
X155991625Y-93611269D01*
X155936906Y-93693161D01*
X155899215Y-93784155D01*
X155880000Y-93880754D01*
X155880000Y-93979246D01*
X155899215Y-94075845D01*
X155936906Y-94166839D01*
X155991625Y-94248731D01*
X155998636Y-94255742D01*
X155946906Y-94333161D01*
X155909215Y-94424155D01*
X155890000Y-94520754D01*
X155890000Y-94619246D01*
X155909215Y-94715845D01*
X155946906Y-94806839D01*
X156001625Y-94888731D01*
X156071269Y-94958375D01*
X156153161Y-95013094D01*
X156244155Y-95050785D01*
X156340754Y-95070000D01*
X156439246Y-95070000D01*
X156535845Y-95050785D01*
X156626839Y-95013094D01*
X156708731Y-94958375D01*
X156729999Y-94937107D01*
X156729999Y-95920352D01*
X156728064Y-95939999D01*
X156729999Y-95959645D01*
X156735787Y-96018412D01*
X156758659Y-96093812D01*
X156795802Y-96163301D01*
X156845788Y-96224210D01*
X156861051Y-96236736D01*
X157024082Y-96399767D01*
X157039215Y-96475845D01*
X157076906Y-96566839D01*
X157131625Y-96648731D01*
X157201269Y-96718375D01*
X157283161Y-96773094D01*
X157374155Y-96810785D01*
X157470754Y-96830000D01*
X157569246Y-96830000D01*
X157665845Y-96810785D01*
X157756839Y-96773094D01*
X157838731Y-96718375D01*
X157908375Y-96648731D01*
X157963094Y-96566839D01*
X158000785Y-96475845D01*
X158020000Y-96379246D01*
X158020000Y-96280754D01*
X158000785Y-96184155D01*
X157963094Y-96093161D01*
X157908375Y-96011269D01*
X157907106Y-96010000D01*
X157918375Y-95998731D01*
X157973094Y-95916839D01*
X158010785Y-95825845D01*
X158030000Y-95729246D01*
X158030000Y-95630754D01*
X158010785Y-95534155D01*
X157973094Y-95443161D01*
X157918375Y-95361269D01*
X157848731Y-95291625D01*
X157766839Y-95236906D01*
X157675845Y-95199215D01*
X157579246Y-95180000D01*
X157529999Y-95180000D01*
X157529999Y-93100000D01*
X161492313Y-93100000D01*
X159281048Y-95311265D01*
X159265790Y-95323787D01*
X159253268Y-95339045D01*
X159253265Y-95339048D01*
X159215803Y-95384696D01*
X159178661Y-95454184D01*
X159155788Y-95529585D01*
X159148065Y-95607998D01*
X159150001Y-95627654D01*
X159150000Y-96378666D01*
X159106906Y-96443161D01*
X159069215Y-96534155D01*
X159050000Y-96630754D01*
X159050000Y-96729246D01*
X159069215Y-96825845D01*
X159101953Y-96904882D01*
X159015845Y-96869215D01*
X158919246Y-96850000D01*
X158820754Y-96850000D01*
X158724155Y-96869215D01*
X158633161Y-96906906D01*
X158551269Y-96961625D01*
X158481625Y-97031269D01*
X158426906Y-97113161D01*
X158389215Y-97204155D01*
X158370000Y-97300754D01*
X158370000Y-97399246D01*
X158389215Y-97495845D01*
X158426906Y-97586839D01*
X158440700Y-97607483D01*
X158436906Y-97613161D01*
X158399215Y-97704155D01*
X158380000Y-97800754D01*
X158380000Y-97899246D01*
X158399215Y-97995845D01*
X158436906Y-98086839D01*
X158445700Y-98100000D01*
X158436906Y-98113161D01*
X158399215Y-98204155D01*
X158380000Y-98300754D01*
X158380000Y-98399246D01*
X158399215Y-98495845D01*
X158436906Y-98586839D01*
X158491625Y-98668731D01*
X158561269Y-98738375D01*
X158643161Y-98793094D01*
X158734155Y-98830785D01*
X158830754Y-98850000D01*
X158929246Y-98850000D01*
X159025845Y-98830785D01*
X159116839Y-98793094D01*
X159181333Y-98750000D01*
X160038352Y-98750000D01*
X160057998Y-98751935D01*
X160077644Y-98750000D01*
X160077645Y-98750000D01*
X160136412Y-98744212D01*
X160211812Y-98721340D01*
X160281301Y-98684197D01*
X160342209Y-98634211D01*
X160354735Y-98618948D01*
X160573685Y-98399999D01*
X166434314Y-98399999D01*
X168803267Y-100768953D01*
X168815789Y-100784211D01*
X168831047Y-100796733D01*
X168831049Y-100796735D01*
X168855546Y-100816839D01*
X168876697Y-100834197D01*
X168900000Y-100846653D01*
X168900000Y-101851108D01*
X168891856Y-101892335D01*
X168892145Y-102110592D01*
X168900000Y-102149811D01*
X168900000Y-103351108D01*
X168891856Y-103392335D01*
X168892145Y-103610592D01*
X168900000Y-103649811D01*
X168900000Y-106900000D01*
X163168538Y-106900000D01*
X163164872Y-106862776D01*
X163124845Y-106730825D01*
X163059845Y-106609219D01*
X162972370Y-106502630D01*
X162865781Y-106415155D01*
X162744175Y-106350155D01*
X162612224Y-106310128D01*
X162509390Y-106300000D01*
X161640610Y-106300000D01*
X161537776Y-106310128D01*
X161405825Y-106350155D01*
X161284219Y-106415155D01*
X161177630Y-106502630D01*
X161090155Y-106609219D01*
X161025155Y-106730825D01*
X160985128Y-106862776D01*
X160981462Y-106900000D01*
X157397740Y-106900000D01*
X157486839Y-106863094D01*
X157551333Y-106820000D01*
X158120354Y-106820000D01*
X158140000Y-106821935D01*
X158159646Y-106820000D01*
X158159647Y-106820000D01*
X158218414Y-106814212D01*
X158293814Y-106791340D01*
X158363303Y-106754197D01*
X158424211Y-106704211D01*
X158436737Y-106688948D01*
X158729768Y-106395918D01*
X158805845Y-106380785D01*
X158896839Y-106343094D01*
X158978731Y-106288375D01*
X159048375Y-106218731D01*
X159103094Y-106136839D01*
X159140785Y-106045845D01*
X159160000Y-105949246D01*
X159160000Y-105850754D01*
X159140785Y-105754155D01*
X159103094Y-105663161D01*
X159060000Y-105598667D01*
X159060000Y-105550754D01*
X166600000Y-105550754D01*
X166600000Y-105649246D01*
X166619215Y-105745845D01*
X166656906Y-105836839D01*
X166711625Y-105918731D01*
X166781269Y-105988375D01*
X166863161Y-106043094D01*
X166954155Y-106080785D01*
X167014634Y-106092815D01*
X167019215Y-106115845D01*
X167056906Y-106206839D01*
X167111625Y-106288731D01*
X167181269Y-106358375D01*
X167263161Y-106413094D01*
X167354155Y-106450785D01*
X167450754Y-106470000D01*
X167549246Y-106470000D01*
X167645845Y-106450785D01*
X167736839Y-106413094D01*
X167818731Y-106358375D01*
X167888375Y-106288731D01*
X167943094Y-106206839D01*
X167980785Y-106115845D01*
X168000000Y-106019246D01*
X168000000Y-105920754D01*
X167980785Y-105824155D01*
X167943094Y-105733161D01*
X167888375Y-105651269D01*
X167818731Y-105581625D01*
X167736839Y-105526906D01*
X167645845Y-105489215D01*
X167585366Y-105477185D01*
X167580785Y-105454155D01*
X167543094Y-105363161D01*
X167488375Y-105281269D01*
X167418731Y-105211625D01*
X167336839Y-105156906D01*
X167245845Y-105119215D01*
X167149246Y-105100000D01*
X167050754Y-105100000D01*
X166954155Y-105119215D01*
X166863161Y-105156906D01*
X166781269Y-105211625D01*
X166711625Y-105281269D01*
X166656906Y-105363161D01*
X166619215Y-105454155D01*
X166600000Y-105550754D01*
X159060000Y-105550754D01*
X159060000Y-105373683D01*
X159818954Y-104614730D01*
X159834211Y-104602209D01*
X159884197Y-104541301D01*
X159921340Y-104471812D01*
X159944212Y-104396412D01*
X159950000Y-104337645D01*
X159950000Y-104337643D01*
X159951935Y-104317999D01*
X159950000Y-104298355D01*
X159950000Y-103660754D01*
X160290000Y-103660754D01*
X160290000Y-103759246D01*
X160309215Y-103855845D01*
X160346906Y-103946839D01*
X160401625Y-104028731D01*
X160471269Y-104098375D01*
X160553161Y-104153094D01*
X160644155Y-104190785D01*
X160740754Y-104210000D01*
X160839246Y-104210000D01*
X160935845Y-104190785D01*
X161026839Y-104153094D01*
X161108731Y-104098375D01*
X161178375Y-104028731D01*
X161233094Y-103946839D01*
X161270785Y-103855845D01*
X161290000Y-103759246D01*
X161290000Y-103730754D01*
X163850000Y-103730754D01*
X163850000Y-103829246D01*
X163869215Y-103925845D01*
X163906906Y-104016839D01*
X163961625Y-104098731D01*
X164031269Y-104168375D01*
X164113161Y-104223094D01*
X164204155Y-104260785D01*
X164300754Y-104280000D01*
X164399246Y-104280000D01*
X164495845Y-104260785D01*
X164586839Y-104223094D01*
X164668731Y-104168375D01*
X164738375Y-104098731D01*
X164793094Y-104016839D01*
X164830785Y-103925845D01*
X164850000Y-103829246D01*
X164850000Y-103730754D01*
X164830785Y-103634155D01*
X164793094Y-103543161D01*
X164738375Y-103461269D01*
X164668731Y-103391625D01*
X164586839Y-103336906D01*
X164495845Y-103299215D01*
X164399246Y-103280000D01*
X164300754Y-103280000D01*
X164204155Y-103299215D01*
X164113161Y-103336906D01*
X164031269Y-103391625D01*
X163961625Y-103461269D01*
X163906906Y-103543161D01*
X163869215Y-103634155D01*
X163850000Y-103730754D01*
X161290000Y-103730754D01*
X161290000Y-103660754D01*
X161270785Y-103564155D01*
X161233094Y-103473161D01*
X161178375Y-103391269D01*
X161108731Y-103321625D01*
X161026839Y-103266906D01*
X160935845Y-103229215D01*
X160839246Y-103210000D01*
X160740754Y-103210000D01*
X160644155Y-103229215D01*
X160553161Y-103266906D01*
X160471269Y-103321625D01*
X160401625Y-103391269D01*
X160346906Y-103473161D01*
X160309215Y-103564155D01*
X160290000Y-103660754D01*
X159950000Y-103660754D01*
X159950000Y-102831333D01*
X159993094Y-102766839D01*
X159999756Y-102750754D01*
X165720000Y-102750754D01*
X165720000Y-102849246D01*
X165739215Y-102945845D01*
X165776906Y-103036839D01*
X165831625Y-103118731D01*
X165901269Y-103188375D01*
X165983161Y-103243094D01*
X166074155Y-103280785D01*
X166170754Y-103300000D01*
X166269246Y-103300000D01*
X166365845Y-103280785D01*
X166456839Y-103243094D01*
X166538731Y-103188375D01*
X166608375Y-103118731D01*
X166663094Y-103036839D01*
X166700785Y-102945845D01*
X166720000Y-102849246D01*
X166720000Y-102750754D01*
X166700785Y-102654155D01*
X166663094Y-102563161D01*
X166608375Y-102481269D01*
X166538731Y-102411625D01*
X166456839Y-102356906D01*
X166365845Y-102319215D01*
X166269246Y-102300000D01*
X166170754Y-102300000D01*
X166074155Y-102319215D01*
X165983161Y-102356906D01*
X165901269Y-102411625D01*
X165831625Y-102481269D01*
X165776906Y-102563161D01*
X165739215Y-102654155D01*
X165720000Y-102750754D01*
X159999756Y-102750754D01*
X160030785Y-102675845D01*
X160050000Y-102579246D01*
X160050000Y-102480754D01*
X160030785Y-102384155D01*
X159993094Y-102293161D01*
X159938375Y-102211269D01*
X159868731Y-102141625D01*
X159786839Y-102086906D01*
X159695845Y-102049215D01*
X159599246Y-102030000D01*
X159500754Y-102030000D01*
X159404155Y-102049215D01*
X159318047Y-102084882D01*
X159350785Y-102005845D01*
X159370000Y-101909246D01*
X159370000Y-101810754D01*
X159350785Y-101714155D01*
X159313094Y-101623161D01*
X159258375Y-101541269D01*
X159188731Y-101471625D01*
X159106839Y-101416906D01*
X159015845Y-101379215D01*
X158919246Y-101360000D01*
X158820754Y-101360000D01*
X158724155Y-101379215D01*
X158633161Y-101416906D01*
X158568667Y-101460000D01*
X156499647Y-101460000D01*
X156480000Y-101458065D01*
X156401586Y-101465788D01*
X156326185Y-101488660D01*
X156291442Y-101507231D01*
X156256697Y-101525803D01*
X156197113Y-101574703D01*
X156124155Y-101589215D01*
X156033161Y-101626906D01*
X155951269Y-101681625D01*
X155881625Y-101751269D01*
X155826906Y-101833161D01*
X155789215Y-101924155D01*
X155770000Y-102020754D01*
X155770000Y-102119246D01*
X155789215Y-102215845D01*
X155826906Y-102306839D01*
X155881625Y-102388731D01*
X155951269Y-102458375D01*
X156033161Y-102513094D01*
X156124155Y-102550785D01*
X156200233Y-102565918D01*
X156850001Y-103215687D01*
X156850000Y-104678667D01*
X156806906Y-104743161D01*
X156769215Y-104834155D01*
X156750000Y-104930754D01*
X156750000Y-105029246D01*
X156769215Y-105125845D01*
X156806906Y-105216839D01*
X156861625Y-105298731D01*
X156931269Y-105368375D01*
X157013161Y-105423094D01*
X157104155Y-105460785D01*
X157200754Y-105480000D01*
X157299246Y-105480000D01*
X157395845Y-105460785D01*
X157486839Y-105423094D01*
X157568731Y-105368375D01*
X157638375Y-105298731D01*
X157693094Y-105216839D01*
X157730785Y-105125845D01*
X157750000Y-105029246D01*
X157750000Y-104930754D01*
X157730785Y-104834155D01*
X157693094Y-104743161D01*
X157650000Y-104678667D01*
X157650000Y-103069635D01*
X157651934Y-103049999D01*
X157650000Y-103030363D01*
X157650000Y-103030353D01*
X157644212Y-102971586D01*
X157621340Y-102896186D01*
X157584197Y-102826697D01*
X157534211Y-102765789D01*
X157518953Y-102753267D01*
X157025685Y-102260000D01*
X158568667Y-102260000D01*
X158633161Y-102303094D01*
X158724155Y-102340785D01*
X158820754Y-102360000D01*
X158919246Y-102360000D01*
X159015845Y-102340785D01*
X159101953Y-102305118D01*
X159069215Y-102384155D01*
X159050000Y-102480754D01*
X159050000Y-102579246D01*
X159069215Y-102675845D01*
X159106906Y-102766839D01*
X159150001Y-102831334D01*
X159150000Y-104152312D01*
X158391048Y-104911265D01*
X158375790Y-104923787D01*
X158363268Y-104939045D01*
X158363265Y-104939048D01*
X158325803Y-104984696D01*
X158288661Y-105054184D01*
X158265788Y-105129585D01*
X158258065Y-105207998D01*
X158260001Y-105227654D01*
X158260000Y-105598666D01*
X158216906Y-105663161D01*
X158179215Y-105754155D01*
X158164082Y-105830232D01*
X157974315Y-106020000D01*
X157551333Y-106020000D01*
X157486839Y-105976906D01*
X157395845Y-105939215D01*
X157299246Y-105920000D01*
X157200754Y-105920000D01*
X157104155Y-105939215D01*
X157013161Y-105976906D01*
X156931269Y-106031625D01*
X156861625Y-106101269D01*
X156806906Y-106183161D01*
X156769215Y-106274155D01*
X156750000Y-106370754D01*
X156750000Y-106469246D01*
X156769215Y-106565845D01*
X156806906Y-106656839D01*
X156861625Y-106738731D01*
X156931269Y-106808375D01*
X157013161Y-106863094D01*
X157102260Y-106900000D01*
X151100000Y-106900000D01*
X151100000Y-100530754D01*
X157180000Y-100530754D01*
X157180000Y-100629246D01*
X157199215Y-100725845D01*
X157236906Y-100816839D01*
X157291625Y-100898731D01*
X157361269Y-100968375D01*
X157443161Y-101023094D01*
X157534155Y-101060785D01*
X157630754Y-101080000D01*
X157729246Y-101080000D01*
X157825845Y-101060785D01*
X157916839Y-101023094D01*
X157998731Y-100968375D01*
X158068375Y-100898731D01*
X158123094Y-100816839D01*
X158160785Y-100725845D01*
X158180000Y-100629246D01*
X158180000Y-100550754D01*
X165720000Y-100550754D01*
X165720000Y-100649246D01*
X165739215Y-100745845D01*
X165776906Y-100836839D01*
X165831625Y-100918731D01*
X165901269Y-100988375D01*
X165983161Y-101043094D01*
X166074155Y-101080785D01*
X166170754Y-101100000D01*
X166269246Y-101100000D01*
X166365845Y-101080785D01*
X166456839Y-101043094D01*
X166538731Y-100988375D01*
X166608375Y-100918731D01*
X166663094Y-100836839D01*
X166700785Y-100745845D01*
X166720000Y-100649246D01*
X166720000Y-100550754D01*
X166700785Y-100454155D01*
X166663094Y-100363161D01*
X166608375Y-100281269D01*
X166538731Y-100211625D01*
X166456839Y-100156906D01*
X166365845Y-100119215D01*
X166269246Y-100100000D01*
X166170754Y-100100000D01*
X166074155Y-100119215D01*
X165983161Y-100156906D01*
X165901269Y-100211625D01*
X165831625Y-100281269D01*
X165776906Y-100363161D01*
X165739215Y-100454155D01*
X165720000Y-100550754D01*
X158180000Y-100550754D01*
X158180000Y-100530754D01*
X158160785Y-100434155D01*
X158123094Y-100343161D01*
X158068375Y-100261269D01*
X157998731Y-100191625D01*
X157916839Y-100136906D01*
X157825845Y-100099215D01*
X157729246Y-100080000D01*
X157630754Y-100080000D01*
X157534155Y-100099215D01*
X157443161Y-100136906D01*
X157361269Y-100191625D01*
X157291625Y-100261269D01*
X157236906Y-100343161D01*
X157199215Y-100434155D01*
X157180000Y-100530754D01*
X151100000Y-100530754D01*
X151100000Y-98640754D01*
X157200000Y-98640754D01*
X157200000Y-98739246D01*
X157219215Y-98835845D01*
X157256906Y-98926839D01*
X157311625Y-99008731D01*
X157381269Y-99078375D01*
X157463161Y-99133094D01*
X157554155Y-99170785D01*
X157650754Y-99190000D01*
X157749246Y-99190000D01*
X157845845Y-99170785D01*
X157936839Y-99133094D01*
X158018731Y-99078375D01*
X158088375Y-99008731D01*
X158143094Y-98926839D01*
X158180785Y-98835845D01*
X158200000Y-98739246D01*
X158200000Y-98640754D01*
X158180785Y-98544155D01*
X158143094Y-98453161D01*
X158088375Y-98371269D01*
X158018731Y-98301625D01*
X157936839Y-98246906D01*
X157845845Y-98209215D01*
X157749246Y-98190000D01*
X157650754Y-98190000D01*
X157554155Y-98209215D01*
X157463161Y-98246906D01*
X157381269Y-98301625D01*
X157311625Y-98371269D01*
X157256906Y-98453161D01*
X157219215Y-98544155D01*
X157200000Y-98640754D01*
X151100000Y-98640754D01*
X151100000Y-97968538D01*
X151137224Y-97964872D01*
X151269175Y-97924845D01*
X151390781Y-97859845D01*
X151497370Y-97772370D01*
X151584845Y-97665781D01*
X151649845Y-97544175D01*
X151689872Y-97412224D01*
X151700000Y-97309390D01*
X151700000Y-96440610D01*
X151689872Y-96337776D01*
X151649845Y-96205825D01*
X151584845Y-96084219D01*
X151497369Y-95977630D01*
X151390780Y-95890155D01*
X151269174Y-95825155D01*
X151137223Y-95785128D01*
X151100000Y-95781462D01*
X151100000Y-95660754D01*
X153990000Y-95660754D01*
X153990000Y-95759246D01*
X154009215Y-95855845D01*
X154046906Y-95946839D01*
X154101625Y-96028731D01*
X154171269Y-96098375D01*
X154253161Y-96153094D01*
X154344155Y-96190785D01*
X154440754Y-96210000D01*
X154539246Y-96210000D01*
X154635845Y-96190785D01*
X154726839Y-96153094D01*
X154808731Y-96098375D01*
X154878375Y-96028731D01*
X154933094Y-95946839D01*
X154970785Y-95855845D01*
X154990000Y-95759246D01*
X154990000Y-95660754D01*
X154970785Y-95564155D01*
X154933094Y-95473161D01*
X154878375Y-95391269D01*
X154808731Y-95321625D01*
X154726839Y-95266906D01*
X154635845Y-95229215D01*
X154539246Y-95210000D01*
X154440754Y-95210000D01*
X154344155Y-95229215D01*
X154253161Y-95266906D01*
X154171269Y-95321625D01*
X154101625Y-95391269D01*
X154046906Y-95473161D01*
X154009215Y-95564155D01*
X153990000Y-95660754D01*
X151100000Y-95660754D01*
X151100000Y-93100000D01*
X153710000Y-93100000D01*
X153709999Y-94160352D01*
G36*
X168900000Y-98600000D02*
G01*
X168343684Y-98600000D01*
X167493683Y-97750000D01*
X168900000Y-97750000D01*
X168900000Y-98600000D01*
G37*
X168900000Y-98600000D02*
X168343684Y-98600000D01*
X167493683Y-97750000D01*
X168900000Y-97750000D01*
X168900000Y-98600000D01*
G36*
X168900000Y-96950000D02*
G01*
X166598353Y-96950000D01*
X166620785Y-96895845D01*
X166640000Y-96799246D01*
X166640000Y-96700754D01*
X166620785Y-96604155D01*
X166583094Y-96513161D01*
X166528375Y-96431269D01*
X166458731Y-96361625D01*
X166376839Y-96306906D01*
X166285845Y-96269215D01*
X166189246Y-96250000D01*
X166090754Y-96250000D01*
X165994155Y-96269215D01*
X165926405Y-96297278D01*
X166113684Y-96109999D01*
X166277832Y-96109999D01*
X166292694Y-96122196D01*
X166362183Y-96159339D01*
X166437583Y-96182211D01*
X166496350Y-96187999D01*
X166496351Y-96187999D01*
X166515997Y-96189934D01*
X166535644Y-96187999D01*
X167250353Y-96187999D01*
X167269999Y-96189934D01*
X167289645Y-96187999D01*
X167289646Y-96187999D01*
X167348413Y-96182211D01*
X167423813Y-96159339D01*
X167493302Y-96122196D01*
X167554210Y-96072210D01*
X167566737Y-96056946D01*
X167643684Y-95979999D01*
X168900000Y-95979999D01*
X168900000Y-96950000D01*
G37*
X168900000Y-96950000D02*
X166598353Y-96950000D01*
X166620785Y-96895845D01*
X166640000Y-96799246D01*
X166640000Y-96700754D01*
X166620785Y-96604155D01*
X166583094Y-96513161D01*
X166528375Y-96431269D01*
X166458731Y-96361625D01*
X166376839Y-96306906D01*
X166285845Y-96269215D01*
X166189246Y-96250000D01*
X166090754Y-96250000D01*
X165994155Y-96269215D01*
X165926405Y-96297278D01*
X166113684Y-96109999D01*
X166277832Y-96109999D01*
X166292694Y-96122196D01*
X166362183Y-96159339D01*
X166437583Y-96182211D01*
X166496350Y-96187999D01*
X166496351Y-96187999D01*
X166515997Y-96189934D01*
X166535644Y-96187999D01*
X167250353Y-96187999D01*
X167269999Y-96189934D01*
X167289645Y-96187999D01*
X167289646Y-96187999D01*
X167348413Y-96182211D01*
X167423813Y-96159339D01*
X167493302Y-96122196D01*
X167554210Y-96072210D01*
X167566737Y-96056946D01*
X167643684Y-95979999D01*
X168900000Y-95979999D01*
X168900000Y-96950000D01*
G36*
X165659215Y-96604155D02*
G01*
X165640000Y-96700754D01*
X165640000Y-96799246D01*
X165659215Y-96895845D01*
X165681647Y-96950000D01*
X161450891Y-96950000D01*
X161493094Y-96886839D01*
X161530785Y-96795845D01*
X161550000Y-96699246D01*
X161550000Y-96679999D01*
X165358353Y-96679999D01*
X165377999Y-96681934D01*
X165397645Y-96679999D01*
X165397646Y-96679999D01*
X165456413Y-96674211D01*
X165531813Y-96651339D01*
X165601302Y-96614196D01*
X165662210Y-96564210D01*
X165674736Y-96548947D01*
X165687278Y-96536405D01*
X165659215Y-96604155D01*
G37*
X165659215Y-96604155D02*
X165640000Y-96700754D01*
X165640000Y-96799246D01*
X165659215Y-96895845D01*
X165681647Y-96950000D01*
X161450891Y-96950000D01*
X161493094Y-96886839D01*
X161530785Y-96795845D01*
X161550000Y-96699246D01*
X161550000Y-96679999D01*
X165358353Y-96679999D01*
X165377999Y-96681934D01*
X165397645Y-96679999D01*
X165397646Y-96679999D01*
X165456413Y-96674211D01*
X165531813Y-96651339D01*
X165601302Y-96614196D01*
X165662210Y-96564210D01*
X165674736Y-96548947D01*
X165687278Y-96536405D01*
X165659215Y-96604155D01*
G36*
X161670723Y-94295594D02*
G01*
X161668743Y-94295789D01*
X161593343Y-94318661D01*
X161523854Y-94355804D01*
X161462946Y-94405790D01*
X161450422Y-94421051D01*
X159950000Y-95921473D01*
X159950000Y-95773683D01*
X162246947Y-93476736D01*
X162262209Y-93464211D01*
X162312195Y-93403303D01*
X162349338Y-93333814D01*
X162372210Y-93258414D01*
X162377998Y-93199647D01*
X162377998Y-93199646D01*
X162379933Y-93180000D01*
X162377998Y-93160353D01*
X162377998Y-93100000D01*
X162866317Y-93100000D01*
X161670723Y-94295594D01*
G37*
X161670723Y-94295594D02*
X161668743Y-94295789D01*
X161593343Y-94318661D01*
X161523854Y-94355804D01*
X161462946Y-94405790D01*
X161450422Y-94421051D01*
X159950000Y-95921473D01*
X159950000Y-95773683D01*
X162246947Y-93476736D01*
X162262209Y-93464211D01*
X162312195Y-93403303D01*
X162349338Y-93333814D01*
X162372210Y-93258414D01*
X162377998Y-93199647D01*
X162377998Y-93199646D01*
X162379933Y-93180000D01*
X162377998Y-93160353D01*
X162377998Y-93100000D01*
X162866317Y-93100000D01*
X161670723Y-94295594D01*
G36*
X168900000Y-95179999D02*
G01*
X167497634Y-95179999D01*
X167477998Y-95178065D01*
X167458362Y-95179999D01*
X167458352Y-95179999D01*
X167399585Y-95185787D01*
X167324185Y-95208659D01*
X167254696Y-95245802D01*
X167193788Y-95295788D01*
X167181258Y-95311056D01*
X167104315Y-95387999D01*
X166676162Y-95387999D01*
X166661300Y-95375802D01*
X166591811Y-95338659D01*
X166516411Y-95315787D01*
X166457644Y-95309999D01*
X166457643Y-95309999D01*
X166437997Y-95308064D01*
X166418351Y-95309999D01*
X165967646Y-95309999D01*
X165947999Y-95308064D01*
X165928352Y-95309999D01*
X165869585Y-95315787D01*
X165794185Y-95338659D01*
X165724696Y-95375802D01*
X165663788Y-95425788D01*
X165651262Y-95441051D01*
X165212314Y-95879999D01*
X162627688Y-95879999D01*
X164256933Y-94250754D01*
X165640000Y-94250754D01*
X165640000Y-94349246D01*
X165659215Y-94445845D01*
X165696906Y-94536839D01*
X165751625Y-94618731D01*
X165821269Y-94688375D01*
X165903161Y-94743094D01*
X165994155Y-94780785D01*
X166090754Y-94800000D01*
X166189246Y-94800000D01*
X166285845Y-94780785D01*
X166376839Y-94743094D01*
X166458731Y-94688375D01*
X166528375Y-94618731D01*
X166583094Y-94536839D01*
X166620785Y-94445845D01*
X166640000Y-94349246D01*
X166640000Y-94250754D01*
X166620785Y-94154155D01*
X166583094Y-94063161D01*
X166528375Y-93981269D01*
X166458731Y-93911625D01*
X166376839Y-93856906D01*
X166285845Y-93819215D01*
X166189246Y-93800000D01*
X166090754Y-93800000D01*
X165994155Y-93819215D01*
X165903161Y-93856906D01*
X165821269Y-93911625D01*
X165751625Y-93981269D01*
X165696906Y-94063161D01*
X165659215Y-94154155D01*
X165640000Y-94250754D01*
X164256933Y-94250754D01*
X165268949Y-93238738D01*
X165284211Y-93226213D01*
X165334197Y-93165305D01*
X165369104Y-93100000D01*
X168900000Y-93100000D01*
X168900000Y-95179999D01*
G37*
X168900000Y-95179999D02*
X167497634Y-95179999D01*
X167477998Y-95178065D01*
X167458362Y-95179999D01*
X167458352Y-95179999D01*
X167399585Y-95185787D01*
X167324185Y-95208659D01*
X167254696Y-95245802D01*
X167193788Y-95295788D01*
X167181258Y-95311056D01*
X167104315Y-95387999D01*
X166676162Y-95387999D01*
X166661300Y-95375802D01*
X166591811Y-95338659D01*
X166516411Y-95315787D01*
X166457644Y-95309999D01*
X166457643Y-95309999D01*
X166437997Y-95308064D01*
X166418351Y-95309999D01*
X165967646Y-95309999D01*
X165947999Y-95308064D01*
X165928352Y-95309999D01*
X165869585Y-95315787D01*
X165794185Y-95338659D01*
X165724696Y-95375802D01*
X165663788Y-95425788D01*
X165651262Y-95441051D01*
X165212314Y-95879999D01*
X162627688Y-95879999D01*
X164256933Y-94250754D01*
X165640000Y-94250754D01*
X165640000Y-94349246D01*
X165659215Y-94445845D01*
X165696906Y-94536839D01*
X165751625Y-94618731D01*
X165821269Y-94688375D01*
X165903161Y-94743094D01*
X165994155Y-94780785D01*
X166090754Y-94800000D01*
X166189246Y-94800000D01*
X166285845Y-94780785D01*
X166376839Y-94743094D01*
X166458731Y-94688375D01*
X166528375Y-94618731D01*
X166583094Y-94536839D01*
X166620785Y-94445845D01*
X166640000Y-94349246D01*
X166640000Y-94250754D01*
X166620785Y-94154155D01*
X166583094Y-94063161D01*
X166528375Y-93981269D01*
X166458731Y-93911625D01*
X166376839Y-93856906D01*
X166285845Y-93819215D01*
X166189246Y-93800000D01*
X166090754Y-93800000D01*
X165994155Y-93819215D01*
X165903161Y-93856906D01*
X165821269Y-93911625D01*
X165751625Y-93981269D01*
X165696906Y-94063161D01*
X165659215Y-94154155D01*
X165640000Y-94250754D01*
X164256933Y-94250754D01*
X165268949Y-93238738D01*
X165284211Y-93226213D01*
X165334197Y-93165305D01*
X165369104Y-93100000D01*
X168900000Y-93100000D01*
X168900000Y-95179999D01*
G36*
X161846316Y-95530001D02*
G01*
X161472842Y-95530001D01*
X161918435Y-95084408D01*
X161920415Y-95084213D01*
X161995815Y-95061341D01*
X162065304Y-95024198D01*
X162126212Y-94974212D01*
X162138738Y-94958949D01*
X163768949Y-93328738D01*
X163784211Y-93316213D01*
X163834197Y-93255305D01*
X163871340Y-93185816D01*
X163894212Y-93110416D01*
X163895238Y-93100000D01*
X164276317Y-93100000D01*
X161846316Y-95530001D01*
G37*
X161846316Y-95530001D02*
X161472842Y-95530001D01*
X161918435Y-95084408D01*
X161920415Y-95084213D01*
X161995815Y-95061341D01*
X162065304Y-95024198D01*
X162126212Y-94974212D01*
X162138738Y-94958949D01*
X163768949Y-93328738D01*
X163784211Y-93316213D01*
X163834197Y-93255305D01*
X163871340Y-93185816D01*
X163894212Y-93110416D01*
X163895238Y-93100000D01*
X164276317Y-93100000D01*
X161846316Y-95530001D01*
%TD*%
M02*
