%TF.GenerationSoftware,KiCad,Pcbnew,(5.1.6-0-10_14)*%
%TF.CreationDate,2020-10-31T13:09:24+09:00*%
%TF.ProjectId,RF920A,52463932-3041-42e6-9b69-6361645f7063,rev?*%
%TF.SameCoordinates,Original*%
%TF.FileFunction,Copper,L2,Inr*%
%TF.FilePolarity,Positive*%
%FSLAX46Y46*%
G04 Gerber Fmt 4.6, Leading zero omitted, Abs format (unit mm)*
G04 Created by KiCad (PCBNEW (5.1.6-0-10_14)) date 2020-10-31 13:09:24*
%MOMM*%
%LPD*%
G01*
G04 APERTURE LIST*
%TA.AperFunction,WasherPad*%
%ADD10O,1.600000X0.800000*%
%TD*%
%TA.AperFunction,ViaPad*%
%ADD11C,1.000000*%
%TD*%
%TA.AperFunction,ViaPad*%
%ADD12C,0.400000*%
%TD*%
%TA.AperFunction,Conductor*%
%ADD13C,0.254000*%
%TD*%
G04 APERTURE END LIST*
D10*
%TO.N,*%
%TO.C,U7*%
X162125000Y-106970000D03*
X161550000Y-92970000D03*
%TD*%
D11*
%TO.N,/SDA*%
%TO.C,J19*%
X154530000Y-92000000D03*
%TD*%
%TO.N,GND*%
%TO.C,J17*%
X170000000Y-103500000D03*
%TD*%
%TO.N,GND*%
%TO.C,J16*%
X170000000Y-102000000D03*
%TD*%
%TO.N,+3.3VA*%
%TO.C,J14*%
X165500000Y-108000000D03*
%TD*%
%TO.N,+3.3VA*%
%TO.C,J13*%
X164000000Y-108000000D03*
%TD*%
%TO.N,/SCL*%
%TO.C,J12*%
X153030000Y-92000000D03*
%TD*%
%TO.N,/WP*%
%TO.C,J11*%
X151530000Y-92000000D03*
%TD*%
%TO.N,/RESETN*%
%TO.C,J10*%
X170000000Y-96000000D03*
%TD*%
%TO.N,/REGPDIN*%
%TO.C,J9*%
X166000000Y-92000000D03*
%TD*%
%TO.N,/SDO*%
%TO.C,J8*%
X164500000Y-92000000D03*
%TD*%
%TO.N,/SINTN*%
%TO.C,J7*%
X163000000Y-92000000D03*
%TD*%
%TO.N,/SCLK*%
%TO.C,J6*%
X170000000Y-97500000D03*
%TD*%
%TO.N,/SCEN*%
%TO.C,J5*%
X170000000Y-99000000D03*
%TD*%
%TO.N,/SDI*%
%TO.C,J4*%
X170000000Y-100500000D03*
%TD*%
%TO.N,+3V3*%
%TO.C,J2*%
X160000000Y-92000000D03*
%TD*%
%TO.N,Net-(J1-Pad1)*%
%TO.C,J1*%
X154500000Y-108000000D03*
%TD*%
D12*
%TO.N,GND*%
X153550000Y-100880000D03*
X152100000Y-100440000D03*
X168150000Y-98440000D03*
X168150000Y-97740000D03*
X161950000Y-94600000D03*
X151820000Y-95450000D03*
X152150000Y-97520000D03*
X153600000Y-97960000D03*
X167340000Y-103880000D03*
X166890000Y-103510000D03*
X160580000Y-95170000D03*
X159250000Y-94130000D03*
X157390000Y-95180000D03*
X165670000Y-105150000D03*
X165670000Y-105840000D03*
X167500000Y-102590000D03*
X166750000Y-102640000D03*
X166750000Y-101230000D03*
X166800000Y-100560000D03*
X159350000Y-106290000D03*
X160760000Y-105200000D03*
X161430000Y-103710000D03*
X155400000Y-103850000D03*
X163570000Y-103700000D03*
X163570000Y-104450000D03*
X159350000Y-105050000D03*
X162240000Y-105310000D03*
X164350000Y-104400000D03*
X168080000Y-95950000D03*
X166750000Y-97030000D03*
X163060000Y-94290000D03*
X162780000Y-95390000D03*
X161550000Y-96480000D03*
X153350000Y-103910000D03*
X157670000Y-99940000D03*
X157690000Y-98060000D03*
X158870000Y-101350000D03*
X160600000Y-98400000D03*
X161400000Y-99200000D03*
X161400000Y-98400000D03*
X160600000Y-99200000D03*
X160600000Y-100000000D03*
X161400000Y-100000000D03*
X160600000Y-100800000D03*
X161400000Y-100800000D03*
X162200000Y-100800000D03*
X163000000Y-100800000D03*
X163000000Y-100000000D03*
X162200000Y-100000000D03*
X162200000Y-98400000D03*
X163000000Y-98400000D03*
X162200000Y-99200000D03*
X163000000Y-99200000D03*
X157500000Y-101850000D03*
X164180000Y-95390000D03*
X156800000Y-101850000D03*
X166800000Y-94850000D03*
X156090000Y-100410000D03*
X156090000Y-99480000D03*
X156100000Y-98590000D03*
X156070000Y-97730000D03*
X156050000Y-96910000D03*
%TO.N,/VDDCP*%
X164720000Y-101350000D03*
X164730000Y-100350000D03*
X166150000Y-102640000D03*
X166150000Y-100530000D03*
X160790000Y-103710000D03*
X164780000Y-95390000D03*
X166500000Y-95950000D03*
%TO.N,+3V3*%
X151820000Y-94850000D03*
X151870000Y-94100000D03*
X154620000Y-94890000D03*
X157670000Y-100540000D03*
X157700000Y-98660000D03*
X153270000Y-94100000D03*
%TO.N,Net-(C45-Pad1)*%
X159550000Y-102530000D03*
X158750000Y-106290000D03*
%TO.N,Net-(C46-Pad2)*%
X157500000Y-102450000D03*
X157190000Y-104830000D03*
%TO.N,/SDI*%
X158680000Y-98350000D03*
%TO.N,/SCEN*%
X159080000Y-97850000D03*
%TO.N,/SCLK*%
X158680000Y-97350000D03*
%TO.N,/SINTN*%
X159550000Y-96480000D03*
%TO.N,/SDO*%
X160050000Y-96830000D03*
%TO.N,/REGPDIN*%
X160550000Y-96480000D03*
%TO.N,/RESETN*%
X161050000Y-96870000D03*
%TO.N,+3.3VA*%
X166890000Y-105090000D03*
X166150000Y-97030000D03*
X167360000Y-105460000D03*
X164350000Y-103780000D03*
%TO.N,/WP*%
X152470000Y-94100000D03*
%TO.N,/SDA*%
X154620000Y-95490000D03*
%TD*%
D13*
%TO.N,GND*%
G36*
X160439505Y-93132246D02*
G01*
X160475090Y-93249557D01*
X160542597Y-93375853D01*
X160633446Y-93486554D01*
X160744147Y-93577403D01*
X160870443Y-93644910D01*
X161007483Y-93686480D01*
X161114292Y-93697000D01*
X161985708Y-93697000D01*
X162092517Y-93686480D01*
X162229557Y-93644910D01*
X162355853Y-93577403D01*
X162466554Y-93486554D01*
X162557403Y-93375853D01*
X162624910Y-93249557D01*
X162660121Y-93133479D01*
X168873000Y-93136930D01*
X168873000Y-101837966D01*
X168868269Y-101858905D01*
X168862489Y-102082406D01*
X168873000Y-102143458D01*
X168873000Y-103337966D01*
X168868269Y-103358905D01*
X168862489Y-103582406D01*
X168873000Y-103643458D01*
X168873000Y-106853000D01*
X163243993Y-106853000D01*
X163241480Y-106827483D01*
X163199910Y-106690443D01*
X163132403Y-106564147D01*
X163041554Y-106453446D01*
X162930853Y-106362597D01*
X162804557Y-106295090D01*
X162667517Y-106253520D01*
X162560708Y-106243000D01*
X161689292Y-106243000D01*
X161582483Y-106253520D01*
X161445443Y-106295090D01*
X161319147Y-106362597D01*
X161208446Y-106453446D01*
X161117597Y-106564147D01*
X161050090Y-106690443D01*
X161008520Y-106827483D01*
X161006007Y-106853000D01*
X151131909Y-106853000D01*
X151131470Y-106238095D01*
X158223000Y-106238095D01*
X158223000Y-106341905D01*
X158243252Y-106443720D01*
X158282979Y-106539628D01*
X158340652Y-106625943D01*
X158414057Y-106699348D01*
X158500372Y-106757021D01*
X158596280Y-106796748D01*
X158698095Y-106817000D01*
X158801905Y-106817000D01*
X158903720Y-106796748D01*
X158999628Y-106757021D01*
X159085943Y-106699348D01*
X159159348Y-106625943D01*
X159217021Y-106539628D01*
X159256748Y-106443720D01*
X159277000Y-106341905D01*
X159277000Y-106238095D01*
X159256748Y-106136280D01*
X159217021Y-106040372D01*
X159159348Y-105954057D01*
X159085943Y-105880652D01*
X158999628Y-105822979D01*
X158903720Y-105783252D01*
X158801905Y-105763000D01*
X158698095Y-105763000D01*
X158596280Y-105783252D01*
X158500372Y-105822979D01*
X158414057Y-105880652D01*
X158340652Y-105954057D01*
X158282979Y-106040372D01*
X158243252Y-106136280D01*
X158223000Y-106238095D01*
X151131470Y-106238095D01*
X151130425Y-104778095D01*
X156663000Y-104778095D01*
X156663000Y-104881905D01*
X156683252Y-104983720D01*
X156722979Y-105079628D01*
X156780652Y-105165943D01*
X156854057Y-105239348D01*
X156940372Y-105297021D01*
X157036280Y-105336748D01*
X157138095Y-105357000D01*
X157241905Y-105357000D01*
X157343720Y-105336748D01*
X157439628Y-105297021D01*
X157525943Y-105239348D01*
X157599348Y-105165943D01*
X157657021Y-105079628D01*
X157674224Y-105038095D01*
X166363000Y-105038095D01*
X166363000Y-105141905D01*
X166383252Y-105243720D01*
X166422979Y-105339628D01*
X166480652Y-105425943D01*
X166554057Y-105499348D01*
X166640372Y-105557021D01*
X166736280Y-105596748D01*
X166838095Y-105617000D01*
X166854611Y-105617000D01*
X166892979Y-105709628D01*
X166950652Y-105795943D01*
X167024057Y-105869348D01*
X167110372Y-105927021D01*
X167206280Y-105966748D01*
X167308095Y-105987000D01*
X167411905Y-105987000D01*
X167513720Y-105966748D01*
X167609628Y-105927021D01*
X167695943Y-105869348D01*
X167769348Y-105795943D01*
X167827021Y-105709628D01*
X167866748Y-105613720D01*
X167887000Y-105511905D01*
X167887000Y-105408095D01*
X167866748Y-105306280D01*
X167827021Y-105210372D01*
X167769348Y-105124057D01*
X167695943Y-105050652D01*
X167609628Y-104992979D01*
X167513720Y-104953252D01*
X167411905Y-104933000D01*
X167395389Y-104933000D01*
X167357021Y-104840372D01*
X167299348Y-104754057D01*
X167225943Y-104680652D01*
X167139628Y-104622979D01*
X167043720Y-104583252D01*
X166941905Y-104563000D01*
X166838095Y-104563000D01*
X166736280Y-104583252D01*
X166640372Y-104622979D01*
X166554057Y-104680652D01*
X166480652Y-104754057D01*
X166422979Y-104840372D01*
X166383252Y-104936280D01*
X166363000Y-105038095D01*
X157674224Y-105038095D01*
X157696748Y-104983720D01*
X157717000Y-104881905D01*
X157717000Y-104778095D01*
X157696748Y-104676280D01*
X157657021Y-104580372D01*
X157599348Y-104494057D01*
X157525943Y-104420652D01*
X157439628Y-104362979D01*
X157343720Y-104323252D01*
X157241905Y-104303000D01*
X157138095Y-104303000D01*
X157036280Y-104323252D01*
X156940372Y-104362979D01*
X156854057Y-104420652D01*
X156780652Y-104494057D01*
X156722979Y-104580372D01*
X156683252Y-104676280D01*
X156663000Y-104778095D01*
X151130425Y-104778095D01*
X151129625Y-103658095D01*
X160263000Y-103658095D01*
X160263000Y-103761905D01*
X160283252Y-103863720D01*
X160322979Y-103959628D01*
X160380652Y-104045943D01*
X160454057Y-104119348D01*
X160540372Y-104177021D01*
X160636280Y-104216748D01*
X160738095Y-104237000D01*
X160841905Y-104237000D01*
X160943720Y-104216748D01*
X161039628Y-104177021D01*
X161125943Y-104119348D01*
X161199348Y-104045943D01*
X161257021Y-103959628D01*
X161296748Y-103863720D01*
X161317000Y-103761905D01*
X161317000Y-103728095D01*
X163823000Y-103728095D01*
X163823000Y-103831905D01*
X163843252Y-103933720D01*
X163882979Y-104029628D01*
X163940652Y-104115943D01*
X164014057Y-104189348D01*
X164100372Y-104247021D01*
X164196280Y-104286748D01*
X164298095Y-104307000D01*
X164401905Y-104307000D01*
X164503720Y-104286748D01*
X164599628Y-104247021D01*
X164685943Y-104189348D01*
X164759348Y-104115943D01*
X164817021Y-104029628D01*
X164856748Y-103933720D01*
X164877000Y-103831905D01*
X164877000Y-103728095D01*
X164856748Y-103626280D01*
X164817021Y-103530372D01*
X164759348Y-103444057D01*
X164685943Y-103370652D01*
X164599628Y-103312979D01*
X164503720Y-103273252D01*
X164401905Y-103253000D01*
X164298095Y-103253000D01*
X164196280Y-103273252D01*
X164100372Y-103312979D01*
X164014057Y-103370652D01*
X163940652Y-103444057D01*
X163882979Y-103530372D01*
X163843252Y-103626280D01*
X163823000Y-103728095D01*
X161317000Y-103728095D01*
X161317000Y-103658095D01*
X161296748Y-103556280D01*
X161257021Y-103460372D01*
X161199348Y-103374057D01*
X161125943Y-103300652D01*
X161039628Y-103242979D01*
X160943720Y-103203252D01*
X160841905Y-103183000D01*
X160738095Y-103183000D01*
X160636280Y-103203252D01*
X160540372Y-103242979D01*
X160454057Y-103300652D01*
X160380652Y-103374057D01*
X160322979Y-103460372D01*
X160283252Y-103556280D01*
X160263000Y-103658095D01*
X151129625Y-103658095D01*
X151128723Y-102398095D01*
X156973000Y-102398095D01*
X156973000Y-102501905D01*
X156993252Y-102603720D01*
X157032979Y-102699628D01*
X157090652Y-102785943D01*
X157164057Y-102859348D01*
X157250372Y-102917021D01*
X157346280Y-102956748D01*
X157448095Y-102977000D01*
X157551905Y-102977000D01*
X157653720Y-102956748D01*
X157749628Y-102917021D01*
X157835943Y-102859348D01*
X157909348Y-102785943D01*
X157967021Y-102699628D01*
X158006748Y-102603720D01*
X158027000Y-102501905D01*
X158027000Y-102478095D01*
X159023000Y-102478095D01*
X159023000Y-102581905D01*
X159043252Y-102683720D01*
X159082979Y-102779628D01*
X159140652Y-102865943D01*
X159214057Y-102939348D01*
X159300372Y-102997021D01*
X159396280Y-103036748D01*
X159498095Y-103057000D01*
X159601905Y-103057000D01*
X159703720Y-103036748D01*
X159799628Y-102997021D01*
X159885943Y-102939348D01*
X159959348Y-102865943D01*
X160017021Y-102779628D01*
X160056748Y-102683720D01*
X160075768Y-102588095D01*
X165623000Y-102588095D01*
X165623000Y-102691905D01*
X165643252Y-102793720D01*
X165682979Y-102889628D01*
X165740652Y-102975943D01*
X165814057Y-103049348D01*
X165900372Y-103107021D01*
X165996280Y-103146748D01*
X166098095Y-103167000D01*
X166201905Y-103167000D01*
X166303720Y-103146748D01*
X166399628Y-103107021D01*
X166485943Y-103049348D01*
X166559348Y-102975943D01*
X166617021Y-102889628D01*
X166656748Y-102793720D01*
X166677000Y-102691905D01*
X166677000Y-102588095D01*
X166656748Y-102486280D01*
X166617021Y-102390372D01*
X166559348Y-102304057D01*
X166485943Y-102230652D01*
X166399628Y-102172979D01*
X166303720Y-102133252D01*
X166201905Y-102113000D01*
X166098095Y-102113000D01*
X165996280Y-102133252D01*
X165900372Y-102172979D01*
X165814057Y-102230652D01*
X165740652Y-102304057D01*
X165682979Y-102390372D01*
X165643252Y-102486280D01*
X165623000Y-102588095D01*
X160075768Y-102588095D01*
X160077000Y-102581905D01*
X160077000Y-102478095D01*
X160056748Y-102376280D01*
X160017021Y-102280372D01*
X159959348Y-102194057D01*
X159885943Y-102120652D01*
X159799628Y-102062979D01*
X159703720Y-102023252D01*
X159601905Y-102003000D01*
X159498095Y-102003000D01*
X159396280Y-102023252D01*
X159300372Y-102062979D01*
X159214057Y-102120652D01*
X159140652Y-102194057D01*
X159082979Y-102280372D01*
X159043252Y-102376280D01*
X159023000Y-102478095D01*
X158027000Y-102478095D01*
X158027000Y-102398095D01*
X158006748Y-102296280D01*
X157967021Y-102200372D01*
X157909348Y-102114057D01*
X157835943Y-102040652D01*
X157749628Y-101982979D01*
X157653720Y-101943252D01*
X157551905Y-101923000D01*
X157448095Y-101923000D01*
X157346280Y-101943252D01*
X157250372Y-101982979D01*
X157164057Y-102040652D01*
X157090652Y-102114057D01*
X157032979Y-102200372D01*
X156993252Y-102296280D01*
X156973000Y-102398095D01*
X151128723Y-102398095D01*
X151127937Y-101298095D01*
X164193000Y-101298095D01*
X164193000Y-101401905D01*
X164213252Y-101503720D01*
X164252979Y-101599628D01*
X164310652Y-101685943D01*
X164384057Y-101759348D01*
X164470372Y-101817021D01*
X164566280Y-101856748D01*
X164668095Y-101877000D01*
X164771905Y-101877000D01*
X164873720Y-101856748D01*
X164969628Y-101817021D01*
X165055943Y-101759348D01*
X165129348Y-101685943D01*
X165187021Y-101599628D01*
X165226748Y-101503720D01*
X165247000Y-101401905D01*
X165247000Y-101298095D01*
X165226748Y-101196280D01*
X165187021Y-101100372D01*
X165129348Y-101014057D01*
X165055943Y-100940652D01*
X164969628Y-100882979D01*
X164895011Y-100852071D01*
X164979628Y-100817021D01*
X165065943Y-100759348D01*
X165139348Y-100685943D01*
X165197021Y-100599628D01*
X165236748Y-100503720D01*
X165241845Y-100478095D01*
X165623000Y-100478095D01*
X165623000Y-100581905D01*
X165643252Y-100683720D01*
X165682979Y-100779628D01*
X165740652Y-100865943D01*
X165814057Y-100939348D01*
X165900372Y-100997021D01*
X165996280Y-101036748D01*
X166098095Y-101057000D01*
X166201905Y-101057000D01*
X166303720Y-101036748D01*
X166399628Y-100997021D01*
X166485943Y-100939348D01*
X166559348Y-100865943D01*
X166617021Y-100779628D01*
X166656748Y-100683720D01*
X166677000Y-100581905D01*
X166677000Y-100478095D01*
X166656748Y-100376280D01*
X166617021Y-100280372D01*
X166559348Y-100194057D01*
X166485943Y-100120652D01*
X166399628Y-100062979D01*
X166303720Y-100023252D01*
X166201905Y-100003000D01*
X166098095Y-100003000D01*
X165996280Y-100023252D01*
X165900372Y-100062979D01*
X165814057Y-100120652D01*
X165740652Y-100194057D01*
X165682979Y-100280372D01*
X165643252Y-100376280D01*
X165623000Y-100478095D01*
X165241845Y-100478095D01*
X165257000Y-100401905D01*
X165257000Y-100298095D01*
X165236748Y-100196280D01*
X165197021Y-100100372D01*
X165139348Y-100014057D01*
X165065943Y-99940652D01*
X164979628Y-99882979D01*
X164883720Y-99843252D01*
X164781905Y-99823000D01*
X164678095Y-99823000D01*
X164576280Y-99843252D01*
X164480372Y-99882979D01*
X164394057Y-99940652D01*
X164320652Y-100014057D01*
X164262979Y-100100372D01*
X164223252Y-100196280D01*
X164203000Y-100298095D01*
X164203000Y-100401905D01*
X164223252Y-100503720D01*
X164262979Y-100599628D01*
X164320652Y-100685943D01*
X164394057Y-100759348D01*
X164480372Y-100817021D01*
X164554989Y-100847929D01*
X164470372Y-100882979D01*
X164384057Y-100940652D01*
X164310652Y-101014057D01*
X164252979Y-101100372D01*
X164213252Y-101196280D01*
X164193000Y-101298095D01*
X151127937Y-101298095D01*
X151127357Y-100488095D01*
X157143000Y-100488095D01*
X157143000Y-100591905D01*
X157163252Y-100693720D01*
X157202979Y-100789628D01*
X157260652Y-100875943D01*
X157334057Y-100949348D01*
X157420372Y-101007021D01*
X157516280Y-101046748D01*
X157618095Y-101067000D01*
X157721905Y-101067000D01*
X157823720Y-101046748D01*
X157919628Y-101007021D01*
X158005943Y-100949348D01*
X158079348Y-100875943D01*
X158137021Y-100789628D01*
X158176748Y-100693720D01*
X158197000Y-100591905D01*
X158197000Y-100488095D01*
X158176748Y-100386280D01*
X158137021Y-100290372D01*
X158079348Y-100204057D01*
X158005943Y-100130652D01*
X157919628Y-100072979D01*
X157823720Y-100033252D01*
X157721905Y-100013000D01*
X157618095Y-100013000D01*
X157516280Y-100033252D01*
X157420372Y-100072979D01*
X157334057Y-100130652D01*
X157260652Y-100204057D01*
X157202979Y-100290372D01*
X157163252Y-100386280D01*
X157143000Y-100488095D01*
X151127357Y-100488095D01*
X151126013Y-98608095D01*
X157173000Y-98608095D01*
X157173000Y-98711905D01*
X157193252Y-98813720D01*
X157232979Y-98909628D01*
X157290652Y-98995943D01*
X157364057Y-99069348D01*
X157450372Y-99127021D01*
X157546280Y-99166748D01*
X157648095Y-99187000D01*
X157751905Y-99187000D01*
X157853720Y-99166748D01*
X157949628Y-99127021D01*
X158035943Y-99069348D01*
X158109348Y-98995943D01*
X158167021Y-98909628D01*
X158206748Y-98813720D01*
X158227000Y-98711905D01*
X158227000Y-98620612D01*
X158270652Y-98685943D01*
X158344057Y-98759348D01*
X158430372Y-98817021D01*
X158526280Y-98856748D01*
X158628095Y-98877000D01*
X158731905Y-98877000D01*
X158833720Y-98856748D01*
X158929628Y-98817021D01*
X159015943Y-98759348D01*
X159089348Y-98685943D01*
X159147021Y-98599628D01*
X159186748Y-98503720D01*
X159207000Y-98401905D01*
X159207000Y-98362063D01*
X159233720Y-98356748D01*
X159329628Y-98317021D01*
X159415943Y-98259348D01*
X159489348Y-98185943D01*
X159547021Y-98099628D01*
X159586748Y-98003720D01*
X159607000Y-97901905D01*
X159607000Y-97798095D01*
X159586748Y-97696280D01*
X159547021Y-97600372D01*
X159489348Y-97514057D01*
X159415943Y-97440652D01*
X159329628Y-97382979D01*
X159233720Y-97343252D01*
X159207000Y-97337937D01*
X159207000Y-97298095D01*
X159186748Y-97196280D01*
X159147021Y-97100372D01*
X159089348Y-97014057D01*
X159015943Y-96940652D01*
X158929628Y-96882979D01*
X158833720Y-96843252D01*
X158731905Y-96823000D01*
X158628095Y-96823000D01*
X158526280Y-96843252D01*
X158430372Y-96882979D01*
X158344057Y-96940652D01*
X158270652Y-97014057D01*
X158212979Y-97100372D01*
X158173252Y-97196280D01*
X158153000Y-97298095D01*
X158153000Y-97401905D01*
X158173252Y-97503720D01*
X158212979Y-97599628D01*
X158270652Y-97685943D01*
X158344057Y-97759348D01*
X158430372Y-97817021D01*
X158509989Y-97850000D01*
X158430372Y-97882979D01*
X158344057Y-97940652D01*
X158270652Y-98014057D01*
X158212979Y-98100372D01*
X158173252Y-98196280D01*
X158153000Y-98298095D01*
X158153000Y-98389388D01*
X158109348Y-98324057D01*
X158035943Y-98250652D01*
X157949628Y-98192979D01*
X157853720Y-98153252D01*
X157751905Y-98133000D01*
X157648095Y-98133000D01*
X157546280Y-98153252D01*
X157450372Y-98192979D01*
X157364057Y-98250652D01*
X157290652Y-98324057D01*
X157232979Y-98410372D01*
X157193252Y-98506280D01*
X157173000Y-98608095D01*
X151126013Y-98608095D01*
X151124454Y-96428095D01*
X159023000Y-96428095D01*
X159023000Y-96531905D01*
X159043252Y-96633720D01*
X159082979Y-96729628D01*
X159140652Y-96815943D01*
X159214057Y-96889348D01*
X159300372Y-96947021D01*
X159396280Y-96986748D01*
X159498095Y-97007000D01*
X159552895Y-97007000D01*
X159582979Y-97079628D01*
X159640652Y-97165943D01*
X159714057Y-97239348D01*
X159800372Y-97297021D01*
X159896280Y-97336748D01*
X159998095Y-97357000D01*
X160101905Y-97357000D01*
X160203720Y-97336748D01*
X160299628Y-97297021D01*
X160385943Y-97239348D01*
X160459348Y-97165943D01*
X160517021Y-97079628D01*
X160542255Y-97018708D01*
X160543252Y-97023720D01*
X160582979Y-97119628D01*
X160640652Y-97205943D01*
X160714057Y-97279348D01*
X160800372Y-97337021D01*
X160896280Y-97376748D01*
X160998095Y-97397000D01*
X161101905Y-97397000D01*
X161203720Y-97376748D01*
X161299628Y-97337021D01*
X161385943Y-97279348D01*
X161459348Y-97205943D01*
X161517021Y-97119628D01*
X161556748Y-97023720D01*
X161565823Y-96978095D01*
X165623000Y-96978095D01*
X165623000Y-97081905D01*
X165643252Y-97183720D01*
X165682979Y-97279628D01*
X165740652Y-97365943D01*
X165814057Y-97439348D01*
X165900372Y-97497021D01*
X165996280Y-97536748D01*
X166098095Y-97557000D01*
X166201905Y-97557000D01*
X166303720Y-97536748D01*
X166399628Y-97497021D01*
X166485943Y-97439348D01*
X166559348Y-97365943D01*
X166617021Y-97279628D01*
X166656748Y-97183720D01*
X166677000Y-97081905D01*
X166677000Y-96978095D01*
X166656748Y-96876280D01*
X166617021Y-96780372D01*
X166559348Y-96694057D01*
X166485943Y-96620652D01*
X166399628Y-96562979D01*
X166303720Y-96523252D01*
X166201905Y-96503000D01*
X166098095Y-96503000D01*
X165996280Y-96523252D01*
X165900372Y-96562979D01*
X165814057Y-96620652D01*
X165740652Y-96694057D01*
X165682979Y-96780372D01*
X165643252Y-96876280D01*
X165623000Y-96978095D01*
X161565823Y-96978095D01*
X161577000Y-96921905D01*
X161577000Y-96818095D01*
X161556748Y-96716280D01*
X161517021Y-96620372D01*
X161459348Y-96534057D01*
X161385943Y-96460652D01*
X161299628Y-96402979D01*
X161203720Y-96363252D01*
X161101905Y-96343000D01*
X161060074Y-96343000D01*
X161056748Y-96326280D01*
X161017021Y-96230372D01*
X160959348Y-96144057D01*
X160885943Y-96070652D01*
X160799628Y-96012979D01*
X160703720Y-95973252D01*
X160601905Y-95953000D01*
X160498095Y-95953000D01*
X160396280Y-95973252D01*
X160300372Y-96012979D01*
X160214057Y-96070652D01*
X160140652Y-96144057D01*
X160082979Y-96230372D01*
X160052895Y-96303000D01*
X160047105Y-96303000D01*
X160017021Y-96230372D01*
X159959348Y-96144057D01*
X159885943Y-96070652D01*
X159799628Y-96012979D01*
X159703720Y-95973252D01*
X159601905Y-95953000D01*
X159498095Y-95953000D01*
X159396280Y-95973252D01*
X159300372Y-96012979D01*
X159214057Y-96070652D01*
X159140652Y-96144057D01*
X159082979Y-96230372D01*
X159043252Y-96326280D01*
X159023000Y-96428095D01*
X151124454Y-96428095D01*
X151123287Y-94798095D01*
X151293000Y-94798095D01*
X151293000Y-94901905D01*
X151313252Y-95003720D01*
X151352979Y-95099628D01*
X151410652Y-95185943D01*
X151484057Y-95259348D01*
X151570372Y-95317021D01*
X151666280Y-95356748D01*
X151768095Y-95377000D01*
X151871905Y-95377000D01*
X151973720Y-95356748D01*
X152069628Y-95317021D01*
X152155943Y-95259348D01*
X152229348Y-95185943D01*
X152287021Y-95099628D01*
X152326748Y-95003720D01*
X152347000Y-94901905D01*
X152347000Y-94838095D01*
X154093000Y-94838095D01*
X154093000Y-94941905D01*
X154113252Y-95043720D01*
X154152979Y-95139628D01*
X154186636Y-95190000D01*
X154152979Y-95240372D01*
X154113252Y-95336280D01*
X154093000Y-95438095D01*
X154093000Y-95541905D01*
X154113252Y-95643720D01*
X154152979Y-95739628D01*
X154210652Y-95825943D01*
X154284057Y-95899348D01*
X154370372Y-95957021D01*
X154466280Y-95996748D01*
X154568095Y-96017000D01*
X154671905Y-96017000D01*
X154773720Y-95996748D01*
X154869628Y-95957021D01*
X154955943Y-95899348D01*
X155029348Y-95825943D01*
X155087021Y-95739628D01*
X155126748Y-95643720D01*
X155147000Y-95541905D01*
X155147000Y-95438095D01*
X155127110Y-95338095D01*
X164253000Y-95338095D01*
X164253000Y-95441905D01*
X164273252Y-95543720D01*
X164312979Y-95639628D01*
X164370652Y-95725943D01*
X164444057Y-95799348D01*
X164530372Y-95857021D01*
X164626280Y-95896748D01*
X164728095Y-95917000D01*
X164831905Y-95917000D01*
X164926948Y-95898095D01*
X165973000Y-95898095D01*
X165973000Y-96001905D01*
X165993252Y-96103720D01*
X166032979Y-96199628D01*
X166090652Y-96285943D01*
X166164057Y-96359348D01*
X166250372Y-96417021D01*
X166346280Y-96456748D01*
X166448095Y-96477000D01*
X166551905Y-96477000D01*
X166653720Y-96456748D01*
X166749628Y-96417021D01*
X166835943Y-96359348D01*
X166909348Y-96285943D01*
X166967021Y-96199628D01*
X167006748Y-96103720D01*
X167027000Y-96001905D01*
X167027000Y-95898095D01*
X167006748Y-95796280D01*
X166967021Y-95700372D01*
X166909348Y-95614057D01*
X166835943Y-95540652D01*
X166749628Y-95482979D01*
X166653720Y-95443252D01*
X166551905Y-95423000D01*
X166448095Y-95423000D01*
X166346280Y-95443252D01*
X166250372Y-95482979D01*
X166164057Y-95540652D01*
X166090652Y-95614057D01*
X166032979Y-95700372D01*
X165993252Y-95796280D01*
X165973000Y-95898095D01*
X164926948Y-95898095D01*
X164933720Y-95896748D01*
X165029628Y-95857021D01*
X165115943Y-95799348D01*
X165189348Y-95725943D01*
X165247021Y-95639628D01*
X165286748Y-95543720D01*
X165307000Y-95441905D01*
X165307000Y-95338095D01*
X165286748Y-95236280D01*
X165247021Y-95140372D01*
X165189348Y-95054057D01*
X165115943Y-94980652D01*
X165029628Y-94922979D01*
X164933720Y-94883252D01*
X164831905Y-94863000D01*
X164728095Y-94863000D01*
X164626280Y-94883252D01*
X164530372Y-94922979D01*
X164444057Y-94980652D01*
X164370652Y-95054057D01*
X164312979Y-95140372D01*
X164273252Y-95236280D01*
X164253000Y-95338095D01*
X155127110Y-95338095D01*
X155126748Y-95336280D01*
X155087021Y-95240372D01*
X155053364Y-95190000D01*
X155087021Y-95139628D01*
X155126748Y-95043720D01*
X155147000Y-94941905D01*
X155147000Y-94838095D01*
X155126748Y-94736280D01*
X155087021Y-94640372D01*
X155029348Y-94554057D01*
X154955943Y-94480652D01*
X154869628Y-94422979D01*
X154773720Y-94383252D01*
X154671905Y-94363000D01*
X154568095Y-94363000D01*
X154466280Y-94383252D01*
X154370372Y-94422979D01*
X154284057Y-94480652D01*
X154210652Y-94554057D01*
X154152979Y-94640372D01*
X154113252Y-94736280D01*
X154093000Y-94838095D01*
X152347000Y-94838095D01*
X152347000Y-94798095D01*
X152326748Y-94696280D01*
X152287021Y-94600372D01*
X152281715Y-94592430D01*
X152316280Y-94606748D01*
X152418095Y-94627000D01*
X152521905Y-94627000D01*
X152623720Y-94606748D01*
X152719628Y-94567021D01*
X152805943Y-94509348D01*
X152870000Y-94445291D01*
X152934057Y-94509348D01*
X153020372Y-94567021D01*
X153116280Y-94606748D01*
X153218095Y-94627000D01*
X153321905Y-94627000D01*
X153423720Y-94606748D01*
X153519628Y-94567021D01*
X153605943Y-94509348D01*
X153679348Y-94435943D01*
X153737021Y-94349628D01*
X153776748Y-94253720D01*
X153797000Y-94151905D01*
X153797000Y-94048095D01*
X153776748Y-93946280D01*
X153737021Y-93850372D01*
X153679348Y-93764057D01*
X153605943Y-93690652D01*
X153519628Y-93632979D01*
X153423720Y-93593252D01*
X153321905Y-93573000D01*
X153218095Y-93573000D01*
X153116280Y-93593252D01*
X153020372Y-93632979D01*
X152934057Y-93690652D01*
X152870000Y-93754709D01*
X152805943Y-93690652D01*
X152719628Y-93632979D01*
X152623720Y-93593252D01*
X152521905Y-93573000D01*
X152418095Y-93573000D01*
X152316280Y-93593252D01*
X152220372Y-93632979D01*
X152170000Y-93666636D01*
X152119628Y-93632979D01*
X152023720Y-93593252D01*
X151921905Y-93573000D01*
X151818095Y-93573000D01*
X151716280Y-93593252D01*
X151620372Y-93632979D01*
X151534057Y-93690652D01*
X151460652Y-93764057D01*
X151402979Y-93850372D01*
X151363252Y-93946280D01*
X151343000Y-94048095D01*
X151343000Y-94151905D01*
X151363252Y-94253720D01*
X151402979Y-94349628D01*
X151460652Y-94435943D01*
X151474709Y-94450000D01*
X151410652Y-94514057D01*
X151352979Y-94600372D01*
X151313252Y-94696280D01*
X151293000Y-94798095D01*
X151123287Y-94798095D01*
X151122091Y-93127071D01*
X160439505Y-93132246D01*
G37*
X160439505Y-93132246D02*
X160475090Y-93249557D01*
X160542597Y-93375853D01*
X160633446Y-93486554D01*
X160744147Y-93577403D01*
X160870443Y-93644910D01*
X161007483Y-93686480D01*
X161114292Y-93697000D01*
X161985708Y-93697000D01*
X162092517Y-93686480D01*
X162229557Y-93644910D01*
X162355853Y-93577403D01*
X162466554Y-93486554D01*
X162557403Y-93375853D01*
X162624910Y-93249557D01*
X162660121Y-93133479D01*
X168873000Y-93136930D01*
X168873000Y-101837966D01*
X168868269Y-101858905D01*
X168862489Y-102082406D01*
X168873000Y-102143458D01*
X168873000Y-103337966D01*
X168868269Y-103358905D01*
X168862489Y-103582406D01*
X168873000Y-103643458D01*
X168873000Y-106853000D01*
X163243993Y-106853000D01*
X163241480Y-106827483D01*
X163199910Y-106690443D01*
X163132403Y-106564147D01*
X163041554Y-106453446D01*
X162930853Y-106362597D01*
X162804557Y-106295090D01*
X162667517Y-106253520D01*
X162560708Y-106243000D01*
X161689292Y-106243000D01*
X161582483Y-106253520D01*
X161445443Y-106295090D01*
X161319147Y-106362597D01*
X161208446Y-106453446D01*
X161117597Y-106564147D01*
X161050090Y-106690443D01*
X161008520Y-106827483D01*
X161006007Y-106853000D01*
X151131909Y-106853000D01*
X151131470Y-106238095D01*
X158223000Y-106238095D01*
X158223000Y-106341905D01*
X158243252Y-106443720D01*
X158282979Y-106539628D01*
X158340652Y-106625943D01*
X158414057Y-106699348D01*
X158500372Y-106757021D01*
X158596280Y-106796748D01*
X158698095Y-106817000D01*
X158801905Y-106817000D01*
X158903720Y-106796748D01*
X158999628Y-106757021D01*
X159085943Y-106699348D01*
X159159348Y-106625943D01*
X159217021Y-106539628D01*
X159256748Y-106443720D01*
X159277000Y-106341905D01*
X159277000Y-106238095D01*
X159256748Y-106136280D01*
X159217021Y-106040372D01*
X159159348Y-105954057D01*
X159085943Y-105880652D01*
X158999628Y-105822979D01*
X158903720Y-105783252D01*
X158801905Y-105763000D01*
X158698095Y-105763000D01*
X158596280Y-105783252D01*
X158500372Y-105822979D01*
X158414057Y-105880652D01*
X158340652Y-105954057D01*
X158282979Y-106040372D01*
X158243252Y-106136280D01*
X158223000Y-106238095D01*
X151131470Y-106238095D01*
X151130425Y-104778095D01*
X156663000Y-104778095D01*
X156663000Y-104881905D01*
X156683252Y-104983720D01*
X156722979Y-105079628D01*
X156780652Y-105165943D01*
X156854057Y-105239348D01*
X156940372Y-105297021D01*
X157036280Y-105336748D01*
X157138095Y-105357000D01*
X157241905Y-105357000D01*
X157343720Y-105336748D01*
X157439628Y-105297021D01*
X157525943Y-105239348D01*
X157599348Y-105165943D01*
X157657021Y-105079628D01*
X157674224Y-105038095D01*
X166363000Y-105038095D01*
X166363000Y-105141905D01*
X166383252Y-105243720D01*
X166422979Y-105339628D01*
X166480652Y-105425943D01*
X166554057Y-105499348D01*
X166640372Y-105557021D01*
X166736280Y-105596748D01*
X166838095Y-105617000D01*
X166854611Y-105617000D01*
X166892979Y-105709628D01*
X166950652Y-105795943D01*
X167024057Y-105869348D01*
X167110372Y-105927021D01*
X167206280Y-105966748D01*
X167308095Y-105987000D01*
X167411905Y-105987000D01*
X167513720Y-105966748D01*
X167609628Y-105927021D01*
X167695943Y-105869348D01*
X167769348Y-105795943D01*
X167827021Y-105709628D01*
X167866748Y-105613720D01*
X167887000Y-105511905D01*
X167887000Y-105408095D01*
X167866748Y-105306280D01*
X167827021Y-105210372D01*
X167769348Y-105124057D01*
X167695943Y-105050652D01*
X167609628Y-104992979D01*
X167513720Y-104953252D01*
X167411905Y-104933000D01*
X167395389Y-104933000D01*
X167357021Y-104840372D01*
X167299348Y-104754057D01*
X167225943Y-104680652D01*
X167139628Y-104622979D01*
X167043720Y-104583252D01*
X166941905Y-104563000D01*
X166838095Y-104563000D01*
X166736280Y-104583252D01*
X166640372Y-104622979D01*
X166554057Y-104680652D01*
X166480652Y-104754057D01*
X166422979Y-104840372D01*
X166383252Y-104936280D01*
X166363000Y-105038095D01*
X157674224Y-105038095D01*
X157696748Y-104983720D01*
X157717000Y-104881905D01*
X157717000Y-104778095D01*
X157696748Y-104676280D01*
X157657021Y-104580372D01*
X157599348Y-104494057D01*
X157525943Y-104420652D01*
X157439628Y-104362979D01*
X157343720Y-104323252D01*
X157241905Y-104303000D01*
X157138095Y-104303000D01*
X157036280Y-104323252D01*
X156940372Y-104362979D01*
X156854057Y-104420652D01*
X156780652Y-104494057D01*
X156722979Y-104580372D01*
X156683252Y-104676280D01*
X156663000Y-104778095D01*
X151130425Y-104778095D01*
X151129625Y-103658095D01*
X160263000Y-103658095D01*
X160263000Y-103761905D01*
X160283252Y-103863720D01*
X160322979Y-103959628D01*
X160380652Y-104045943D01*
X160454057Y-104119348D01*
X160540372Y-104177021D01*
X160636280Y-104216748D01*
X160738095Y-104237000D01*
X160841905Y-104237000D01*
X160943720Y-104216748D01*
X161039628Y-104177021D01*
X161125943Y-104119348D01*
X161199348Y-104045943D01*
X161257021Y-103959628D01*
X161296748Y-103863720D01*
X161317000Y-103761905D01*
X161317000Y-103728095D01*
X163823000Y-103728095D01*
X163823000Y-103831905D01*
X163843252Y-103933720D01*
X163882979Y-104029628D01*
X163940652Y-104115943D01*
X164014057Y-104189348D01*
X164100372Y-104247021D01*
X164196280Y-104286748D01*
X164298095Y-104307000D01*
X164401905Y-104307000D01*
X164503720Y-104286748D01*
X164599628Y-104247021D01*
X164685943Y-104189348D01*
X164759348Y-104115943D01*
X164817021Y-104029628D01*
X164856748Y-103933720D01*
X164877000Y-103831905D01*
X164877000Y-103728095D01*
X164856748Y-103626280D01*
X164817021Y-103530372D01*
X164759348Y-103444057D01*
X164685943Y-103370652D01*
X164599628Y-103312979D01*
X164503720Y-103273252D01*
X164401905Y-103253000D01*
X164298095Y-103253000D01*
X164196280Y-103273252D01*
X164100372Y-103312979D01*
X164014057Y-103370652D01*
X163940652Y-103444057D01*
X163882979Y-103530372D01*
X163843252Y-103626280D01*
X163823000Y-103728095D01*
X161317000Y-103728095D01*
X161317000Y-103658095D01*
X161296748Y-103556280D01*
X161257021Y-103460372D01*
X161199348Y-103374057D01*
X161125943Y-103300652D01*
X161039628Y-103242979D01*
X160943720Y-103203252D01*
X160841905Y-103183000D01*
X160738095Y-103183000D01*
X160636280Y-103203252D01*
X160540372Y-103242979D01*
X160454057Y-103300652D01*
X160380652Y-103374057D01*
X160322979Y-103460372D01*
X160283252Y-103556280D01*
X160263000Y-103658095D01*
X151129625Y-103658095D01*
X151128723Y-102398095D01*
X156973000Y-102398095D01*
X156973000Y-102501905D01*
X156993252Y-102603720D01*
X157032979Y-102699628D01*
X157090652Y-102785943D01*
X157164057Y-102859348D01*
X157250372Y-102917021D01*
X157346280Y-102956748D01*
X157448095Y-102977000D01*
X157551905Y-102977000D01*
X157653720Y-102956748D01*
X157749628Y-102917021D01*
X157835943Y-102859348D01*
X157909348Y-102785943D01*
X157967021Y-102699628D01*
X158006748Y-102603720D01*
X158027000Y-102501905D01*
X158027000Y-102478095D01*
X159023000Y-102478095D01*
X159023000Y-102581905D01*
X159043252Y-102683720D01*
X159082979Y-102779628D01*
X159140652Y-102865943D01*
X159214057Y-102939348D01*
X159300372Y-102997021D01*
X159396280Y-103036748D01*
X159498095Y-103057000D01*
X159601905Y-103057000D01*
X159703720Y-103036748D01*
X159799628Y-102997021D01*
X159885943Y-102939348D01*
X159959348Y-102865943D01*
X160017021Y-102779628D01*
X160056748Y-102683720D01*
X160075768Y-102588095D01*
X165623000Y-102588095D01*
X165623000Y-102691905D01*
X165643252Y-102793720D01*
X165682979Y-102889628D01*
X165740652Y-102975943D01*
X165814057Y-103049348D01*
X165900372Y-103107021D01*
X165996280Y-103146748D01*
X166098095Y-103167000D01*
X166201905Y-103167000D01*
X166303720Y-103146748D01*
X166399628Y-103107021D01*
X166485943Y-103049348D01*
X166559348Y-102975943D01*
X166617021Y-102889628D01*
X166656748Y-102793720D01*
X166677000Y-102691905D01*
X166677000Y-102588095D01*
X166656748Y-102486280D01*
X166617021Y-102390372D01*
X166559348Y-102304057D01*
X166485943Y-102230652D01*
X166399628Y-102172979D01*
X166303720Y-102133252D01*
X166201905Y-102113000D01*
X166098095Y-102113000D01*
X165996280Y-102133252D01*
X165900372Y-102172979D01*
X165814057Y-102230652D01*
X165740652Y-102304057D01*
X165682979Y-102390372D01*
X165643252Y-102486280D01*
X165623000Y-102588095D01*
X160075768Y-102588095D01*
X160077000Y-102581905D01*
X160077000Y-102478095D01*
X160056748Y-102376280D01*
X160017021Y-102280372D01*
X159959348Y-102194057D01*
X159885943Y-102120652D01*
X159799628Y-102062979D01*
X159703720Y-102023252D01*
X159601905Y-102003000D01*
X159498095Y-102003000D01*
X159396280Y-102023252D01*
X159300372Y-102062979D01*
X159214057Y-102120652D01*
X159140652Y-102194057D01*
X159082979Y-102280372D01*
X159043252Y-102376280D01*
X159023000Y-102478095D01*
X158027000Y-102478095D01*
X158027000Y-102398095D01*
X158006748Y-102296280D01*
X157967021Y-102200372D01*
X157909348Y-102114057D01*
X157835943Y-102040652D01*
X157749628Y-101982979D01*
X157653720Y-101943252D01*
X157551905Y-101923000D01*
X157448095Y-101923000D01*
X157346280Y-101943252D01*
X157250372Y-101982979D01*
X157164057Y-102040652D01*
X157090652Y-102114057D01*
X157032979Y-102200372D01*
X156993252Y-102296280D01*
X156973000Y-102398095D01*
X151128723Y-102398095D01*
X151127937Y-101298095D01*
X164193000Y-101298095D01*
X164193000Y-101401905D01*
X164213252Y-101503720D01*
X164252979Y-101599628D01*
X164310652Y-101685943D01*
X164384057Y-101759348D01*
X164470372Y-101817021D01*
X164566280Y-101856748D01*
X164668095Y-101877000D01*
X164771905Y-101877000D01*
X164873720Y-101856748D01*
X164969628Y-101817021D01*
X165055943Y-101759348D01*
X165129348Y-101685943D01*
X165187021Y-101599628D01*
X165226748Y-101503720D01*
X165247000Y-101401905D01*
X165247000Y-101298095D01*
X165226748Y-101196280D01*
X165187021Y-101100372D01*
X165129348Y-101014057D01*
X165055943Y-100940652D01*
X164969628Y-100882979D01*
X164895011Y-100852071D01*
X164979628Y-100817021D01*
X165065943Y-100759348D01*
X165139348Y-100685943D01*
X165197021Y-100599628D01*
X165236748Y-100503720D01*
X165241845Y-100478095D01*
X165623000Y-100478095D01*
X165623000Y-100581905D01*
X165643252Y-100683720D01*
X165682979Y-100779628D01*
X165740652Y-100865943D01*
X165814057Y-100939348D01*
X165900372Y-100997021D01*
X165996280Y-101036748D01*
X166098095Y-101057000D01*
X166201905Y-101057000D01*
X166303720Y-101036748D01*
X166399628Y-100997021D01*
X166485943Y-100939348D01*
X166559348Y-100865943D01*
X166617021Y-100779628D01*
X166656748Y-100683720D01*
X166677000Y-100581905D01*
X166677000Y-100478095D01*
X166656748Y-100376280D01*
X166617021Y-100280372D01*
X166559348Y-100194057D01*
X166485943Y-100120652D01*
X166399628Y-100062979D01*
X166303720Y-100023252D01*
X166201905Y-100003000D01*
X166098095Y-100003000D01*
X165996280Y-100023252D01*
X165900372Y-100062979D01*
X165814057Y-100120652D01*
X165740652Y-100194057D01*
X165682979Y-100280372D01*
X165643252Y-100376280D01*
X165623000Y-100478095D01*
X165241845Y-100478095D01*
X165257000Y-100401905D01*
X165257000Y-100298095D01*
X165236748Y-100196280D01*
X165197021Y-100100372D01*
X165139348Y-100014057D01*
X165065943Y-99940652D01*
X164979628Y-99882979D01*
X164883720Y-99843252D01*
X164781905Y-99823000D01*
X164678095Y-99823000D01*
X164576280Y-99843252D01*
X164480372Y-99882979D01*
X164394057Y-99940652D01*
X164320652Y-100014057D01*
X164262979Y-100100372D01*
X164223252Y-100196280D01*
X164203000Y-100298095D01*
X164203000Y-100401905D01*
X164223252Y-100503720D01*
X164262979Y-100599628D01*
X164320652Y-100685943D01*
X164394057Y-100759348D01*
X164480372Y-100817021D01*
X164554989Y-100847929D01*
X164470372Y-100882979D01*
X164384057Y-100940652D01*
X164310652Y-101014057D01*
X164252979Y-101100372D01*
X164213252Y-101196280D01*
X164193000Y-101298095D01*
X151127937Y-101298095D01*
X151127357Y-100488095D01*
X157143000Y-100488095D01*
X157143000Y-100591905D01*
X157163252Y-100693720D01*
X157202979Y-100789628D01*
X157260652Y-100875943D01*
X157334057Y-100949348D01*
X157420372Y-101007021D01*
X157516280Y-101046748D01*
X157618095Y-101067000D01*
X157721905Y-101067000D01*
X157823720Y-101046748D01*
X157919628Y-101007021D01*
X158005943Y-100949348D01*
X158079348Y-100875943D01*
X158137021Y-100789628D01*
X158176748Y-100693720D01*
X158197000Y-100591905D01*
X158197000Y-100488095D01*
X158176748Y-100386280D01*
X158137021Y-100290372D01*
X158079348Y-100204057D01*
X158005943Y-100130652D01*
X157919628Y-100072979D01*
X157823720Y-100033252D01*
X157721905Y-100013000D01*
X157618095Y-100013000D01*
X157516280Y-100033252D01*
X157420372Y-100072979D01*
X157334057Y-100130652D01*
X157260652Y-100204057D01*
X157202979Y-100290372D01*
X157163252Y-100386280D01*
X157143000Y-100488095D01*
X151127357Y-100488095D01*
X151126013Y-98608095D01*
X157173000Y-98608095D01*
X157173000Y-98711905D01*
X157193252Y-98813720D01*
X157232979Y-98909628D01*
X157290652Y-98995943D01*
X157364057Y-99069348D01*
X157450372Y-99127021D01*
X157546280Y-99166748D01*
X157648095Y-99187000D01*
X157751905Y-99187000D01*
X157853720Y-99166748D01*
X157949628Y-99127021D01*
X158035943Y-99069348D01*
X158109348Y-98995943D01*
X158167021Y-98909628D01*
X158206748Y-98813720D01*
X158227000Y-98711905D01*
X158227000Y-98620612D01*
X158270652Y-98685943D01*
X158344057Y-98759348D01*
X158430372Y-98817021D01*
X158526280Y-98856748D01*
X158628095Y-98877000D01*
X158731905Y-98877000D01*
X158833720Y-98856748D01*
X158929628Y-98817021D01*
X159015943Y-98759348D01*
X159089348Y-98685943D01*
X159147021Y-98599628D01*
X159186748Y-98503720D01*
X159207000Y-98401905D01*
X159207000Y-98362063D01*
X159233720Y-98356748D01*
X159329628Y-98317021D01*
X159415943Y-98259348D01*
X159489348Y-98185943D01*
X159547021Y-98099628D01*
X159586748Y-98003720D01*
X159607000Y-97901905D01*
X159607000Y-97798095D01*
X159586748Y-97696280D01*
X159547021Y-97600372D01*
X159489348Y-97514057D01*
X159415943Y-97440652D01*
X159329628Y-97382979D01*
X159233720Y-97343252D01*
X159207000Y-97337937D01*
X159207000Y-97298095D01*
X159186748Y-97196280D01*
X159147021Y-97100372D01*
X159089348Y-97014057D01*
X159015943Y-96940652D01*
X158929628Y-96882979D01*
X158833720Y-96843252D01*
X158731905Y-96823000D01*
X158628095Y-96823000D01*
X158526280Y-96843252D01*
X158430372Y-96882979D01*
X158344057Y-96940652D01*
X158270652Y-97014057D01*
X158212979Y-97100372D01*
X158173252Y-97196280D01*
X158153000Y-97298095D01*
X158153000Y-97401905D01*
X158173252Y-97503720D01*
X158212979Y-97599628D01*
X158270652Y-97685943D01*
X158344057Y-97759348D01*
X158430372Y-97817021D01*
X158509989Y-97850000D01*
X158430372Y-97882979D01*
X158344057Y-97940652D01*
X158270652Y-98014057D01*
X158212979Y-98100372D01*
X158173252Y-98196280D01*
X158153000Y-98298095D01*
X158153000Y-98389388D01*
X158109348Y-98324057D01*
X158035943Y-98250652D01*
X157949628Y-98192979D01*
X157853720Y-98153252D01*
X157751905Y-98133000D01*
X157648095Y-98133000D01*
X157546280Y-98153252D01*
X157450372Y-98192979D01*
X157364057Y-98250652D01*
X157290652Y-98324057D01*
X157232979Y-98410372D01*
X157193252Y-98506280D01*
X157173000Y-98608095D01*
X151126013Y-98608095D01*
X151124454Y-96428095D01*
X159023000Y-96428095D01*
X159023000Y-96531905D01*
X159043252Y-96633720D01*
X159082979Y-96729628D01*
X159140652Y-96815943D01*
X159214057Y-96889348D01*
X159300372Y-96947021D01*
X159396280Y-96986748D01*
X159498095Y-97007000D01*
X159552895Y-97007000D01*
X159582979Y-97079628D01*
X159640652Y-97165943D01*
X159714057Y-97239348D01*
X159800372Y-97297021D01*
X159896280Y-97336748D01*
X159998095Y-97357000D01*
X160101905Y-97357000D01*
X160203720Y-97336748D01*
X160299628Y-97297021D01*
X160385943Y-97239348D01*
X160459348Y-97165943D01*
X160517021Y-97079628D01*
X160542255Y-97018708D01*
X160543252Y-97023720D01*
X160582979Y-97119628D01*
X160640652Y-97205943D01*
X160714057Y-97279348D01*
X160800372Y-97337021D01*
X160896280Y-97376748D01*
X160998095Y-97397000D01*
X161101905Y-97397000D01*
X161203720Y-97376748D01*
X161299628Y-97337021D01*
X161385943Y-97279348D01*
X161459348Y-97205943D01*
X161517021Y-97119628D01*
X161556748Y-97023720D01*
X161565823Y-96978095D01*
X165623000Y-96978095D01*
X165623000Y-97081905D01*
X165643252Y-97183720D01*
X165682979Y-97279628D01*
X165740652Y-97365943D01*
X165814057Y-97439348D01*
X165900372Y-97497021D01*
X165996280Y-97536748D01*
X166098095Y-97557000D01*
X166201905Y-97557000D01*
X166303720Y-97536748D01*
X166399628Y-97497021D01*
X166485943Y-97439348D01*
X166559348Y-97365943D01*
X166617021Y-97279628D01*
X166656748Y-97183720D01*
X166677000Y-97081905D01*
X166677000Y-96978095D01*
X166656748Y-96876280D01*
X166617021Y-96780372D01*
X166559348Y-96694057D01*
X166485943Y-96620652D01*
X166399628Y-96562979D01*
X166303720Y-96523252D01*
X166201905Y-96503000D01*
X166098095Y-96503000D01*
X165996280Y-96523252D01*
X165900372Y-96562979D01*
X165814057Y-96620652D01*
X165740652Y-96694057D01*
X165682979Y-96780372D01*
X165643252Y-96876280D01*
X165623000Y-96978095D01*
X161565823Y-96978095D01*
X161577000Y-96921905D01*
X161577000Y-96818095D01*
X161556748Y-96716280D01*
X161517021Y-96620372D01*
X161459348Y-96534057D01*
X161385943Y-96460652D01*
X161299628Y-96402979D01*
X161203720Y-96363252D01*
X161101905Y-96343000D01*
X161060074Y-96343000D01*
X161056748Y-96326280D01*
X161017021Y-96230372D01*
X160959348Y-96144057D01*
X160885943Y-96070652D01*
X160799628Y-96012979D01*
X160703720Y-95973252D01*
X160601905Y-95953000D01*
X160498095Y-95953000D01*
X160396280Y-95973252D01*
X160300372Y-96012979D01*
X160214057Y-96070652D01*
X160140652Y-96144057D01*
X160082979Y-96230372D01*
X160052895Y-96303000D01*
X160047105Y-96303000D01*
X160017021Y-96230372D01*
X159959348Y-96144057D01*
X159885943Y-96070652D01*
X159799628Y-96012979D01*
X159703720Y-95973252D01*
X159601905Y-95953000D01*
X159498095Y-95953000D01*
X159396280Y-95973252D01*
X159300372Y-96012979D01*
X159214057Y-96070652D01*
X159140652Y-96144057D01*
X159082979Y-96230372D01*
X159043252Y-96326280D01*
X159023000Y-96428095D01*
X151124454Y-96428095D01*
X151123287Y-94798095D01*
X151293000Y-94798095D01*
X151293000Y-94901905D01*
X151313252Y-95003720D01*
X151352979Y-95099628D01*
X151410652Y-95185943D01*
X151484057Y-95259348D01*
X151570372Y-95317021D01*
X151666280Y-95356748D01*
X151768095Y-95377000D01*
X151871905Y-95377000D01*
X151973720Y-95356748D01*
X152069628Y-95317021D01*
X152155943Y-95259348D01*
X152229348Y-95185943D01*
X152287021Y-95099628D01*
X152326748Y-95003720D01*
X152347000Y-94901905D01*
X152347000Y-94838095D01*
X154093000Y-94838095D01*
X154093000Y-94941905D01*
X154113252Y-95043720D01*
X154152979Y-95139628D01*
X154186636Y-95190000D01*
X154152979Y-95240372D01*
X154113252Y-95336280D01*
X154093000Y-95438095D01*
X154093000Y-95541905D01*
X154113252Y-95643720D01*
X154152979Y-95739628D01*
X154210652Y-95825943D01*
X154284057Y-95899348D01*
X154370372Y-95957021D01*
X154466280Y-95996748D01*
X154568095Y-96017000D01*
X154671905Y-96017000D01*
X154773720Y-95996748D01*
X154869628Y-95957021D01*
X154955943Y-95899348D01*
X155029348Y-95825943D01*
X155087021Y-95739628D01*
X155126748Y-95643720D01*
X155147000Y-95541905D01*
X155147000Y-95438095D01*
X155127110Y-95338095D01*
X164253000Y-95338095D01*
X164253000Y-95441905D01*
X164273252Y-95543720D01*
X164312979Y-95639628D01*
X164370652Y-95725943D01*
X164444057Y-95799348D01*
X164530372Y-95857021D01*
X164626280Y-95896748D01*
X164728095Y-95917000D01*
X164831905Y-95917000D01*
X164926948Y-95898095D01*
X165973000Y-95898095D01*
X165973000Y-96001905D01*
X165993252Y-96103720D01*
X166032979Y-96199628D01*
X166090652Y-96285943D01*
X166164057Y-96359348D01*
X166250372Y-96417021D01*
X166346280Y-96456748D01*
X166448095Y-96477000D01*
X166551905Y-96477000D01*
X166653720Y-96456748D01*
X166749628Y-96417021D01*
X166835943Y-96359348D01*
X166909348Y-96285943D01*
X166967021Y-96199628D01*
X167006748Y-96103720D01*
X167027000Y-96001905D01*
X167027000Y-95898095D01*
X167006748Y-95796280D01*
X166967021Y-95700372D01*
X166909348Y-95614057D01*
X166835943Y-95540652D01*
X166749628Y-95482979D01*
X166653720Y-95443252D01*
X166551905Y-95423000D01*
X166448095Y-95423000D01*
X166346280Y-95443252D01*
X166250372Y-95482979D01*
X166164057Y-95540652D01*
X166090652Y-95614057D01*
X166032979Y-95700372D01*
X165993252Y-95796280D01*
X165973000Y-95898095D01*
X164926948Y-95898095D01*
X164933720Y-95896748D01*
X165029628Y-95857021D01*
X165115943Y-95799348D01*
X165189348Y-95725943D01*
X165247021Y-95639628D01*
X165286748Y-95543720D01*
X165307000Y-95441905D01*
X165307000Y-95338095D01*
X165286748Y-95236280D01*
X165247021Y-95140372D01*
X165189348Y-95054057D01*
X165115943Y-94980652D01*
X165029628Y-94922979D01*
X164933720Y-94883252D01*
X164831905Y-94863000D01*
X164728095Y-94863000D01*
X164626280Y-94883252D01*
X164530372Y-94922979D01*
X164444057Y-94980652D01*
X164370652Y-95054057D01*
X164312979Y-95140372D01*
X164273252Y-95236280D01*
X164253000Y-95338095D01*
X155127110Y-95338095D01*
X155126748Y-95336280D01*
X155087021Y-95240372D01*
X155053364Y-95190000D01*
X155087021Y-95139628D01*
X155126748Y-95043720D01*
X155147000Y-94941905D01*
X155147000Y-94838095D01*
X155126748Y-94736280D01*
X155087021Y-94640372D01*
X155029348Y-94554057D01*
X154955943Y-94480652D01*
X154869628Y-94422979D01*
X154773720Y-94383252D01*
X154671905Y-94363000D01*
X154568095Y-94363000D01*
X154466280Y-94383252D01*
X154370372Y-94422979D01*
X154284057Y-94480652D01*
X154210652Y-94554057D01*
X154152979Y-94640372D01*
X154113252Y-94736280D01*
X154093000Y-94838095D01*
X152347000Y-94838095D01*
X152347000Y-94798095D01*
X152326748Y-94696280D01*
X152287021Y-94600372D01*
X152281715Y-94592430D01*
X152316280Y-94606748D01*
X152418095Y-94627000D01*
X152521905Y-94627000D01*
X152623720Y-94606748D01*
X152719628Y-94567021D01*
X152805943Y-94509348D01*
X152870000Y-94445291D01*
X152934057Y-94509348D01*
X153020372Y-94567021D01*
X153116280Y-94606748D01*
X153218095Y-94627000D01*
X153321905Y-94627000D01*
X153423720Y-94606748D01*
X153519628Y-94567021D01*
X153605943Y-94509348D01*
X153679348Y-94435943D01*
X153737021Y-94349628D01*
X153776748Y-94253720D01*
X153797000Y-94151905D01*
X153797000Y-94048095D01*
X153776748Y-93946280D01*
X153737021Y-93850372D01*
X153679348Y-93764057D01*
X153605943Y-93690652D01*
X153519628Y-93632979D01*
X153423720Y-93593252D01*
X153321905Y-93573000D01*
X153218095Y-93573000D01*
X153116280Y-93593252D01*
X153020372Y-93632979D01*
X152934057Y-93690652D01*
X152870000Y-93754709D01*
X152805943Y-93690652D01*
X152719628Y-93632979D01*
X152623720Y-93593252D01*
X152521905Y-93573000D01*
X152418095Y-93573000D01*
X152316280Y-93593252D01*
X152220372Y-93632979D01*
X152170000Y-93666636D01*
X152119628Y-93632979D01*
X152023720Y-93593252D01*
X151921905Y-93573000D01*
X151818095Y-93573000D01*
X151716280Y-93593252D01*
X151620372Y-93632979D01*
X151534057Y-93690652D01*
X151460652Y-93764057D01*
X151402979Y-93850372D01*
X151363252Y-93946280D01*
X151343000Y-94048095D01*
X151343000Y-94151905D01*
X151363252Y-94253720D01*
X151402979Y-94349628D01*
X151460652Y-94435943D01*
X151474709Y-94450000D01*
X151410652Y-94514057D01*
X151352979Y-94600372D01*
X151313252Y-94696280D01*
X151293000Y-94798095D01*
X151123287Y-94798095D01*
X151122091Y-93127071D01*
X160439505Y-93132246D01*
%TD*%
M02*
