%TF.GenerationSoftware,KiCad,Pcbnew,(5.1.6-0-10_14)*%
%TF.CreationDate,2020-10-31T13:09:24+09:00*%
%TF.ProjectId,RF920A,52463932-3041-42e6-9b69-6361645f7063,rev?*%
%TF.SameCoordinates,Original*%
%TF.FileFunction,Copper,L1,Top*%
%TF.FilePolarity,Positive*%
%FSLAX46Y46*%
G04 Gerber Fmt 4.6, Leading zero omitted, Abs format (unit mm)*
G04 Created by KiCad (PCBNEW (5.1.6-0-10_14)) date 2020-10-31 13:09:24*
%MOMM*%
%LPD*%
G01*
G04 APERTURE LIST*
%TA.AperFunction,WasherPad*%
%ADD10O,1.600000X0.800000*%
%TD*%
%TA.AperFunction,SMDPad,CuDef*%
%ADD11R,0.600000X1.500000*%
%TD*%
%TA.AperFunction,SMDPad,CuDef*%
%ADD12R,1.500000X0.600000*%
%TD*%
%TA.AperFunction,SMDPad,CuDef*%
%ADD13C,0.100000*%
%TD*%
%TA.AperFunction,SMDPad,CuDef*%
%ADD14R,0.700000X0.300000*%
%TD*%
%TA.AperFunction,SMDPad,CuDef*%
%ADD15R,0.300000X0.700000*%
%TD*%
%TA.AperFunction,SMDPad,CuDef*%
%ADD16R,4.200000X4.200000*%
%TD*%
%TA.AperFunction,SMDPad,CuDef*%
%ADD17R,2.200000X1.050000*%
%TD*%
%TA.AperFunction,SMDPad,CuDef*%
%ADD18R,1.050000X1.000000*%
%TD*%
%TA.AperFunction,SMDPad,CuDef*%
%ADD19R,0.850000X0.750000*%
%TD*%
%TA.AperFunction,SMDPad,CuDef*%
%ADD20C,0.250000*%
%TD*%
%TA.AperFunction,SMDPad,CuDef*%
%ADD21R,0.250000X0.425000*%
%TD*%
%TA.AperFunction,SMDPad,CuDef*%
%ADD22R,0.425000X0.325000*%
%TD*%
%TA.AperFunction,ComponentPad*%
%ADD23C,1.000000*%
%TD*%
%TA.AperFunction,ViaPad*%
%ADD24C,0.400000*%
%TD*%
%TA.AperFunction,Conductor*%
%ADD25C,0.200000*%
%TD*%
%TA.AperFunction,Conductor*%
%ADD26C,0.500000*%
%TD*%
%TA.AperFunction,Conductor*%
%ADD27C,0.150000*%
%TD*%
%TA.AperFunction,Conductor*%
%ADD28C,0.254000*%
%TD*%
G04 APERTURE END LIST*
%TO.P,R9,2*%
%TO.N,Net-(C28-Pad1)*%
%TA.AperFunction,SMDPad,CuDef*%
G36*
G01*
X166600000Y-102065000D02*
X166600000Y-101815000D01*
G75*
G02*
X166675000Y-101740000I75000J0D01*
G01*
X166825000Y-101740000D01*
G75*
G02*
X166900000Y-101815000I0J-75000D01*
G01*
X166900000Y-102065000D01*
G75*
G02*
X166825000Y-102140000I-75000J0D01*
G01*
X166675000Y-102140000D01*
G75*
G02*
X166600000Y-102065000I0J75000D01*
G01*
G37*
%TD.AperFunction*%
%TO.P,R9,1*%
%TO.N,Net-(C26-Pad1)*%
%TA.AperFunction,SMDPad,CuDef*%
G36*
G01*
X166000000Y-102065000D02*
X166000000Y-101815000D01*
G75*
G02*
X166075000Y-101740000I75000J0D01*
G01*
X166225000Y-101740000D01*
G75*
G02*
X166300000Y-101815000I0J-75000D01*
G01*
X166300000Y-102065000D01*
G75*
G02*
X166225000Y-102140000I-75000J0D01*
G01*
X166075000Y-102140000D01*
G75*
G02*
X166000000Y-102065000I0J75000D01*
G01*
G37*
%TD.AperFunction*%
%TD*%
%TO.P,R8,2*%
%TO.N,GND*%
%TA.AperFunction,SMDPad,CuDef*%
G36*
G01*
X168000000Y-98565000D02*
X168000000Y-98315000D01*
G75*
G02*
X168075000Y-98240000I75000J0D01*
G01*
X168225000Y-98240000D01*
G75*
G02*
X168300000Y-98315000I0J-75000D01*
G01*
X168300000Y-98565000D01*
G75*
G02*
X168225000Y-98640000I-75000J0D01*
G01*
X168075000Y-98640000D01*
G75*
G02*
X168000000Y-98565000I0J75000D01*
G01*
G37*
%TD.AperFunction*%
%TO.P,R8,1*%
%TO.N,Net-(C19-Pad2)*%
%TA.AperFunction,SMDPad,CuDef*%
G36*
G01*
X167400000Y-98565000D02*
X167400000Y-98315000D01*
G75*
G02*
X167475000Y-98240000I75000J0D01*
G01*
X167625000Y-98240000D01*
G75*
G02*
X167700000Y-98315000I0J-75000D01*
G01*
X167700000Y-98565000D01*
G75*
G02*
X167625000Y-98640000I-75000J0D01*
G01*
X167475000Y-98640000D01*
G75*
G02*
X167400000Y-98565000I0J75000D01*
G01*
G37*
%TD.AperFunction*%
%TD*%
%TO.P,R7,2*%
%TO.N,+3V3*%
%TA.AperFunction,SMDPad,CuDef*%
G36*
G01*
X152020000Y-93975000D02*
X152020000Y-94225000D01*
G75*
G02*
X151945000Y-94300000I-75000J0D01*
G01*
X151795000Y-94300000D01*
G75*
G02*
X151720000Y-94225000I0J75000D01*
G01*
X151720000Y-93975000D01*
G75*
G02*
X151795000Y-93900000I75000J0D01*
G01*
X151945000Y-93900000D01*
G75*
G02*
X152020000Y-93975000I0J-75000D01*
G01*
G37*
%TD.AperFunction*%
%TO.P,R7,1*%
%TO.N,/WP*%
%TA.AperFunction,SMDPad,CuDef*%
G36*
G01*
X152620000Y-93975000D02*
X152620000Y-94225000D01*
G75*
G02*
X152545000Y-94300000I-75000J0D01*
G01*
X152395000Y-94300000D01*
G75*
G02*
X152320000Y-94225000I0J75000D01*
G01*
X152320000Y-93975000D01*
G75*
G02*
X152395000Y-93900000I75000J0D01*
G01*
X152545000Y-93900000D01*
G75*
G02*
X152620000Y-93975000I0J-75000D01*
G01*
G37*
%TD.AperFunction*%
%TD*%
%TO.P,R6,2*%
%TO.N,/SCL*%
%TA.AperFunction,SMDPad,CuDef*%
G36*
G01*
X153720000Y-94225000D02*
X153720000Y-93975000D01*
G75*
G02*
X153795000Y-93900000I75000J0D01*
G01*
X153945000Y-93900000D01*
G75*
G02*
X154020000Y-93975000I0J-75000D01*
G01*
X154020000Y-94225000D01*
G75*
G02*
X153945000Y-94300000I-75000J0D01*
G01*
X153795000Y-94300000D01*
G75*
G02*
X153720000Y-94225000I0J75000D01*
G01*
G37*
%TD.AperFunction*%
%TO.P,R6,1*%
%TO.N,+3V3*%
%TA.AperFunction,SMDPad,CuDef*%
G36*
G01*
X153120000Y-94225000D02*
X153120000Y-93975000D01*
G75*
G02*
X153195000Y-93900000I75000J0D01*
G01*
X153345000Y-93900000D01*
G75*
G02*
X153420000Y-93975000I0J-75000D01*
G01*
X153420000Y-94225000D01*
G75*
G02*
X153345000Y-94300000I-75000J0D01*
G01*
X153195000Y-94300000D01*
G75*
G02*
X153120000Y-94225000I0J75000D01*
G01*
G37*
%TD.AperFunction*%
%TD*%
%TO.P,R5,2*%
%TO.N,/SDA*%
%TA.AperFunction,SMDPad,CuDef*%
G36*
G01*
X154495000Y-95340000D02*
X154745000Y-95340000D01*
G75*
G02*
X154820000Y-95415000I0J-75000D01*
G01*
X154820000Y-95565000D01*
G75*
G02*
X154745000Y-95640000I-75000J0D01*
G01*
X154495000Y-95640000D01*
G75*
G02*
X154420000Y-95565000I0J75000D01*
G01*
X154420000Y-95415000D01*
G75*
G02*
X154495000Y-95340000I75000J0D01*
G01*
G37*
%TD.AperFunction*%
%TO.P,R5,1*%
%TO.N,+3V3*%
%TA.AperFunction,SMDPad,CuDef*%
G36*
G01*
X154495000Y-94740000D02*
X154745000Y-94740000D01*
G75*
G02*
X154820000Y-94815000I0J-75000D01*
G01*
X154820000Y-94965000D01*
G75*
G02*
X154745000Y-95040000I-75000J0D01*
G01*
X154495000Y-95040000D01*
G75*
G02*
X154420000Y-94965000I0J75000D01*
G01*
X154420000Y-94815000D01*
G75*
G02*
X154495000Y-94740000I75000J0D01*
G01*
G37*
%TD.AperFunction*%
%TD*%
%TO.P,L11,2*%
%TO.N,Net-(C47-Pad2)*%
%TA.AperFunction,SMDPad,CuDef*%
G36*
G01*
X153800000Y-104035000D02*
X153800000Y-103785000D01*
G75*
G02*
X153875000Y-103710000I75000J0D01*
G01*
X154025000Y-103710000D01*
G75*
G02*
X154100000Y-103785000I0J-75000D01*
G01*
X154100000Y-104035000D01*
G75*
G02*
X154025000Y-104110000I-75000J0D01*
G01*
X153875000Y-104110000D01*
G75*
G02*
X153800000Y-104035000I0J75000D01*
G01*
G37*
%TD.AperFunction*%
%TO.P,L11,1*%
%TO.N,GND*%
%TA.AperFunction,SMDPad,CuDef*%
G36*
G01*
X153200000Y-104035000D02*
X153200000Y-103785000D01*
G75*
G02*
X153275000Y-103710000I75000J0D01*
G01*
X153425000Y-103710000D01*
G75*
G02*
X153500000Y-103785000I0J-75000D01*
G01*
X153500000Y-104035000D01*
G75*
G02*
X153425000Y-104110000I-75000J0D01*
G01*
X153275000Y-104110000D01*
G75*
G02*
X153200000Y-104035000I0J75000D01*
G01*
G37*
%TD.AperFunction*%
%TD*%
%TO.P,L10,2*%
%TO.N,Net-(C47-Pad2)*%
%TA.AperFunction,SMDPad,CuDef*%
G36*
G01*
X153790000Y-104735000D02*
X153790000Y-104485000D01*
G75*
G02*
X153865000Y-104410000I75000J0D01*
G01*
X154015000Y-104410000D01*
G75*
G02*
X154090000Y-104485000I0J-75000D01*
G01*
X154090000Y-104735000D01*
G75*
G02*
X154015000Y-104810000I-75000J0D01*
G01*
X153865000Y-104810000D01*
G75*
G02*
X153790000Y-104735000I0J75000D01*
G01*
G37*
%TD.AperFunction*%
%TO.P,L10,1*%
%TO.N,Net-(L10-Pad1)*%
%TA.AperFunction,SMDPad,CuDef*%
G36*
G01*
X153190000Y-104735000D02*
X153190000Y-104485000D01*
G75*
G02*
X153265000Y-104410000I75000J0D01*
G01*
X153415000Y-104410000D01*
G75*
G02*
X153490000Y-104485000I0J-75000D01*
G01*
X153490000Y-104735000D01*
G75*
G02*
X153415000Y-104810000I-75000J0D01*
G01*
X153265000Y-104810000D01*
G75*
G02*
X153190000Y-104735000I0J75000D01*
G01*
G37*
%TD.AperFunction*%
%TD*%
%TO.P,L9,2*%
%TO.N,Net-(L10-Pad1)*%
%TA.AperFunction,SMDPad,CuDef*%
G36*
G01*
X153490000Y-105185000D02*
X153490000Y-105435000D01*
G75*
G02*
X153415000Y-105510000I-75000J0D01*
G01*
X153265000Y-105510000D01*
G75*
G02*
X153190000Y-105435000I0J75000D01*
G01*
X153190000Y-105185000D01*
G75*
G02*
X153265000Y-105110000I75000J0D01*
G01*
X153415000Y-105110000D01*
G75*
G02*
X153490000Y-105185000I0J-75000D01*
G01*
G37*
%TD.AperFunction*%
%TO.P,L9,1*%
%TO.N,Net-(J1-Pad1)*%
%TA.AperFunction,SMDPad,CuDef*%
G36*
G01*
X154090000Y-105185000D02*
X154090000Y-105435000D01*
G75*
G02*
X154015000Y-105510000I-75000J0D01*
G01*
X153865000Y-105510000D01*
G75*
G02*
X153790000Y-105435000I0J75000D01*
G01*
X153790000Y-105185000D01*
G75*
G02*
X153865000Y-105110000I75000J0D01*
G01*
X154015000Y-105110000D01*
G75*
G02*
X154090000Y-105185000I0J-75000D01*
G01*
G37*
%TD.AperFunction*%
%TD*%
%TO.P,L8,2*%
%TO.N,Net-(C43-Pad1)*%
%TA.AperFunction,SMDPad,CuDef*%
G36*
G01*
X156225000Y-103400000D02*
X155975000Y-103400000D01*
G75*
G02*
X155900000Y-103325000I0J75000D01*
G01*
X155900000Y-103175000D01*
G75*
G02*
X155975000Y-103100000I75000J0D01*
G01*
X156225000Y-103100000D01*
G75*
G02*
X156300000Y-103175000I0J-75000D01*
G01*
X156300000Y-103325000D01*
G75*
G02*
X156225000Y-103400000I-75000J0D01*
G01*
G37*
%TD.AperFunction*%
%TO.P,L8,1*%
%TO.N,Net-(C41-Pad1)*%
%TA.AperFunction,SMDPad,CuDef*%
G36*
G01*
X156225000Y-104000000D02*
X155975000Y-104000000D01*
G75*
G02*
X155900000Y-103925000I0J75000D01*
G01*
X155900000Y-103775000D01*
G75*
G02*
X155975000Y-103700000I75000J0D01*
G01*
X156225000Y-103700000D01*
G75*
G02*
X156300000Y-103775000I0J-75000D01*
G01*
X156300000Y-103925000D01*
G75*
G02*
X156225000Y-104000000I-75000J0D01*
G01*
G37*
%TD.AperFunction*%
%TD*%
%TO.P,L7,2*%
%TO.N,Net-(C39-Pad1)*%
%TA.AperFunction,SMDPad,CuDef*%
G36*
G01*
X157625000Y-103410000D02*
X157375000Y-103410000D01*
G75*
G02*
X157300000Y-103335000I0J75000D01*
G01*
X157300000Y-103185000D01*
G75*
G02*
X157375000Y-103110000I75000J0D01*
G01*
X157625000Y-103110000D01*
G75*
G02*
X157700000Y-103185000I0J-75000D01*
G01*
X157700000Y-103335000D01*
G75*
G02*
X157625000Y-103410000I-75000J0D01*
G01*
G37*
%TD.AperFunction*%
%TO.P,L7,1*%
%TO.N,Net-(C41-Pad1)*%
%TA.AperFunction,SMDPad,CuDef*%
G36*
G01*
X157625000Y-104010000D02*
X157375000Y-104010000D01*
G75*
G02*
X157300000Y-103935000I0J75000D01*
G01*
X157300000Y-103785000D01*
G75*
G02*
X157375000Y-103710000I75000J0D01*
G01*
X157625000Y-103710000D01*
G75*
G02*
X157700000Y-103785000I0J-75000D01*
G01*
X157700000Y-103935000D01*
G75*
G02*
X157625000Y-104010000I-75000J0D01*
G01*
G37*
%TD.AperFunction*%
%TD*%
%TO.P,L6,2*%
%TO.N,Net-(C40-Pad1)*%
%TA.AperFunction,SMDPad,CuDef*%
G36*
G01*
X156925000Y-103410000D02*
X156675000Y-103410000D01*
G75*
G02*
X156600000Y-103335000I0J75000D01*
G01*
X156600000Y-103185000D01*
G75*
G02*
X156675000Y-103110000I75000J0D01*
G01*
X156925000Y-103110000D01*
G75*
G02*
X157000000Y-103185000I0J-75000D01*
G01*
X157000000Y-103335000D01*
G75*
G02*
X156925000Y-103410000I-75000J0D01*
G01*
G37*
%TD.AperFunction*%
%TO.P,L6,1*%
%TO.N,Net-(C39-Pad1)*%
%TA.AperFunction,SMDPad,CuDef*%
G36*
G01*
X156925000Y-104010000D02*
X156675000Y-104010000D01*
G75*
G02*
X156600000Y-103935000I0J75000D01*
G01*
X156600000Y-103785000D01*
G75*
G02*
X156675000Y-103710000I75000J0D01*
G01*
X156925000Y-103710000D01*
G75*
G02*
X157000000Y-103785000I0J-75000D01*
G01*
X157000000Y-103935000D01*
G75*
G02*
X156925000Y-104010000I-75000J0D01*
G01*
G37*
%TD.AperFunction*%
%TD*%
%TO.P,L5,2*%
%TO.N,Net-(C35-Pad2)*%
%TA.AperFunction,SMDPad,CuDef*%
G36*
G01*
X159925000Y-104200000D02*
X160175000Y-104200000D01*
G75*
G02*
X160250000Y-104275000I0J-75000D01*
G01*
X160250000Y-104425000D01*
G75*
G02*
X160175000Y-104500000I-75000J0D01*
G01*
X159925000Y-104500000D01*
G75*
G02*
X159850000Y-104425000I0J75000D01*
G01*
X159850000Y-104275000D01*
G75*
G02*
X159925000Y-104200000I75000J0D01*
G01*
G37*
%TD.AperFunction*%
%TO.P,L5,1*%
%TO.N,Net-(C39-Pad1)*%
%TA.AperFunction,SMDPad,CuDef*%
G36*
G01*
X159925000Y-103600000D02*
X160175000Y-103600000D01*
G75*
G02*
X160250000Y-103675000I0J-75000D01*
G01*
X160250000Y-103825000D01*
G75*
G02*
X160175000Y-103900000I-75000J0D01*
G01*
X159925000Y-103900000D01*
G75*
G02*
X159850000Y-103825000I0J75000D01*
G01*
X159850000Y-103675000D01*
G75*
G02*
X159925000Y-103600000I75000J0D01*
G01*
G37*
%TD.AperFunction*%
%TD*%
%TO.P,L4,2*%
%TO.N,GND*%
%TA.AperFunction,SMDPad,CuDef*%
G36*
G01*
X165520000Y-105975000D02*
X165520000Y-105725000D01*
G75*
G02*
X165595000Y-105650000I75000J0D01*
G01*
X165745000Y-105650000D01*
G75*
G02*
X165820000Y-105725000I0J-75000D01*
G01*
X165820000Y-105975000D01*
G75*
G02*
X165745000Y-106050000I-75000J0D01*
G01*
X165595000Y-106050000D01*
G75*
G02*
X165520000Y-105975000I0J75000D01*
G01*
G37*
%TD.AperFunction*%
%TO.P,L4,1*%
%TO.N,Net-(C36-Pad2)*%
%TA.AperFunction,SMDPad,CuDef*%
G36*
G01*
X164920000Y-105975000D02*
X164920000Y-105725000D01*
G75*
G02*
X164995000Y-105650000I75000J0D01*
G01*
X165145000Y-105650000D01*
G75*
G02*
X165220000Y-105725000I0J-75000D01*
G01*
X165220000Y-105975000D01*
G75*
G02*
X165145000Y-106050000I-75000J0D01*
G01*
X164995000Y-106050000D01*
G75*
G02*
X164920000Y-105975000I0J75000D01*
G01*
G37*
%TD.AperFunction*%
%TD*%
%TO.P,L3,2*%
%TO.N,GND*%
%TA.AperFunction,SMDPad,CuDef*%
G36*
G01*
X165520000Y-105275000D02*
X165520000Y-105025000D01*
G75*
G02*
X165595000Y-104950000I75000J0D01*
G01*
X165745000Y-104950000D01*
G75*
G02*
X165820000Y-105025000I0J-75000D01*
G01*
X165820000Y-105275000D01*
G75*
G02*
X165745000Y-105350000I-75000J0D01*
G01*
X165595000Y-105350000D01*
G75*
G02*
X165520000Y-105275000I0J75000D01*
G01*
G37*
%TD.AperFunction*%
%TO.P,L3,1*%
%TO.N,Net-(C34-Pad2)*%
%TA.AperFunction,SMDPad,CuDef*%
G36*
G01*
X164920000Y-105275000D02*
X164920000Y-105025000D01*
G75*
G02*
X164995000Y-104950000I75000J0D01*
G01*
X165145000Y-104950000D01*
G75*
G02*
X165220000Y-105025000I0J-75000D01*
G01*
X165220000Y-105275000D01*
G75*
G02*
X165145000Y-105350000I-75000J0D01*
G01*
X164995000Y-105350000D01*
G75*
G02*
X164920000Y-105275000I0J75000D01*
G01*
G37*
%TD.AperFunction*%
%TD*%
%TO.P,L2,2*%
%TO.N,Net-(C37-Pad1)*%
%TA.AperFunction,SMDPad,CuDef*%
G36*
G01*
X162035000Y-104200000D02*
X162285000Y-104200000D01*
G75*
G02*
X162360000Y-104275000I0J-75000D01*
G01*
X162360000Y-104425000D01*
G75*
G02*
X162285000Y-104500000I-75000J0D01*
G01*
X162035000Y-104500000D01*
G75*
G02*
X161960000Y-104425000I0J75000D01*
G01*
X161960000Y-104275000D01*
G75*
G02*
X162035000Y-104200000I75000J0D01*
G01*
G37*
%TD.AperFunction*%
%TO.P,L2,1*%
%TO.N,Net-(C33-Pad1)*%
%TA.AperFunction,SMDPad,CuDef*%
G36*
G01*
X162035000Y-103600000D02*
X162285000Y-103600000D01*
G75*
G02*
X162360000Y-103675000I0J-75000D01*
G01*
X162360000Y-103825000D01*
G75*
G02*
X162285000Y-103900000I-75000J0D01*
G01*
X162035000Y-103900000D01*
G75*
G02*
X161960000Y-103825000I0J75000D01*
G01*
X161960000Y-103675000D01*
G75*
G02*
X162035000Y-103600000I75000J0D01*
G01*
G37*
%TD.AperFunction*%
%TD*%
%TO.P,L1,2*%
%TO.N,Net-(C23-Pad2)*%
%TA.AperFunction,SMDPad,CuDef*%
G36*
G01*
X166225000Y-99330000D02*
X165975000Y-99330000D01*
G75*
G02*
X165900000Y-99255000I0J75000D01*
G01*
X165900000Y-99105000D01*
G75*
G02*
X165975000Y-99030000I75000J0D01*
G01*
X166225000Y-99030000D01*
G75*
G02*
X166300000Y-99105000I0J-75000D01*
G01*
X166300000Y-99255000D01*
G75*
G02*
X166225000Y-99330000I-75000J0D01*
G01*
G37*
%TD.AperFunction*%
%TO.P,L1,1*%
%TO.N,Net-(C23-Pad1)*%
%TA.AperFunction,SMDPad,CuDef*%
G36*
G01*
X166225000Y-99930000D02*
X165975000Y-99930000D01*
G75*
G02*
X165900000Y-99855000I0J75000D01*
G01*
X165900000Y-99705000D01*
G75*
G02*
X165975000Y-99630000I75000J0D01*
G01*
X166225000Y-99630000D01*
G75*
G02*
X166300000Y-99705000I0J-75000D01*
G01*
X166300000Y-99855000D01*
G75*
G02*
X166225000Y-99930000I-75000J0D01*
G01*
G37*
%TD.AperFunction*%
%TD*%
%TO.P,C1,2*%
%TO.N,+3.3VA*%
%TA.AperFunction,SMDPad,CuDef*%
G36*
G01*
X166863750Y-104830000D02*
X167376250Y-104830000D01*
G75*
G02*
X167595000Y-105048750I0J-218750D01*
G01*
X167595000Y-105486250D01*
G75*
G02*
X167376250Y-105705000I-218750J0D01*
G01*
X166863750Y-105705000D01*
G75*
G02*
X166645000Y-105486250I0J218750D01*
G01*
X166645000Y-105048750D01*
G75*
G02*
X166863750Y-104830000I218750J0D01*
G01*
G37*
%TD.AperFunction*%
%TO.P,C1,1*%
%TO.N,GND*%
%TA.AperFunction,SMDPad,CuDef*%
G36*
G01*
X166863750Y-103255000D02*
X167376250Y-103255000D01*
G75*
G02*
X167595000Y-103473750I0J-218750D01*
G01*
X167595000Y-103911250D01*
G75*
G02*
X167376250Y-104130000I-218750J0D01*
G01*
X166863750Y-104130000D01*
G75*
G02*
X166645000Y-103911250I0J218750D01*
G01*
X166645000Y-103473750D01*
G75*
G02*
X166863750Y-103255000I218750J0D01*
G01*
G37*
%TD.AperFunction*%
%TD*%
D10*
%TO.P,U7,*%
%TO.N,*%
X162125000Y-106970000D03*
D11*
%TO.P,U7,1*%
%TO.N,Net-(U7-Pad1)*%
X150850000Y-102970000D03*
D12*
%TO.P,U7,2*%
%TO.N,Net-(U7-Pad2)*%
X157300000Y-92770000D03*
%TA.AperFunction,SMDPad,CuDef*%
D13*
%TO.P,U7,3*%
%TO.N,Net-(U7-Pad3)*%
G36*
X167550000Y-106770000D02*
G01*
X168950000Y-106770000D01*
X168950000Y-105370000D01*
X169550000Y-105370000D01*
X169550000Y-107370000D01*
X167550000Y-107370000D01*
X167550000Y-106770000D01*
G37*
%TD.AperFunction*%
%TA.AperFunction,SMDPad,CuDef*%
%TO.P,U7,4*%
%TO.N,Net-(U7-Pad4)*%
G36*
X168850000Y-94470000D02*
G01*
X168850000Y-93070000D01*
X167450000Y-93070000D01*
X167450000Y-92470000D01*
X169450000Y-92470000D01*
X169450000Y-94470000D01*
X168850000Y-94470000D01*
G37*
%TD.AperFunction*%
D10*
%TO.P,U7,*%
%TO.N,*%
X161550000Y-92970000D03*
%TA.AperFunction,SMDPad,CuDef*%
D13*
%TO.P,U7,5*%
%TO.N,Net-(U7-Pad5)*%
G36*
X151150000Y-105370000D02*
G01*
X151150000Y-106770000D01*
X152550000Y-106770000D01*
X152550000Y-107370000D01*
X150550000Y-107370000D01*
X150550000Y-105370000D01*
X151150000Y-105370000D01*
G37*
%TD.AperFunction*%
%TD*%
%TO.P,C48,2*%
%TO.N,Net-(C48-Pad2)*%
%TA.AperFunction,SMDPad,CuDef*%
G36*
G01*
X154575000Y-103700000D02*
X154825000Y-103700000D01*
G75*
G02*
X154900000Y-103775000I0J-75000D01*
G01*
X154900000Y-103925000D01*
G75*
G02*
X154825000Y-104000000I-75000J0D01*
G01*
X154575000Y-104000000D01*
G75*
G02*
X154500000Y-103925000I0J75000D01*
G01*
X154500000Y-103775000D01*
G75*
G02*
X154575000Y-103700000I75000J0D01*
G01*
G37*
%TD.AperFunction*%
%TO.P,C48,1*%
%TO.N,Net-(C48-Pad1)*%
%TA.AperFunction,SMDPad,CuDef*%
G36*
G01*
X154575000Y-103100000D02*
X154825000Y-103100000D01*
G75*
G02*
X154900000Y-103175000I0J-75000D01*
G01*
X154900000Y-103325000D01*
G75*
G02*
X154825000Y-103400000I-75000J0D01*
G01*
X154575000Y-103400000D01*
G75*
G02*
X154500000Y-103325000I0J75000D01*
G01*
X154500000Y-103175000D01*
G75*
G02*
X154575000Y-103100000I75000J0D01*
G01*
G37*
%TD.AperFunction*%
%TD*%
%TO.P,C47,2*%
%TO.N,Net-(C47-Pad2)*%
%TA.AperFunction,SMDPad,CuDef*%
G36*
G01*
X154890000Y-105185000D02*
X154890000Y-105435000D01*
G75*
G02*
X154815000Y-105510000I-75000J0D01*
G01*
X154665000Y-105510000D01*
G75*
G02*
X154590000Y-105435000I0J75000D01*
G01*
X154590000Y-105185000D01*
G75*
G02*
X154665000Y-105110000I75000J0D01*
G01*
X154815000Y-105110000D01*
G75*
G02*
X154890000Y-105185000I0J-75000D01*
G01*
G37*
%TD.AperFunction*%
%TO.P,C47,1*%
%TO.N,Net-(C47-Pad1)*%
%TA.AperFunction,SMDPad,CuDef*%
G36*
G01*
X155490000Y-105185000D02*
X155490000Y-105435000D01*
G75*
G02*
X155415000Y-105510000I-75000J0D01*
G01*
X155265000Y-105510000D01*
G75*
G02*
X155190000Y-105435000I0J75000D01*
G01*
X155190000Y-105185000D01*
G75*
G02*
X155265000Y-105110000I75000J0D01*
G01*
X155415000Y-105110000D01*
G75*
G02*
X155490000Y-105185000I0J-75000D01*
G01*
G37*
%TD.AperFunction*%
%TD*%
%TO.P,C46,2*%
%TO.N,Net-(C46-Pad2)*%
%TA.AperFunction,SMDPad,CuDef*%
G36*
G01*
X157375000Y-102300000D02*
X157625000Y-102300000D01*
G75*
G02*
X157700000Y-102375000I0J-75000D01*
G01*
X157700000Y-102525000D01*
G75*
G02*
X157625000Y-102600000I-75000J0D01*
G01*
X157375000Y-102600000D01*
G75*
G02*
X157300000Y-102525000I0J75000D01*
G01*
X157300000Y-102375000D01*
G75*
G02*
X157375000Y-102300000I75000J0D01*
G01*
G37*
%TD.AperFunction*%
%TO.P,C46,1*%
%TO.N,GND*%
%TA.AperFunction,SMDPad,CuDef*%
G36*
G01*
X157375000Y-101700000D02*
X157625000Y-101700000D01*
G75*
G02*
X157700000Y-101775000I0J-75000D01*
G01*
X157700000Y-101925000D01*
G75*
G02*
X157625000Y-102000000I-75000J0D01*
G01*
X157375000Y-102000000D01*
G75*
G02*
X157300000Y-101925000I0J75000D01*
G01*
X157300000Y-101775000D01*
G75*
G02*
X157375000Y-101700000I75000J0D01*
G01*
G37*
%TD.AperFunction*%
%TD*%
%TO.P,C45,2*%
%TO.N,GND*%
%TA.AperFunction,SMDPad,CuDef*%
G36*
G01*
X159200000Y-106415000D02*
X159200000Y-106165000D01*
G75*
G02*
X159275000Y-106090000I75000J0D01*
G01*
X159425000Y-106090000D01*
G75*
G02*
X159500000Y-106165000I0J-75000D01*
G01*
X159500000Y-106415000D01*
G75*
G02*
X159425000Y-106490000I-75000J0D01*
G01*
X159275000Y-106490000D01*
G75*
G02*
X159200000Y-106415000I0J75000D01*
G01*
G37*
%TD.AperFunction*%
%TO.P,C45,1*%
%TO.N,Net-(C45-Pad1)*%
%TA.AperFunction,SMDPad,CuDef*%
G36*
G01*
X158600000Y-106415000D02*
X158600000Y-106165000D01*
G75*
G02*
X158675000Y-106090000I75000J0D01*
G01*
X158825000Y-106090000D01*
G75*
G02*
X158900000Y-106165000I0J-75000D01*
G01*
X158900000Y-106415000D01*
G75*
G02*
X158825000Y-106490000I-75000J0D01*
G01*
X158675000Y-106490000D01*
G75*
G02*
X158600000Y-106415000I0J75000D01*
G01*
G37*
%TD.AperFunction*%
%TD*%
%TO.P,C44,2*%
%TO.N,Net-(C44-Pad2)*%
%TA.AperFunction,SMDPad,CuDef*%
G36*
G01*
X158525000Y-104900000D02*
X158775000Y-104900000D01*
G75*
G02*
X158850000Y-104975000I0J-75000D01*
G01*
X158850000Y-105125000D01*
G75*
G02*
X158775000Y-105200000I-75000J0D01*
G01*
X158525000Y-105200000D01*
G75*
G02*
X158450000Y-105125000I0J75000D01*
G01*
X158450000Y-104975000D01*
G75*
G02*
X158525000Y-104900000I75000J0D01*
G01*
G37*
%TD.AperFunction*%
%TO.P,C44,1*%
%TO.N,Net-(C41-Pad1)*%
%TA.AperFunction,SMDPad,CuDef*%
G36*
G01*
X158525000Y-104300000D02*
X158775000Y-104300000D01*
G75*
G02*
X158850000Y-104375000I0J-75000D01*
G01*
X158850000Y-104525000D01*
G75*
G02*
X158775000Y-104600000I-75000J0D01*
G01*
X158525000Y-104600000D01*
G75*
G02*
X158450000Y-104525000I0J75000D01*
G01*
X158450000Y-104375000D01*
G75*
G02*
X158525000Y-104300000I75000J0D01*
G01*
G37*
%TD.AperFunction*%
%TD*%
%TO.P,C43,2*%
%TO.N,GND*%
%TA.AperFunction,SMDPad,CuDef*%
G36*
G01*
X155275000Y-103700000D02*
X155525000Y-103700000D01*
G75*
G02*
X155600000Y-103775000I0J-75000D01*
G01*
X155600000Y-103925000D01*
G75*
G02*
X155525000Y-104000000I-75000J0D01*
G01*
X155275000Y-104000000D01*
G75*
G02*
X155200000Y-103925000I0J75000D01*
G01*
X155200000Y-103775000D01*
G75*
G02*
X155275000Y-103700000I75000J0D01*
G01*
G37*
%TD.AperFunction*%
%TO.P,C43,1*%
%TO.N,Net-(C43-Pad1)*%
%TA.AperFunction,SMDPad,CuDef*%
G36*
G01*
X155275000Y-103100000D02*
X155525000Y-103100000D01*
G75*
G02*
X155600000Y-103175000I0J-75000D01*
G01*
X155600000Y-103325000D01*
G75*
G02*
X155525000Y-103400000I-75000J0D01*
G01*
X155275000Y-103400000D01*
G75*
G02*
X155200000Y-103325000I0J75000D01*
G01*
X155200000Y-103175000D01*
G75*
G02*
X155275000Y-103100000I75000J0D01*
G01*
G37*
%TD.AperFunction*%
%TD*%
%TO.P,C42,2*%
%TO.N,Net-(C42-Pad2)*%
%TA.AperFunction,SMDPad,CuDef*%
G36*
G01*
X160920000Y-105775000D02*
X160920000Y-106025000D01*
G75*
G02*
X160845000Y-106100000I-75000J0D01*
G01*
X160695000Y-106100000D01*
G75*
G02*
X160620000Y-106025000I0J75000D01*
G01*
X160620000Y-105775000D01*
G75*
G02*
X160695000Y-105700000I75000J0D01*
G01*
X160845000Y-105700000D01*
G75*
G02*
X160920000Y-105775000I0J-75000D01*
G01*
G37*
%TD.AperFunction*%
%TO.P,C42,1*%
%TO.N,Net-(C42-Pad1)*%
%TA.AperFunction,SMDPad,CuDef*%
G36*
G01*
X161520000Y-105775000D02*
X161520000Y-106025000D01*
G75*
G02*
X161445000Y-106100000I-75000J0D01*
G01*
X161295000Y-106100000D01*
G75*
G02*
X161220000Y-106025000I0J75000D01*
G01*
X161220000Y-105775000D01*
G75*
G02*
X161295000Y-105700000I75000J0D01*
G01*
X161445000Y-105700000D01*
G75*
G02*
X161520000Y-105775000I0J-75000D01*
G01*
G37*
%TD.AperFunction*%
%TD*%
%TO.P,C41,2*%
%TO.N,Net-(C39-Pad1)*%
%TA.AperFunction,SMDPad,CuDef*%
G36*
G01*
X159150000Y-103825000D02*
X159150000Y-103575000D01*
G75*
G02*
X159225000Y-103500000I75000J0D01*
G01*
X159375000Y-103500000D01*
G75*
G02*
X159450000Y-103575000I0J-75000D01*
G01*
X159450000Y-103825000D01*
G75*
G02*
X159375000Y-103900000I-75000J0D01*
G01*
X159225000Y-103900000D01*
G75*
G02*
X159150000Y-103825000I0J75000D01*
G01*
G37*
%TD.AperFunction*%
%TO.P,C41,1*%
%TO.N,Net-(C41-Pad1)*%
%TA.AperFunction,SMDPad,CuDef*%
G36*
G01*
X158550000Y-103825000D02*
X158550000Y-103575000D01*
G75*
G02*
X158625000Y-103500000I75000J0D01*
G01*
X158775000Y-103500000D01*
G75*
G02*
X158850000Y-103575000I0J-75000D01*
G01*
X158850000Y-103825000D01*
G75*
G02*
X158775000Y-103900000I-75000J0D01*
G01*
X158625000Y-103900000D01*
G75*
G02*
X158550000Y-103825000I0J75000D01*
G01*
G37*
%TD.AperFunction*%
%TD*%
%TO.P,C40,2*%
%TO.N,GND*%
%TA.AperFunction,SMDPad,CuDef*%
G36*
G01*
X156925000Y-102000000D02*
X156675000Y-102000000D01*
G75*
G02*
X156600000Y-101925000I0J75000D01*
G01*
X156600000Y-101775000D01*
G75*
G02*
X156675000Y-101700000I75000J0D01*
G01*
X156925000Y-101700000D01*
G75*
G02*
X157000000Y-101775000I0J-75000D01*
G01*
X157000000Y-101925000D01*
G75*
G02*
X156925000Y-102000000I-75000J0D01*
G01*
G37*
%TD.AperFunction*%
%TO.P,C40,1*%
%TO.N,Net-(C40-Pad1)*%
%TA.AperFunction,SMDPad,CuDef*%
G36*
G01*
X156925000Y-102600000D02*
X156675000Y-102600000D01*
G75*
G02*
X156600000Y-102525000I0J75000D01*
G01*
X156600000Y-102375000D01*
G75*
G02*
X156675000Y-102300000I75000J0D01*
G01*
X156925000Y-102300000D01*
G75*
G02*
X157000000Y-102375000I0J-75000D01*
G01*
X157000000Y-102525000D01*
G75*
G02*
X156925000Y-102600000I-75000J0D01*
G01*
G37*
%TD.AperFunction*%
%TD*%
%TO.P,C39,2*%
%TO.N,GND*%
%TA.AperFunction,SMDPad,CuDef*%
G36*
G01*
X159225000Y-104900000D02*
X159475000Y-104900000D01*
G75*
G02*
X159550000Y-104975000I0J-75000D01*
G01*
X159550000Y-105125000D01*
G75*
G02*
X159475000Y-105200000I-75000J0D01*
G01*
X159225000Y-105200000D01*
G75*
G02*
X159150000Y-105125000I0J75000D01*
G01*
X159150000Y-104975000D01*
G75*
G02*
X159225000Y-104900000I75000J0D01*
G01*
G37*
%TD.AperFunction*%
%TO.P,C39,1*%
%TO.N,Net-(C39-Pad1)*%
%TA.AperFunction,SMDPad,CuDef*%
G36*
G01*
X159225000Y-104300000D02*
X159475000Y-104300000D01*
G75*
G02*
X159550000Y-104375000I0J-75000D01*
G01*
X159550000Y-104525000D01*
G75*
G02*
X159475000Y-104600000I-75000J0D01*
G01*
X159225000Y-104600000D01*
G75*
G02*
X159150000Y-104525000I0J75000D01*
G01*
X159150000Y-104375000D01*
G75*
G02*
X159225000Y-104300000I75000J0D01*
G01*
G37*
%TD.AperFunction*%
%TD*%
%TO.P,C38,2*%
%TO.N,Net-(C37-Pad1)*%
%TA.AperFunction,SMDPad,CuDef*%
G36*
G01*
X163120000Y-103575000D02*
X163120000Y-103825000D01*
G75*
G02*
X163045000Y-103900000I-75000J0D01*
G01*
X162895000Y-103900000D01*
G75*
G02*
X162820000Y-103825000I0J75000D01*
G01*
X162820000Y-103575000D01*
G75*
G02*
X162895000Y-103500000I75000J0D01*
G01*
X163045000Y-103500000D01*
G75*
G02*
X163120000Y-103575000I0J-75000D01*
G01*
G37*
%TD.AperFunction*%
%TO.P,C38,1*%
%TO.N,GND*%
%TA.AperFunction,SMDPad,CuDef*%
G36*
G01*
X163720000Y-103575000D02*
X163720000Y-103825000D01*
G75*
G02*
X163645000Y-103900000I-75000J0D01*
G01*
X163495000Y-103900000D01*
G75*
G02*
X163420000Y-103825000I0J75000D01*
G01*
X163420000Y-103575000D01*
G75*
G02*
X163495000Y-103500000I75000J0D01*
G01*
X163645000Y-103500000D01*
G75*
G02*
X163720000Y-103575000I0J-75000D01*
G01*
G37*
%TD.AperFunction*%
%TD*%
%TO.P,C37,2*%
%TO.N,GND*%
%TA.AperFunction,SMDPad,CuDef*%
G36*
G01*
X163420000Y-104575000D02*
X163420000Y-104325000D01*
G75*
G02*
X163495000Y-104250000I75000J0D01*
G01*
X163645000Y-104250000D01*
G75*
G02*
X163720000Y-104325000I0J-75000D01*
G01*
X163720000Y-104575000D01*
G75*
G02*
X163645000Y-104650000I-75000J0D01*
G01*
X163495000Y-104650000D01*
G75*
G02*
X163420000Y-104575000I0J75000D01*
G01*
G37*
%TD.AperFunction*%
%TO.P,C37,1*%
%TO.N,Net-(C37-Pad1)*%
%TA.AperFunction,SMDPad,CuDef*%
G36*
G01*
X162820000Y-104575000D02*
X162820000Y-104325000D01*
G75*
G02*
X162895000Y-104250000I75000J0D01*
G01*
X163045000Y-104250000D01*
G75*
G02*
X163120000Y-104325000I0J-75000D01*
G01*
X163120000Y-104575000D01*
G75*
G02*
X163045000Y-104650000I-75000J0D01*
G01*
X162895000Y-104650000D01*
G75*
G02*
X162820000Y-104575000I0J75000D01*
G01*
G37*
%TD.AperFunction*%
%TD*%
%TO.P,C36,2*%
%TO.N,Net-(C36-Pad2)*%
%TA.AperFunction,SMDPad,CuDef*%
G36*
G01*
X164191000Y-105670000D02*
X164441000Y-105670000D01*
G75*
G02*
X164516000Y-105745000I0J-75000D01*
G01*
X164516000Y-105895000D01*
G75*
G02*
X164441000Y-105970000I-75000J0D01*
G01*
X164191000Y-105970000D01*
G75*
G02*
X164116000Y-105895000I0J75000D01*
G01*
X164116000Y-105745000D01*
G75*
G02*
X164191000Y-105670000I75000J0D01*
G01*
G37*
%TD.AperFunction*%
%TO.P,C36,1*%
%TO.N,Net-(C34-Pad2)*%
%TA.AperFunction,SMDPad,CuDef*%
G36*
G01*
X164191000Y-105070000D02*
X164441000Y-105070000D01*
G75*
G02*
X164516000Y-105145000I0J-75000D01*
G01*
X164516000Y-105295000D01*
G75*
G02*
X164441000Y-105370000I-75000J0D01*
G01*
X164191000Y-105370000D01*
G75*
G02*
X164116000Y-105295000I0J75000D01*
G01*
X164116000Y-105145000D01*
G75*
G02*
X164191000Y-105070000I75000J0D01*
G01*
G37*
%TD.AperFunction*%
%TD*%
%TO.P,C35,2*%
%TO.N,Net-(C35-Pad2)*%
%TA.AperFunction,SMDPad,CuDef*%
G36*
G01*
X160955000Y-104275000D02*
X160955000Y-104525000D01*
G75*
G02*
X160880000Y-104600000I-75000J0D01*
G01*
X160730000Y-104600000D01*
G75*
G02*
X160655000Y-104525000I0J75000D01*
G01*
X160655000Y-104275000D01*
G75*
G02*
X160730000Y-104200000I75000J0D01*
G01*
X160880000Y-104200000D01*
G75*
G02*
X160955000Y-104275000I0J-75000D01*
G01*
G37*
%TD.AperFunction*%
%TO.P,C35,1*%
%TO.N,Net-(C33-Pad1)*%
%TA.AperFunction,SMDPad,CuDef*%
G36*
G01*
X161555000Y-104275000D02*
X161555000Y-104525000D01*
G75*
G02*
X161480000Y-104600000I-75000J0D01*
G01*
X161330000Y-104600000D01*
G75*
G02*
X161255000Y-104525000I0J75000D01*
G01*
X161255000Y-104275000D01*
G75*
G02*
X161330000Y-104200000I75000J0D01*
G01*
X161480000Y-104200000D01*
G75*
G02*
X161555000Y-104275000I0J-75000D01*
G01*
G37*
%TD.AperFunction*%
%TD*%
%TO.P,C34,2*%
%TO.N,Net-(C34-Pad2)*%
%TA.AperFunction,SMDPad,CuDef*%
G36*
G01*
X164925000Y-104250000D02*
X165175000Y-104250000D01*
G75*
G02*
X165250000Y-104325000I0J-75000D01*
G01*
X165250000Y-104475000D01*
G75*
G02*
X165175000Y-104550000I-75000J0D01*
G01*
X164925000Y-104550000D01*
G75*
G02*
X164850000Y-104475000I0J75000D01*
G01*
X164850000Y-104325000D01*
G75*
G02*
X164925000Y-104250000I75000J0D01*
G01*
G37*
%TD.AperFunction*%
%TO.P,C34,1*%
%TO.N,Net-(C34-Pad1)*%
%TA.AperFunction,SMDPad,CuDef*%
G36*
G01*
X164925000Y-103650000D02*
X165175000Y-103650000D01*
G75*
G02*
X165250000Y-103725000I0J-75000D01*
G01*
X165250000Y-103875000D01*
G75*
G02*
X165175000Y-103950000I-75000J0D01*
G01*
X164925000Y-103950000D01*
G75*
G02*
X164850000Y-103875000I0J75000D01*
G01*
X164850000Y-103725000D01*
G75*
G02*
X164925000Y-103650000I75000J0D01*
G01*
G37*
%TD.AperFunction*%
%TD*%
%TO.P,C33,2*%
%TO.N,GND*%
%TA.AperFunction,SMDPad,CuDef*%
G36*
G01*
X160920000Y-105075000D02*
X160920000Y-105325000D01*
G75*
G02*
X160845000Y-105400000I-75000J0D01*
G01*
X160695000Y-105400000D01*
G75*
G02*
X160620000Y-105325000I0J75000D01*
G01*
X160620000Y-105075000D01*
G75*
G02*
X160695000Y-105000000I75000J0D01*
G01*
X160845000Y-105000000D01*
G75*
G02*
X160920000Y-105075000I0J-75000D01*
G01*
G37*
%TD.AperFunction*%
%TO.P,C33,1*%
%TO.N,Net-(C33-Pad1)*%
%TA.AperFunction,SMDPad,CuDef*%
G36*
G01*
X161520000Y-105075000D02*
X161520000Y-105325000D01*
G75*
G02*
X161445000Y-105400000I-75000J0D01*
G01*
X161295000Y-105400000D01*
G75*
G02*
X161220000Y-105325000I0J75000D01*
G01*
X161220000Y-105075000D01*
G75*
G02*
X161295000Y-105000000I75000J0D01*
G01*
X161445000Y-105000000D01*
G75*
G02*
X161520000Y-105075000I0J-75000D01*
G01*
G37*
%TD.AperFunction*%
%TD*%
%TO.P,C32,2*%
%TO.N,/VDDCP*%
%TA.AperFunction,SMDPad,CuDef*%
G36*
G01*
X160960000Y-103575000D02*
X160960000Y-103825000D01*
G75*
G02*
X160885000Y-103900000I-75000J0D01*
G01*
X160735000Y-103900000D01*
G75*
G02*
X160660000Y-103825000I0J75000D01*
G01*
X160660000Y-103575000D01*
G75*
G02*
X160735000Y-103500000I75000J0D01*
G01*
X160885000Y-103500000D01*
G75*
G02*
X160960000Y-103575000I0J-75000D01*
G01*
G37*
%TD.AperFunction*%
%TO.P,C32,1*%
%TO.N,GND*%
%TA.AperFunction,SMDPad,CuDef*%
G36*
G01*
X161560000Y-103575000D02*
X161560000Y-103825000D01*
G75*
G02*
X161485000Y-103900000I-75000J0D01*
G01*
X161335000Y-103900000D01*
G75*
G02*
X161260000Y-103825000I0J75000D01*
G01*
X161260000Y-103575000D01*
G75*
G02*
X161335000Y-103500000I75000J0D01*
G01*
X161485000Y-103500000D01*
G75*
G02*
X161560000Y-103575000I0J-75000D01*
G01*
G37*
%TD.AperFunction*%
%TD*%
%TO.P,C31,2*%
%TO.N,GND*%
%TA.AperFunction,SMDPad,CuDef*%
G36*
G01*
X164225000Y-104250000D02*
X164475000Y-104250000D01*
G75*
G02*
X164550000Y-104325000I0J-75000D01*
G01*
X164550000Y-104475000D01*
G75*
G02*
X164475000Y-104550000I-75000J0D01*
G01*
X164225000Y-104550000D01*
G75*
G02*
X164150000Y-104475000I0J75000D01*
G01*
X164150000Y-104325000D01*
G75*
G02*
X164225000Y-104250000I75000J0D01*
G01*
G37*
%TD.AperFunction*%
%TO.P,C31,1*%
%TO.N,+3.3VA*%
%TA.AperFunction,SMDPad,CuDef*%
G36*
G01*
X164225000Y-103650000D02*
X164475000Y-103650000D01*
G75*
G02*
X164550000Y-103725000I0J-75000D01*
G01*
X164550000Y-103875000D01*
G75*
G02*
X164475000Y-103950000I-75000J0D01*
G01*
X164225000Y-103950000D01*
G75*
G02*
X164150000Y-103875000I0J75000D01*
G01*
X164150000Y-103725000D01*
G75*
G02*
X164225000Y-103650000I75000J0D01*
G01*
G37*
%TD.AperFunction*%
%TD*%
%TO.P,C29,2*%
%TO.N,/VDDCP*%
%TA.AperFunction,SMDPad,CuDef*%
G36*
G01*
X166300000Y-102515000D02*
X166300000Y-102765000D01*
G75*
G02*
X166225000Y-102840000I-75000J0D01*
G01*
X166075000Y-102840000D01*
G75*
G02*
X166000000Y-102765000I0J75000D01*
G01*
X166000000Y-102515000D01*
G75*
G02*
X166075000Y-102440000I75000J0D01*
G01*
X166225000Y-102440000D01*
G75*
G02*
X166300000Y-102515000I0J-75000D01*
G01*
G37*
%TD.AperFunction*%
%TO.P,C29,1*%
%TO.N,GND*%
%TA.AperFunction,SMDPad,CuDef*%
G36*
G01*
X166900000Y-102515000D02*
X166900000Y-102765000D01*
G75*
G02*
X166825000Y-102840000I-75000J0D01*
G01*
X166675000Y-102840000D01*
G75*
G02*
X166600000Y-102765000I0J75000D01*
G01*
X166600000Y-102515000D01*
G75*
G02*
X166675000Y-102440000I75000J0D01*
G01*
X166825000Y-102440000D01*
G75*
G02*
X166900000Y-102515000I0J-75000D01*
G01*
G37*
%TD.AperFunction*%
%TD*%
%TO.P,C28,2*%
%TO.N,GND*%
%TA.AperFunction,SMDPad,CuDef*%
G36*
G01*
X167375000Y-102440000D02*
X167625000Y-102440000D01*
G75*
G02*
X167700000Y-102515000I0J-75000D01*
G01*
X167700000Y-102665000D01*
G75*
G02*
X167625000Y-102740000I-75000J0D01*
G01*
X167375000Y-102740000D01*
G75*
G02*
X167300000Y-102665000I0J75000D01*
G01*
X167300000Y-102515000D01*
G75*
G02*
X167375000Y-102440000I75000J0D01*
G01*
G37*
%TD.AperFunction*%
%TO.P,C28,1*%
%TO.N,Net-(C28-Pad1)*%
%TA.AperFunction,SMDPad,CuDef*%
G36*
G01*
X167375000Y-101840000D02*
X167625000Y-101840000D01*
G75*
G02*
X167700000Y-101915000I0J-75000D01*
G01*
X167700000Y-102065000D01*
G75*
G02*
X167625000Y-102140000I-75000J0D01*
G01*
X167375000Y-102140000D01*
G75*
G02*
X167300000Y-102065000I0J75000D01*
G01*
X167300000Y-101915000D01*
G75*
G02*
X167375000Y-101840000I75000J0D01*
G01*
G37*
%TD.AperFunction*%
%TD*%
%TO.P,C26,2*%
%TO.N,GND*%
%TA.AperFunction,SMDPad,CuDef*%
G36*
G01*
X166600000Y-101355000D02*
X166600000Y-101105000D01*
G75*
G02*
X166675000Y-101030000I75000J0D01*
G01*
X166825000Y-101030000D01*
G75*
G02*
X166900000Y-101105000I0J-75000D01*
G01*
X166900000Y-101355000D01*
G75*
G02*
X166825000Y-101430000I-75000J0D01*
G01*
X166675000Y-101430000D01*
G75*
G02*
X166600000Y-101355000I0J75000D01*
G01*
G37*
%TD.AperFunction*%
%TO.P,C26,1*%
%TO.N,Net-(C26-Pad1)*%
%TA.AperFunction,SMDPad,CuDef*%
G36*
G01*
X166000000Y-101355000D02*
X166000000Y-101105000D01*
G75*
G02*
X166075000Y-101030000I75000J0D01*
G01*
X166225000Y-101030000D01*
G75*
G02*
X166300000Y-101105000I0J-75000D01*
G01*
X166300000Y-101355000D01*
G75*
G02*
X166225000Y-101430000I-75000J0D01*
G01*
X166075000Y-101430000D01*
G75*
G02*
X166000000Y-101355000I0J75000D01*
G01*
G37*
%TD.AperFunction*%
%TD*%
%TO.P,C25,2*%
%TO.N,+3V3*%
%TA.AperFunction,SMDPad,CuDef*%
G36*
G01*
X157545000Y-100390000D02*
X157795000Y-100390000D01*
G75*
G02*
X157870000Y-100465000I0J-75000D01*
G01*
X157870000Y-100615000D01*
G75*
G02*
X157795000Y-100690000I-75000J0D01*
G01*
X157545000Y-100690000D01*
G75*
G02*
X157470000Y-100615000I0J75000D01*
G01*
X157470000Y-100465000D01*
G75*
G02*
X157545000Y-100390000I75000J0D01*
G01*
G37*
%TD.AperFunction*%
%TO.P,C25,1*%
%TO.N,GND*%
%TA.AperFunction,SMDPad,CuDef*%
G36*
G01*
X157545000Y-99790000D02*
X157795000Y-99790000D01*
G75*
G02*
X157870000Y-99865000I0J-75000D01*
G01*
X157870000Y-100015000D01*
G75*
G02*
X157795000Y-100090000I-75000J0D01*
G01*
X157545000Y-100090000D01*
G75*
G02*
X157470000Y-100015000I0J75000D01*
G01*
X157470000Y-99865000D01*
G75*
G02*
X157545000Y-99790000I75000J0D01*
G01*
G37*
%TD.AperFunction*%
%TD*%
%TO.P,C24,2*%
%TO.N,GND*%
%TA.AperFunction,SMDPad,CuDef*%
G36*
G01*
X166600000Y-100655000D02*
X166600000Y-100405000D01*
G75*
G02*
X166675000Y-100330000I75000J0D01*
G01*
X166825000Y-100330000D01*
G75*
G02*
X166900000Y-100405000I0J-75000D01*
G01*
X166900000Y-100655000D01*
G75*
G02*
X166825000Y-100730000I-75000J0D01*
G01*
X166675000Y-100730000D01*
G75*
G02*
X166600000Y-100655000I0J75000D01*
G01*
G37*
%TD.AperFunction*%
%TO.P,C24,1*%
%TO.N,/VDDCP*%
%TA.AperFunction,SMDPad,CuDef*%
G36*
G01*
X166000000Y-100655000D02*
X166000000Y-100405000D01*
G75*
G02*
X166075000Y-100330000I75000J0D01*
G01*
X166225000Y-100330000D01*
G75*
G02*
X166300000Y-100405000I0J-75000D01*
G01*
X166300000Y-100655000D01*
G75*
G02*
X166225000Y-100730000I-75000J0D01*
G01*
X166075000Y-100730000D01*
G75*
G02*
X166000000Y-100655000I0J75000D01*
G01*
G37*
%TD.AperFunction*%
%TD*%
%TO.P,C23,2*%
%TO.N,Net-(C23-Pad2)*%
%TA.AperFunction,SMDPad,CuDef*%
G36*
G01*
X166925000Y-99330000D02*
X166675000Y-99330000D01*
G75*
G02*
X166600000Y-99255000I0J75000D01*
G01*
X166600000Y-99105000D01*
G75*
G02*
X166675000Y-99030000I75000J0D01*
G01*
X166925000Y-99030000D01*
G75*
G02*
X167000000Y-99105000I0J-75000D01*
G01*
X167000000Y-99255000D01*
G75*
G02*
X166925000Y-99330000I-75000J0D01*
G01*
G37*
%TD.AperFunction*%
%TO.P,C23,1*%
%TO.N,Net-(C23-Pad1)*%
%TA.AperFunction,SMDPad,CuDef*%
G36*
G01*
X166925000Y-99930000D02*
X166675000Y-99930000D01*
G75*
G02*
X166600000Y-99855000I0J75000D01*
G01*
X166600000Y-99705000D01*
G75*
G02*
X166675000Y-99630000I75000J0D01*
G01*
X166925000Y-99630000D01*
G75*
G02*
X167000000Y-99705000I0J-75000D01*
G01*
X167000000Y-99855000D01*
G75*
G02*
X166925000Y-99930000I-75000J0D01*
G01*
G37*
%TD.AperFunction*%
%TD*%
%TO.P,C22,2*%
%TO.N,+3V3*%
%TA.AperFunction,SMDPad,CuDef*%
G36*
G01*
X157575000Y-98510000D02*
X157825000Y-98510000D01*
G75*
G02*
X157900000Y-98585000I0J-75000D01*
G01*
X157900000Y-98735000D01*
G75*
G02*
X157825000Y-98810000I-75000J0D01*
G01*
X157575000Y-98810000D01*
G75*
G02*
X157500000Y-98735000I0J75000D01*
G01*
X157500000Y-98585000D01*
G75*
G02*
X157575000Y-98510000I75000J0D01*
G01*
G37*
%TD.AperFunction*%
%TO.P,C22,1*%
%TO.N,GND*%
%TA.AperFunction,SMDPad,CuDef*%
G36*
G01*
X157575000Y-97910000D02*
X157825000Y-97910000D01*
G75*
G02*
X157900000Y-97985000I0J-75000D01*
G01*
X157900000Y-98135000D01*
G75*
G02*
X157825000Y-98210000I-75000J0D01*
G01*
X157575000Y-98210000D01*
G75*
G02*
X157500000Y-98135000I0J75000D01*
G01*
X157500000Y-97985000D01*
G75*
G02*
X157575000Y-97910000I75000J0D01*
G01*
G37*
%TD.AperFunction*%
%TD*%
%TO.P,C21,2*%
%TO.N,Net-(C19-Pad2)*%
%TA.AperFunction,SMDPad,CuDef*%
G36*
G01*
X166925000Y-97930000D02*
X166675000Y-97930000D01*
G75*
G02*
X166600000Y-97855000I0J75000D01*
G01*
X166600000Y-97705000D01*
G75*
G02*
X166675000Y-97630000I75000J0D01*
G01*
X166925000Y-97630000D01*
G75*
G02*
X167000000Y-97705000I0J-75000D01*
G01*
X167000000Y-97855000D01*
G75*
G02*
X166925000Y-97930000I-75000J0D01*
G01*
G37*
%TD.AperFunction*%
%TO.P,C21,1*%
%TO.N,Net-(C20-Pad2)*%
%TA.AperFunction,SMDPad,CuDef*%
G36*
G01*
X166925000Y-98530000D02*
X166675000Y-98530000D01*
G75*
G02*
X166600000Y-98455000I0J75000D01*
G01*
X166600000Y-98305000D01*
G75*
G02*
X166675000Y-98230000I75000J0D01*
G01*
X166925000Y-98230000D01*
G75*
G02*
X167000000Y-98305000I0J-75000D01*
G01*
X167000000Y-98455000D01*
G75*
G02*
X166925000Y-98530000I-75000J0D01*
G01*
G37*
%TD.AperFunction*%
%TD*%
%TO.P,C20,2*%
%TO.N,Net-(C20-Pad2)*%
%TA.AperFunction,SMDPad,CuDef*%
G36*
G01*
X165975000Y-98230000D02*
X166225000Y-98230000D01*
G75*
G02*
X166300000Y-98305000I0J-75000D01*
G01*
X166300000Y-98455000D01*
G75*
G02*
X166225000Y-98530000I-75000J0D01*
G01*
X165975000Y-98530000D01*
G75*
G02*
X165900000Y-98455000I0J75000D01*
G01*
X165900000Y-98305000D01*
G75*
G02*
X165975000Y-98230000I75000J0D01*
G01*
G37*
%TD.AperFunction*%
%TO.P,C20,1*%
%TO.N,Net-(C19-Pad2)*%
%TA.AperFunction,SMDPad,CuDef*%
G36*
G01*
X165975000Y-97630000D02*
X166225000Y-97630000D01*
G75*
G02*
X166300000Y-97705000I0J-75000D01*
G01*
X166300000Y-97855000D01*
G75*
G02*
X166225000Y-97930000I-75000J0D01*
G01*
X165975000Y-97930000D01*
G75*
G02*
X165900000Y-97855000I0J75000D01*
G01*
X165900000Y-97705000D01*
G75*
G02*
X165975000Y-97630000I75000J0D01*
G01*
G37*
%TD.AperFunction*%
%TD*%
%TO.P,C19,2*%
%TO.N,Net-(C19-Pad2)*%
%TA.AperFunction,SMDPad,CuDef*%
G36*
G01*
X167700000Y-97615000D02*
X167700000Y-97865000D01*
G75*
G02*
X167625000Y-97940000I-75000J0D01*
G01*
X167475000Y-97940000D01*
G75*
G02*
X167400000Y-97865000I0J75000D01*
G01*
X167400000Y-97615000D01*
G75*
G02*
X167475000Y-97540000I75000J0D01*
G01*
X167625000Y-97540000D01*
G75*
G02*
X167700000Y-97615000I0J-75000D01*
G01*
G37*
%TD.AperFunction*%
%TO.P,C19,1*%
%TO.N,GND*%
%TA.AperFunction,SMDPad,CuDef*%
G36*
G01*
X168300000Y-97615000D02*
X168300000Y-97865000D01*
G75*
G02*
X168225000Y-97940000I-75000J0D01*
G01*
X168075000Y-97940000D01*
G75*
G02*
X168000000Y-97865000I0J75000D01*
G01*
X168000000Y-97615000D01*
G75*
G02*
X168075000Y-97540000I75000J0D01*
G01*
X168225000Y-97540000D01*
G75*
G02*
X168300000Y-97615000I0J-75000D01*
G01*
G37*
%TD.AperFunction*%
%TD*%
%TO.P,C18,2*%
%TO.N,GND*%
%TA.AperFunction,SMDPad,CuDef*%
G36*
G01*
X166600000Y-97155000D02*
X166600000Y-96905000D01*
G75*
G02*
X166675000Y-96830000I75000J0D01*
G01*
X166825000Y-96830000D01*
G75*
G02*
X166900000Y-96905000I0J-75000D01*
G01*
X166900000Y-97155000D01*
G75*
G02*
X166825000Y-97230000I-75000J0D01*
G01*
X166675000Y-97230000D01*
G75*
G02*
X166600000Y-97155000I0J75000D01*
G01*
G37*
%TD.AperFunction*%
%TO.P,C18,1*%
%TO.N,+3.3VA*%
%TA.AperFunction,SMDPad,CuDef*%
G36*
G01*
X166000000Y-97155000D02*
X166000000Y-96905000D01*
G75*
G02*
X166075000Y-96830000I75000J0D01*
G01*
X166225000Y-96830000D01*
G75*
G02*
X166300000Y-96905000I0J-75000D01*
G01*
X166300000Y-97155000D01*
G75*
G02*
X166225000Y-97230000I-75000J0D01*
G01*
X166075000Y-97230000D01*
G75*
G02*
X166000000Y-97155000I0J75000D01*
G01*
G37*
%TD.AperFunction*%
%TD*%
%TO.P,C17,2*%
%TO.N,Net-(C17-Pad2)*%
%TA.AperFunction,SMDPad,CuDef*%
G36*
G01*
X166300000Y-94735000D02*
X166300000Y-94985000D01*
G75*
G02*
X166225000Y-95060000I-75000J0D01*
G01*
X166075000Y-95060000D01*
G75*
G02*
X166000000Y-94985000I0J75000D01*
G01*
X166000000Y-94735000D01*
G75*
G02*
X166075000Y-94660000I75000J0D01*
G01*
X166225000Y-94660000D01*
G75*
G02*
X166300000Y-94735000I0J-75000D01*
G01*
G37*
%TD.AperFunction*%
%TO.P,C17,1*%
%TO.N,GND*%
%TA.AperFunction,SMDPad,CuDef*%
G36*
G01*
X166900000Y-94735000D02*
X166900000Y-94985000D01*
G75*
G02*
X166825000Y-95060000I-75000J0D01*
G01*
X166675000Y-95060000D01*
G75*
G02*
X166600000Y-94985000I0J75000D01*
G01*
X166600000Y-94735000D01*
G75*
G02*
X166675000Y-94660000I75000J0D01*
G01*
X166825000Y-94660000D01*
G75*
G02*
X166900000Y-94735000I0J-75000D01*
G01*
G37*
%TD.AperFunction*%
%TD*%
%TO.P,C16,2*%
%TO.N,GND*%
%TA.AperFunction,SMDPad,CuDef*%
G36*
G01*
X157540000Y-95055000D02*
X157540000Y-95305000D01*
G75*
G02*
X157465000Y-95380000I-75000J0D01*
G01*
X157315000Y-95380000D01*
G75*
G02*
X157240000Y-95305000I0J75000D01*
G01*
X157240000Y-95055000D01*
G75*
G02*
X157315000Y-94980000I75000J0D01*
G01*
X157465000Y-94980000D01*
G75*
G02*
X157540000Y-95055000I0J-75000D01*
G01*
G37*
%TD.AperFunction*%
%TO.P,C16,1*%
%TO.N,/XT-*%
%TA.AperFunction,SMDPad,CuDef*%
G36*
G01*
X158140000Y-95055000D02*
X158140000Y-95305000D01*
G75*
G02*
X158065000Y-95380000I-75000J0D01*
G01*
X157915000Y-95380000D01*
G75*
G02*
X157840000Y-95305000I0J75000D01*
G01*
X157840000Y-95055000D01*
G75*
G02*
X157915000Y-94980000I75000J0D01*
G01*
X158065000Y-94980000D01*
G75*
G02*
X158140000Y-95055000I0J-75000D01*
G01*
G37*
%TD.AperFunction*%
%TD*%
%TO.P,C15,2*%
%TO.N,/XT+*%
%TA.AperFunction,SMDPad,CuDef*%
G36*
G01*
X162075000Y-94155000D02*
X161825000Y-94155000D01*
G75*
G02*
X161750000Y-94080000I0J75000D01*
G01*
X161750000Y-93930000D01*
G75*
G02*
X161825000Y-93855000I75000J0D01*
G01*
X162075000Y-93855000D01*
G75*
G02*
X162150000Y-93930000I0J-75000D01*
G01*
X162150000Y-94080000D01*
G75*
G02*
X162075000Y-94155000I-75000J0D01*
G01*
G37*
%TD.AperFunction*%
%TO.P,C15,1*%
%TO.N,GND*%
%TA.AperFunction,SMDPad,CuDef*%
G36*
G01*
X162075000Y-94755000D02*
X161825000Y-94755000D01*
G75*
G02*
X161750000Y-94680000I0J75000D01*
G01*
X161750000Y-94530000D01*
G75*
G02*
X161825000Y-94455000I75000J0D01*
G01*
X162075000Y-94455000D01*
G75*
G02*
X162150000Y-94530000I0J-75000D01*
G01*
X162150000Y-94680000D01*
G75*
G02*
X162075000Y-94755000I-75000J0D01*
G01*
G37*
%TD.AperFunction*%
%TD*%
%TO.P,C12,2*%
%TO.N,GND*%
%TA.AperFunction,SMDPad,CuDef*%
G36*
G01*
X162930000Y-95265000D02*
X162930000Y-95515000D01*
G75*
G02*
X162855000Y-95590000I-75000J0D01*
G01*
X162705000Y-95590000D01*
G75*
G02*
X162630000Y-95515000I0J75000D01*
G01*
X162630000Y-95265000D01*
G75*
G02*
X162705000Y-95190000I75000J0D01*
G01*
X162855000Y-95190000D01*
G75*
G02*
X162930000Y-95265000I0J-75000D01*
G01*
G37*
%TD.AperFunction*%
%TO.P,C12,1*%
%TO.N,Net-(C12-Pad1)*%
%TA.AperFunction,SMDPad,CuDef*%
G36*
G01*
X163530000Y-95265000D02*
X163530000Y-95515000D01*
G75*
G02*
X163455000Y-95590000I-75000J0D01*
G01*
X163305000Y-95590000D01*
G75*
G02*
X163230000Y-95515000I0J75000D01*
G01*
X163230000Y-95265000D01*
G75*
G02*
X163305000Y-95190000I75000J0D01*
G01*
X163455000Y-95190000D01*
G75*
G02*
X163530000Y-95265000I0J-75000D01*
G01*
G37*
%TD.AperFunction*%
%TD*%
%TO.P,C10,2*%
%TO.N,GND*%
%TA.AperFunction,SMDPad,CuDef*%
G36*
G01*
X164330000Y-95265000D02*
X164330000Y-95515000D01*
G75*
G02*
X164255000Y-95590000I-75000J0D01*
G01*
X164105000Y-95590000D01*
G75*
G02*
X164030000Y-95515000I0J75000D01*
G01*
X164030000Y-95265000D01*
G75*
G02*
X164105000Y-95190000I75000J0D01*
G01*
X164255000Y-95190000D01*
G75*
G02*
X164330000Y-95265000I0J-75000D01*
G01*
G37*
%TD.AperFunction*%
%TO.P,C10,1*%
%TO.N,/VDDCP*%
%TA.AperFunction,SMDPad,CuDef*%
G36*
G01*
X164930000Y-95265000D02*
X164930000Y-95515000D01*
G75*
G02*
X164855000Y-95590000I-75000J0D01*
G01*
X164705000Y-95590000D01*
G75*
G02*
X164630000Y-95515000I0J75000D01*
G01*
X164630000Y-95265000D01*
G75*
G02*
X164705000Y-95190000I75000J0D01*
G01*
X164855000Y-95190000D01*
G75*
G02*
X164930000Y-95265000I0J-75000D01*
G01*
G37*
%TD.AperFunction*%
%TD*%
%TO.P,C5,2*%
%TO.N,GND*%
%TA.AperFunction,SMDPad,CuDef*%
G36*
G01*
X151695000Y-95300000D02*
X151945000Y-95300000D01*
G75*
G02*
X152020000Y-95375000I0J-75000D01*
G01*
X152020000Y-95525000D01*
G75*
G02*
X151945000Y-95600000I-75000J0D01*
G01*
X151695000Y-95600000D01*
G75*
G02*
X151620000Y-95525000I0J75000D01*
G01*
X151620000Y-95375000D01*
G75*
G02*
X151695000Y-95300000I75000J0D01*
G01*
G37*
%TD.AperFunction*%
%TO.P,C5,1*%
%TO.N,+3V3*%
%TA.AperFunction,SMDPad,CuDef*%
G36*
G01*
X151695000Y-94700000D02*
X151945000Y-94700000D01*
G75*
G02*
X152020000Y-94775000I0J-75000D01*
G01*
X152020000Y-94925000D01*
G75*
G02*
X151945000Y-95000000I-75000J0D01*
G01*
X151695000Y-95000000D01*
G75*
G02*
X151620000Y-94925000I0J75000D01*
G01*
X151620000Y-94775000D01*
G75*
G02*
X151695000Y-94700000I75000J0D01*
G01*
G37*
%TD.AperFunction*%
%TD*%
D14*
%TO.P,U1,40*%
%TO.N,+3.3VA*%
X164725000Y-97350000D03*
%TO.P,U1,39*%
%TO.N,Net-(C19-Pad2)*%
X164725000Y-97875000D03*
D15*
%TO.P,U1,30*%
%TO.N,Net-(C34-Pad1)*%
X164050000Y-102525000D03*
%TO.P,U1,29*%
%TO.N,+3.3VA*%
X163550000Y-102525000D03*
D14*
%TO.P,U1,20*%
%TO.N,Net-(C46-Pad2)*%
X158875000Y-101850000D03*
%TO.P,U1,19*%
%TO.N,GND*%
X158875000Y-101350000D03*
D15*
%TO.P,U1,10*%
%TO.N,/SINTN*%
X159550000Y-96675000D03*
%TO.P,U1,9*%
%TO.N,/SDO*%
X160050000Y-96675000D03*
D14*
%TO.P,U1,38*%
%TO.N,Net-(C20-Pad2)*%
X164725000Y-98350000D03*
%TO.P,U1,37*%
%TO.N,Net-(C23-Pad2)*%
X164725000Y-98850000D03*
%TO.P,U1,36*%
%TO.N,Net-(C23-Pad1)*%
X164725000Y-99350000D03*
%TO.P,U1,35*%
%TO.N,Net-(U1-Pad35)*%
X164725000Y-99850000D03*
%TO.P,U1,34*%
%TO.N,/VDDCP*%
X164725000Y-100350000D03*
%TO.P,U1,33*%
%TO.N,Net-(C26-Pad1)*%
X164725000Y-100850000D03*
%TO.P,U1,32*%
%TO.N,/VDDCP*%
X164725000Y-101350000D03*
%TO.P,U1,31*%
%TO.N,Net-(U1-Pad31)*%
X164725000Y-101850000D03*
D15*
%TO.P,U1,28*%
%TO.N,Net-(C37-Pad1)*%
X163050000Y-102525000D03*
%TO.P,U1,27*%
%TO.N,Net-(C33-Pad1)*%
X162550000Y-102525000D03*
%TO.P,U1,26*%
%TO.N,Net-(U1-Pad26)*%
X162050000Y-102525000D03*
%TO.P,U1,25*%
%TO.N,Net-(U1-Pad25)*%
X161550000Y-102525000D03*
%TO.P,U1,24*%
%TO.N,Net-(U1-Pad24)*%
X161050000Y-102525000D03*
%TO.P,U1,23*%
%TO.N,/VDDCP*%
X160550000Y-102525000D03*
%TO.P,U1,22*%
%TO.N,Net-(U1-Pad22)*%
X160050000Y-102525000D03*
%TO.P,U1,21*%
%TO.N,Net-(C45-Pad1)*%
X159550000Y-102525000D03*
D14*
%TO.P,U1,18*%
%TO.N,+3V3*%
X158875000Y-100850000D03*
%TO.P,U1,17*%
%TO.N,Net-(U1-Pad17)*%
X158875000Y-100350000D03*
%TO.P,U1,16*%
%TO.N,Net-(U1-Pad16)*%
X158875000Y-99850000D03*
%TO.P,U1,15*%
%TO.N,Net-(U1-Pad15)*%
X158875000Y-99350000D03*
%TO.P,U1,14*%
%TO.N,+3V3*%
X158875000Y-98850000D03*
%TO.P,U1,13*%
%TO.N,/SDI*%
X158875000Y-98350000D03*
%TO.P,U1,12*%
%TO.N,/SCEN*%
X158875000Y-97850000D03*
%TO.P,U1,11*%
%TO.N,/SCLK*%
X158875000Y-97350000D03*
D15*
%TO.P,U1,8*%
%TO.N,/REGPDIN*%
X160550000Y-96675000D03*
%TO.P,U1,7*%
%TO.N,/RESETN*%
X161050000Y-96675000D03*
%TO.P,U1,6*%
%TO.N,GND*%
X161550000Y-96675000D03*
%TO.P,U1,5*%
%TO.N,/XT-*%
X162050000Y-96675000D03*
%TO.P,U1,4*%
%TO.N,/XT+*%
X162550000Y-96675000D03*
%TO.P,U1,3*%
%TO.N,Net-(C12-Pad1)*%
X163050000Y-96675000D03*
%TO.P,U1,2*%
%TO.N,/VDDCP*%
X163550000Y-96675000D03*
%TO.P,U1,1*%
%TO.N,Net-(C17-Pad2)*%
X164050000Y-96675000D03*
D16*
%TO.P,U1,41*%
%TO.N,GND*%
X161800000Y-99600000D03*
%TD*%
D17*
%TO.P,U2,3*%
%TO.N,GND*%
X152790000Y-100665000D03*
D18*
%TO.P,U2,1*%
%TO.N,Net-(C48-Pad1)*%
X154315000Y-99190000D03*
D17*
%TO.P,U2,2*%
%TO.N,GND*%
X152790000Y-97715000D03*
%TD*%
D19*
%TO.P,U5,4*%
%TO.N,GND*%
X160575000Y-95175000D03*
%TO.P,U5,3*%
%TO.N,/XT-*%
X159250000Y-95175000D03*
%TO.P,U5,2*%
%TO.N,GND*%
X159250000Y-94125000D03*
%TO.P,U5,1*%
%TO.N,/XT+*%
X160575000Y-94125000D03*
%TD*%
%TO.P,C13,2*%
%TO.N,Net-(C12-Pad1)*%
%TA.AperFunction,SMDPad,CuDef*%
G36*
G01*
X164212500Y-94556250D02*
X164212500Y-94043750D01*
G75*
G02*
X164431250Y-93825000I218750J0D01*
G01*
X164868750Y-93825000D01*
G75*
G02*
X165087500Y-94043750I0J-218750D01*
G01*
X165087500Y-94556250D01*
G75*
G02*
X164868750Y-94775000I-218750J0D01*
G01*
X164431250Y-94775000D01*
G75*
G02*
X164212500Y-94556250I0J218750D01*
G01*
G37*
%TD.AperFunction*%
%TO.P,C13,1*%
%TO.N,GND*%
%TA.AperFunction,SMDPad,CuDef*%
G36*
G01*
X162637500Y-94556250D02*
X162637500Y-94043750D01*
G75*
G02*
X162856250Y-93825000I218750J0D01*
G01*
X163293750Y-93825000D01*
G75*
G02*
X163512500Y-94043750I0J-218750D01*
G01*
X163512500Y-94556250D01*
G75*
G02*
X163293750Y-94775000I-218750J0D01*
G01*
X162856250Y-94775000D01*
G75*
G02*
X162637500Y-94556250I0J218750D01*
G01*
G37*
%TD.AperFunction*%
%TD*%
%TO.P,C11,2*%
%TO.N,/VDDCP*%
%TA.AperFunction,SMDPad,CuDef*%
G36*
G01*
X166880000Y-95683750D02*
X166880000Y-96196250D01*
G75*
G02*
X166661250Y-96415000I-218750J0D01*
G01*
X166223750Y-96415000D01*
G75*
G02*
X166005000Y-96196250I0J218750D01*
G01*
X166005000Y-95683750D01*
G75*
G02*
X166223750Y-95465000I218750J0D01*
G01*
X166661250Y-95465000D01*
G75*
G02*
X166880000Y-95683750I0J-218750D01*
G01*
G37*
%TD.AperFunction*%
%TO.P,C11,1*%
%TO.N,GND*%
%TA.AperFunction,SMDPad,CuDef*%
G36*
G01*
X168455000Y-95683750D02*
X168455000Y-96196250D01*
G75*
G02*
X168236250Y-96415000I-218750J0D01*
G01*
X167798750Y-96415000D01*
G75*
G02*
X167580000Y-96196250I0J218750D01*
G01*
X167580000Y-95683750D01*
G75*
G02*
X167798750Y-95465000I218750J0D01*
G01*
X168236250Y-95465000D01*
G75*
G02*
X168455000Y-95683750I0J-218750D01*
G01*
G37*
%TD.AperFunction*%
%TD*%
D20*
%TO.P,U6,A3*%
%TO.N,+3V3*%
X152850000Y-95090000D03*
%TO.P,U6,B3*%
%TO.N,GND*%
X152850000Y-95490000D03*
%TO.P,U6,A2*%
%TO.N,/WP*%
X153250000Y-95090000D03*
%TO.P,U6,B2*%
%TO.N,GND*%
X153250000Y-95490000D03*
%TO.P,U6,B1*%
%TO.N,/SDA*%
X153650000Y-95490000D03*
%TO.P,U6,A1*%
%TO.N,/SCL*%
X153650000Y-95090000D03*
%TD*%
D21*
%TO.P,U4,5*%
%TO.N,GND*%
X162875000Y-105937500D03*
%TO.P,U4,2*%
X162875000Y-105262500D03*
D22*
%TO.P,U4,4*%
%TO.N,Net-(C42-Pad1)*%
X162237500Y-105887500D03*
%TO.P,U4,3*%
%TO.N,GND*%
X162237500Y-105312500D03*
%TO.P,U4,1*%
%TO.N,Net-(C36-Pad2)*%
X163462500Y-105600000D03*
%TD*%
%TO.P,U3,7*%
%TO.N,N/C*%
%TA.AperFunction,SMDPad,CuDef*%
G36*
G01*
X157790301Y-105910000D02*
X156589699Y-105910000D01*
G75*
G02*
X156540000Y-105860301I0J49699D01*
G01*
X156540000Y-105259699D01*
G75*
G02*
X156589699Y-105210000I49699J0D01*
G01*
X157790301Y-105210000D01*
G75*
G02*
X157840000Y-105259699I0J-49699D01*
G01*
X157840000Y-105860301D01*
G75*
G02*
X157790301Y-105910000I-49699J0D01*
G01*
G37*
%TD.AperFunction*%
%TO.P,U3,6*%
%TO.N,Net-(C48-Pad2)*%
%TA.AperFunction,SMDPad,CuDef*%
G36*
G01*
X156765000Y-105010000D02*
X156615000Y-105010000D01*
G75*
G02*
X156565000Y-104960000I0J50000D01*
G01*
X156565000Y-104710000D01*
G75*
G02*
X156615000Y-104660000I50000J0D01*
G01*
X156765000Y-104660000D01*
G75*
G02*
X156815000Y-104710000I0J-50000D01*
G01*
X156815000Y-104960000D01*
G75*
G02*
X156765000Y-105010000I-50000J0D01*
G01*
G37*
%TD.AperFunction*%
%TO.P,U3,5*%
%TO.N,Net-(C46-Pad2)*%
%TA.AperFunction,SMDPad,CuDef*%
G36*
G01*
X157265000Y-105010000D02*
X157115000Y-105010000D01*
G75*
G02*
X157065000Y-104960000I0J50000D01*
G01*
X157065000Y-104710000D01*
G75*
G02*
X157115000Y-104660000I50000J0D01*
G01*
X157265000Y-104660000D01*
G75*
G02*
X157315000Y-104710000I0J-50000D01*
G01*
X157315000Y-104960000D01*
G75*
G02*
X157265000Y-105010000I-50000J0D01*
G01*
G37*
%TD.AperFunction*%
%TO.P,U3,4*%
%TO.N,Net-(C44-Pad2)*%
%TA.AperFunction,SMDPad,CuDef*%
G36*
G01*
X157790000Y-105010000D02*
X157640000Y-105010000D01*
G75*
G02*
X157590000Y-104960000I0J50000D01*
G01*
X157590000Y-104710000D01*
G75*
G02*
X157640000Y-104660000I50000J0D01*
G01*
X157790000Y-104660000D01*
G75*
G02*
X157840000Y-104710000I0J-50000D01*
G01*
X157840000Y-104960000D01*
G75*
G02*
X157790000Y-105010000I-50000J0D01*
G01*
G37*
%TD.AperFunction*%
%TO.P,U3,3*%
%TO.N,Net-(C42-Pad2)*%
%TA.AperFunction,SMDPad,CuDef*%
G36*
G01*
X157765000Y-106460000D02*
X157615000Y-106460000D01*
G75*
G02*
X157565000Y-106410000I0J50000D01*
G01*
X157565000Y-106160000D01*
G75*
G02*
X157615000Y-106110000I50000J0D01*
G01*
X157765000Y-106110000D01*
G75*
G02*
X157815000Y-106160000I0J-50000D01*
G01*
X157815000Y-106410000D01*
G75*
G02*
X157765000Y-106460000I-50000J0D01*
G01*
G37*
%TD.AperFunction*%
%TO.P,U3,2*%
%TO.N,Net-(C45-Pad1)*%
%TA.AperFunction,SMDPad,CuDef*%
G36*
G01*
X157265000Y-106460000D02*
X157115000Y-106460000D01*
G75*
G02*
X157065000Y-106410000I0J50000D01*
G01*
X157065000Y-106160000D01*
G75*
G02*
X157115000Y-106110000I50000J0D01*
G01*
X157265000Y-106110000D01*
G75*
G02*
X157315000Y-106160000I0J-50000D01*
G01*
X157315000Y-106410000D01*
G75*
G02*
X157265000Y-106460000I-50000J0D01*
G01*
G37*
%TD.AperFunction*%
%TO.P,U3,1*%
%TO.N,Net-(C47-Pad1)*%
%TA.AperFunction,SMDPad,CuDef*%
G36*
G01*
X156765000Y-106460000D02*
X156615000Y-106460000D01*
G75*
G02*
X156565000Y-106410000I0J50000D01*
G01*
X156565000Y-106160000D01*
G75*
G02*
X156615000Y-106110000I50000J0D01*
G01*
X156765000Y-106110000D01*
G75*
G02*
X156815000Y-106160000I0J-50000D01*
G01*
X156815000Y-106410000D01*
G75*
G02*
X156765000Y-106460000I-50000J0D01*
G01*
G37*
%TD.AperFunction*%
%TD*%
D23*
%TO.P,J19,1*%
%TO.N,/SDA*%
X154530000Y-92000000D03*
%TD*%
%TO.P,J17,1*%
%TO.N,GND*%
X170000000Y-103500000D03*
%TD*%
%TO.P,J16,1*%
%TO.N,GND*%
X170000000Y-102000000D03*
%TD*%
%TO.P,J14,1*%
%TO.N,+3.3VA*%
X165500000Y-108000000D03*
%TD*%
%TO.P,J13,1*%
%TO.N,+3.3VA*%
X164000000Y-108000000D03*
%TD*%
%TO.P,J12,1*%
%TO.N,/SCL*%
X153030000Y-92000000D03*
%TD*%
%TO.P,J11,1*%
%TO.N,/WP*%
X151530000Y-92000000D03*
%TD*%
%TO.P,J10,1*%
%TO.N,/RESETN*%
X170000000Y-96000000D03*
%TD*%
%TO.P,J9,1*%
%TO.N,/REGPDIN*%
X166000000Y-92000000D03*
%TD*%
%TO.P,J8,1*%
%TO.N,/SDO*%
X164500000Y-92000000D03*
%TD*%
%TO.P,J7,1*%
%TO.N,/SINTN*%
X163000000Y-92000000D03*
%TD*%
%TO.P,J6,1*%
%TO.N,/SCLK*%
X170000000Y-97500000D03*
%TD*%
%TO.P,J5,1*%
%TO.N,/SCEN*%
X170000000Y-99000000D03*
%TD*%
%TO.P,J4,1*%
%TO.N,/SDI*%
X170000000Y-100500000D03*
%TD*%
%TO.P,J2,1*%
%TO.N,+3V3*%
X160000000Y-92000000D03*
%TD*%
%TO.P,J1,1*%
%TO.N,Net-(J1-Pad1)*%
X154500000Y-108000000D03*
%TD*%
D24*
%TO.N,GND*%
X153550000Y-100880000D03*
X152100000Y-100440000D03*
X168150000Y-98440000D03*
X168150000Y-97740000D03*
X161950000Y-94600000D03*
X151820000Y-95450000D03*
X152150000Y-97520000D03*
X153600000Y-97960000D03*
X167340000Y-103880000D03*
X166890000Y-103510000D03*
X160580000Y-95170000D03*
X159250000Y-94130000D03*
X157390000Y-95180000D03*
X165670000Y-105150000D03*
X165670000Y-105840000D03*
X167500000Y-102590000D03*
X166750000Y-102640000D03*
X166750000Y-101230000D03*
X166800000Y-100560000D03*
X159350000Y-106290000D03*
X160760000Y-105200000D03*
X161430000Y-103710000D03*
X155400000Y-103850000D03*
X163570000Y-103700000D03*
X163570000Y-104450000D03*
X159350000Y-105050000D03*
X162240000Y-105310000D03*
X164350000Y-104400000D03*
X168080000Y-95950000D03*
X166750000Y-97030000D03*
X163060000Y-94290000D03*
X162780000Y-95390000D03*
X161550000Y-96480000D03*
X153350000Y-103910000D03*
X157670000Y-99940000D03*
X157690000Y-98060000D03*
X158870000Y-101350000D03*
X160600000Y-98400000D03*
X161400000Y-99200000D03*
X161400000Y-98400000D03*
X160600000Y-99200000D03*
X160600000Y-100000000D03*
X161400000Y-100000000D03*
X160600000Y-100800000D03*
X161400000Y-100800000D03*
X162200000Y-100800000D03*
X163000000Y-100800000D03*
X163000000Y-100000000D03*
X162200000Y-100000000D03*
X162200000Y-98400000D03*
X163000000Y-98400000D03*
X162200000Y-99200000D03*
X163000000Y-99200000D03*
X157500000Y-101850000D03*
X164180000Y-95390000D03*
X156800000Y-101850000D03*
X166800000Y-94850000D03*
X156090000Y-100410000D03*
X156090000Y-99480000D03*
X156100000Y-98590000D03*
X156070000Y-97730000D03*
X156050000Y-96910000D03*
%TO.N,/VDDCP*%
X164720000Y-101350000D03*
X164730000Y-100350000D03*
X166150000Y-102640000D03*
X166150000Y-100530000D03*
X160790000Y-103710000D03*
X164780000Y-95390000D03*
X166500000Y-95950000D03*
%TO.N,+3V3*%
X151820000Y-94850000D03*
X151870000Y-94100000D03*
X154620000Y-94890000D03*
X157670000Y-100540000D03*
X157700000Y-98660000D03*
X153270000Y-94100000D03*
%TO.N,Net-(C45-Pad1)*%
X159550000Y-102530000D03*
X158750000Y-106290000D03*
%TO.N,Net-(C46-Pad2)*%
X157500000Y-102450000D03*
X157190000Y-104830000D03*
%TO.N,/SDI*%
X158680000Y-98350000D03*
%TO.N,/SCEN*%
X159080000Y-97850000D03*
%TO.N,/SCLK*%
X158680000Y-97350000D03*
%TO.N,/SINTN*%
X159550000Y-96480000D03*
%TO.N,/SDO*%
X160050000Y-96830000D03*
%TO.N,/REGPDIN*%
X160550000Y-96480000D03*
%TO.N,/RESETN*%
X161050000Y-96870000D03*
%TO.N,+3.3VA*%
X166890000Y-105090000D03*
X166150000Y-97030000D03*
X167360000Y-105460000D03*
X164350000Y-103780000D03*
%TO.N,/WP*%
X152470000Y-94100000D03*
%TO.N,/SDA*%
X154620000Y-95490000D03*
%TD*%
D25*
%TO.N,GND*%
X162825000Y-105312500D02*
X162875000Y-105262500D01*
X162237500Y-105312500D02*
X162825000Y-105312500D01*
X162875000Y-105262500D02*
X162875000Y-105937500D01*
X151820000Y-95450000D02*
X151820000Y-95740000D01*
X151820000Y-95740000D02*
X151990000Y-95910000D01*
X153250000Y-95840000D02*
X153250000Y-95490000D01*
X153180000Y-95910000D02*
X153250000Y-95840000D01*
X152830000Y-95510000D02*
X152850000Y-95490000D01*
X152830000Y-95910000D02*
X152830000Y-95510000D01*
X151990000Y-95910000D02*
X152830000Y-95910000D01*
X152830000Y-95910000D02*
X153180000Y-95910000D01*
D26*
X167120000Y-103692500D02*
X168682500Y-103692500D01*
X168682500Y-103692500D02*
X168682500Y-102487500D01*
X168682500Y-103692500D02*
X169724990Y-103692500D01*
X169170000Y-102000000D02*
X169724990Y-102000000D01*
X168682500Y-102487500D02*
X169170000Y-102000000D01*
D27*
%TO.N,Net-(C12-Pad1)*%
X163380000Y-95419002D02*
X163380000Y-95390000D01*
X163050000Y-95749002D02*
X163380000Y-95419002D01*
X163050000Y-96675000D02*
X163050000Y-95749002D01*
X164470000Y-94300000D02*
X164650000Y-94300000D01*
X163380000Y-95390000D02*
X164470000Y-94300000D01*
D25*
%TO.N,/VDDCP*%
X164780000Y-95590000D02*
X164780000Y-95390000D01*
X164529999Y-95840001D02*
X164780000Y-95590000D01*
X163934997Y-95840001D02*
X164529999Y-95840001D01*
X163550000Y-96224998D02*
X163934997Y-95840001D01*
X163550000Y-96675000D02*
X163550000Y-96224998D01*
X160550000Y-103470000D02*
X160550000Y-102525000D01*
X160790000Y-103710000D02*
X160550000Y-103470000D01*
%TO.N,+3V3*%
X157980000Y-100850000D02*
X157670000Y-100540000D01*
X158875000Y-100850000D02*
X157980000Y-100850000D01*
X157890000Y-98850000D02*
X157700000Y-98660000D01*
X158875000Y-98850000D02*
X157890000Y-98850000D01*
X152610000Y-94850000D02*
X151820000Y-94850000D01*
X152850000Y-95090000D02*
X152610000Y-94850000D01*
D27*
%TO.N,Net-(C23-Pad2)*%
X165760000Y-98850000D02*
X164725000Y-98850000D01*
X166100000Y-99190000D02*
X165760000Y-98850000D01*
X166100000Y-99190000D02*
X166800000Y-99190000D01*
%TO.N,Net-(C26-Pad1)*%
X166150000Y-101940000D02*
X166150000Y-101230000D01*
X165770000Y-100850000D02*
X164725000Y-100850000D01*
X166150000Y-101230000D02*
X165770000Y-100850000D01*
%TO.N,Net-(C33-Pad1)*%
X161370000Y-104435000D02*
X161405000Y-104400000D01*
X161370000Y-105200000D02*
X161370000Y-104435000D01*
X162055000Y-103750000D02*
X162160000Y-103750000D01*
X161405000Y-104400000D02*
X162055000Y-103750000D01*
X162550000Y-103360000D02*
X162550000Y-102525000D01*
X162160000Y-103750000D02*
X162550000Y-103360000D01*
%TO.N,Net-(C34-Pad2)*%
X165000000Y-105220000D02*
X165070000Y-105150000D01*
X164316000Y-105220000D02*
X165000000Y-105220000D01*
X165070000Y-104420000D02*
X165050000Y-104400000D01*
X165070000Y-105150000D02*
X165070000Y-104420000D01*
%TO.N,Net-(J1-Pad1)*%
X153940000Y-107440000D02*
X154249990Y-107749990D01*
X153940000Y-105310000D02*
X153940000Y-107440000D01*
%TO.N,/XT-*%
X159850001Y-95775001D02*
X159250000Y-95175000D01*
X161555003Y-95775001D02*
X159850001Y-95775001D01*
X162050000Y-96269998D02*
X161555003Y-95775001D01*
X162050000Y-96675000D02*
X162050000Y-96269998D01*
X157995000Y-95175000D02*
X157990000Y-95180000D01*
X159250000Y-95175000D02*
X157995000Y-95175000D01*
%TO.N,/XT+*%
X162550000Y-95944998D02*
X162550000Y-96675000D01*
X160730002Y-94125000D02*
X162550000Y-95944998D01*
X160575000Y-94125000D02*
X160730002Y-94125000D01*
X160695000Y-94005000D02*
X160575000Y-94125000D01*
X161950000Y-94005000D02*
X160695000Y-94005000D01*
%TO.N,Net-(C17-Pad2)*%
X166175000Y-94850000D02*
X166200000Y-94850000D01*
X164050000Y-96675000D02*
X164350000Y-96675000D01*
X164350000Y-96660000D02*
X166150000Y-94860000D01*
X164350000Y-96675000D02*
X164350000Y-96660000D01*
%TO.N,Net-(C19-Pad2)*%
X167550000Y-98440000D02*
X167550000Y-97740000D01*
X166850000Y-97740000D02*
X166800000Y-97790000D01*
X167550000Y-97740000D02*
X166850000Y-97740000D01*
X166800000Y-97790000D02*
X166100000Y-97790000D01*
X164810000Y-97790000D02*
X164725000Y-97875000D01*
X166100000Y-97790000D02*
X164810000Y-97790000D01*
%TO.N,Net-(C20-Pad2)*%
X166060000Y-98350000D02*
X166100000Y-98390000D01*
X164725000Y-98350000D02*
X166060000Y-98350000D01*
X166100000Y-98390000D02*
X166800000Y-98390000D01*
%TO.N,Net-(C23-Pad1)*%
X166800000Y-99790000D02*
X166100000Y-99790000D01*
X165130002Y-99350000D02*
X164725000Y-99350000D01*
X165570002Y-99790000D02*
X165130002Y-99350000D01*
X166100000Y-99790000D02*
X165570002Y-99790000D01*
%TO.N,Net-(C28-Pad1)*%
X166800000Y-101990000D02*
X166750000Y-101940000D01*
X167500000Y-101990000D02*
X166800000Y-101990000D01*
%TO.N,Net-(C34-Pad1)*%
X165050000Y-103525000D02*
X164050000Y-102525000D01*
X165050000Y-103800000D02*
X165050000Y-103525000D01*
%TO.N,Net-(C35-Pad2)*%
X160755000Y-104350000D02*
X160805000Y-104400000D01*
X160050000Y-104350000D02*
X160755000Y-104350000D01*
%TO.N,Net-(C36-Pad2)*%
X164346000Y-105850000D02*
X164316000Y-105820000D01*
X165070000Y-105850000D02*
X164346000Y-105850000D01*
X163682500Y-105820000D02*
X163462500Y-105600000D01*
X164316000Y-105820000D02*
X163682500Y-105820000D01*
%TO.N,Net-(C37-Pad1)*%
X162870000Y-104350000D02*
X162970000Y-104450000D01*
X162160000Y-104350000D02*
X162870000Y-104350000D01*
X162970000Y-104450000D02*
X162970000Y-103700000D01*
X162970000Y-102605000D02*
X163050000Y-102525000D01*
X162970000Y-103700000D02*
X162970000Y-102605000D01*
%TO.N,Net-(C39-Pad1)*%
X159350000Y-103750000D02*
X159300000Y-103700000D01*
X159350000Y-104450000D02*
X159350000Y-103750000D01*
X160000000Y-103700000D02*
X160050000Y-103750000D01*
X159300000Y-103700000D02*
X160000000Y-103700000D01*
X157475720Y-103260000D02*
X157500000Y-103260000D01*
X156875720Y-103860000D02*
X157475720Y-103260000D01*
X156800000Y-103860000D02*
X156875720Y-103860000D01*
X159300000Y-103675720D02*
X159300000Y-103700000D01*
X158884280Y-103260000D02*
X159300000Y-103675720D01*
X157500000Y-103260000D02*
X158884280Y-103260000D01*
%TO.N,Net-(C40-Pad1)*%
X156800000Y-103260000D02*
X156800000Y-102450000D01*
%TO.N,Net-(C41-Pad1)*%
X158650000Y-103750000D02*
X158700000Y-103700000D01*
X158650000Y-104450000D02*
X158650000Y-103750000D01*
X157660000Y-103700000D02*
X157500000Y-103860000D01*
X158700000Y-103700000D02*
X157660000Y-103700000D01*
X157274990Y-104235010D02*
X156485010Y-104235010D01*
X156485010Y-104235010D02*
X156100000Y-103850000D01*
X157500000Y-104010000D02*
X157274990Y-104235010D01*
X157500000Y-103860000D02*
X157500000Y-104010000D01*
%TO.N,Net-(C42-Pad2)*%
X157815000Y-106285000D02*
X157690000Y-106285000D01*
X158235001Y-105864999D02*
X157815000Y-106285000D01*
X159554001Y-105864999D02*
X158235001Y-105864999D01*
X159589002Y-105900000D02*
X159554001Y-105864999D01*
X160770000Y-105900000D02*
X159589002Y-105900000D01*
%TO.N,Net-(C42-Pad1)*%
X161382500Y-105887500D02*
X161370000Y-105900000D01*
X162237500Y-105887500D02*
X161382500Y-105887500D01*
%TO.N,Net-(C43-Pad1)*%
X155400000Y-103250000D02*
X156100000Y-103250000D01*
%TO.N,Net-(C44-Pad2)*%
X158435000Y-104835000D02*
X157715000Y-104835000D01*
X158650000Y-105050000D02*
X158435000Y-104835000D01*
%TO.N,Net-(C45-Pad1)*%
X158354990Y-106685010D02*
X158750000Y-106290000D01*
X157415010Y-106685010D02*
X158354990Y-106685010D01*
X157190000Y-106460000D02*
X157415010Y-106685010D01*
X157190000Y-106285000D02*
X157190000Y-106460000D01*
%TO.N,Net-(C46-Pad2)*%
X158280000Y-102450000D02*
X158870000Y-101860000D01*
X157500000Y-102450000D02*
X158280000Y-102450000D01*
%TO.N,Net-(C47-Pad2)*%
X154640000Y-105310000D02*
X153940000Y-104610000D01*
X154740000Y-105310000D02*
X154640000Y-105310000D01*
X153950000Y-104600000D02*
X153940000Y-104610000D01*
X153950000Y-103910000D02*
X153950000Y-104600000D01*
%TO.N,Net-(C47-Pad1)*%
X156690000Y-106285000D02*
X156565000Y-106285000D01*
X156315000Y-106285000D02*
X155340000Y-105310000D01*
X156690000Y-106285000D02*
X156315000Y-106285000D01*
%TO.N,Net-(C48-Pad2)*%
X155685000Y-104835000D02*
X156690000Y-104835000D01*
X154700000Y-103850000D02*
X155685000Y-104835000D01*
%TO.N,Net-(C48-Pad1)*%
X154700000Y-99575000D02*
X154315000Y-99190000D01*
X154700000Y-103250000D02*
X154700000Y-99575000D01*
D25*
%TO.N,+3.3VA*%
X163550000Y-103000000D02*
X163550000Y-102525000D01*
X164350000Y-103800000D02*
X163550000Y-103000000D01*
D26*
X167120000Y-105267500D02*
X167120000Y-106380000D01*
X166805000Y-106695000D02*
X165305000Y-106695000D01*
X165305000Y-106695000D02*
X164275010Y-107724990D01*
X167120000Y-106380000D02*
X166805000Y-106695000D01*
X166805000Y-106695000D02*
X165775010Y-107724990D01*
D25*
X165830000Y-97350000D02*
X166150000Y-97030000D01*
X164725000Y-97350000D02*
X165830000Y-97350000D01*
D27*
%TO.N,Net-(L10-Pad1)*%
X153340000Y-104610000D02*
X153340000Y-105310000D01*
%TO.N,/WP*%
X153250000Y-94880000D02*
X152470000Y-94100000D01*
X153250000Y-95090000D02*
X153250000Y-94880000D01*
X152470000Y-93190010D02*
X151530000Y-92250010D01*
X152470000Y-94100000D02*
X152470000Y-93190010D01*
%TO.N,/SCL*%
X153650000Y-95090000D02*
X153860000Y-94880000D01*
X153860000Y-94110000D02*
X153870000Y-94100000D01*
X153860000Y-94880000D02*
X153860000Y-94110000D01*
X153870000Y-93090010D02*
X153030000Y-92250010D01*
X153870000Y-94100000D02*
X153870000Y-93090010D01*
%TO.N,/SDA*%
X153650000Y-95490000D02*
X154620000Y-95490000D01*
X154780010Y-92250010D02*
X154530000Y-92250010D01*
X155045001Y-92515001D02*
X154780010Y-92250010D01*
X155045001Y-95264999D02*
X155045001Y-92515001D01*
X154820000Y-95490000D02*
X155045001Y-95264999D01*
X154620000Y-95490000D02*
X154820000Y-95490000D01*
%TD*%
D28*
%TO.N,GND*%
G36*
X156246430Y-93195743D02*
G01*
X156276794Y-93252550D01*
X156317657Y-93302343D01*
X156367450Y-93343206D01*
X156424257Y-93373570D01*
X156485897Y-93392268D01*
X156550000Y-93398582D01*
X158050000Y-93398582D01*
X158114103Y-93392268D01*
X158175743Y-93373570D01*
X158232550Y-93343206D01*
X158282343Y-93302343D01*
X158323206Y-93252550D01*
X158353570Y-93195743D01*
X158371389Y-93137000D01*
X158658283Y-93137000D01*
X158580820Y-93160498D01*
X158470506Y-93219463D01*
X158373815Y-93298815D01*
X158294463Y-93395506D01*
X158235498Y-93505820D01*
X158199188Y-93625518D01*
X158186928Y-93750000D01*
X158190000Y-93839250D01*
X158348750Y-93998000D01*
X159123000Y-93998000D01*
X159123000Y-93978000D01*
X159377000Y-93978000D01*
X159377000Y-93998000D01*
X159397000Y-93998000D01*
X159397000Y-94252000D01*
X159377000Y-94252000D01*
X159377000Y-94272000D01*
X159123000Y-94272000D01*
X159123000Y-94252000D01*
X158348750Y-94252000D01*
X158190000Y-94410750D01*
X158186928Y-94500000D01*
X158199188Y-94624482D01*
X158216398Y-94681215D01*
X158143735Y-94659173D01*
X158086926Y-94653578D01*
X158081157Y-94641940D01*
X158004807Y-94542861D01*
X157910594Y-94460581D01*
X157802140Y-94398263D01*
X157683612Y-94358299D01*
X157571750Y-94345000D01*
X157413000Y-94503750D01*
X157413000Y-95107000D01*
X157511418Y-95107000D01*
X157511418Y-95253000D01*
X157413000Y-95253000D01*
X157413000Y-95856250D01*
X157571750Y-96015000D01*
X157683612Y-96001701D01*
X157802140Y-95961737D01*
X157910594Y-95899419D01*
X158004807Y-95817139D01*
X158081157Y-95718060D01*
X158086926Y-95706422D01*
X158143735Y-95700827D01*
X158219444Y-95677861D01*
X158289218Y-95640566D01*
X158350376Y-95590376D01*
X158361353Y-95577000D01*
X158499077Y-95577000D01*
X158502732Y-95614103D01*
X158521430Y-95675743D01*
X158551794Y-95732550D01*
X158592657Y-95782343D01*
X158642450Y-95823206D01*
X158699257Y-95853570D01*
X158760897Y-95872268D01*
X158825000Y-95878582D01*
X159385068Y-95878582D01*
X159465892Y-95959406D01*
X159396280Y-95973252D01*
X159300372Y-96012979D01*
X159298921Y-96013948D01*
X159274257Y-96021430D01*
X159217450Y-96051794D01*
X159167657Y-96092657D01*
X159126794Y-96142450D01*
X159096430Y-96199257D01*
X159090328Y-96219374D01*
X159082979Y-96230372D01*
X159043252Y-96326280D01*
X159023000Y-96428095D01*
X159023000Y-96531905D01*
X159043252Y-96633720D01*
X159071418Y-96701718D01*
X159071418Y-96871418D01*
X158901718Y-96871418D01*
X158833720Y-96843252D01*
X158731905Y-96823000D01*
X158628095Y-96823000D01*
X158526280Y-96843252D01*
X158430372Y-96882979D01*
X158419374Y-96890328D01*
X158399257Y-96896430D01*
X158342450Y-96926794D01*
X158292657Y-96967657D01*
X158251794Y-97017450D01*
X158221430Y-97074257D01*
X158213948Y-97098921D01*
X158212979Y-97100372D01*
X158173252Y-97196280D01*
X158153000Y-97298095D01*
X158153000Y-97326678D01*
X158125990Y-97313289D01*
X158005235Y-97280666D01*
X157931750Y-97275000D01*
X157773000Y-97433750D01*
X157773000Y-98037000D01*
X157847000Y-98037000D01*
X157847000Y-98083000D01*
X157773000Y-98083000D01*
X157773000Y-98137196D01*
X157751905Y-98133000D01*
X157648095Y-98133000D01*
X157627000Y-98137196D01*
X157627000Y-98083000D01*
X157023750Y-98083000D01*
X156865000Y-98241750D01*
X156878299Y-98353612D01*
X156918263Y-98472140D01*
X156980581Y-98580594D01*
X157062861Y-98674807D01*
X157161940Y-98751157D01*
X157173578Y-98756926D01*
X157179173Y-98813735D01*
X157202139Y-98889444D01*
X157239434Y-98959218D01*
X157289624Y-99020376D01*
X157350782Y-99070566D01*
X157420556Y-99107861D01*
X157422645Y-99108495D01*
X157450372Y-99127021D01*
X157542998Y-99165389D01*
X157542998Y-99259748D01*
X157438250Y-99155000D01*
X157364765Y-99160666D01*
X157244010Y-99193289D01*
X157131940Y-99248843D01*
X157032861Y-99325193D01*
X156950581Y-99419406D01*
X156888263Y-99527860D01*
X156848299Y-99646388D01*
X156835000Y-99758250D01*
X156993750Y-99917000D01*
X157597000Y-99917000D01*
X157597000Y-99793000D01*
X157743000Y-99793000D01*
X157743000Y-99917000D01*
X157817000Y-99917000D01*
X157817000Y-99963000D01*
X157743000Y-99963000D01*
X157743000Y-100017196D01*
X157721905Y-100013000D01*
X157618095Y-100013000D01*
X157597000Y-100017196D01*
X157597000Y-99963000D01*
X156993750Y-99963000D01*
X156835000Y-100121750D01*
X156848299Y-100233612D01*
X156888263Y-100352140D01*
X156950581Y-100460594D01*
X157032861Y-100554807D01*
X157131940Y-100631157D01*
X157143578Y-100636926D01*
X157149173Y-100693735D01*
X157172139Y-100769444D01*
X157209434Y-100839218D01*
X157259624Y-100900376D01*
X157320782Y-100950566D01*
X157390556Y-100987861D01*
X157392645Y-100988495D01*
X157420372Y-101007021D01*
X157516280Y-101046748D01*
X157586932Y-101060801D01*
X157661440Y-101135310D01*
X157573000Y-101223750D01*
X157573000Y-101422655D01*
X157519419Y-101329406D01*
X157437139Y-101235193D01*
X157427000Y-101227380D01*
X157427000Y-101223750D01*
X157268250Y-101065000D01*
X157194765Y-101070666D01*
X157150000Y-101082760D01*
X157105235Y-101070666D01*
X157031750Y-101065000D01*
X156873000Y-101223750D01*
X156873000Y-101227380D01*
X156862861Y-101235193D01*
X156780581Y-101329406D01*
X156727000Y-101422655D01*
X156727000Y-101223750D01*
X156568250Y-101065000D01*
X156494765Y-101070666D01*
X156374010Y-101103289D01*
X156261940Y-101158843D01*
X156162861Y-101235193D01*
X156080581Y-101329406D01*
X156018263Y-101437860D01*
X155978299Y-101556388D01*
X155965000Y-101668250D01*
X156123750Y-101827000D01*
X156727000Y-101827000D01*
X156727000Y-101730250D01*
X156823750Y-101827000D01*
X157476250Y-101827000D01*
X157573000Y-101730250D01*
X157573000Y-101827000D01*
X157647000Y-101827000D01*
X157647000Y-101873000D01*
X157573000Y-101873000D01*
X157573000Y-101927196D01*
X157551905Y-101923000D01*
X157526250Y-101923000D01*
X157476250Y-101873000D01*
X156823750Y-101873000D01*
X156727000Y-101969750D01*
X156727000Y-101873000D01*
X156123750Y-101873000D01*
X155965000Y-102031750D01*
X155978299Y-102143612D01*
X156018263Y-102262140D01*
X156080581Y-102370594D01*
X156162861Y-102464807D01*
X156261940Y-102541157D01*
X156273578Y-102546926D01*
X156279173Y-102603735D01*
X156302139Y-102679444D01*
X156339434Y-102749218D01*
X156385537Y-102805396D01*
X156379444Y-102802139D01*
X156303735Y-102779173D01*
X156225000Y-102771418D01*
X155975000Y-102771418D01*
X155896265Y-102779173D01*
X155820556Y-102802139D01*
X155750782Y-102839434D01*
X155750000Y-102840076D01*
X155749218Y-102839434D01*
X155679444Y-102802139D01*
X155603735Y-102779173D01*
X155525000Y-102771418D01*
X155275000Y-102771418D01*
X155196265Y-102779173D01*
X155120556Y-102802139D01*
X155102000Y-102812057D01*
X155102000Y-99886205D01*
X155113206Y-99872550D01*
X155143570Y-99815743D01*
X155162268Y-99754103D01*
X155168582Y-99690000D01*
X155168582Y-98690000D01*
X155162268Y-98625897D01*
X155143570Y-98564257D01*
X155113206Y-98507450D01*
X155072343Y-98457657D01*
X155022550Y-98416794D01*
X154965743Y-98386430D01*
X154904103Y-98367732D01*
X154840000Y-98361418D01*
X154516114Y-98361418D01*
X154528072Y-98240000D01*
X154525000Y-98000750D01*
X154402500Y-97878250D01*
X156865000Y-97878250D01*
X157023750Y-98037000D01*
X157627000Y-98037000D01*
X157627000Y-97433750D01*
X157468250Y-97275000D01*
X157394765Y-97280666D01*
X157274010Y-97313289D01*
X157161940Y-97368843D01*
X157062861Y-97445193D01*
X156980581Y-97539406D01*
X156918263Y-97647860D01*
X156878299Y-97766388D01*
X156865000Y-97878250D01*
X154402500Y-97878250D01*
X154366250Y-97842000D01*
X152917000Y-97842000D01*
X152917000Y-98716250D01*
X153075750Y-98875000D01*
X153461418Y-98876455D01*
X153461418Y-99503545D01*
X153075750Y-99505000D01*
X152917000Y-99663750D01*
X152917000Y-100538000D01*
X152937000Y-100538000D01*
X152937000Y-100792000D01*
X152917000Y-100792000D01*
X152917000Y-101666250D01*
X153075750Y-101825000D01*
X153890000Y-101828072D01*
X154014482Y-101815812D01*
X154134180Y-101779502D01*
X154244494Y-101720537D01*
X154298000Y-101676626D01*
X154298000Y-102882750D01*
X154289624Y-102889624D01*
X154239434Y-102950782D01*
X154202139Y-103020556D01*
X154179173Y-103096265D01*
X154171418Y-103175000D01*
X154171418Y-103325000D01*
X154179173Y-103403735D01*
X154182163Y-103413592D01*
X154179444Y-103412139D01*
X154103735Y-103389173D01*
X154046926Y-103383578D01*
X154041157Y-103371940D01*
X153964807Y-103272861D01*
X153870594Y-103190581D01*
X153762140Y-103128263D01*
X153643612Y-103088299D01*
X153531750Y-103075000D01*
X153373000Y-103233750D01*
X153373000Y-103837000D01*
X153471418Y-103837000D01*
X153471418Y-103983000D01*
X153373000Y-103983000D01*
X153373000Y-104057000D01*
X153327000Y-104057000D01*
X153327000Y-103983000D01*
X152723750Y-103983000D01*
X152565000Y-104141750D01*
X152570666Y-104215235D01*
X152603289Y-104335990D01*
X152658843Y-104448060D01*
X152735193Y-104547139D01*
X152829406Y-104629419D01*
X152861418Y-104647813D01*
X152861418Y-104735000D01*
X152869173Y-104813735D01*
X152892139Y-104889444D01*
X152929434Y-104959218D01*
X152930076Y-104960000D01*
X152929434Y-104960782D01*
X152892139Y-105030556D01*
X152869173Y-105106265D01*
X152861418Y-105185000D01*
X152861418Y-105435000D01*
X152869173Y-105513735D01*
X152892139Y-105589444D01*
X152929434Y-105659218D01*
X152979624Y-105720376D01*
X153040782Y-105770566D01*
X153110556Y-105807861D01*
X153186265Y-105830827D01*
X153265000Y-105838582D01*
X153415000Y-105838582D01*
X153493735Y-105830827D01*
X153538000Y-105817399D01*
X153538001Y-106898786D01*
X152878582Y-106899885D01*
X152878582Y-106770000D01*
X152872268Y-106705897D01*
X152853570Y-106644257D01*
X152823206Y-106587450D01*
X152782343Y-106537657D01*
X152732550Y-106496794D01*
X152675743Y-106466430D01*
X152614103Y-106447732D01*
X152550000Y-106441418D01*
X151478582Y-106441418D01*
X151478582Y-105370000D01*
X151472268Y-105305897D01*
X151453570Y-105244257D01*
X151423206Y-105187450D01*
X151382343Y-105137657D01*
X151332550Y-105096794D01*
X151275743Y-105066430D01*
X151214103Y-105047732D01*
X151150000Y-105041418D01*
X151135330Y-105041418D01*
X151134497Y-104048582D01*
X151150000Y-104048582D01*
X151214103Y-104042268D01*
X151275743Y-104023570D01*
X151332550Y-103993206D01*
X151382343Y-103952343D01*
X151423206Y-103902550D01*
X151453570Y-103845743D01*
X151472268Y-103784103D01*
X151478582Y-103720000D01*
X151478582Y-103678250D01*
X152565000Y-103678250D01*
X152723750Y-103837000D01*
X153327000Y-103837000D01*
X153327000Y-103233750D01*
X153168250Y-103075000D01*
X153056388Y-103088299D01*
X152937860Y-103128263D01*
X152829406Y-103190581D01*
X152735193Y-103272861D01*
X152658843Y-103371940D01*
X152603289Y-103484010D01*
X152570666Y-103604765D01*
X152565000Y-103678250D01*
X151478582Y-103678250D01*
X151478582Y-102220000D01*
X151472268Y-102155897D01*
X151453570Y-102094257D01*
X151423206Y-102037450D01*
X151382343Y-101987657D01*
X151332550Y-101946794D01*
X151275743Y-101916430D01*
X151214103Y-101897732D01*
X151150000Y-101891418D01*
X151133754Y-101891418D01*
X151134782Y-101498321D01*
X151159463Y-101544494D01*
X151238815Y-101641185D01*
X151335506Y-101720537D01*
X151445820Y-101779502D01*
X151565518Y-101815812D01*
X151690000Y-101828072D01*
X152504250Y-101825000D01*
X152663000Y-101666250D01*
X152663000Y-100792000D01*
X152643000Y-100792000D01*
X152643000Y-100538000D01*
X152663000Y-100538000D01*
X152663000Y-99663750D01*
X152504250Y-99505000D01*
X151690000Y-99501928D01*
X151565518Y-99514188D01*
X151445820Y-99550498D01*
X151335506Y-99609463D01*
X151238815Y-99688815D01*
X151159463Y-99785506D01*
X151139166Y-99823478D01*
X151142466Y-98562696D01*
X151159463Y-98594494D01*
X151238815Y-98691185D01*
X151335506Y-98770537D01*
X151445820Y-98829502D01*
X151565518Y-98865812D01*
X151690000Y-98878072D01*
X152504250Y-98875000D01*
X152663000Y-98716250D01*
X152663000Y-97842000D01*
X152643000Y-97842000D01*
X152643000Y-97588000D01*
X152663000Y-97588000D01*
X152663000Y-96713750D01*
X152917000Y-96713750D01*
X152917000Y-97588000D01*
X154366250Y-97588000D01*
X154525000Y-97429250D01*
X154528072Y-97190000D01*
X154515812Y-97065518D01*
X154479502Y-96945820D01*
X154420537Y-96835506D01*
X154341185Y-96738815D01*
X154244494Y-96659463D01*
X154134180Y-96600498D01*
X154014482Y-96564188D01*
X153890000Y-96551928D01*
X153075750Y-96555000D01*
X152917000Y-96713750D01*
X152663000Y-96713750D01*
X152504250Y-96555000D01*
X151690000Y-96551928D01*
X151565518Y-96564188D01*
X151445820Y-96600498D01*
X151335506Y-96659463D01*
X151238815Y-96738815D01*
X151159463Y-96835506D01*
X151146926Y-96858961D01*
X151149106Y-96026156D01*
X151182861Y-96064807D01*
X151281940Y-96141157D01*
X151394010Y-96196711D01*
X151514765Y-96229334D01*
X151588250Y-96235000D01*
X151747000Y-96076250D01*
X151747000Y-95473000D01*
X151673000Y-95473000D01*
X151673000Y-95427000D01*
X151747000Y-95427000D01*
X151747000Y-95372804D01*
X151768095Y-95377000D01*
X151871905Y-95377000D01*
X151893000Y-95372804D01*
X151893000Y-95427000D01*
X151967000Y-95427000D01*
X151967000Y-95473000D01*
X151893000Y-95473000D01*
X151893000Y-96076250D01*
X152051750Y-96235000D01*
X152125235Y-96229334D01*
X152245990Y-96196711D01*
X152358060Y-96141157D01*
X152394185Y-96113319D01*
X152400237Y-96119371D01*
X152407842Y-96111766D01*
X152530279Y-96183528D01*
X152671722Y-96232576D01*
X152820017Y-96253088D01*
X152969464Y-96244274D01*
X153047063Y-96224025D01*
X153071722Y-96232576D01*
X153220017Y-96253088D01*
X153369464Y-96244274D01*
X153514320Y-96206475D01*
X153649019Y-96141142D01*
X153698878Y-96107827D01*
X153680444Y-95942000D01*
X153694518Y-95942000D01*
X153766719Y-95927638D01*
X153867827Y-95938878D01*
X153895303Y-95892000D01*
X154260344Y-95892000D01*
X154270782Y-95900566D01*
X154340556Y-95937861D01*
X154342645Y-95938495D01*
X154370372Y-95957021D01*
X154466280Y-95996748D01*
X154568095Y-96017000D01*
X154671905Y-96017000D01*
X154773720Y-95996748D01*
X154869628Y-95957021D01*
X154897355Y-95938495D01*
X154899444Y-95937861D01*
X154969218Y-95900566D01*
X155030376Y-95850376D01*
X155063008Y-95810613D01*
X155105632Y-95775632D01*
X155118223Y-95760290D01*
X155315292Y-95563221D01*
X155330633Y-95550631D01*
X155380869Y-95489419D01*
X155418198Y-95419582D01*
X155420573Y-95411750D01*
X156605000Y-95411750D01*
X156610666Y-95485235D01*
X156643289Y-95605990D01*
X156698843Y-95718060D01*
X156775193Y-95817139D01*
X156869406Y-95899419D01*
X156977860Y-95961737D01*
X157096388Y-96001701D01*
X157208250Y-96015000D01*
X157367000Y-95856250D01*
X157367000Y-95253000D01*
X156763750Y-95253000D01*
X156605000Y-95411750D01*
X155420573Y-95411750D01*
X155441184Y-95343805D01*
X155447001Y-95284746D01*
X155447001Y-95284739D01*
X155448945Y-95265000D01*
X155447001Y-95245260D01*
X155447001Y-94948250D01*
X156605000Y-94948250D01*
X156763750Y-95107000D01*
X157367000Y-95107000D01*
X157367000Y-94503750D01*
X157208250Y-94345000D01*
X157096388Y-94358299D01*
X156977860Y-94398263D01*
X156869406Y-94460581D01*
X156775193Y-94542861D01*
X156698843Y-94641940D01*
X156643289Y-94754010D01*
X156610666Y-94874765D01*
X156605000Y-94948250D01*
X155447001Y-94948250D01*
X155447001Y-93137000D01*
X156228611Y-93137000D01*
X156246430Y-93195743D01*
G37*
X156246430Y-93195743D02*
X156276794Y-93252550D01*
X156317657Y-93302343D01*
X156367450Y-93343206D01*
X156424257Y-93373570D01*
X156485897Y-93392268D01*
X156550000Y-93398582D01*
X158050000Y-93398582D01*
X158114103Y-93392268D01*
X158175743Y-93373570D01*
X158232550Y-93343206D01*
X158282343Y-93302343D01*
X158323206Y-93252550D01*
X158353570Y-93195743D01*
X158371389Y-93137000D01*
X158658283Y-93137000D01*
X158580820Y-93160498D01*
X158470506Y-93219463D01*
X158373815Y-93298815D01*
X158294463Y-93395506D01*
X158235498Y-93505820D01*
X158199188Y-93625518D01*
X158186928Y-93750000D01*
X158190000Y-93839250D01*
X158348750Y-93998000D01*
X159123000Y-93998000D01*
X159123000Y-93978000D01*
X159377000Y-93978000D01*
X159377000Y-93998000D01*
X159397000Y-93998000D01*
X159397000Y-94252000D01*
X159377000Y-94252000D01*
X159377000Y-94272000D01*
X159123000Y-94272000D01*
X159123000Y-94252000D01*
X158348750Y-94252000D01*
X158190000Y-94410750D01*
X158186928Y-94500000D01*
X158199188Y-94624482D01*
X158216398Y-94681215D01*
X158143735Y-94659173D01*
X158086926Y-94653578D01*
X158081157Y-94641940D01*
X158004807Y-94542861D01*
X157910594Y-94460581D01*
X157802140Y-94398263D01*
X157683612Y-94358299D01*
X157571750Y-94345000D01*
X157413000Y-94503750D01*
X157413000Y-95107000D01*
X157511418Y-95107000D01*
X157511418Y-95253000D01*
X157413000Y-95253000D01*
X157413000Y-95856250D01*
X157571750Y-96015000D01*
X157683612Y-96001701D01*
X157802140Y-95961737D01*
X157910594Y-95899419D01*
X158004807Y-95817139D01*
X158081157Y-95718060D01*
X158086926Y-95706422D01*
X158143735Y-95700827D01*
X158219444Y-95677861D01*
X158289218Y-95640566D01*
X158350376Y-95590376D01*
X158361353Y-95577000D01*
X158499077Y-95577000D01*
X158502732Y-95614103D01*
X158521430Y-95675743D01*
X158551794Y-95732550D01*
X158592657Y-95782343D01*
X158642450Y-95823206D01*
X158699257Y-95853570D01*
X158760897Y-95872268D01*
X158825000Y-95878582D01*
X159385068Y-95878582D01*
X159465892Y-95959406D01*
X159396280Y-95973252D01*
X159300372Y-96012979D01*
X159298921Y-96013948D01*
X159274257Y-96021430D01*
X159217450Y-96051794D01*
X159167657Y-96092657D01*
X159126794Y-96142450D01*
X159096430Y-96199257D01*
X159090328Y-96219374D01*
X159082979Y-96230372D01*
X159043252Y-96326280D01*
X159023000Y-96428095D01*
X159023000Y-96531905D01*
X159043252Y-96633720D01*
X159071418Y-96701718D01*
X159071418Y-96871418D01*
X158901718Y-96871418D01*
X158833720Y-96843252D01*
X158731905Y-96823000D01*
X158628095Y-96823000D01*
X158526280Y-96843252D01*
X158430372Y-96882979D01*
X158419374Y-96890328D01*
X158399257Y-96896430D01*
X158342450Y-96926794D01*
X158292657Y-96967657D01*
X158251794Y-97017450D01*
X158221430Y-97074257D01*
X158213948Y-97098921D01*
X158212979Y-97100372D01*
X158173252Y-97196280D01*
X158153000Y-97298095D01*
X158153000Y-97326678D01*
X158125990Y-97313289D01*
X158005235Y-97280666D01*
X157931750Y-97275000D01*
X157773000Y-97433750D01*
X157773000Y-98037000D01*
X157847000Y-98037000D01*
X157847000Y-98083000D01*
X157773000Y-98083000D01*
X157773000Y-98137196D01*
X157751905Y-98133000D01*
X157648095Y-98133000D01*
X157627000Y-98137196D01*
X157627000Y-98083000D01*
X157023750Y-98083000D01*
X156865000Y-98241750D01*
X156878299Y-98353612D01*
X156918263Y-98472140D01*
X156980581Y-98580594D01*
X157062861Y-98674807D01*
X157161940Y-98751157D01*
X157173578Y-98756926D01*
X157179173Y-98813735D01*
X157202139Y-98889444D01*
X157239434Y-98959218D01*
X157289624Y-99020376D01*
X157350782Y-99070566D01*
X157420556Y-99107861D01*
X157422645Y-99108495D01*
X157450372Y-99127021D01*
X157542998Y-99165389D01*
X157542998Y-99259748D01*
X157438250Y-99155000D01*
X157364765Y-99160666D01*
X157244010Y-99193289D01*
X157131940Y-99248843D01*
X157032861Y-99325193D01*
X156950581Y-99419406D01*
X156888263Y-99527860D01*
X156848299Y-99646388D01*
X156835000Y-99758250D01*
X156993750Y-99917000D01*
X157597000Y-99917000D01*
X157597000Y-99793000D01*
X157743000Y-99793000D01*
X157743000Y-99917000D01*
X157817000Y-99917000D01*
X157817000Y-99963000D01*
X157743000Y-99963000D01*
X157743000Y-100017196D01*
X157721905Y-100013000D01*
X157618095Y-100013000D01*
X157597000Y-100017196D01*
X157597000Y-99963000D01*
X156993750Y-99963000D01*
X156835000Y-100121750D01*
X156848299Y-100233612D01*
X156888263Y-100352140D01*
X156950581Y-100460594D01*
X157032861Y-100554807D01*
X157131940Y-100631157D01*
X157143578Y-100636926D01*
X157149173Y-100693735D01*
X157172139Y-100769444D01*
X157209434Y-100839218D01*
X157259624Y-100900376D01*
X157320782Y-100950566D01*
X157390556Y-100987861D01*
X157392645Y-100988495D01*
X157420372Y-101007021D01*
X157516280Y-101046748D01*
X157586932Y-101060801D01*
X157661440Y-101135310D01*
X157573000Y-101223750D01*
X157573000Y-101422655D01*
X157519419Y-101329406D01*
X157437139Y-101235193D01*
X157427000Y-101227380D01*
X157427000Y-101223750D01*
X157268250Y-101065000D01*
X157194765Y-101070666D01*
X157150000Y-101082760D01*
X157105235Y-101070666D01*
X157031750Y-101065000D01*
X156873000Y-101223750D01*
X156873000Y-101227380D01*
X156862861Y-101235193D01*
X156780581Y-101329406D01*
X156727000Y-101422655D01*
X156727000Y-101223750D01*
X156568250Y-101065000D01*
X156494765Y-101070666D01*
X156374010Y-101103289D01*
X156261940Y-101158843D01*
X156162861Y-101235193D01*
X156080581Y-101329406D01*
X156018263Y-101437860D01*
X155978299Y-101556388D01*
X155965000Y-101668250D01*
X156123750Y-101827000D01*
X156727000Y-101827000D01*
X156727000Y-101730250D01*
X156823750Y-101827000D01*
X157476250Y-101827000D01*
X157573000Y-101730250D01*
X157573000Y-101827000D01*
X157647000Y-101827000D01*
X157647000Y-101873000D01*
X157573000Y-101873000D01*
X157573000Y-101927196D01*
X157551905Y-101923000D01*
X157526250Y-101923000D01*
X157476250Y-101873000D01*
X156823750Y-101873000D01*
X156727000Y-101969750D01*
X156727000Y-101873000D01*
X156123750Y-101873000D01*
X155965000Y-102031750D01*
X155978299Y-102143612D01*
X156018263Y-102262140D01*
X156080581Y-102370594D01*
X156162861Y-102464807D01*
X156261940Y-102541157D01*
X156273578Y-102546926D01*
X156279173Y-102603735D01*
X156302139Y-102679444D01*
X156339434Y-102749218D01*
X156385537Y-102805396D01*
X156379444Y-102802139D01*
X156303735Y-102779173D01*
X156225000Y-102771418D01*
X155975000Y-102771418D01*
X155896265Y-102779173D01*
X155820556Y-102802139D01*
X155750782Y-102839434D01*
X155750000Y-102840076D01*
X155749218Y-102839434D01*
X155679444Y-102802139D01*
X155603735Y-102779173D01*
X155525000Y-102771418D01*
X155275000Y-102771418D01*
X155196265Y-102779173D01*
X155120556Y-102802139D01*
X155102000Y-102812057D01*
X155102000Y-99886205D01*
X155113206Y-99872550D01*
X155143570Y-99815743D01*
X155162268Y-99754103D01*
X155168582Y-99690000D01*
X155168582Y-98690000D01*
X155162268Y-98625897D01*
X155143570Y-98564257D01*
X155113206Y-98507450D01*
X155072343Y-98457657D01*
X155022550Y-98416794D01*
X154965743Y-98386430D01*
X154904103Y-98367732D01*
X154840000Y-98361418D01*
X154516114Y-98361418D01*
X154528072Y-98240000D01*
X154525000Y-98000750D01*
X154402500Y-97878250D01*
X156865000Y-97878250D01*
X157023750Y-98037000D01*
X157627000Y-98037000D01*
X157627000Y-97433750D01*
X157468250Y-97275000D01*
X157394765Y-97280666D01*
X157274010Y-97313289D01*
X157161940Y-97368843D01*
X157062861Y-97445193D01*
X156980581Y-97539406D01*
X156918263Y-97647860D01*
X156878299Y-97766388D01*
X156865000Y-97878250D01*
X154402500Y-97878250D01*
X154366250Y-97842000D01*
X152917000Y-97842000D01*
X152917000Y-98716250D01*
X153075750Y-98875000D01*
X153461418Y-98876455D01*
X153461418Y-99503545D01*
X153075750Y-99505000D01*
X152917000Y-99663750D01*
X152917000Y-100538000D01*
X152937000Y-100538000D01*
X152937000Y-100792000D01*
X152917000Y-100792000D01*
X152917000Y-101666250D01*
X153075750Y-101825000D01*
X153890000Y-101828072D01*
X154014482Y-101815812D01*
X154134180Y-101779502D01*
X154244494Y-101720537D01*
X154298000Y-101676626D01*
X154298000Y-102882750D01*
X154289624Y-102889624D01*
X154239434Y-102950782D01*
X154202139Y-103020556D01*
X154179173Y-103096265D01*
X154171418Y-103175000D01*
X154171418Y-103325000D01*
X154179173Y-103403735D01*
X154182163Y-103413592D01*
X154179444Y-103412139D01*
X154103735Y-103389173D01*
X154046926Y-103383578D01*
X154041157Y-103371940D01*
X153964807Y-103272861D01*
X153870594Y-103190581D01*
X153762140Y-103128263D01*
X153643612Y-103088299D01*
X153531750Y-103075000D01*
X153373000Y-103233750D01*
X153373000Y-103837000D01*
X153471418Y-103837000D01*
X153471418Y-103983000D01*
X153373000Y-103983000D01*
X153373000Y-104057000D01*
X153327000Y-104057000D01*
X153327000Y-103983000D01*
X152723750Y-103983000D01*
X152565000Y-104141750D01*
X152570666Y-104215235D01*
X152603289Y-104335990D01*
X152658843Y-104448060D01*
X152735193Y-104547139D01*
X152829406Y-104629419D01*
X152861418Y-104647813D01*
X152861418Y-104735000D01*
X152869173Y-104813735D01*
X152892139Y-104889444D01*
X152929434Y-104959218D01*
X152930076Y-104960000D01*
X152929434Y-104960782D01*
X152892139Y-105030556D01*
X152869173Y-105106265D01*
X152861418Y-105185000D01*
X152861418Y-105435000D01*
X152869173Y-105513735D01*
X152892139Y-105589444D01*
X152929434Y-105659218D01*
X152979624Y-105720376D01*
X153040782Y-105770566D01*
X153110556Y-105807861D01*
X153186265Y-105830827D01*
X153265000Y-105838582D01*
X153415000Y-105838582D01*
X153493735Y-105830827D01*
X153538000Y-105817399D01*
X153538001Y-106898786D01*
X152878582Y-106899885D01*
X152878582Y-106770000D01*
X152872268Y-106705897D01*
X152853570Y-106644257D01*
X152823206Y-106587450D01*
X152782343Y-106537657D01*
X152732550Y-106496794D01*
X152675743Y-106466430D01*
X152614103Y-106447732D01*
X152550000Y-106441418D01*
X151478582Y-106441418D01*
X151478582Y-105370000D01*
X151472268Y-105305897D01*
X151453570Y-105244257D01*
X151423206Y-105187450D01*
X151382343Y-105137657D01*
X151332550Y-105096794D01*
X151275743Y-105066430D01*
X151214103Y-105047732D01*
X151150000Y-105041418D01*
X151135330Y-105041418D01*
X151134497Y-104048582D01*
X151150000Y-104048582D01*
X151214103Y-104042268D01*
X151275743Y-104023570D01*
X151332550Y-103993206D01*
X151382343Y-103952343D01*
X151423206Y-103902550D01*
X151453570Y-103845743D01*
X151472268Y-103784103D01*
X151478582Y-103720000D01*
X151478582Y-103678250D01*
X152565000Y-103678250D01*
X152723750Y-103837000D01*
X153327000Y-103837000D01*
X153327000Y-103233750D01*
X153168250Y-103075000D01*
X153056388Y-103088299D01*
X152937860Y-103128263D01*
X152829406Y-103190581D01*
X152735193Y-103272861D01*
X152658843Y-103371940D01*
X152603289Y-103484010D01*
X152570666Y-103604765D01*
X152565000Y-103678250D01*
X151478582Y-103678250D01*
X151478582Y-102220000D01*
X151472268Y-102155897D01*
X151453570Y-102094257D01*
X151423206Y-102037450D01*
X151382343Y-101987657D01*
X151332550Y-101946794D01*
X151275743Y-101916430D01*
X151214103Y-101897732D01*
X151150000Y-101891418D01*
X151133754Y-101891418D01*
X151134782Y-101498321D01*
X151159463Y-101544494D01*
X151238815Y-101641185D01*
X151335506Y-101720537D01*
X151445820Y-101779502D01*
X151565518Y-101815812D01*
X151690000Y-101828072D01*
X152504250Y-101825000D01*
X152663000Y-101666250D01*
X152663000Y-100792000D01*
X152643000Y-100792000D01*
X152643000Y-100538000D01*
X152663000Y-100538000D01*
X152663000Y-99663750D01*
X152504250Y-99505000D01*
X151690000Y-99501928D01*
X151565518Y-99514188D01*
X151445820Y-99550498D01*
X151335506Y-99609463D01*
X151238815Y-99688815D01*
X151159463Y-99785506D01*
X151139166Y-99823478D01*
X151142466Y-98562696D01*
X151159463Y-98594494D01*
X151238815Y-98691185D01*
X151335506Y-98770537D01*
X151445820Y-98829502D01*
X151565518Y-98865812D01*
X151690000Y-98878072D01*
X152504250Y-98875000D01*
X152663000Y-98716250D01*
X152663000Y-97842000D01*
X152643000Y-97842000D01*
X152643000Y-97588000D01*
X152663000Y-97588000D01*
X152663000Y-96713750D01*
X152917000Y-96713750D01*
X152917000Y-97588000D01*
X154366250Y-97588000D01*
X154525000Y-97429250D01*
X154528072Y-97190000D01*
X154515812Y-97065518D01*
X154479502Y-96945820D01*
X154420537Y-96835506D01*
X154341185Y-96738815D01*
X154244494Y-96659463D01*
X154134180Y-96600498D01*
X154014482Y-96564188D01*
X153890000Y-96551928D01*
X153075750Y-96555000D01*
X152917000Y-96713750D01*
X152663000Y-96713750D01*
X152504250Y-96555000D01*
X151690000Y-96551928D01*
X151565518Y-96564188D01*
X151445820Y-96600498D01*
X151335506Y-96659463D01*
X151238815Y-96738815D01*
X151159463Y-96835506D01*
X151146926Y-96858961D01*
X151149106Y-96026156D01*
X151182861Y-96064807D01*
X151281940Y-96141157D01*
X151394010Y-96196711D01*
X151514765Y-96229334D01*
X151588250Y-96235000D01*
X151747000Y-96076250D01*
X151747000Y-95473000D01*
X151673000Y-95473000D01*
X151673000Y-95427000D01*
X151747000Y-95427000D01*
X151747000Y-95372804D01*
X151768095Y-95377000D01*
X151871905Y-95377000D01*
X151893000Y-95372804D01*
X151893000Y-95427000D01*
X151967000Y-95427000D01*
X151967000Y-95473000D01*
X151893000Y-95473000D01*
X151893000Y-96076250D01*
X152051750Y-96235000D01*
X152125235Y-96229334D01*
X152245990Y-96196711D01*
X152358060Y-96141157D01*
X152394185Y-96113319D01*
X152400237Y-96119371D01*
X152407842Y-96111766D01*
X152530279Y-96183528D01*
X152671722Y-96232576D01*
X152820017Y-96253088D01*
X152969464Y-96244274D01*
X153047063Y-96224025D01*
X153071722Y-96232576D01*
X153220017Y-96253088D01*
X153369464Y-96244274D01*
X153514320Y-96206475D01*
X153649019Y-96141142D01*
X153698878Y-96107827D01*
X153680444Y-95942000D01*
X153694518Y-95942000D01*
X153766719Y-95927638D01*
X153867827Y-95938878D01*
X153895303Y-95892000D01*
X154260344Y-95892000D01*
X154270782Y-95900566D01*
X154340556Y-95937861D01*
X154342645Y-95938495D01*
X154370372Y-95957021D01*
X154466280Y-95996748D01*
X154568095Y-96017000D01*
X154671905Y-96017000D01*
X154773720Y-95996748D01*
X154869628Y-95957021D01*
X154897355Y-95938495D01*
X154899444Y-95937861D01*
X154969218Y-95900566D01*
X155030376Y-95850376D01*
X155063008Y-95810613D01*
X155105632Y-95775632D01*
X155118223Y-95760290D01*
X155315292Y-95563221D01*
X155330633Y-95550631D01*
X155380869Y-95489419D01*
X155418198Y-95419582D01*
X155420573Y-95411750D01*
X156605000Y-95411750D01*
X156610666Y-95485235D01*
X156643289Y-95605990D01*
X156698843Y-95718060D01*
X156775193Y-95817139D01*
X156869406Y-95899419D01*
X156977860Y-95961737D01*
X157096388Y-96001701D01*
X157208250Y-96015000D01*
X157367000Y-95856250D01*
X157367000Y-95253000D01*
X156763750Y-95253000D01*
X156605000Y-95411750D01*
X155420573Y-95411750D01*
X155441184Y-95343805D01*
X155447001Y-95284746D01*
X155447001Y-95284739D01*
X155448945Y-95265000D01*
X155447001Y-95245260D01*
X155447001Y-94948250D01*
X156605000Y-94948250D01*
X156763750Y-95107000D01*
X157367000Y-95107000D01*
X157367000Y-94503750D01*
X157208250Y-94345000D01*
X157096388Y-94358299D01*
X156977860Y-94398263D01*
X156869406Y-94460581D01*
X156775193Y-94542861D01*
X156698843Y-94641940D01*
X156643289Y-94754010D01*
X156610666Y-94874765D01*
X156605000Y-94948250D01*
X155447001Y-94948250D01*
X155447001Y-93137000D01*
X156228611Y-93137000D01*
X156246430Y-93195743D01*
G36*
X168245000Y-96991750D02*
G01*
X168173000Y-97063750D01*
X168173000Y-97667000D01*
X168269750Y-97667000D01*
X168173000Y-97763750D01*
X168173000Y-98416250D01*
X168269750Y-98513000D01*
X168173000Y-98513000D01*
X168173000Y-99116250D01*
X168331750Y-99275000D01*
X168443612Y-99261701D01*
X168562140Y-99221737D01*
X168670594Y-99159419D01*
X168764807Y-99077139D01*
X168841157Y-98978060D01*
X168877214Y-98905322D01*
X168879290Y-101810126D01*
X168868269Y-101858905D01*
X168862489Y-102082406D01*
X168879556Y-102181535D01*
X168880359Y-103305396D01*
X168868269Y-103358905D01*
X168862489Y-103582406D01*
X168880632Y-103687788D01*
X168881605Y-105049034D01*
X168824257Y-105066430D01*
X168767450Y-105096794D01*
X168717657Y-105137657D01*
X168676794Y-105187450D01*
X168646430Y-105244257D01*
X168627732Y-105305897D01*
X168621418Y-105370000D01*
X168621418Y-106441418D01*
X167693742Y-106441418D01*
X167697000Y-106408336D01*
X167697000Y-106408330D01*
X167699790Y-106380001D01*
X167697000Y-106351672D01*
X167697000Y-105927660D01*
X167763272Y-105873272D01*
X167831340Y-105790331D01*
X167881919Y-105695705D01*
X167913065Y-105593029D01*
X167923582Y-105486250D01*
X167923582Y-105048750D01*
X167913065Y-104941971D01*
X167881919Y-104839295D01*
X167831340Y-104744669D01*
X167816366Y-104726423D01*
X167839180Y-104719502D01*
X167949494Y-104660537D01*
X168046185Y-104581185D01*
X168125537Y-104484494D01*
X168184502Y-104374180D01*
X168220812Y-104254482D01*
X168233072Y-104130000D01*
X168230000Y-103978250D01*
X168071250Y-103819500D01*
X167247000Y-103819500D01*
X167247000Y-103839500D01*
X166993000Y-103839500D01*
X166993000Y-103819500D01*
X166168750Y-103819500D01*
X166010000Y-103978250D01*
X166006928Y-104130000D01*
X166019188Y-104254482D01*
X166050463Y-104357583D01*
X165963612Y-104328299D01*
X165851750Y-104315000D01*
X165693000Y-104473750D01*
X165693000Y-105077000D01*
X165789750Y-105077000D01*
X165693000Y-105173750D01*
X165693000Y-105826250D01*
X165789750Y-105923000D01*
X165693000Y-105923000D01*
X165693000Y-105997000D01*
X165647000Y-105997000D01*
X165647000Y-105923000D01*
X165550250Y-105923000D01*
X165647000Y-105826250D01*
X165647000Y-105173750D01*
X165550250Y-105077000D01*
X165647000Y-105077000D01*
X165647000Y-104473750D01*
X165578582Y-104405332D01*
X165578582Y-104325000D01*
X165570827Y-104246265D01*
X165547861Y-104170556D01*
X165510566Y-104100782D01*
X165509924Y-104100000D01*
X165510566Y-104099218D01*
X165547861Y-104029444D01*
X165570827Y-103953735D01*
X165578582Y-103875000D01*
X165578582Y-103725000D01*
X165570827Y-103646265D01*
X165547861Y-103570556D01*
X165510566Y-103500782D01*
X165460376Y-103439624D01*
X165438825Y-103421938D01*
X165423197Y-103370416D01*
X165385868Y-103300580D01*
X165348220Y-103254706D01*
X165348218Y-103254704D01*
X165335632Y-103239368D01*
X165320295Y-103226781D01*
X164528582Y-102435069D01*
X164528582Y-102328582D01*
X165075000Y-102328582D01*
X165139103Y-102322268D01*
X165200743Y-102303570D01*
X165257550Y-102273206D01*
X165307343Y-102232343D01*
X165348206Y-102182550D01*
X165378570Y-102125743D01*
X165397268Y-102064103D01*
X165403582Y-102000000D01*
X165403582Y-101700000D01*
X165397268Y-101635897D01*
X165386379Y-101600000D01*
X165397268Y-101564103D01*
X165403582Y-101500000D01*
X165403582Y-101252000D01*
X165603487Y-101252000D01*
X165671418Y-101319931D01*
X165671418Y-101355000D01*
X165679173Y-101433735D01*
X165702139Y-101509444D01*
X165739434Y-101579218D01*
X165744179Y-101585000D01*
X165739434Y-101590782D01*
X165702139Y-101660556D01*
X165679173Y-101736265D01*
X165671418Y-101815000D01*
X165671418Y-102065000D01*
X165679173Y-102143735D01*
X165702139Y-102219444D01*
X165739434Y-102289218D01*
X165740076Y-102290000D01*
X165739434Y-102290782D01*
X165702139Y-102360556D01*
X165701505Y-102362645D01*
X165682979Y-102390372D01*
X165643252Y-102486280D01*
X165623000Y-102588095D01*
X165623000Y-102691905D01*
X165643252Y-102793720D01*
X165682979Y-102889628D01*
X165701505Y-102917355D01*
X165702139Y-102919444D01*
X165739434Y-102989218D01*
X165789624Y-103050376D01*
X165850782Y-103100566D01*
X165920556Y-103137861D01*
X165996265Y-103160827D01*
X166016011Y-103162772D01*
X166006928Y-103255000D01*
X166010000Y-103406750D01*
X166168750Y-103565500D01*
X166993000Y-103565500D01*
X166993000Y-103545500D01*
X167247000Y-103545500D01*
X167247000Y-103565500D01*
X168071250Y-103565500D01*
X168230000Y-103406750D01*
X168233072Y-103255000D01*
X168220812Y-103130518D01*
X168215967Y-103114547D01*
X168219419Y-103110594D01*
X168281737Y-103002140D01*
X168321701Y-102883612D01*
X168335000Y-102771750D01*
X168176250Y-102613000D01*
X167573000Y-102613000D01*
X167573000Y-102617285D01*
X167535000Y-102617902D01*
X167535000Y-102512998D01*
X167430252Y-102512998D01*
X167474668Y-102468582D01*
X167573000Y-102468582D01*
X167573000Y-102567000D01*
X168176250Y-102567000D01*
X168335000Y-102408250D01*
X168321701Y-102296388D01*
X168281737Y-102177860D01*
X168219419Y-102069406D01*
X168137139Y-101975193D01*
X168038060Y-101898843D01*
X168026422Y-101893074D01*
X168020827Y-101836265D01*
X167997861Y-101760556D01*
X167960566Y-101690782D01*
X167910376Y-101629624D01*
X167849218Y-101579434D01*
X167779444Y-101542139D01*
X167703735Y-101519173D01*
X167625000Y-101511418D01*
X167531170Y-101511418D01*
X167535000Y-101461750D01*
X167376250Y-101303000D01*
X167177345Y-101303000D01*
X167270594Y-101249419D01*
X167364807Y-101167139D01*
X167372620Y-101157000D01*
X167376250Y-101157000D01*
X167535000Y-100998250D01*
X167529334Y-100924765D01*
X167517240Y-100880000D01*
X167529334Y-100835235D01*
X167535000Y-100761750D01*
X167376250Y-100603000D01*
X167372620Y-100603000D01*
X167364807Y-100592861D01*
X167270594Y-100510581D01*
X167177345Y-100457000D01*
X167376250Y-100457000D01*
X167535000Y-100298250D01*
X167529334Y-100224765D01*
X167496711Y-100104010D01*
X167441157Y-99991940D01*
X167364807Y-99892861D01*
X167328018Y-99860731D01*
X167328582Y-99855000D01*
X167328582Y-99705000D01*
X167320827Y-99626265D01*
X167297861Y-99550556D01*
X167260566Y-99480782D01*
X167259924Y-99480000D01*
X167260566Y-99479218D01*
X167297861Y-99409444D01*
X167320827Y-99333735D01*
X167328582Y-99255000D01*
X167328582Y-99105000D01*
X167320827Y-99026265D01*
X167297861Y-98950556D01*
X167279284Y-98915801D01*
X167320556Y-98937861D01*
X167396265Y-98960827D01*
X167453074Y-98966422D01*
X167458843Y-98978060D01*
X167535193Y-99077139D01*
X167629406Y-99159419D01*
X167737860Y-99221737D01*
X167856388Y-99261701D01*
X167968250Y-99275000D01*
X168127000Y-99116250D01*
X168127000Y-98513000D01*
X168030250Y-98513000D01*
X168127000Y-98416250D01*
X168127000Y-97763750D01*
X168030250Y-97667000D01*
X168127000Y-97667000D01*
X168127000Y-97063750D01*
X168113250Y-97050000D01*
X168144502Y-97050000D01*
X168144502Y-96891252D01*
X168245000Y-96991750D01*
G37*
X168245000Y-96991750D02*
X168173000Y-97063750D01*
X168173000Y-97667000D01*
X168269750Y-97667000D01*
X168173000Y-97763750D01*
X168173000Y-98416250D01*
X168269750Y-98513000D01*
X168173000Y-98513000D01*
X168173000Y-99116250D01*
X168331750Y-99275000D01*
X168443612Y-99261701D01*
X168562140Y-99221737D01*
X168670594Y-99159419D01*
X168764807Y-99077139D01*
X168841157Y-98978060D01*
X168877214Y-98905322D01*
X168879290Y-101810126D01*
X168868269Y-101858905D01*
X168862489Y-102082406D01*
X168879556Y-102181535D01*
X168880359Y-103305396D01*
X168868269Y-103358905D01*
X168862489Y-103582406D01*
X168880632Y-103687788D01*
X168881605Y-105049034D01*
X168824257Y-105066430D01*
X168767450Y-105096794D01*
X168717657Y-105137657D01*
X168676794Y-105187450D01*
X168646430Y-105244257D01*
X168627732Y-105305897D01*
X168621418Y-105370000D01*
X168621418Y-106441418D01*
X167693742Y-106441418D01*
X167697000Y-106408336D01*
X167697000Y-106408330D01*
X167699790Y-106380001D01*
X167697000Y-106351672D01*
X167697000Y-105927660D01*
X167763272Y-105873272D01*
X167831340Y-105790331D01*
X167881919Y-105695705D01*
X167913065Y-105593029D01*
X167923582Y-105486250D01*
X167923582Y-105048750D01*
X167913065Y-104941971D01*
X167881919Y-104839295D01*
X167831340Y-104744669D01*
X167816366Y-104726423D01*
X167839180Y-104719502D01*
X167949494Y-104660537D01*
X168046185Y-104581185D01*
X168125537Y-104484494D01*
X168184502Y-104374180D01*
X168220812Y-104254482D01*
X168233072Y-104130000D01*
X168230000Y-103978250D01*
X168071250Y-103819500D01*
X167247000Y-103819500D01*
X167247000Y-103839500D01*
X166993000Y-103839500D01*
X166993000Y-103819500D01*
X166168750Y-103819500D01*
X166010000Y-103978250D01*
X166006928Y-104130000D01*
X166019188Y-104254482D01*
X166050463Y-104357583D01*
X165963612Y-104328299D01*
X165851750Y-104315000D01*
X165693000Y-104473750D01*
X165693000Y-105077000D01*
X165789750Y-105077000D01*
X165693000Y-105173750D01*
X165693000Y-105826250D01*
X165789750Y-105923000D01*
X165693000Y-105923000D01*
X165693000Y-105997000D01*
X165647000Y-105997000D01*
X165647000Y-105923000D01*
X165550250Y-105923000D01*
X165647000Y-105826250D01*
X165647000Y-105173750D01*
X165550250Y-105077000D01*
X165647000Y-105077000D01*
X165647000Y-104473750D01*
X165578582Y-104405332D01*
X165578582Y-104325000D01*
X165570827Y-104246265D01*
X165547861Y-104170556D01*
X165510566Y-104100782D01*
X165509924Y-104100000D01*
X165510566Y-104099218D01*
X165547861Y-104029444D01*
X165570827Y-103953735D01*
X165578582Y-103875000D01*
X165578582Y-103725000D01*
X165570827Y-103646265D01*
X165547861Y-103570556D01*
X165510566Y-103500782D01*
X165460376Y-103439624D01*
X165438825Y-103421938D01*
X165423197Y-103370416D01*
X165385868Y-103300580D01*
X165348220Y-103254706D01*
X165348218Y-103254704D01*
X165335632Y-103239368D01*
X165320295Y-103226781D01*
X164528582Y-102435069D01*
X164528582Y-102328582D01*
X165075000Y-102328582D01*
X165139103Y-102322268D01*
X165200743Y-102303570D01*
X165257550Y-102273206D01*
X165307343Y-102232343D01*
X165348206Y-102182550D01*
X165378570Y-102125743D01*
X165397268Y-102064103D01*
X165403582Y-102000000D01*
X165403582Y-101700000D01*
X165397268Y-101635897D01*
X165386379Y-101600000D01*
X165397268Y-101564103D01*
X165403582Y-101500000D01*
X165403582Y-101252000D01*
X165603487Y-101252000D01*
X165671418Y-101319931D01*
X165671418Y-101355000D01*
X165679173Y-101433735D01*
X165702139Y-101509444D01*
X165739434Y-101579218D01*
X165744179Y-101585000D01*
X165739434Y-101590782D01*
X165702139Y-101660556D01*
X165679173Y-101736265D01*
X165671418Y-101815000D01*
X165671418Y-102065000D01*
X165679173Y-102143735D01*
X165702139Y-102219444D01*
X165739434Y-102289218D01*
X165740076Y-102290000D01*
X165739434Y-102290782D01*
X165702139Y-102360556D01*
X165701505Y-102362645D01*
X165682979Y-102390372D01*
X165643252Y-102486280D01*
X165623000Y-102588095D01*
X165623000Y-102691905D01*
X165643252Y-102793720D01*
X165682979Y-102889628D01*
X165701505Y-102917355D01*
X165702139Y-102919444D01*
X165739434Y-102989218D01*
X165789624Y-103050376D01*
X165850782Y-103100566D01*
X165920556Y-103137861D01*
X165996265Y-103160827D01*
X166016011Y-103162772D01*
X166006928Y-103255000D01*
X166010000Y-103406750D01*
X166168750Y-103565500D01*
X166993000Y-103565500D01*
X166993000Y-103545500D01*
X167247000Y-103545500D01*
X167247000Y-103565500D01*
X168071250Y-103565500D01*
X168230000Y-103406750D01*
X168233072Y-103255000D01*
X168220812Y-103130518D01*
X168215967Y-103114547D01*
X168219419Y-103110594D01*
X168281737Y-103002140D01*
X168321701Y-102883612D01*
X168335000Y-102771750D01*
X168176250Y-102613000D01*
X167573000Y-102613000D01*
X167573000Y-102617285D01*
X167535000Y-102617902D01*
X167535000Y-102512998D01*
X167430252Y-102512998D01*
X167474668Y-102468582D01*
X167573000Y-102468582D01*
X167573000Y-102567000D01*
X168176250Y-102567000D01*
X168335000Y-102408250D01*
X168321701Y-102296388D01*
X168281737Y-102177860D01*
X168219419Y-102069406D01*
X168137139Y-101975193D01*
X168038060Y-101898843D01*
X168026422Y-101893074D01*
X168020827Y-101836265D01*
X167997861Y-101760556D01*
X167960566Y-101690782D01*
X167910376Y-101629624D01*
X167849218Y-101579434D01*
X167779444Y-101542139D01*
X167703735Y-101519173D01*
X167625000Y-101511418D01*
X167531170Y-101511418D01*
X167535000Y-101461750D01*
X167376250Y-101303000D01*
X167177345Y-101303000D01*
X167270594Y-101249419D01*
X167364807Y-101167139D01*
X167372620Y-101157000D01*
X167376250Y-101157000D01*
X167535000Y-100998250D01*
X167529334Y-100924765D01*
X167517240Y-100880000D01*
X167529334Y-100835235D01*
X167535000Y-100761750D01*
X167376250Y-100603000D01*
X167372620Y-100603000D01*
X167364807Y-100592861D01*
X167270594Y-100510581D01*
X167177345Y-100457000D01*
X167376250Y-100457000D01*
X167535000Y-100298250D01*
X167529334Y-100224765D01*
X167496711Y-100104010D01*
X167441157Y-99991940D01*
X167364807Y-99892861D01*
X167328018Y-99860731D01*
X167328582Y-99855000D01*
X167328582Y-99705000D01*
X167320827Y-99626265D01*
X167297861Y-99550556D01*
X167260566Y-99480782D01*
X167259924Y-99480000D01*
X167260566Y-99479218D01*
X167297861Y-99409444D01*
X167320827Y-99333735D01*
X167328582Y-99255000D01*
X167328582Y-99105000D01*
X167320827Y-99026265D01*
X167297861Y-98950556D01*
X167279284Y-98915801D01*
X167320556Y-98937861D01*
X167396265Y-98960827D01*
X167453074Y-98966422D01*
X167458843Y-98978060D01*
X167535193Y-99077139D01*
X167629406Y-99159419D01*
X167737860Y-99221737D01*
X167856388Y-99261701D01*
X167968250Y-99275000D01*
X168127000Y-99116250D01*
X168127000Y-98513000D01*
X168030250Y-98513000D01*
X168127000Y-98416250D01*
X168127000Y-97763750D01*
X168030250Y-97667000D01*
X168127000Y-97667000D01*
X168127000Y-97063750D01*
X168113250Y-97050000D01*
X168144502Y-97050000D01*
X168144502Y-96891252D01*
X168245000Y-96991750D01*
G36*
X159434419Y-106273197D02*
G01*
X159497000Y-106292180D01*
X159497000Y-106363000D01*
X159373000Y-106363000D01*
X159373000Y-106437000D01*
X159327000Y-106437000D01*
X159327000Y-106363000D01*
X159272804Y-106363000D01*
X159277000Y-106341905D01*
X159277000Y-106266999D01*
X159422823Y-106266999D01*
X159434419Y-106273197D01*
G37*
X159434419Y-106273197D02*
X159497000Y-106292180D01*
X159497000Y-106363000D01*
X159373000Y-106363000D01*
X159373000Y-106437000D01*
X159327000Y-106437000D01*
X159327000Y-106363000D01*
X159272804Y-106363000D01*
X159277000Y-106341905D01*
X159277000Y-106266999D01*
X159422823Y-106266999D01*
X159434419Y-106273197D01*
G36*
X162204076Y-105396418D02*
G01*
X162152000Y-105396418D01*
X162152000Y-105389502D01*
X162207495Y-105389502D01*
X162204076Y-105396418D01*
G37*
X162204076Y-105396418D02*
X162152000Y-105396418D01*
X162152000Y-105389502D01*
X162207495Y-105389502D01*
X162204076Y-105396418D01*
G36*
X162115000Y-105348000D02*
G01*
X162090500Y-105348000D01*
X162090500Y-105277000D01*
X162115000Y-105277000D01*
X162115000Y-105348000D01*
G37*
X162115000Y-105348000D02*
X162090500Y-105348000D01*
X162090500Y-105277000D01*
X162115000Y-105277000D01*
X162115000Y-105348000D01*
G36*
X160793000Y-105127000D02*
G01*
X160891418Y-105127000D01*
X160891418Y-105273000D01*
X160793000Y-105273000D01*
X160793000Y-105347000D01*
X160747000Y-105347000D01*
X160747000Y-105273000D01*
X160623000Y-105273000D01*
X160623000Y-105127000D01*
X160747000Y-105127000D01*
X160747000Y-105053000D01*
X160793000Y-105053000D01*
X160793000Y-105127000D01*
G37*
X160793000Y-105127000D02*
X160891418Y-105127000D01*
X160891418Y-105273000D01*
X160793000Y-105273000D01*
X160793000Y-105347000D01*
X160747000Y-105347000D01*
X160747000Y-105273000D01*
X160623000Y-105273000D01*
X160623000Y-105127000D01*
X160747000Y-105127000D01*
X160747000Y-105053000D01*
X160793000Y-105053000D01*
X160793000Y-105127000D01*
G36*
X159423000Y-105027000D02*
G01*
X159497000Y-105027000D01*
X159497000Y-105073000D01*
X159423000Y-105073000D01*
X159423000Y-105197000D01*
X159277000Y-105197000D01*
X159277000Y-105073000D01*
X159203000Y-105073000D01*
X159203000Y-105027000D01*
X159277000Y-105027000D01*
X159277000Y-104928582D01*
X159423000Y-104928582D01*
X159423000Y-105027000D01*
G37*
X159423000Y-105027000D02*
X159497000Y-105027000D01*
X159497000Y-105073000D01*
X159423000Y-105073000D01*
X159423000Y-105197000D01*
X159277000Y-105197000D01*
X159277000Y-105073000D01*
X159203000Y-105073000D01*
X159203000Y-105027000D01*
X159277000Y-105027000D01*
X159277000Y-104928582D01*
X159423000Y-104928582D01*
X159423000Y-105027000D01*
G36*
X163547000Y-104549750D02*
G01*
X163547000Y-104535000D01*
X163561750Y-104535000D01*
X163547000Y-104549750D01*
G37*
X163547000Y-104549750D02*
X163547000Y-104535000D01*
X163561750Y-104535000D01*
X163547000Y-104549750D01*
G36*
X164423000Y-104377000D02*
G01*
X164497000Y-104377000D01*
X164497000Y-104423000D01*
X164423000Y-104423000D01*
X164423000Y-104547000D01*
X164277000Y-104547000D01*
X164277000Y-104423000D01*
X164203000Y-104423000D01*
X164203000Y-104377000D01*
X164277000Y-104377000D01*
X164277000Y-104302804D01*
X164298095Y-104307000D01*
X164401905Y-104307000D01*
X164423000Y-104302804D01*
X164423000Y-104377000D01*
G37*
X164423000Y-104377000D02*
X164497000Y-104377000D01*
X164497000Y-104423000D01*
X164423000Y-104423000D01*
X164423000Y-104547000D01*
X164277000Y-104547000D01*
X164277000Y-104423000D01*
X164203000Y-104423000D01*
X164203000Y-104377000D01*
X164277000Y-104377000D01*
X164277000Y-104302804D01*
X164298095Y-104307000D01*
X164401905Y-104307000D01*
X164423000Y-104302804D01*
X164423000Y-104377000D01*
G36*
X155473000Y-103827000D02*
G01*
X155547000Y-103827000D01*
X155547000Y-103873000D01*
X155473000Y-103873000D01*
X155473000Y-103997000D01*
X155415513Y-103997000D01*
X155327000Y-103908487D01*
X155327000Y-103873000D01*
X155291513Y-103873000D01*
X155253000Y-103834487D01*
X155253000Y-103827000D01*
X155327000Y-103827000D01*
X155327000Y-103728582D01*
X155473000Y-103728582D01*
X155473000Y-103827000D01*
G37*
X155473000Y-103827000D02*
X155547000Y-103827000D01*
X155547000Y-103873000D01*
X155473000Y-103873000D01*
X155473000Y-103997000D01*
X155415513Y-103997000D01*
X155327000Y-103908487D01*
X155327000Y-103873000D01*
X155291513Y-103873000D01*
X155253000Y-103834487D01*
X155253000Y-103827000D01*
X155327000Y-103827000D01*
X155327000Y-103728582D01*
X155473000Y-103728582D01*
X155473000Y-103827000D01*
G36*
X161433000Y-103627000D02*
G01*
X161557000Y-103627000D01*
X161557000Y-103679486D01*
X161463486Y-103773000D01*
X161433000Y-103773000D01*
X161433000Y-103803487D01*
X161389487Y-103847000D01*
X161387000Y-103847000D01*
X161387000Y-103773000D01*
X161314793Y-103773000D01*
X161317000Y-103761905D01*
X161317000Y-103658095D01*
X161310815Y-103627000D01*
X161387000Y-103627000D01*
X161387000Y-103553000D01*
X161433000Y-103553000D01*
X161433000Y-103627000D01*
G37*
X161433000Y-103627000D02*
X161557000Y-103627000D01*
X161557000Y-103679486D01*
X161463486Y-103773000D01*
X161433000Y-103773000D01*
X161433000Y-103803487D01*
X161389487Y-103847000D01*
X161387000Y-103847000D01*
X161387000Y-103773000D01*
X161314793Y-103773000D01*
X161317000Y-103761905D01*
X161317000Y-103658095D01*
X161310815Y-103627000D01*
X161387000Y-103627000D01*
X161387000Y-103553000D01*
X161433000Y-103553000D01*
X161433000Y-103627000D01*
G36*
X163561132Y-103615000D02*
G01*
X163547000Y-103615000D01*
X163547000Y-103600868D01*
X163561132Y-103615000D01*
G37*
X163561132Y-103615000D02*
X163547000Y-103615000D01*
X163547000Y-103600868D01*
X163561132Y-103615000D01*
G36*
X166773000Y-100457000D02*
G01*
X166869750Y-100457000D01*
X166773000Y-100553750D01*
X166773000Y-101206250D01*
X166869750Y-101303000D01*
X166773000Y-101303000D01*
X166773000Y-101377000D01*
X166727000Y-101377000D01*
X166727000Y-101303000D01*
X166630250Y-101303000D01*
X166727000Y-101206250D01*
X166727000Y-100553750D01*
X166677000Y-100503750D01*
X166677000Y-100478095D01*
X166672804Y-100457000D01*
X166727000Y-100457000D01*
X166727000Y-100383000D01*
X166773000Y-100383000D01*
X166773000Y-100457000D01*
G37*
X166773000Y-100457000D02*
X166869750Y-100457000D01*
X166773000Y-100553750D01*
X166773000Y-101206250D01*
X166869750Y-101303000D01*
X166773000Y-101303000D01*
X166773000Y-101377000D01*
X166727000Y-101377000D01*
X166727000Y-101303000D01*
X166630250Y-101303000D01*
X166727000Y-101206250D01*
X166727000Y-100553750D01*
X166677000Y-100503750D01*
X166677000Y-100478095D01*
X166672804Y-100457000D01*
X166727000Y-100457000D01*
X166727000Y-100383000D01*
X166773000Y-100383000D01*
X166773000Y-100457000D01*
G36*
X159022000Y-101371418D02*
G01*
X158728000Y-101371418D01*
X158728000Y-101328582D01*
X159022000Y-101328582D01*
X159022000Y-101371418D01*
G37*
X159022000Y-101371418D02*
X158728000Y-101371418D01*
X158728000Y-101328582D01*
X159022000Y-101328582D01*
X159022000Y-101371418D01*
G36*
X161927000Y-99473000D02*
G01*
X161947000Y-99473000D01*
X161947000Y-99727000D01*
X161927000Y-99727000D01*
X161927000Y-99747000D01*
X161673000Y-99747000D01*
X161673000Y-99727000D01*
X161653000Y-99727000D01*
X161653000Y-99473000D01*
X161673000Y-99473000D01*
X161673000Y-99453000D01*
X161927000Y-99453000D01*
X161927000Y-99473000D01*
G37*
X161927000Y-99473000D02*
X161947000Y-99473000D01*
X161947000Y-99727000D01*
X161927000Y-99727000D01*
X161927000Y-99747000D01*
X161673000Y-99747000D01*
X161673000Y-99727000D01*
X161653000Y-99727000D01*
X161653000Y-99473000D01*
X161673000Y-99473000D01*
X161673000Y-99453000D01*
X161927000Y-99453000D01*
X161927000Y-99473000D01*
G36*
X166773000Y-96957000D02*
G01*
X166897000Y-96957000D01*
X166897000Y-97103000D01*
X166773000Y-97103000D01*
X166773000Y-97177000D01*
X166727000Y-97177000D01*
X166727000Y-97103000D01*
X166672804Y-97103000D01*
X166677000Y-97081905D01*
X166677000Y-96978095D01*
X166672804Y-96957000D01*
X166727000Y-96957000D01*
X166727000Y-96883000D01*
X166773000Y-96883000D01*
X166773000Y-96957000D01*
G37*
X166773000Y-96957000D02*
X166897000Y-96957000D01*
X166897000Y-97103000D01*
X166773000Y-97103000D01*
X166773000Y-97177000D01*
X166727000Y-97177000D01*
X166727000Y-97103000D01*
X166672804Y-97103000D01*
X166677000Y-97081905D01*
X166677000Y-96978095D01*
X166672804Y-96957000D01*
X166727000Y-96957000D01*
X166727000Y-96883000D01*
X166773000Y-96883000D01*
X166773000Y-96957000D01*
G36*
X161571418Y-96790032D02*
G01*
X161556748Y-96716280D01*
X161528582Y-96648282D01*
X161528582Y-96528000D01*
X161571418Y-96528000D01*
X161571418Y-96790032D01*
G37*
X161571418Y-96790032D02*
X161556748Y-96716280D01*
X161528582Y-96648282D01*
X161528582Y-96528000D01*
X161571418Y-96528000D01*
X161571418Y-96790032D01*
G36*
X167146430Y-93195743D02*
G01*
X167176794Y-93252550D01*
X167217657Y-93302343D01*
X167267450Y-93343206D01*
X167324257Y-93373570D01*
X167385897Y-93392268D01*
X167450000Y-93398582D01*
X168521418Y-93398582D01*
X168521418Y-94470000D01*
X168527732Y-94534103D01*
X168546430Y-94595743D01*
X168576794Y-94652550D01*
X168617657Y-94702343D01*
X168667450Y-94743206D01*
X168724257Y-94773570D01*
X168785897Y-94792268D01*
X168850000Y-94798582D01*
X168874279Y-94798582D01*
X168874414Y-94987741D01*
X168809494Y-94934463D01*
X168699180Y-94875498D01*
X168579482Y-94839188D01*
X168455000Y-94826928D01*
X168303250Y-94830000D01*
X168144500Y-94988750D01*
X168144500Y-95813000D01*
X168164500Y-95813000D01*
X168164500Y-96067000D01*
X168144500Y-96067000D01*
X168144500Y-96087000D01*
X167890500Y-96087000D01*
X167890500Y-96067000D01*
X167870500Y-96067000D01*
X167870500Y-95813000D01*
X167890500Y-95813000D01*
X167890500Y-94988750D01*
X167731750Y-94830000D01*
X167580000Y-94826928D01*
X167535000Y-94831360D01*
X167535000Y-94732998D01*
X167430252Y-94732998D01*
X167535000Y-94628250D01*
X167529334Y-94554765D01*
X167496711Y-94434010D01*
X167441157Y-94321940D01*
X167364807Y-94222861D01*
X167270594Y-94140581D01*
X167162140Y-94078263D01*
X167043612Y-94038299D01*
X166931750Y-94025000D01*
X166773000Y-94183750D01*
X166773000Y-94787000D01*
X166897000Y-94787000D01*
X166897000Y-94933000D01*
X166773000Y-94933000D01*
X166773000Y-95007000D01*
X166727000Y-95007000D01*
X166727000Y-94933000D01*
X166628582Y-94933000D01*
X166628582Y-94787000D01*
X166727000Y-94787000D01*
X166727000Y-94183750D01*
X166568250Y-94025000D01*
X166456388Y-94038299D01*
X166337860Y-94078263D01*
X166229406Y-94140581D01*
X166135193Y-94222861D01*
X166058843Y-94321940D01*
X166053074Y-94333578D01*
X165996265Y-94339173D01*
X165920556Y-94362139D01*
X165850782Y-94399434D01*
X165789624Y-94449624D01*
X165739434Y-94510782D01*
X165702139Y-94580556D01*
X165679173Y-94656265D01*
X165671418Y-94735000D01*
X165671418Y-94770069D01*
X165262865Y-95178622D01*
X165247021Y-95140372D01*
X165228495Y-95112645D01*
X165227861Y-95110556D01*
X165190566Y-95040782D01*
X165168364Y-95013728D01*
X165172831Y-95011340D01*
X165255772Y-94943272D01*
X165323840Y-94860331D01*
X165374419Y-94765705D01*
X165405565Y-94663029D01*
X165416082Y-94556250D01*
X165416082Y-94043750D01*
X165405565Y-93936971D01*
X165374419Y-93834295D01*
X165323840Y-93739669D01*
X165255772Y-93656728D01*
X165172831Y-93588660D01*
X165078205Y-93538081D01*
X164975529Y-93506935D01*
X164868750Y-93496418D01*
X164431250Y-93496418D01*
X164324471Y-93506935D01*
X164221795Y-93538081D01*
X164127169Y-93588660D01*
X164108923Y-93603634D01*
X164102002Y-93580820D01*
X164043037Y-93470506D01*
X163963685Y-93373815D01*
X163866994Y-93294463D01*
X163756680Y-93235498D01*
X163636982Y-93199188D01*
X163512500Y-93186928D01*
X163360750Y-93190000D01*
X163202000Y-93348750D01*
X163202000Y-94173000D01*
X163222000Y-94173000D01*
X163222000Y-94427000D01*
X163202000Y-94427000D01*
X163202000Y-94447000D01*
X162948000Y-94447000D01*
X162948000Y-94427000D01*
X162928000Y-94427000D01*
X162928000Y-94173000D01*
X162948000Y-94173000D01*
X162948000Y-93348750D01*
X162789250Y-93190000D01*
X162643869Y-93187057D01*
X162659053Y-93137000D01*
X167128611Y-93137000D01*
X167146430Y-93195743D01*
G37*
X167146430Y-93195743D02*
X167176794Y-93252550D01*
X167217657Y-93302343D01*
X167267450Y-93343206D01*
X167324257Y-93373570D01*
X167385897Y-93392268D01*
X167450000Y-93398582D01*
X168521418Y-93398582D01*
X168521418Y-94470000D01*
X168527732Y-94534103D01*
X168546430Y-94595743D01*
X168576794Y-94652550D01*
X168617657Y-94702343D01*
X168667450Y-94743206D01*
X168724257Y-94773570D01*
X168785897Y-94792268D01*
X168850000Y-94798582D01*
X168874279Y-94798582D01*
X168874414Y-94987741D01*
X168809494Y-94934463D01*
X168699180Y-94875498D01*
X168579482Y-94839188D01*
X168455000Y-94826928D01*
X168303250Y-94830000D01*
X168144500Y-94988750D01*
X168144500Y-95813000D01*
X168164500Y-95813000D01*
X168164500Y-96067000D01*
X168144500Y-96067000D01*
X168144500Y-96087000D01*
X167890500Y-96087000D01*
X167890500Y-96067000D01*
X167870500Y-96067000D01*
X167870500Y-95813000D01*
X167890500Y-95813000D01*
X167890500Y-94988750D01*
X167731750Y-94830000D01*
X167580000Y-94826928D01*
X167535000Y-94831360D01*
X167535000Y-94732998D01*
X167430252Y-94732998D01*
X167535000Y-94628250D01*
X167529334Y-94554765D01*
X167496711Y-94434010D01*
X167441157Y-94321940D01*
X167364807Y-94222861D01*
X167270594Y-94140581D01*
X167162140Y-94078263D01*
X167043612Y-94038299D01*
X166931750Y-94025000D01*
X166773000Y-94183750D01*
X166773000Y-94787000D01*
X166897000Y-94787000D01*
X166897000Y-94933000D01*
X166773000Y-94933000D01*
X166773000Y-95007000D01*
X166727000Y-95007000D01*
X166727000Y-94933000D01*
X166628582Y-94933000D01*
X166628582Y-94787000D01*
X166727000Y-94787000D01*
X166727000Y-94183750D01*
X166568250Y-94025000D01*
X166456388Y-94038299D01*
X166337860Y-94078263D01*
X166229406Y-94140581D01*
X166135193Y-94222861D01*
X166058843Y-94321940D01*
X166053074Y-94333578D01*
X165996265Y-94339173D01*
X165920556Y-94362139D01*
X165850782Y-94399434D01*
X165789624Y-94449624D01*
X165739434Y-94510782D01*
X165702139Y-94580556D01*
X165679173Y-94656265D01*
X165671418Y-94735000D01*
X165671418Y-94770069D01*
X165262865Y-95178622D01*
X165247021Y-95140372D01*
X165228495Y-95112645D01*
X165227861Y-95110556D01*
X165190566Y-95040782D01*
X165168364Y-95013728D01*
X165172831Y-95011340D01*
X165255772Y-94943272D01*
X165323840Y-94860331D01*
X165374419Y-94765705D01*
X165405565Y-94663029D01*
X165416082Y-94556250D01*
X165416082Y-94043750D01*
X165405565Y-93936971D01*
X165374419Y-93834295D01*
X165323840Y-93739669D01*
X165255772Y-93656728D01*
X165172831Y-93588660D01*
X165078205Y-93538081D01*
X164975529Y-93506935D01*
X164868750Y-93496418D01*
X164431250Y-93496418D01*
X164324471Y-93506935D01*
X164221795Y-93538081D01*
X164127169Y-93588660D01*
X164108923Y-93603634D01*
X164102002Y-93580820D01*
X164043037Y-93470506D01*
X163963685Y-93373815D01*
X163866994Y-93294463D01*
X163756680Y-93235498D01*
X163636982Y-93199188D01*
X163512500Y-93186928D01*
X163360750Y-93190000D01*
X163202000Y-93348750D01*
X163202000Y-94173000D01*
X163222000Y-94173000D01*
X163222000Y-94427000D01*
X163202000Y-94427000D01*
X163202000Y-94447000D01*
X162948000Y-94447000D01*
X162948000Y-94427000D01*
X162928000Y-94427000D01*
X162928000Y-94173000D01*
X162948000Y-94173000D01*
X162948000Y-93348750D01*
X162789250Y-93190000D01*
X162643869Y-93187057D01*
X162659053Y-93137000D01*
X167128611Y-93137000D01*
X167146430Y-93195743D01*
G36*
X162901418Y-95329071D02*
G01*
X162779705Y-95450784D01*
X162764369Y-95463370D01*
X162757000Y-95472349D01*
X162757000Y-95463000D01*
X162636516Y-95463000D01*
X162633000Y-95459484D01*
X162633000Y-95412629D01*
X162637500Y-95413072D01*
X162789250Y-95410000D01*
X162882250Y-95317000D01*
X162901418Y-95317000D01*
X162901418Y-95329071D01*
G37*
X162901418Y-95329071D02*
X162779705Y-95450784D01*
X162764369Y-95463370D01*
X162757000Y-95472349D01*
X162757000Y-95463000D01*
X162636516Y-95463000D01*
X162633000Y-95459484D01*
X162633000Y-95412629D01*
X162637500Y-95413072D01*
X162789250Y-95410000D01*
X162882250Y-95317000D01*
X162901418Y-95317000D01*
X162901418Y-95329071D01*
G36*
X164203000Y-95317000D02*
G01*
X164257196Y-95317000D01*
X164253000Y-95338095D01*
X164253000Y-95413001D01*
X164033000Y-95413001D01*
X164033000Y-95317000D01*
X164157000Y-95317000D01*
X164157000Y-95243000D01*
X164203000Y-95243000D01*
X164203000Y-95317000D01*
G37*
X164203000Y-95317000D02*
X164257196Y-95317000D01*
X164253000Y-95338095D01*
X164253000Y-95413001D01*
X164033000Y-95413001D01*
X164033000Y-95317000D01*
X164157000Y-95317000D01*
X164157000Y-95243000D01*
X164203000Y-95243000D01*
X164203000Y-95317000D01*
G36*
X160702000Y-95048000D02*
G01*
X160722000Y-95048000D01*
X160722000Y-95302000D01*
X160702000Y-95302000D01*
X160702000Y-95322000D01*
X160448000Y-95322000D01*
X160448000Y-95302000D01*
X160428000Y-95302000D01*
X160428000Y-95048000D01*
X160448000Y-95048000D01*
X160448000Y-95028000D01*
X160702000Y-95028000D01*
X160702000Y-95048000D01*
G37*
X160702000Y-95048000D02*
X160722000Y-95048000D01*
X160722000Y-95302000D01*
X160702000Y-95302000D01*
X160702000Y-95322000D01*
X160448000Y-95322000D01*
X160448000Y-95302000D01*
X160428000Y-95302000D01*
X160428000Y-95048000D01*
X160448000Y-95048000D01*
X160448000Y-95028000D01*
X160702000Y-95028000D01*
X160702000Y-95048000D01*
G36*
X162023000Y-94565250D02*
G01*
X162002500Y-94585750D01*
X161999801Y-94752000D01*
X161925515Y-94752000D01*
X161877000Y-94703485D01*
X161877000Y-94628000D01*
X161803000Y-94628000D01*
X161803000Y-94582000D01*
X161877000Y-94582000D01*
X161877000Y-94483582D01*
X162023000Y-94483582D01*
X162023000Y-94565250D01*
G37*
X162023000Y-94565250D02*
X162002500Y-94585750D01*
X161999801Y-94752000D01*
X161925515Y-94752000D01*
X161877000Y-94703485D01*
X161877000Y-94628000D01*
X161803000Y-94628000D01*
X161803000Y-94582000D01*
X161877000Y-94582000D01*
X161877000Y-94483582D01*
X162023000Y-94483582D01*
X162023000Y-94565250D01*
%TD*%
M02*
