M48
; DRILL file {KiCad (5.1.6-0-10_14)} date Saturday, October 31, 2020 at 01:08:41 PM
; FORMAT={-:-/ absolute / inch / decimal}
; #@! TF.CreationDate,2020-10-31T13:08:41+09:00
; #@! TF.GenerationSoftware,Kicad,Pcbnew,(5.1.6-0-10_14)
; #@! TF.FileFunction,Plated,1,4,PTH
FMAT,2
INCH
T1C0.0079
T2C0.0197
%
G90
G05
T1
X5.9772Y-3.7343
X5.9772Y-3.7579
X5.9791Y-3.7047
X5.9882Y-3.9543
X5.9902Y-3.8394
X6.0028Y-3.7047
X6.0343Y-3.7047
X6.0374Y-4.0909
X6.0453Y-3.9717
X6.0472Y-3.8567
X6.0874Y-3.7358
X6.0874Y-3.7594
X6.1181Y-4.0886
X6.1437Y-3.8154
X6.1445Y-3.8476
X6.1453Y-3.9165
X6.1453Y-3.9531
X6.1457Y-3.8815
X6.1732Y-4.0098
X6.1886Y-4.1272
X6.1965Y-3.7472
X6.2008Y-4.0098
X6.2008Y-4.0335
X6.2075Y-3.9346
X6.2075Y-3.9583
X6.2083Y-3.8606
X6.2087Y-3.8843
X6.2472Y-3.8327
X6.2472Y-3.872
X6.25Y-4.1846
X6.2547Y-3.9902
X6.263Y-3.8524
X6.2697Y-3.7059
X6.2736Y-4.1358
X6.2736Y-4.1846
X6.2815Y-3.7984
X6.2815Y-4.0366
X6.3012Y-3.8122
X6.3209Y-3.7984
X6.322Y-3.7469
X6.3228Y-3.874
X6.3228Y-3.9055
X6.3228Y-3.937
X6.3228Y-3.9685
X6.3291Y-4.1417
X6.3303Y-4.0831
X6.3406Y-3.8138
X6.3543Y-3.874
X6.3543Y-3.9055
X6.3543Y-3.937
X6.3543Y-3.9685
X6.3555Y-4.0831
X6.3602Y-3.7984
X6.376Y-3.7244
X6.3858Y-3.874
X6.3858Y-3.9055
X6.3858Y-3.937
X6.3858Y-3.9685
X6.3874Y-4.1461
X6.4087Y-3.7555
X6.4173Y-3.874
X6.4173Y-3.9055
X6.4173Y-3.937
X6.4173Y-3.9685
X6.4197Y-3.7122
X6.4398Y-4.0827
X6.4398Y-4.1122
X6.4638Y-3.7555
X6.4705Y-4.0858
X6.4705Y-4.1102
X6.485Y-3.9902
X6.4854Y-3.9508
X6.4874Y-3.7555
X6.5224Y-4.1398
X6.5224Y-4.1669
X6.5413Y-3.8201
X6.5413Y-3.9579
X6.5413Y-4.0409
X6.5551Y-3.7776
X6.565Y-3.8201
X6.565Y-3.9854
X6.565Y-4.0409
X6.5669Y-3.7343
X6.5669Y-3.9591
X6.5705Y-4.0752
X6.5705Y-4.1374
X6.5882Y-4.0898
X6.589Y-4.152
X6.5945Y-4.039
X6.6173Y-3.7776
X6.6201Y-3.848
X6.6201Y-3.8756
T2
X6.0839Y-3.622
X6.6929Y-4.0748
X6.6929Y-4.0157
X6.5157Y-4.252
X6.4567Y-4.252
X6.0248Y-3.622
X5.9657Y-3.622
X6.6929Y-3.7795
X6.5354Y-3.622
X6.4764Y-3.622
X6.4173Y-3.622
X6.6929Y-3.8386
X6.6929Y-3.8976
X6.6929Y-3.9567
X6.2992Y-3.622
X6.0827Y-4.252
T0
M30
