%TF.GenerationSoftware,KiCad,Pcbnew,(5.1.6-0-10_14)*%
%TF.CreationDate,2020-10-31T13:09:24+09:00*%
%TF.ProjectId,RF920A,52463932-3041-42e6-9b69-6361645f7063,rev?*%
%TF.SameCoordinates,Original*%
%TF.FileFunction,Soldermask,Top*%
%TF.FilePolarity,Negative*%
%FSLAX46Y46*%
G04 Gerber Fmt 4.6, Leading zero omitted, Abs format (unit mm)*
G04 Created by KiCad (PCBNEW (5.1.6-0-10_14)) date 2020-10-31 13:09:24*
%MOMM*%
%LPD*%
G01*
G04 APERTURE LIST*
%ADD10O,1.700000X0.900000*%
%ADD11R,0.700000X1.600000*%
%ADD12R,1.600000X0.700000*%
%ADD13C,0.100000*%
%ADD14R,0.800000X0.400000*%
%ADD15R,0.400000X0.800000*%
%ADD16R,4.300000X4.300000*%
%ADD17R,2.300000X1.150000*%
%ADD18R,1.150000X1.100000*%
%ADD19R,0.950000X0.850000*%
%ADD20C,0.350000*%
%ADD21R,0.350000X0.525000*%
%ADD22R,0.525000X0.425000*%
%ADD23C,1.100000*%
G04 APERTURE END LIST*
%TO.C,R9*%
G36*
G01*
X166550000Y-102090000D02*
X166550000Y-101790000D01*
G75*
G02*
X166650000Y-101690000I100000J0D01*
G01*
X166850000Y-101690000D01*
G75*
G02*
X166950000Y-101790000I0J-100000D01*
G01*
X166950000Y-102090000D01*
G75*
G02*
X166850000Y-102190000I-100000J0D01*
G01*
X166650000Y-102190000D01*
G75*
G02*
X166550000Y-102090000I0J100000D01*
G01*
G37*
G36*
G01*
X165950000Y-102090000D02*
X165950000Y-101790000D01*
G75*
G02*
X166050000Y-101690000I100000J0D01*
G01*
X166250000Y-101690000D01*
G75*
G02*
X166350000Y-101790000I0J-100000D01*
G01*
X166350000Y-102090000D01*
G75*
G02*
X166250000Y-102190000I-100000J0D01*
G01*
X166050000Y-102190000D01*
G75*
G02*
X165950000Y-102090000I0J100000D01*
G01*
G37*
%TD*%
%TO.C,R8*%
G36*
G01*
X167950000Y-98590000D02*
X167950000Y-98290000D01*
G75*
G02*
X168050000Y-98190000I100000J0D01*
G01*
X168250000Y-98190000D01*
G75*
G02*
X168350000Y-98290000I0J-100000D01*
G01*
X168350000Y-98590000D01*
G75*
G02*
X168250000Y-98690000I-100000J0D01*
G01*
X168050000Y-98690000D01*
G75*
G02*
X167950000Y-98590000I0J100000D01*
G01*
G37*
G36*
G01*
X167350000Y-98590000D02*
X167350000Y-98290000D01*
G75*
G02*
X167450000Y-98190000I100000J0D01*
G01*
X167650000Y-98190000D01*
G75*
G02*
X167750000Y-98290000I0J-100000D01*
G01*
X167750000Y-98590000D01*
G75*
G02*
X167650000Y-98690000I-100000J0D01*
G01*
X167450000Y-98690000D01*
G75*
G02*
X167350000Y-98590000I0J100000D01*
G01*
G37*
%TD*%
%TO.C,R7*%
G36*
G01*
X152070000Y-93950000D02*
X152070000Y-94250000D01*
G75*
G02*
X151970000Y-94350000I-100000J0D01*
G01*
X151770000Y-94350000D01*
G75*
G02*
X151670000Y-94250000I0J100000D01*
G01*
X151670000Y-93950000D01*
G75*
G02*
X151770000Y-93850000I100000J0D01*
G01*
X151970000Y-93850000D01*
G75*
G02*
X152070000Y-93950000I0J-100000D01*
G01*
G37*
G36*
G01*
X152670000Y-93950000D02*
X152670000Y-94250000D01*
G75*
G02*
X152570000Y-94350000I-100000J0D01*
G01*
X152370000Y-94350000D01*
G75*
G02*
X152270000Y-94250000I0J100000D01*
G01*
X152270000Y-93950000D01*
G75*
G02*
X152370000Y-93850000I100000J0D01*
G01*
X152570000Y-93850000D01*
G75*
G02*
X152670000Y-93950000I0J-100000D01*
G01*
G37*
%TD*%
%TO.C,R6*%
G36*
G01*
X153670000Y-94250000D02*
X153670000Y-93950000D01*
G75*
G02*
X153770000Y-93850000I100000J0D01*
G01*
X153970000Y-93850000D01*
G75*
G02*
X154070000Y-93950000I0J-100000D01*
G01*
X154070000Y-94250000D01*
G75*
G02*
X153970000Y-94350000I-100000J0D01*
G01*
X153770000Y-94350000D01*
G75*
G02*
X153670000Y-94250000I0J100000D01*
G01*
G37*
G36*
G01*
X153070000Y-94250000D02*
X153070000Y-93950000D01*
G75*
G02*
X153170000Y-93850000I100000J0D01*
G01*
X153370000Y-93850000D01*
G75*
G02*
X153470000Y-93950000I0J-100000D01*
G01*
X153470000Y-94250000D01*
G75*
G02*
X153370000Y-94350000I-100000J0D01*
G01*
X153170000Y-94350000D01*
G75*
G02*
X153070000Y-94250000I0J100000D01*
G01*
G37*
%TD*%
%TO.C,R5*%
G36*
G01*
X154470000Y-95290000D02*
X154770000Y-95290000D01*
G75*
G02*
X154870000Y-95390000I0J-100000D01*
G01*
X154870000Y-95590000D01*
G75*
G02*
X154770000Y-95690000I-100000J0D01*
G01*
X154470000Y-95690000D01*
G75*
G02*
X154370000Y-95590000I0J100000D01*
G01*
X154370000Y-95390000D01*
G75*
G02*
X154470000Y-95290000I100000J0D01*
G01*
G37*
G36*
G01*
X154470000Y-94690000D02*
X154770000Y-94690000D01*
G75*
G02*
X154870000Y-94790000I0J-100000D01*
G01*
X154870000Y-94990000D01*
G75*
G02*
X154770000Y-95090000I-100000J0D01*
G01*
X154470000Y-95090000D01*
G75*
G02*
X154370000Y-94990000I0J100000D01*
G01*
X154370000Y-94790000D01*
G75*
G02*
X154470000Y-94690000I100000J0D01*
G01*
G37*
%TD*%
%TO.C,L11*%
G36*
G01*
X153750000Y-104060000D02*
X153750000Y-103760000D01*
G75*
G02*
X153850000Y-103660000I100000J0D01*
G01*
X154050000Y-103660000D01*
G75*
G02*
X154150000Y-103760000I0J-100000D01*
G01*
X154150000Y-104060000D01*
G75*
G02*
X154050000Y-104160000I-100000J0D01*
G01*
X153850000Y-104160000D01*
G75*
G02*
X153750000Y-104060000I0J100000D01*
G01*
G37*
G36*
G01*
X153150000Y-104060000D02*
X153150000Y-103760000D01*
G75*
G02*
X153250000Y-103660000I100000J0D01*
G01*
X153450000Y-103660000D01*
G75*
G02*
X153550000Y-103760000I0J-100000D01*
G01*
X153550000Y-104060000D01*
G75*
G02*
X153450000Y-104160000I-100000J0D01*
G01*
X153250000Y-104160000D01*
G75*
G02*
X153150000Y-104060000I0J100000D01*
G01*
G37*
%TD*%
%TO.C,L10*%
G36*
G01*
X153740000Y-104760000D02*
X153740000Y-104460000D01*
G75*
G02*
X153840000Y-104360000I100000J0D01*
G01*
X154040000Y-104360000D01*
G75*
G02*
X154140000Y-104460000I0J-100000D01*
G01*
X154140000Y-104760000D01*
G75*
G02*
X154040000Y-104860000I-100000J0D01*
G01*
X153840000Y-104860000D01*
G75*
G02*
X153740000Y-104760000I0J100000D01*
G01*
G37*
G36*
G01*
X153140000Y-104760000D02*
X153140000Y-104460000D01*
G75*
G02*
X153240000Y-104360000I100000J0D01*
G01*
X153440000Y-104360000D01*
G75*
G02*
X153540000Y-104460000I0J-100000D01*
G01*
X153540000Y-104760000D01*
G75*
G02*
X153440000Y-104860000I-100000J0D01*
G01*
X153240000Y-104860000D01*
G75*
G02*
X153140000Y-104760000I0J100000D01*
G01*
G37*
%TD*%
%TO.C,L9*%
G36*
G01*
X153540000Y-105160000D02*
X153540000Y-105460000D01*
G75*
G02*
X153440000Y-105560000I-100000J0D01*
G01*
X153240000Y-105560000D01*
G75*
G02*
X153140000Y-105460000I0J100000D01*
G01*
X153140000Y-105160000D01*
G75*
G02*
X153240000Y-105060000I100000J0D01*
G01*
X153440000Y-105060000D01*
G75*
G02*
X153540000Y-105160000I0J-100000D01*
G01*
G37*
G36*
G01*
X154140000Y-105160000D02*
X154140000Y-105460000D01*
G75*
G02*
X154040000Y-105560000I-100000J0D01*
G01*
X153840000Y-105560000D01*
G75*
G02*
X153740000Y-105460000I0J100000D01*
G01*
X153740000Y-105160000D01*
G75*
G02*
X153840000Y-105060000I100000J0D01*
G01*
X154040000Y-105060000D01*
G75*
G02*
X154140000Y-105160000I0J-100000D01*
G01*
G37*
%TD*%
%TO.C,L8*%
G36*
G01*
X156250000Y-103450000D02*
X155950000Y-103450000D01*
G75*
G02*
X155850000Y-103350000I0J100000D01*
G01*
X155850000Y-103150000D01*
G75*
G02*
X155950000Y-103050000I100000J0D01*
G01*
X156250000Y-103050000D01*
G75*
G02*
X156350000Y-103150000I0J-100000D01*
G01*
X156350000Y-103350000D01*
G75*
G02*
X156250000Y-103450000I-100000J0D01*
G01*
G37*
G36*
G01*
X156250000Y-104050000D02*
X155950000Y-104050000D01*
G75*
G02*
X155850000Y-103950000I0J100000D01*
G01*
X155850000Y-103750000D01*
G75*
G02*
X155950000Y-103650000I100000J0D01*
G01*
X156250000Y-103650000D01*
G75*
G02*
X156350000Y-103750000I0J-100000D01*
G01*
X156350000Y-103950000D01*
G75*
G02*
X156250000Y-104050000I-100000J0D01*
G01*
G37*
%TD*%
%TO.C,L7*%
G36*
G01*
X157650000Y-103460000D02*
X157350000Y-103460000D01*
G75*
G02*
X157250000Y-103360000I0J100000D01*
G01*
X157250000Y-103160000D01*
G75*
G02*
X157350000Y-103060000I100000J0D01*
G01*
X157650000Y-103060000D01*
G75*
G02*
X157750000Y-103160000I0J-100000D01*
G01*
X157750000Y-103360000D01*
G75*
G02*
X157650000Y-103460000I-100000J0D01*
G01*
G37*
G36*
G01*
X157650000Y-104060000D02*
X157350000Y-104060000D01*
G75*
G02*
X157250000Y-103960000I0J100000D01*
G01*
X157250000Y-103760000D01*
G75*
G02*
X157350000Y-103660000I100000J0D01*
G01*
X157650000Y-103660000D01*
G75*
G02*
X157750000Y-103760000I0J-100000D01*
G01*
X157750000Y-103960000D01*
G75*
G02*
X157650000Y-104060000I-100000J0D01*
G01*
G37*
%TD*%
%TO.C,L6*%
G36*
G01*
X156950000Y-103460000D02*
X156650000Y-103460000D01*
G75*
G02*
X156550000Y-103360000I0J100000D01*
G01*
X156550000Y-103160000D01*
G75*
G02*
X156650000Y-103060000I100000J0D01*
G01*
X156950000Y-103060000D01*
G75*
G02*
X157050000Y-103160000I0J-100000D01*
G01*
X157050000Y-103360000D01*
G75*
G02*
X156950000Y-103460000I-100000J0D01*
G01*
G37*
G36*
G01*
X156950000Y-104060000D02*
X156650000Y-104060000D01*
G75*
G02*
X156550000Y-103960000I0J100000D01*
G01*
X156550000Y-103760000D01*
G75*
G02*
X156650000Y-103660000I100000J0D01*
G01*
X156950000Y-103660000D01*
G75*
G02*
X157050000Y-103760000I0J-100000D01*
G01*
X157050000Y-103960000D01*
G75*
G02*
X156950000Y-104060000I-100000J0D01*
G01*
G37*
%TD*%
%TO.C,L5*%
G36*
G01*
X159900000Y-104150000D02*
X160200000Y-104150000D01*
G75*
G02*
X160300000Y-104250000I0J-100000D01*
G01*
X160300000Y-104450000D01*
G75*
G02*
X160200000Y-104550000I-100000J0D01*
G01*
X159900000Y-104550000D01*
G75*
G02*
X159800000Y-104450000I0J100000D01*
G01*
X159800000Y-104250000D01*
G75*
G02*
X159900000Y-104150000I100000J0D01*
G01*
G37*
G36*
G01*
X159900000Y-103550000D02*
X160200000Y-103550000D01*
G75*
G02*
X160300000Y-103650000I0J-100000D01*
G01*
X160300000Y-103850000D01*
G75*
G02*
X160200000Y-103950000I-100000J0D01*
G01*
X159900000Y-103950000D01*
G75*
G02*
X159800000Y-103850000I0J100000D01*
G01*
X159800000Y-103650000D01*
G75*
G02*
X159900000Y-103550000I100000J0D01*
G01*
G37*
%TD*%
%TO.C,L4*%
G36*
G01*
X165470000Y-106000000D02*
X165470000Y-105700000D01*
G75*
G02*
X165570000Y-105600000I100000J0D01*
G01*
X165770000Y-105600000D01*
G75*
G02*
X165870000Y-105700000I0J-100000D01*
G01*
X165870000Y-106000000D01*
G75*
G02*
X165770000Y-106100000I-100000J0D01*
G01*
X165570000Y-106100000D01*
G75*
G02*
X165470000Y-106000000I0J100000D01*
G01*
G37*
G36*
G01*
X164870000Y-106000000D02*
X164870000Y-105700000D01*
G75*
G02*
X164970000Y-105600000I100000J0D01*
G01*
X165170000Y-105600000D01*
G75*
G02*
X165270000Y-105700000I0J-100000D01*
G01*
X165270000Y-106000000D01*
G75*
G02*
X165170000Y-106100000I-100000J0D01*
G01*
X164970000Y-106100000D01*
G75*
G02*
X164870000Y-106000000I0J100000D01*
G01*
G37*
%TD*%
%TO.C,L3*%
G36*
G01*
X165470000Y-105300000D02*
X165470000Y-105000000D01*
G75*
G02*
X165570000Y-104900000I100000J0D01*
G01*
X165770000Y-104900000D01*
G75*
G02*
X165870000Y-105000000I0J-100000D01*
G01*
X165870000Y-105300000D01*
G75*
G02*
X165770000Y-105400000I-100000J0D01*
G01*
X165570000Y-105400000D01*
G75*
G02*
X165470000Y-105300000I0J100000D01*
G01*
G37*
G36*
G01*
X164870000Y-105300000D02*
X164870000Y-105000000D01*
G75*
G02*
X164970000Y-104900000I100000J0D01*
G01*
X165170000Y-104900000D01*
G75*
G02*
X165270000Y-105000000I0J-100000D01*
G01*
X165270000Y-105300000D01*
G75*
G02*
X165170000Y-105400000I-100000J0D01*
G01*
X164970000Y-105400000D01*
G75*
G02*
X164870000Y-105300000I0J100000D01*
G01*
G37*
%TD*%
%TO.C,L2*%
G36*
G01*
X162010000Y-104150000D02*
X162310000Y-104150000D01*
G75*
G02*
X162410000Y-104250000I0J-100000D01*
G01*
X162410000Y-104450000D01*
G75*
G02*
X162310000Y-104550000I-100000J0D01*
G01*
X162010000Y-104550000D01*
G75*
G02*
X161910000Y-104450000I0J100000D01*
G01*
X161910000Y-104250000D01*
G75*
G02*
X162010000Y-104150000I100000J0D01*
G01*
G37*
G36*
G01*
X162010000Y-103550000D02*
X162310000Y-103550000D01*
G75*
G02*
X162410000Y-103650000I0J-100000D01*
G01*
X162410000Y-103850000D01*
G75*
G02*
X162310000Y-103950000I-100000J0D01*
G01*
X162010000Y-103950000D01*
G75*
G02*
X161910000Y-103850000I0J100000D01*
G01*
X161910000Y-103650000D01*
G75*
G02*
X162010000Y-103550000I100000J0D01*
G01*
G37*
%TD*%
%TO.C,L1*%
G36*
G01*
X166250000Y-99380000D02*
X165950000Y-99380000D01*
G75*
G02*
X165850000Y-99280000I0J100000D01*
G01*
X165850000Y-99080000D01*
G75*
G02*
X165950000Y-98980000I100000J0D01*
G01*
X166250000Y-98980000D01*
G75*
G02*
X166350000Y-99080000I0J-100000D01*
G01*
X166350000Y-99280000D01*
G75*
G02*
X166250000Y-99380000I-100000J0D01*
G01*
G37*
G36*
G01*
X166250000Y-99980000D02*
X165950000Y-99980000D01*
G75*
G02*
X165850000Y-99880000I0J100000D01*
G01*
X165850000Y-99680000D01*
G75*
G02*
X165950000Y-99580000I100000J0D01*
G01*
X166250000Y-99580000D01*
G75*
G02*
X166350000Y-99680000I0J-100000D01*
G01*
X166350000Y-99880000D01*
G75*
G02*
X166250000Y-99980000I-100000J0D01*
G01*
G37*
%TD*%
%TO.C,C1*%
G36*
G01*
X166838750Y-104780000D02*
X167401250Y-104780000D01*
G75*
G02*
X167645000Y-105023750I0J-243750D01*
G01*
X167645000Y-105511250D01*
G75*
G02*
X167401250Y-105755000I-243750J0D01*
G01*
X166838750Y-105755000D01*
G75*
G02*
X166595000Y-105511250I0J243750D01*
G01*
X166595000Y-105023750D01*
G75*
G02*
X166838750Y-104780000I243750J0D01*
G01*
G37*
G36*
G01*
X166838750Y-103205000D02*
X167401250Y-103205000D01*
G75*
G02*
X167645000Y-103448750I0J-243750D01*
G01*
X167645000Y-103936250D01*
G75*
G02*
X167401250Y-104180000I-243750J0D01*
G01*
X166838750Y-104180000D01*
G75*
G02*
X166595000Y-103936250I0J243750D01*
G01*
X166595000Y-103448750D01*
G75*
G02*
X166838750Y-103205000I243750J0D01*
G01*
G37*
%TD*%
D10*
%TO.C,U7*%
X162125000Y-106970000D03*
D11*
X150850000Y-102970000D03*
D12*
X157300000Y-92770000D03*
D13*
G36*
X167540245Y-107419039D02*
G01*
X167530866Y-107416194D01*
X167522221Y-107411573D01*
X167514645Y-107405355D01*
X167508427Y-107397779D01*
X167503806Y-107389134D01*
X167500961Y-107379755D01*
X167500000Y-107370000D01*
X167500000Y-106770000D01*
X167500961Y-106760245D01*
X167503806Y-106750866D01*
X167508427Y-106742221D01*
X167514645Y-106734645D01*
X167522221Y-106728427D01*
X167530866Y-106723806D01*
X167540245Y-106720961D01*
X167550000Y-106720000D01*
X168900000Y-106720000D01*
X168900000Y-105370000D01*
X168900961Y-105360245D01*
X168903806Y-105350866D01*
X168908427Y-105342221D01*
X168914645Y-105334645D01*
X168922221Y-105328427D01*
X168930866Y-105323806D01*
X168940245Y-105320961D01*
X168950000Y-105320000D01*
X169550000Y-105320000D01*
X169559755Y-105320961D01*
X169569134Y-105323806D01*
X169577779Y-105328427D01*
X169585355Y-105334645D01*
X169591573Y-105342221D01*
X169596194Y-105350866D01*
X169599039Y-105360245D01*
X169600000Y-105370000D01*
X169600000Y-107370000D01*
X169599039Y-107379755D01*
X169596194Y-107389134D01*
X169591573Y-107397779D01*
X169585355Y-107405355D01*
X169577779Y-107411573D01*
X169569134Y-107416194D01*
X169559755Y-107419039D01*
X169550000Y-107420000D01*
X167550000Y-107420000D01*
X167540245Y-107419039D01*
G37*
G36*
X169499039Y-94479755D02*
G01*
X169496194Y-94489134D01*
X169491573Y-94497779D01*
X169485355Y-94505355D01*
X169477779Y-94511573D01*
X169469134Y-94516194D01*
X169459755Y-94519039D01*
X169450000Y-94520000D01*
X168850000Y-94520000D01*
X168840245Y-94519039D01*
X168830866Y-94516194D01*
X168822221Y-94511573D01*
X168814645Y-94505355D01*
X168808427Y-94497779D01*
X168803806Y-94489134D01*
X168800961Y-94479755D01*
X168800000Y-94470000D01*
X168800000Y-93120000D01*
X167450000Y-93120000D01*
X167440245Y-93119039D01*
X167430866Y-93116194D01*
X167422221Y-93111573D01*
X167414645Y-93105355D01*
X167408427Y-93097779D01*
X167403806Y-93089134D01*
X167400961Y-93079755D01*
X167400000Y-93070000D01*
X167400000Y-92470000D01*
X167400961Y-92460245D01*
X167403806Y-92450866D01*
X167408427Y-92442221D01*
X167414645Y-92434645D01*
X167422221Y-92428427D01*
X167430866Y-92423806D01*
X167440245Y-92420961D01*
X167450000Y-92420000D01*
X169450000Y-92420000D01*
X169459755Y-92420961D01*
X169469134Y-92423806D01*
X169477779Y-92428427D01*
X169485355Y-92434645D01*
X169491573Y-92442221D01*
X169496194Y-92450866D01*
X169499039Y-92460245D01*
X169500000Y-92470000D01*
X169500000Y-94470000D01*
X169499039Y-94479755D01*
G37*
D10*
X161550000Y-92970000D03*
D13*
G36*
X150500961Y-105360245D02*
G01*
X150503806Y-105350866D01*
X150508427Y-105342221D01*
X150514645Y-105334645D01*
X150522221Y-105328427D01*
X150530866Y-105323806D01*
X150540245Y-105320961D01*
X150550000Y-105320000D01*
X151150000Y-105320000D01*
X151159755Y-105320961D01*
X151169134Y-105323806D01*
X151177779Y-105328427D01*
X151185355Y-105334645D01*
X151191573Y-105342221D01*
X151196194Y-105350866D01*
X151199039Y-105360245D01*
X151200000Y-105370000D01*
X151200000Y-106720000D01*
X152550000Y-106720000D01*
X152559755Y-106720961D01*
X152569134Y-106723806D01*
X152577779Y-106728427D01*
X152585355Y-106734645D01*
X152591573Y-106742221D01*
X152596194Y-106750866D01*
X152599039Y-106760245D01*
X152600000Y-106770000D01*
X152600000Y-107370000D01*
X152599039Y-107379755D01*
X152596194Y-107389134D01*
X152591573Y-107397779D01*
X152585355Y-107405355D01*
X152577779Y-107411573D01*
X152569134Y-107416194D01*
X152559755Y-107419039D01*
X152550000Y-107420000D01*
X150550000Y-107420000D01*
X150540245Y-107419039D01*
X150530866Y-107416194D01*
X150522221Y-107411573D01*
X150514645Y-107405355D01*
X150508427Y-107397779D01*
X150503806Y-107389134D01*
X150500961Y-107379755D01*
X150500000Y-107370000D01*
X150500000Y-105370000D01*
X150500961Y-105360245D01*
G37*
%TD*%
%TO.C,C48*%
G36*
G01*
X154550000Y-103650000D02*
X154850000Y-103650000D01*
G75*
G02*
X154950000Y-103750000I0J-100000D01*
G01*
X154950000Y-103950000D01*
G75*
G02*
X154850000Y-104050000I-100000J0D01*
G01*
X154550000Y-104050000D01*
G75*
G02*
X154450000Y-103950000I0J100000D01*
G01*
X154450000Y-103750000D01*
G75*
G02*
X154550000Y-103650000I100000J0D01*
G01*
G37*
G36*
G01*
X154550000Y-103050000D02*
X154850000Y-103050000D01*
G75*
G02*
X154950000Y-103150000I0J-100000D01*
G01*
X154950000Y-103350000D01*
G75*
G02*
X154850000Y-103450000I-100000J0D01*
G01*
X154550000Y-103450000D01*
G75*
G02*
X154450000Y-103350000I0J100000D01*
G01*
X154450000Y-103150000D01*
G75*
G02*
X154550000Y-103050000I100000J0D01*
G01*
G37*
%TD*%
%TO.C,C47*%
G36*
G01*
X154940000Y-105160000D02*
X154940000Y-105460000D01*
G75*
G02*
X154840000Y-105560000I-100000J0D01*
G01*
X154640000Y-105560000D01*
G75*
G02*
X154540000Y-105460000I0J100000D01*
G01*
X154540000Y-105160000D01*
G75*
G02*
X154640000Y-105060000I100000J0D01*
G01*
X154840000Y-105060000D01*
G75*
G02*
X154940000Y-105160000I0J-100000D01*
G01*
G37*
G36*
G01*
X155540000Y-105160000D02*
X155540000Y-105460000D01*
G75*
G02*
X155440000Y-105560000I-100000J0D01*
G01*
X155240000Y-105560000D01*
G75*
G02*
X155140000Y-105460000I0J100000D01*
G01*
X155140000Y-105160000D01*
G75*
G02*
X155240000Y-105060000I100000J0D01*
G01*
X155440000Y-105060000D01*
G75*
G02*
X155540000Y-105160000I0J-100000D01*
G01*
G37*
%TD*%
%TO.C,C46*%
G36*
G01*
X157350000Y-102250000D02*
X157650000Y-102250000D01*
G75*
G02*
X157750000Y-102350000I0J-100000D01*
G01*
X157750000Y-102550000D01*
G75*
G02*
X157650000Y-102650000I-100000J0D01*
G01*
X157350000Y-102650000D01*
G75*
G02*
X157250000Y-102550000I0J100000D01*
G01*
X157250000Y-102350000D01*
G75*
G02*
X157350000Y-102250000I100000J0D01*
G01*
G37*
G36*
G01*
X157350000Y-101650000D02*
X157650000Y-101650000D01*
G75*
G02*
X157750000Y-101750000I0J-100000D01*
G01*
X157750000Y-101950000D01*
G75*
G02*
X157650000Y-102050000I-100000J0D01*
G01*
X157350000Y-102050000D01*
G75*
G02*
X157250000Y-101950000I0J100000D01*
G01*
X157250000Y-101750000D01*
G75*
G02*
X157350000Y-101650000I100000J0D01*
G01*
G37*
%TD*%
%TO.C,C45*%
G36*
G01*
X159150000Y-106440000D02*
X159150000Y-106140000D01*
G75*
G02*
X159250000Y-106040000I100000J0D01*
G01*
X159450000Y-106040000D01*
G75*
G02*
X159550000Y-106140000I0J-100000D01*
G01*
X159550000Y-106440000D01*
G75*
G02*
X159450000Y-106540000I-100000J0D01*
G01*
X159250000Y-106540000D01*
G75*
G02*
X159150000Y-106440000I0J100000D01*
G01*
G37*
G36*
G01*
X158550000Y-106440000D02*
X158550000Y-106140000D01*
G75*
G02*
X158650000Y-106040000I100000J0D01*
G01*
X158850000Y-106040000D01*
G75*
G02*
X158950000Y-106140000I0J-100000D01*
G01*
X158950000Y-106440000D01*
G75*
G02*
X158850000Y-106540000I-100000J0D01*
G01*
X158650000Y-106540000D01*
G75*
G02*
X158550000Y-106440000I0J100000D01*
G01*
G37*
%TD*%
%TO.C,C44*%
G36*
G01*
X158500000Y-104850000D02*
X158800000Y-104850000D01*
G75*
G02*
X158900000Y-104950000I0J-100000D01*
G01*
X158900000Y-105150000D01*
G75*
G02*
X158800000Y-105250000I-100000J0D01*
G01*
X158500000Y-105250000D01*
G75*
G02*
X158400000Y-105150000I0J100000D01*
G01*
X158400000Y-104950000D01*
G75*
G02*
X158500000Y-104850000I100000J0D01*
G01*
G37*
G36*
G01*
X158500000Y-104250000D02*
X158800000Y-104250000D01*
G75*
G02*
X158900000Y-104350000I0J-100000D01*
G01*
X158900000Y-104550000D01*
G75*
G02*
X158800000Y-104650000I-100000J0D01*
G01*
X158500000Y-104650000D01*
G75*
G02*
X158400000Y-104550000I0J100000D01*
G01*
X158400000Y-104350000D01*
G75*
G02*
X158500000Y-104250000I100000J0D01*
G01*
G37*
%TD*%
%TO.C,C43*%
G36*
G01*
X155250000Y-103650000D02*
X155550000Y-103650000D01*
G75*
G02*
X155650000Y-103750000I0J-100000D01*
G01*
X155650000Y-103950000D01*
G75*
G02*
X155550000Y-104050000I-100000J0D01*
G01*
X155250000Y-104050000D01*
G75*
G02*
X155150000Y-103950000I0J100000D01*
G01*
X155150000Y-103750000D01*
G75*
G02*
X155250000Y-103650000I100000J0D01*
G01*
G37*
G36*
G01*
X155250000Y-103050000D02*
X155550000Y-103050000D01*
G75*
G02*
X155650000Y-103150000I0J-100000D01*
G01*
X155650000Y-103350000D01*
G75*
G02*
X155550000Y-103450000I-100000J0D01*
G01*
X155250000Y-103450000D01*
G75*
G02*
X155150000Y-103350000I0J100000D01*
G01*
X155150000Y-103150000D01*
G75*
G02*
X155250000Y-103050000I100000J0D01*
G01*
G37*
%TD*%
%TO.C,C42*%
G36*
G01*
X160970000Y-105750000D02*
X160970000Y-106050000D01*
G75*
G02*
X160870000Y-106150000I-100000J0D01*
G01*
X160670000Y-106150000D01*
G75*
G02*
X160570000Y-106050000I0J100000D01*
G01*
X160570000Y-105750000D01*
G75*
G02*
X160670000Y-105650000I100000J0D01*
G01*
X160870000Y-105650000D01*
G75*
G02*
X160970000Y-105750000I0J-100000D01*
G01*
G37*
G36*
G01*
X161570000Y-105750000D02*
X161570000Y-106050000D01*
G75*
G02*
X161470000Y-106150000I-100000J0D01*
G01*
X161270000Y-106150000D01*
G75*
G02*
X161170000Y-106050000I0J100000D01*
G01*
X161170000Y-105750000D01*
G75*
G02*
X161270000Y-105650000I100000J0D01*
G01*
X161470000Y-105650000D01*
G75*
G02*
X161570000Y-105750000I0J-100000D01*
G01*
G37*
%TD*%
%TO.C,C41*%
G36*
G01*
X159100000Y-103850000D02*
X159100000Y-103550000D01*
G75*
G02*
X159200000Y-103450000I100000J0D01*
G01*
X159400000Y-103450000D01*
G75*
G02*
X159500000Y-103550000I0J-100000D01*
G01*
X159500000Y-103850000D01*
G75*
G02*
X159400000Y-103950000I-100000J0D01*
G01*
X159200000Y-103950000D01*
G75*
G02*
X159100000Y-103850000I0J100000D01*
G01*
G37*
G36*
G01*
X158500000Y-103850000D02*
X158500000Y-103550000D01*
G75*
G02*
X158600000Y-103450000I100000J0D01*
G01*
X158800000Y-103450000D01*
G75*
G02*
X158900000Y-103550000I0J-100000D01*
G01*
X158900000Y-103850000D01*
G75*
G02*
X158800000Y-103950000I-100000J0D01*
G01*
X158600000Y-103950000D01*
G75*
G02*
X158500000Y-103850000I0J100000D01*
G01*
G37*
%TD*%
%TO.C,C40*%
G36*
G01*
X156950000Y-102050000D02*
X156650000Y-102050000D01*
G75*
G02*
X156550000Y-101950000I0J100000D01*
G01*
X156550000Y-101750000D01*
G75*
G02*
X156650000Y-101650000I100000J0D01*
G01*
X156950000Y-101650000D01*
G75*
G02*
X157050000Y-101750000I0J-100000D01*
G01*
X157050000Y-101950000D01*
G75*
G02*
X156950000Y-102050000I-100000J0D01*
G01*
G37*
G36*
G01*
X156950000Y-102650000D02*
X156650000Y-102650000D01*
G75*
G02*
X156550000Y-102550000I0J100000D01*
G01*
X156550000Y-102350000D01*
G75*
G02*
X156650000Y-102250000I100000J0D01*
G01*
X156950000Y-102250000D01*
G75*
G02*
X157050000Y-102350000I0J-100000D01*
G01*
X157050000Y-102550000D01*
G75*
G02*
X156950000Y-102650000I-100000J0D01*
G01*
G37*
%TD*%
%TO.C,C39*%
G36*
G01*
X159200000Y-104850000D02*
X159500000Y-104850000D01*
G75*
G02*
X159600000Y-104950000I0J-100000D01*
G01*
X159600000Y-105150000D01*
G75*
G02*
X159500000Y-105250000I-100000J0D01*
G01*
X159200000Y-105250000D01*
G75*
G02*
X159100000Y-105150000I0J100000D01*
G01*
X159100000Y-104950000D01*
G75*
G02*
X159200000Y-104850000I100000J0D01*
G01*
G37*
G36*
G01*
X159200000Y-104250000D02*
X159500000Y-104250000D01*
G75*
G02*
X159600000Y-104350000I0J-100000D01*
G01*
X159600000Y-104550000D01*
G75*
G02*
X159500000Y-104650000I-100000J0D01*
G01*
X159200000Y-104650000D01*
G75*
G02*
X159100000Y-104550000I0J100000D01*
G01*
X159100000Y-104350000D01*
G75*
G02*
X159200000Y-104250000I100000J0D01*
G01*
G37*
%TD*%
%TO.C,C38*%
G36*
G01*
X163170000Y-103550000D02*
X163170000Y-103850000D01*
G75*
G02*
X163070000Y-103950000I-100000J0D01*
G01*
X162870000Y-103950000D01*
G75*
G02*
X162770000Y-103850000I0J100000D01*
G01*
X162770000Y-103550000D01*
G75*
G02*
X162870000Y-103450000I100000J0D01*
G01*
X163070000Y-103450000D01*
G75*
G02*
X163170000Y-103550000I0J-100000D01*
G01*
G37*
G36*
G01*
X163770000Y-103550000D02*
X163770000Y-103850000D01*
G75*
G02*
X163670000Y-103950000I-100000J0D01*
G01*
X163470000Y-103950000D01*
G75*
G02*
X163370000Y-103850000I0J100000D01*
G01*
X163370000Y-103550000D01*
G75*
G02*
X163470000Y-103450000I100000J0D01*
G01*
X163670000Y-103450000D01*
G75*
G02*
X163770000Y-103550000I0J-100000D01*
G01*
G37*
%TD*%
%TO.C,C37*%
G36*
G01*
X163370000Y-104600000D02*
X163370000Y-104300000D01*
G75*
G02*
X163470000Y-104200000I100000J0D01*
G01*
X163670000Y-104200000D01*
G75*
G02*
X163770000Y-104300000I0J-100000D01*
G01*
X163770000Y-104600000D01*
G75*
G02*
X163670000Y-104700000I-100000J0D01*
G01*
X163470000Y-104700000D01*
G75*
G02*
X163370000Y-104600000I0J100000D01*
G01*
G37*
G36*
G01*
X162770000Y-104600000D02*
X162770000Y-104300000D01*
G75*
G02*
X162870000Y-104200000I100000J0D01*
G01*
X163070000Y-104200000D01*
G75*
G02*
X163170000Y-104300000I0J-100000D01*
G01*
X163170000Y-104600000D01*
G75*
G02*
X163070000Y-104700000I-100000J0D01*
G01*
X162870000Y-104700000D01*
G75*
G02*
X162770000Y-104600000I0J100000D01*
G01*
G37*
%TD*%
%TO.C,C36*%
G36*
G01*
X164166000Y-105620000D02*
X164466000Y-105620000D01*
G75*
G02*
X164566000Y-105720000I0J-100000D01*
G01*
X164566000Y-105920000D01*
G75*
G02*
X164466000Y-106020000I-100000J0D01*
G01*
X164166000Y-106020000D01*
G75*
G02*
X164066000Y-105920000I0J100000D01*
G01*
X164066000Y-105720000D01*
G75*
G02*
X164166000Y-105620000I100000J0D01*
G01*
G37*
G36*
G01*
X164166000Y-105020000D02*
X164466000Y-105020000D01*
G75*
G02*
X164566000Y-105120000I0J-100000D01*
G01*
X164566000Y-105320000D01*
G75*
G02*
X164466000Y-105420000I-100000J0D01*
G01*
X164166000Y-105420000D01*
G75*
G02*
X164066000Y-105320000I0J100000D01*
G01*
X164066000Y-105120000D01*
G75*
G02*
X164166000Y-105020000I100000J0D01*
G01*
G37*
%TD*%
%TO.C,C35*%
G36*
G01*
X161005000Y-104250000D02*
X161005000Y-104550000D01*
G75*
G02*
X160905000Y-104650000I-100000J0D01*
G01*
X160705000Y-104650000D01*
G75*
G02*
X160605000Y-104550000I0J100000D01*
G01*
X160605000Y-104250000D01*
G75*
G02*
X160705000Y-104150000I100000J0D01*
G01*
X160905000Y-104150000D01*
G75*
G02*
X161005000Y-104250000I0J-100000D01*
G01*
G37*
G36*
G01*
X161605000Y-104250000D02*
X161605000Y-104550000D01*
G75*
G02*
X161505000Y-104650000I-100000J0D01*
G01*
X161305000Y-104650000D01*
G75*
G02*
X161205000Y-104550000I0J100000D01*
G01*
X161205000Y-104250000D01*
G75*
G02*
X161305000Y-104150000I100000J0D01*
G01*
X161505000Y-104150000D01*
G75*
G02*
X161605000Y-104250000I0J-100000D01*
G01*
G37*
%TD*%
%TO.C,C34*%
G36*
G01*
X164900000Y-104200000D02*
X165200000Y-104200000D01*
G75*
G02*
X165300000Y-104300000I0J-100000D01*
G01*
X165300000Y-104500000D01*
G75*
G02*
X165200000Y-104600000I-100000J0D01*
G01*
X164900000Y-104600000D01*
G75*
G02*
X164800000Y-104500000I0J100000D01*
G01*
X164800000Y-104300000D01*
G75*
G02*
X164900000Y-104200000I100000J0D01*
G01*
G37*
G36*
G01*
X164900000Y-103600000D02*
X165200000Y-103600000D01*
G75*
G02*
X165300000Y-103700000I0J-100000D01*
G01*
X165300000Y-103900000D01*
G75*
G02*
X165200000Y-104000000I-100000J0D01*
G01*
X164900000Y-104000000D01*
G75*
G02*
X164800000Y-103900000I0J100000D01*
G01*
X164800000Y-103700000D01*
G75*
G02*
X164900000Y-103600000I100000J0D01*
G01*
G37*
%TD*%
%TO.C,C33*%
G36*
G01*
X160970000Y-105050000D02*
X160970000Y-105350000D01*
G75*
G02*
X160870000Y-105450000I-100000J0D01*
G01*
X160670000Y-105450000D01*
G75*
G02*
X160570000Y-105350000I0J100000D01*
G01*
X160570000Y-105050000D01*
G75*
G02*
X160670000Y-104950000I100000J0D01*
G01*
X160870000Y-104950000D01*
G75*
G02*
X160970000Y-105050000I0J-100000D01*
G01*
G37*
G36*
G01*
X161570000Y-105050000D02*
X161570000Y-105350000D01*
G75*
G02*
X161470000Y-105450000I-100000J0D01*
G01*
X161270000Y-105450000D01*
G75*
G02*
X161170000Y-105350000I0J100000D01*
G01*
X161170000Y-105050000D01*
G75*
G02*
X161270000Y-104950000I100000J0D01*
G01*
X161470000Y-104950000D01*
G75*
G02*
X161570000Y-105050000I0J-100000D01*
G01*
G37*
%TD*%
%TO.C,C32*%
G36*
G01*
X161010000Y-103550000D02*
X161010000Y-103850000D01*
G75*
G02*
X160910000Y-103950000I-100000J0D01*
G01*
X160710000Y-103950000D01*
G75*
G02*
X160610000Y-103850000I0J100000D01*
G01*
X160610000Y-103550000D01*
G75*
G02*
X160710000Y-103450000I100000J0D01*
G01*
X160910000Y-103450000D01*
G75*
G02*
X161010000Y-103550000I0J-100000D01*
G01*
G37*
G36*
G01*
X161610000Y-103550000D02*
X161610000Y-103850000D01*
G75*
G02*
X161510000Y-103950000I-100000J0D01*
G01*
X161310000Y-103950000D01*
G75*
G02*
X161210000Y-103850000I0J100000D01*
G01*
X161210000Y-103550000D01*
G75*
G02*
X161310000Y-103450000I100000J0D01*
G01*
X161510000Y-103450000D01*
G75*
G02*
X161610000Y-103550000I0J-100000D01*
G01*
G37*
%TD*%
%TO.C,C31*%
G36*
G01*
X164200000Y-104200000D02*
X164500000Y-104200000D01*
G75*
G02*
X164600000Y-104300000I0J-100000D01*
G01*
X164600000Y-104500000D01*
G75*
G02*
X164500000Y-104600000I-100000J0D01*
G01*
X164200000Y-104600000D01*
G75*
G02*
X164100000Y-104500000I0J100000D01*
G01*
X164100000Y-104300000D01*
G75*
G02*
X164200000Y-104200000I100000J0D01*
G01*
G37*
G36*
G01*
X164200000Y-103600000D02*
X164500000Y-103600000D01*
G75*
G02*
X164600000Y-103700000I0J-100000D01*
G01*
X164600000Y-103900000D01*
G75*
G02*
X164500000Y-104000000I-100000J0D01*
G01*
X164200000Y-104000000D01*
G75*
G02*
X164100000Y-103900000I0J100000D01*
G01*
X164100000Y-103700000D01*
G75*
G02*
X164200000Y-103600000I100000J0D01*
G01*
G37*
%TD*%
%TO.C,C29*%
G36*
G01*
X166350000Y-102490000D02*
X166350000Y-102790000D01*
G75*
G02*
X166250000Y-102890000I-100000J0D01*
G01*
X166050000Y-102890000D01*
G75*
G02*
X165950000Y-102790000I0J100000D01*
G01*
X165950000Y-102490000D01*
G75*
G02*
X166050000Y-102390000I100000J0D01*
G01*
X166250000Y-102390000D01*
G75*
G02*
X166350000Y-102490000I0J-100000D01*
G01*
G37*
G36*
G01*
X166950000Y-102490000D02*
X166950000Y-102790000D01*
G75*
G02*
X166850000Y-102890000I-100000J0D01*
G01*
X166650000Y-102890000D01*
G75*
G02*
X166550000Y-102790000I0J100000D01*
G01*
X166550000Y-102490000D01*
G75*
G02*
X166650000Y-102390000I100000J0D01*
G01*
X166850000Y-102390000D01*
G75*
G02*
X166950000Y-102490000I0J-100000D01*
G01*
G37*
%TD*%
%TO.C,C28*%
G36*
G01*
X167350000Y-102390000D02*
X167650000Y-102390000D01*
G75*
G02*
X167750000Y-102490000I0J-100000D01*
G01*
X167750000Y-102690000D01*
G75*
G02*
X167650000Y-102790000I-100000J0D01*
G01*
X167350000Y-102790000D01*
G75*
G02*
X167250000Y-102690000I0J100000D01*
G01*
X167250000Y-102490000D01*
G75*
G02*
X167350000Y-102390000I100000J0D01*
G01*
G37*
G36*
G01*
X167350000Y-101790000D02*
X167650000Y-101790000D01*
G75*
G02*
X167750000Y-101890000I0J-100000D01*
G01*
X167750000Y-102090000D01*
G75*
G02*
X167650000Y-102190000I-100000J0D01*
G01*
X167350000Y-102190000D01*
G75*
G02*
X167250000Y-102090000I0J100000D01*
G01*
X167250000Y-101890000D01*
G75*
G02*
X167350000Y-101790000I100000J0D01*
G01*
G37*
%TD*%
%TO.C,C26*%
G36*
G01*
X166550000Y-101380000D02*
X166550000Y-101080000D01*
G75*
G02*
X166650000Y-100980000I100000J0D01*
G01*
X166850000Y-100980000D01*
G75*
G02*
X166950000Y-101080000I0J-100000D01*
G01*
X166950000Y-101380000D01*
G75*
G02*
X166850000Y-101480000I-100000J0D01*
G01*
X166650000Y-101480000D01*
G75*
G02*
X166550000Y-101380000I0J100000D01*
G01*
G37*
G36*
G01*
X165950000Y-101380000D02*
X165950000Y-101080000D01*
G75*
G02*
X166050000Y-100980000I100000J0D01*
G01*
X166250000Y-100980000D01*
G75*
G02*
X166350000Y-101080000I0J-100000D01*
G01*
X166350000Y-101380000D01*
G75*
G02*
X166250000Y-101480000I-100000J0D01*
G01*
X166050000Y-101480000D01*
G75*
G02*
X165950000Y-101380000I0J100000D01*
G01*
G37*
%TD*%
%TO.C,C25*%
G36*
G01*
X157520000Y-100340000D02*
X157820000Y-100340000D01*
G75*
G02*
X157920000Y-100440000I0J-100000D01*
G01*
X157920000Y-100640000D01*
G75*
G02*
X157820000Y-100740000I-100000J0D01*
G01*
X157520000Y-100740000D01*
G75*
G02*
X157420000Y-100640000I0J100000D01*
G01*
X157420000Y-100440000D01*
G75*
G02*
X157520000Y-100340000I100000J0D01*
G01*
G37*
G36*
G01*
X157520000Y-99740000D02*
X157820000Y-99740000D01*
G75*
G02*
X157920000Y-99840000I0J-100000D01*
G01*
X157920000Y-100040000D01*
G75*
G02*
X157820000Y-100140000I-100000J0D01*
G01*
X157520000Y-100140000D01*
G75*
G02*
X157420000Y-100040000I0J100000D01*
G01*
X157420000Y-99840000D01*
G75*
G02*
X157520000Y-99740000I100000J0D01*
G01*
G37*
%TD*%
%TO.C,C24*%
G36*
G01*
X166550000Y-100680000D02*
X166550000Y-100380000D01*
G75*
G02*
X166650000Y-100280000I100000J0D01*
G01*
X166850000Y-100280000D01*
G75*
G02*
X166950000Y-100380000I0J-100000D01*
G01*
X166950000Y-100680000D01*
G75*
G02*
X166850000Y-100780000I-100000J0D01*
G01*
X166650000Y-100780000D01*
G75*
G02*
X166550000Y-100680000I0J100000D01*
G01*
G37*
G36*
G01*
X165950000Y-100680000D02*
X165950000Y-100380000D01*
G75*
G02*
X166050000Y-100280000I100000J0D01*
G01*
X166250000Y-100280000D01*
G75*
G02*
X166350000Y-100380000I0J-100000D01*
G01*
X166350000Y-100680000D01*
G75*
G02*
X166250000Y-100780000I-100000J0D01*
G01*
X166050000Y-100780000D01*
G75*
G02*
X165950000Y-100680000I0J100000D01*
G01*
G37*
%TD*%
%TO.C,C23*%
G36*
G01*
X166950000Y-99380000D02*
X166650000Y-99380000D01*
G75*
G02*
X166550000Y-99280000I0J100000D01*
G01*
X166550000Y-99080000D01*
G75*
G02*
X166650000Y-98980000I100000J0D01*
G01*
X166950000Y-98980000D01*
G75*
G02*
X167050000Y-99080000I0J-100000D01*
G01*
X167050000Y-99280000D01*
G75*
G02*
X166950000Y-99380000I-100000J0D01*
G01*
G37*
G36*
G01*
X166950000Y-99980000D02*
X166650000Y-99980000D01*
G75*
G02*
X166550000Y-99880000I0J100000D01*
G01*
X166550000Y-99680000D01*
G75*
G02*
X166650000Y-99580000I100000J0D01*
G01*
X166950000Y-99580000D01*
G75*
G02*
X167050000Y-99680000I0J-100000D01*
G01*
X167050000Y-99880000D01*
G75*
G02*
X166950000Y-99980000I-100000J0D01*
G01*
G37*
%TD*%
%TO.C,C22*%
G36*
G01*
X157550000Y-98460000D02*
X157850000Y-98460000D01*
G75*
G02*
X157950000Y-98560000I0J-100000D01*
G01*
X157950000Y-98760000D01*
G75*
G02*
X157850000Y-98860000I-100000J0D01*
G01*
X157550000Y-98860000D01*
G75*
G02*
X157450000Y-98760000I0J100000D01*
G01*
X157450000Y-98560000D01*
G75*
G02*
X157550000Y-98460000I100000J0D01*
G01*
G37*
G36*
G01*
X157550000Y-97860000D02*
X157850000Y-97860000D01*
G75*
G02*
X157950000Y-97960000I0J-100000D01*
G01*
X157950000Y-98160000D01*
G75*
G02*
X157850000Y-98260000I-100000J0D01*
G01*
X157550000Y-98260000D01*
G75*
G02*
X157450000Y-98160000I0J100000D01*
G01*
X157450000Y-97960000D01*
G75*
G02*
X157550000Y-97860000I100000J0D01*
G01*
G37*
%TD*%
%TO.C,C21*%
G36*
G01*
X166950000Y-97980000D02*
X166650000Y-97980000D01*
G75*
G02*
X166550000Y-97880000I0J100000D01*
G01*
X166550000Y-97680000D01*
G75*
G02*
X166650000Y-97580000I100000J0D01*
G01*
X166950000Y-97580000D01*
G75*
G02*
X167050000Y-97680000I0J-100000D01*
G01*
X167050000Y-97880000D01*
G75*
G02*
X166950000Y-97980000I-100000J0D01*
G01*
G37*
G36*
G01*
X166950000Y-98580000D02*
X166650000Y-98580000D01*
G75*
G02*
X166550000Y-98480000I0J100000D01*
G01*
X166550000Y-98280000D01*
G75*
G02*
X166650000Y-98180000I100000J0D01*
G01*
X166950000Y-98180000D01*
G75*
G02*
X167050000Y-98280000I0J-100000D01*
G01*
X167050000Y-98480000D01*
G75*
G02*
X166950000Y-98580000I-100000J0D01*
G01*
G37*
%TD*%
%TO.C,C20*%
G36*
G01*
X165950000Y-98180000D02*
X166250000Y-98180000D01*
G75*
G02*
X166350000Y-98280000I0J-100000D01*
G01*
X166350000Y-98480000D01*
G75*
G02*
X166250000Y-98580000I-100000J0D01*
G01*
X165950000Y-98580000D01*
G75*
G02*
X165850000Y-98480000I0J100000D01*
G01*
X165850000Y-98280000D01*
G75*
G02*
X165950000Y-98180000I100000J0D01*
G01*
G37*
G36*
G01*
X165950000Y-97580000D02*
X166250000Y-97580000D01*
G75*
G02*
X166350000Y-97680000I0J-100000D01*
G01*
X166350000Y-97880000D01*
G75*
G02*
X166250000Y-97980000I-100000J0D01*
G01*
X165950000Y-97980000D01*
G75*
G02*
X165850000Y-97880000I0J100000D01*
G01*
X165850000Y-97680000D01*
G75*
G02*
X165950000Y-97580000I100000J0D01*
G01*
G37*
%TD*%
%TO.C,C19*%
G36*
G01*
X167750000Y-97590000D02*
X167750000Y-97890000D01*
G75*
G02*
X167650000Y-97990000I-100000J0D01*
G01*
X167450000Y-97990000D01*
G75*
G02*
X167350000Y-97890000I0J100000D01*
G01*
X167350000Y-97590000D01*
G75*
G02*
X167450000Y-97490000I100000J0D01*
G01*
X167650000Y-97490000D01*
G75*
G02*
X167750000Y-97590000I0J-100000D01*
G01*
G37*
G36*
G01*
X168350000Y-97590000D02*
X168350000Y-97890000D01*
G75*
G02*
X168250000Y-97990000I-100000J0D01*
G01*
X168050000Y-97990000D01*
G75*
G02*
X167950000Y-97890000I0J100000D01*
G01*
X167950000Y-97590000D01*
G75*
G02*
X168050000Y-97490000I100000J0D01*
G01*
X168250000Y-97490000D01*
G75*
G02*
X168350000Y-97590000I0J-100000D01*
G01*
G37*
%TD*%
%TO.C,C18*%
G36*
G01*
X166550000Y-97180000D02*
X166550000Y-96880000D01*
G75*
G02*
X166650000Y-96780000I100000J0D01*
G01*
X166850000Y-96780000D01*
G75*
G02*
X166950000Y-96880000I0J-100000D01*
G01*
X166950000Y-97180000D01*
G75*
G02*
X166850000Y-97280000I-100000J0D01*
G01*
X166650000Y-97280000D01*
G75*
G02*
X166550000Y-97180000I0J100000D01*
G01*
G37*
G36*
G01*
X165950000Y-97180000D02*
X165950000Y-96880000D01*
G75*
G02*
X166050000Y-96780000I100000J0D01*
G01*
X166250000Y-96780000D01*
G75*
G02*
X166350000Y-96880000I0J-100000D01*
G01*
X166350000Y-97180000D01*
G75*
G02*
X166250000Y-97280000I-100000J0D01*
G01*
X166050000Y-97280000D01*
G75*
G02*
X165950000Y-97180000I0J100000D01*
G01*
G37*
%TD*%
%TO.C,C17*%
G36*
G01*
X166350000Y-94710000D02*
X166350000Y-95010000D01*
G75*
G02*
X166250000Y-95110000I-100000J0D01*
G01*
X166050000Y-95110000D01*
G75*
G02*
X165950000Y-95010000I0J100000D01*
G01*
X165950000Y-94710000D01*
G75*
G02*
X166050000Y-94610000I100000J0D01*
G01*
X166250000Y-94610000D01*
G75*
G02*
X166350000Y-94710000I0J-100000D01*
G01*
G37*
G36*
G01*
X166950000Y-94710000D02*
X166950000Y-95010000D01*
G75*
G02*
X166850000Y-95110000I-100000J0D01*
G01*
X166650000Y-95110000D01*
G75*
G02*
X166550000Y-95010000I0J100000D01*
G01*
X166550000Y-94710000D01*
G75*
G02*
X166650000Y-94610000I100000J0D01*
G01*
X166850000Y-94610000D01*
G75*
G02*
X166950000Y-94710000I0J-100000D01*
G01*
G37*
%TD*%
%TO.C,C16*%
G36*
G01*
X157590000Y-95030000D02*
X157590000Y-95330000D01*
G75*
G02*
X157490000Y-95430000I-100000J0D01*
G01*
X157290000Y-95430000D01*
G75*
G02*
X157190000Y-95330000I0J100000D01*
G01*
X157190000Y-95030000D01*
G75*
G02*
X157290000Y-94930000I100000J0D01*
G01*
X157490000Y-94930000D01*
G75*
G02*
X157590000Y-95030000I0J-100000D01*
G01*
G37*
G36*
G01*
X158190000Y-95030000D02*
X158190000Y-95330000D01*
G75*
G02*
X158090000Y-95430000I-100000J0D01*
G01*
X157890000Y-95430000D01*
G75*
G02*
X157790000Y-95330000I0J100000D01*
G01*
X157790000Y-95030000D01*
G75*
G02*
X157890000Y-94930000I100000J0D01*
G01*
X158090000Y-94930000D01*
G75*
G02*
X158190000Y-95030000I0J-100000D01*
G01*
G37*
%TD*%
%TO.C,C15*%
G36*
G01*
X162100000Y-94205000D02*
X161800000Y-94205000D01*
G75*
G02*
X161700000Y-94105000I0J100000D01*
G01*
X161700000Y-93905000D01*
G75*
G02*
X161800000Y-93805000I100000J0D01*
G01*
X162100000Y-93805000D01*
G75*
G02*
X162200000Y-93905000I0J-100000D01*
G01*
X162200000Y-94105000D01*
G75*
G02*
X162100000Y-94205000I-100000J0D01*
G01*
G37*
G36*
G01*
X162100000Y-94805000D02*
X161800000Y-94805000D01*
G75*
G02*
X161700000Y-94705000I0J100000D01*
G01*
X161700000Y-94505000D01*
G75*
G02*
X161800000Y-94405000I100000J0D01*
G01*
X162100000Y-94405000D01*
G75*
G02*
X162200000Y-94505000I0J-100000D01*
G01*
X162200000Y-94705000D01*
G75*
G02*
X162100000Y-94805000I-100000J0D01*
G01*
G37*
%TD*%
%TO.C,C12*%
G36*
G01*
X162980000Y-95240000D02*
X162980000Y-95540000D01*
G75*
G02*
X162880000Y-95640000I-100000J0D01*
G01*
X162680000Y-95640000D01*
G75*
G02*
X162580000Y-95540000I0J100000D01*
G01*
X162580000Y-95240000D01*
G75*
G02*
X162680000Y-95140000I100000J0D01*
G01*
X162880000Y-95140000D01*
G75*
G02*
X162980000Y-95240000I0J-100000D01*
G01*
G37*
G36*
G01*
X163580000Y-95240000D02*
X163580000Y-95540000D01*
G75*
G02*
X163480000Y-95640000I-100000J0D01*
G01*
X163280000Y-95640000D01*
G75*
G02*
X163180000Y-95540000I0J100000D01*
G01*
X163180000Y-95240000D01*
G75*
G02*
X163280000Y-95140000I100000J0D01*
G01*
X163480000Y-95140000D01*
G75*
G02*
X163580000Y-95240000I0J-100000D01*
G01*
G37*
%TD*%
%TO.C,C10*%
G36*
G01*
X164380000Y-95240000D02*
X164380000Y-95540000D01*
G75*
G02*
X164280000Y-95640000I-100000J0D01*
G01*
X164080000Y-95640000D01*
G75*
G02*
X163980000Y-95540000I0J100000D01*
G01*
X163980000Y-95240000D01*
G75*
G02*
X164080000Y-95140000I100000J0D01*
G01*
X164280000Y-95140000D01*
G75*
G02*
X164380000Y-95240000I0J-100000D01*
G01*
G37*
G36*
G01*
X164980000Y-95240000D02*
X164980000Y-95540000D01*
G75*
G02*
X164880000Y-95640000I-100000J0D01*
G01*
X164680000Y-95640000D01*
G75*
G02*
X164580000Y-95540000I0J100000D01*
G01*
X164580000Y-95240000D01*
G75*
G02*
X164680000Y-95140000I100000J0D01*
G01*
X164880000Y-95140000D01*
G75*
G02*
X164980000Y-95240000I0J-100000D01*
G01*
G37*
%TD*%
%TO.C,C5*%
G36*
G01*
X151670000Y-95250000D02*
X151970000Y-95250000D01*
G75*
G02*
X152070000Y-95350000I0J-100000D01*
G01*
X152070000Y-95550000D01*
G75*
G02*
X151970000Y-95650000I-100000J0D01*
G01*
X151670000Y-95650000D01*
G75*
G02*
X151570000Y-95550000I0J100000D01*
G01*
X151570000Y-95350000D01*
G75*
G02*
X151670000Y-95250000I100000J0D01*
G01*
G37*
G36*
G01*
X151670000Y-94650000D02*
X151970000Y-94650000D01*
G75*
G02*
X152070000Y-94750000I0J-100000D01*
G01*
X152070000Y-94950000D01*
G75*
G02*
X151970000Y-95050000I-100000J0D01*
G01*
X151670000Y-95050000D01*
G75*
G02*
X151570000Y-94950000I0J100000D01*
G01*
X151570000Y-94750000D01*
G75*
G02*
X151670000Y-94650000I100000J0D01*
G01*
G37*
%TD*%
D14*
%TO.C,U1*%
X164725000Y-97350000D03*
X164725000Y-97875000D03*
D15*
X164050000Y-102525000D03*
X163550000Y-102525000D03*
D14*
X158875000Y-101850000D03*
X158875000Y-101350000D03*
D15*
X159550000Y-96675000D03*
X160050000Y-96675000D03*
D14*
X164725000Y-98350000D03*
X164725000Y-98850000D03*
X164725000Y-99350000D03*
X164725000Y-99850000D03*
X164725000Y-100350000D03*
X164725000Y-100850000D03*
X164725000Y-101350000D03*
X164725000Y-101850000D03*
D15*
X163050000Y-102525000D03*
X162550000Y-102525000D03*
X162050000Y-102525000D03*
X161550000Y-102525000D03*
X161050000Y-102525000D03*
X160550000Y-102525000D03*
X160050000Y-102525000D03*
X159550000Y-102525000D03*
D14*
X158875000Y-100850000D03*
X158875000Y-100350000D03*
X158875000Y-99850000D03*
X158875000Y-99350000D03*
X158875000Y-98850000D03*
X158875000Y-98350000D03*
X158875000Y-97850000D03*
X158875000Y-97350000D03*
D15*
X160550000Y-96675000D03*
X161050000Y-96675000D03*
X161550000Y-96675000D03*
X162050000Y-96675000D03*
X162550000Y-96675000D03*
X163050000Y-96675000D03*
X163550000Y-96675000D03*
X164050000Y-96675000D03*
D16*
X161800000Y-99600000D03*
%TD*%
D17*
%TO.C,U2*%
X152790000Y-100665000D03*
D18*
X154315000Y-99190000D03*
D17*
X152790000Y-97715000D03*
%TD*%
D19*
%TO.C,U5*%
X160575000Y-95175000D03*
X159250000Y-95175000D03*
X159250000Y-94125000D03*
X160575000Y-94125000D03*
%TD*%
%TO.C,C13*%
G36*
G01*
X164162500Y-94581250D02*
X164162500Y-94018750D01*
G75*
G02*
X164406250Y-93775000I243750J0D01*
G01*
X164893750Y-93775000D01*
G75*
G02*
X165137500Y-94018750I0J-243750D01*
G01*
X165137500Y-94581250D01*
G75*
G02*
X164893750Y-94825000I-243750J0D01*
G01*
X164406250Y-94825000D01*
G75*
G02*
X164162500Y-94581250I0J243750D01*
G01*
G37*
G36*
G01*
X162587500Y-94581250D02*
X162587500Y-94018750D01*
G75*
G02*
X162831250Y-93775000I243750J0D01*
G01*
X163318750Y-93775000D01*
G75*
G02*
X163562500Y-94018750I0J-243750D01*
G01*
X163562500Y-94581250D01*
G75*
G02*
X163318750Y-94825000I-243750J0D01*
G01*
X162831250Y-94825000D01*
G75*
G02*
X162587500Y-94581250I0J243750D01*
G01*
G37*
%TD*%
%TO.C,C11*%
G36*
G01*
X166930000Y-95658750D02*
X166930000Y-96221250D01*
G75*
G02*
X166686250Y-96465000I-243750J0D01*
G01*
X166198750Y-96465000D01*
G75*
G02*
X165955000Y-96221250I0J243750D01*
G01*
X165955000Y-95658750D01*
G75*
G02*
X166198750Y-95415000I243750J0D01*
G01*
X166686250Y-95415000D01*
G75*
G02*
X166930000Y-95658750I0J-243750D01*
G01*
G37*
G36*
G01*
X168505000Y-95658750D02*
X168505000Y-96221250D01*
G75*
G02*
X168261250Y-96465000I-243750J0D01*
G01*
X167773750Y-96465000D01*
G75*
G02*
X167530000Y-96221250I0J243750D01*
G01*
X167530000Y-95658750D01*
G75*
G02*
X167773750Y-95415000I243750J0D01*
G01*
X168261250Y-95415000D01*
G75*
G02*
X168505000Y-95658750I0J-243750D01*
G01*
G37*
%TD*%
D20*
%TO.C,U6*%
X152850000Y-95090000D03*
X152850000Y-95490000D03*
X153250000Y-95090000D03*
X153250000Y-95490000D03*
X153650000Y-95490000D03*
X153650000Y-95090000D03*
%TD*%
D21*
%TO.C,U4*%
X162875000Y-105937500D03*
X162875000Y-105262500D03*
D22*
X162237500Y-105887500D03*
X162237500Y-105312500D03*
X163462500Y-105600000D03*
%TD*%
%TO.C,U3*%
G36*
G01*
X157833201Y-105960000D02*
X156546799Y-105960000D01*
G75*
G02*
X156490000Y-105903201I0J56799D01*
G01*
X156490000Y-105216799D01*
G75*
G02*
X156546799Y-105160000I56799J0D01*
G01*
X157833201Y-105160000D01*
G75*
G02*
X157890000Y-105216799I0J-56799D01*
G01*
X157890000Y-105903201D01*
G75*
G02*
X157833201Y-105960000I-56799J0D01*
G01*
G37*
G36*
G01*
X156795000Y-105060000D02*
X156585000Y-105060000D01*
G75*
G02*
X156515000Y-104990000I0J70000D01*
G01*
X156515000Y-104680000D01*
G75*
G02*
X156585000Y-104610000I70000J0D01*
G01*
X156795000Y-104610000D01*
G75*
G02*
X156865000Y-104680000I0J-70000D01*
G01*
X156865000Y-104990000D01*
G75*
G02*
X156795000Y-105060000I-70000J0D01*
G01*
G37*
G36*
G01*
X157295000Y-105060000D02*
X157085000Y-105060000D01*
G75*
G02*
X157015000Y-104990000I0J70000D01*
G01*
X157015000Y-104680000D01*
G75*
G02*
X157085000Y-104610000I70000J0D01*
G01*
X157295000Y-104610000D01*
G75*
G02*
X157365000Y-104680000I0J-70000D01*
G01*
X157365000Y-104990000D01*
G75*
G02*
X157295000Y-105060000I-70000J0D01*
G01*
G37*
G36*
G01*
X157820000Y-105060000D02*
X157610000Y-105060000D01*
G75*
G02*
X157540000Y-104990000I0J70000D01*
G01*
X157540000Y-104680000D01*
G75*
G02*
X157610000Y-104610000I70000J0D01*
G01*
X157820000Y-104610000D01*
G75*
G02*
X157890000Y-104680000I0J-70000D01*
G01*
X157890000Y-104990000D01*
G75*
G02*
X157820000Y-105060000I-70000J0D01*
G01*
G37*
G36*
G01*
X157795000Y-106510000D02*
X157585000Y-106510000D01*
G75*
G02*
X157515000Y-106440000I0J70000D01*
G01*
X157515000Y-106130000D01*
G75*
G02*
X157585000Y-106060000I70000J0D01*
G01*
X157795000Y-106060000D01*
G75*
G02*
X157865000Y-106130000I0J-70000D01*
G01*
X157865000Y-106440000D01*
G75*
G02*
X157795000Y-106510000I-70000J0D01*
G01*
G37*
G36*
G01*
X157295000Y-106510000D02*
X157085000Y-106510000D01*
G75*
G02*
X157015000Y-106440000I0J70000D01*
G01*
X157015000Y-106130000D01*
G75*
G02*
X157085000Y-106060000I70000J0D01*
G01*
X157295000Y-106060000D01*
G75*
G02*
X157365000Y-106130000I0J-70000D01*
G01*
X157365000Y-106440000D01*
G75*
G02*
X157295000Y-106510000I-70000J0D01*
G01*
G37*
G36*
G01*
X156795000Y-106510000D02*
X156585000Y-106510000D01*
G75*
G02*
X156515000Y-106440000I0J70000D01*
G01*
X156515000Y-106130000D01*
G75*
G02*
X156585000Y-106060000I70000J0D01*
G01*
X156795000Y-106060000D01*
G75*
G02*
X156865000Y-106130000I0J-70000D01*
G01*
X156865000Y-106440000D01*
G75*
G02*
X156795000Y-106510000I-70000J0D01*
G01*
G37*
%TD*%
D23*
%TO.C,J19*%
X154530000Y-92000000D03*
%TD*%
%TO.C,J17*%
X170000000Y-103500000D03*
%TD*%
%TO.C,J16*%
X170000000Y-102000000D03*
%TD*%
%TO.C,J14*%
X165500000Y-108000000D03*
%TD*%
%TO.C,J13*%
X164000000Y-108000000D03*
%TD*%
%TO.C,J12*%
X153030000Y-92000000D03*
%TD*%
%TO.C,J11*%
X151530000Y-92000000D03*
%TD*%
%TO.C,J10*%
X170000000Y-96000000D03*
%TD*%
%TO.C,J9*%
X166000000Y-92000000D03*
%TD*%
%TO.C,J8*%
X164500000Y-92000000D03*
%TD*%
%TO.C,J7*%
X163000000Y-92000000D03*
%TD*%
%TO.C,J6*%
X170000000Y-97500000D03*
%TD*%
%TO.C,J5*%
X170000000Y-99000000D03*
%TD*%
%TO.C,J4*%
X170000000Y-100500000D03*
%TD*%
%TO.C,J2*%
X160000000Y-92000000D03*
%TD*%
%TO.C,J1*%
X154500000Y-108000000D03*
%TD*%
M02*
